<?xml version="1.0" encoding="utf-8" standalone="no"?>
<!DOCTYPE svg PUBLIC "-//W3C//DTD SVG 1.1//EN"
  "http://www.w3.org/Graphics/SVG/1.1/DTD/svg11.dtd">
<svg xmlns:xlink="http://www.w3.org/1999/xlink" width="1072.8pt" height="760.3pt" viewBox="0 0 1072.8 760.3" xmlns="http://www.w3.org/2000/svg" version="1.1">
 <metadata>
  <rdf:RDF xmlns:dc="http://purl.org/dc/elements/1.1/" xmlns:cc="http://creativecommons.org/ns#" xmlns:rdf="http://www.w3.org/1999/02/22-rdf-syntax-ns#">
   <cc:Work>
    <dc:type rdf:resource="http://purl.org/dc/dcmitype/StillImage"/>
    <dc:date>2026-04-30T12:50:41.390034</dc:date>
    <dc:format>image/svg+xml</dc:format>
    <dc:creator>
     <cc:Agent>
      <dc:title>Matplotlib v3.10.6, https://matplotlib.org/</dc:title>
     </cc:Agent>
    </dc:creator>
   </cc:Work>
  </rdf:RDF>
 </metadata>
 <defs>
  <style type="text/css">*{stroke-linejoin: round; stroke-linecap: butt}</style>
 </defs>
 <g id="figure_1">
  <g id="patch_1">
   <path d="M 0 760.3 
L 1072.8 760.3 
L 1072.8 0 
L 0 0 
z
" style="fill: #ffffff"/>
  </g>
  <g id="axes_1">
   <g id="patch_2">
    <path d="M 7.2 393.9 
L 350 393.9 
L 350 69.415 
L 7.2 69.415 
z
" style="fill: #ffffff"/>
   </g>
   <g id="patch_3">
    <path d="M 41.531782 334.542061 
L 41.533455 335.093208 
L 41.538508 335.570893 
L 41.546931 336.047049 
L 41.558708 336.522092 
L 41.573831 336.996009 
L 41.592287 337.468701 
L 41.614065 337.940047 
L 41.639151 338.40992 
L 41.667531 338.878175 
L 41.699189 339.344678 
L 41.734113 339.809305 
L 41.772283 340.271919 
L 41.813684 340.73238 
L 41.858296 341.190563 
L 41.906102 341.646341 
L 41.957078 342.099572 
L 42.011203 342.550128 
L 42.068462 342.997894 
L 42.128828 343.442739 
L 42.192279 343.884539 
L 42.258791 344.323171 
L 42.328341 344.758514 
L 42.400903 345.190449 
L 42.476454 345.618862 
L 42.55496 346.043623 
L 42.636403 346.46463 
L 42.720752 346.881764 
L 42.80798 347.294913 
L 42.898057 347.703967 
L 42.990954 348.108816 
L 43.086643 348.509352 
L 43.185091 348.905467 
L 43.286271 349.297059 
L 43.390151 349.684021 
L 43.496696 350.066252 
L 43.605873 350.443654 
L 43.717657 350.81612 
L 43.832007 351.183559 
L 43.94889 351.545876 
L 44.068276 351.902968 
L 44.19013 352.254745 
L 44.314414 352.601113 
L 44.441095 352.941981 
L 44.570136 353.27726 
L 44.701501 353.60686 
L 44.835153 353.930694 
L 44.971055 354.248675 
L 45.109169 354.560719 
L 45.249458 354.866744 
L 45.391882 355.166666 
L 45.536406 355.460396 
L 45.682983 355.747877 
L 45.831579 356.029014 
L 45.982153 356.30373 
L 46.134664 356.571952 
L 46.289072 356.833605 
L 46.445333 357.088616 
L 46.603408 357.336914 
L 46.763253 357.578427 
L 46.924825 357.813087 
L 47.088082 358.040826 
L 47.25298 358.261577 
L 47.419475 358.475274 
L 47.587522 358.681855 
L 47.757076 358.881255 
L 47.928092 359.073415 
L 48.100525 359.258275 
L 48.274327 359.435776 
L 48.449453 359.605861 
L 48.625854 359.768475 
L 48.803484 359.923565 
L 48.982294 360.071078 
L 49.162236 360.210963 
L 49.343261 360.343171 
L 49.525318 360.467654 
L 49.708359 360.584367 
L 49.892334 360.693265 
L 50.07719 360.794307 
L 50.262878 360.88745 
L 50.449345 360.972655 
L 50.636541 361.049886 
L 50.824413 361.119104 
L 51.012907 361.180291 
L 51.201973 361.233395 
L 51.391558 361.278397 
L 51.581613 361.315267 
L 51.772092 361.34398 
L 51.96296 361.364512 
L 52.15424 361.376839 
L 52.347632 361.380926 
L 62.920894 361.298259 
L 167.118622 354.194701 
L 227.66081 348.130737 
L 227.85609 348.101361 
L 228.049506 348.063852 
L 228.242821 348.017971 
L 228.436072 347.963693 
L 228.629223 347.901003 
L 228.822224 347.829893 
L 229.015016 347.750351 
L 229.207539 347.662378 
L 229.399732 347.565971 
L 229.591531 347.461135 
L 229.782872 347.347875 
L 229.97369 347.226201 
L 230.163922 347.096128 
L 230.353501 346.957671 
L 230.542361 346.810851 
L 230.730438 346.655693 
L 230.917663 346.492224 
L 231.103971 346.320477 
L 231.289294 346.140485 
L 231.473567 345.95229 
L 231.656722 345.755934 
L 231.838692 345.551465 
L 232.019411 345.338933 
L 232.198811 345.118395 
L 232.376826 344.889909 
L 232.553391 344.65354 
L 232.728438 344.409353 
L 232.901902 344.157421 
L 233.073717 343.89782 
L 233.24382 343.630628 
L 233.412145 343.355929 
L 233.578628 343.073811 
L 233.743207 342.784365 
L 233.905819 342.487687 
L 234.066402 342.183875 
L 234.224894 341.873033 
L 234.381235 341.55526 
L 234.53537 341.230688 
L 234.687236 340.89941 
L 234.836777 340.561549 
L 234.983936 340.217228 
L 235.12866 339.86657 
L 235.270893 339.509702 
L 235.410582 339.146756 
L 235.547677 338.777865 
L 235.682128 338.403166 
L 235.813885 338.022798 
L 235.942901 337.636905 
L 236.06913 337.24563 
L 236.192528 336.849122 
L 236.31305 336.447528 
L 236.430656 336.041001 
L 236.545305 335.629695 
L 236.65696 335.213765 
L 236.765582 334.793368 
L 236.871136 334.368665 
L 236.97359 333.939814 
L 237.07291 333.506978 
L 237.169066 333.07032 
L 237.26203 332.630004 
L 237.351773 332.186196 
L 237.438272 331.739058 
L 237.521501 331.28876 
L 237.601438 330.835468 
L 237.678064 330.379348 
L 237.751355 329.920572 
L 237.821305 329.459295 
L 237.887886 328.995693 
L 237.951092 328.52994 
L 238.010906 328.062191 
L 238.067319 327.592617 
L 238.12032 327.121382 
L 238.169904 326.648653 
L 238.216062 326.174593 
L 238.258791 325.699365 
L 238.298086 325.223131 
L 238.333946 324.746052 
L 238.366371 324.268286 
L 238.39536 323.789991 
L 238.420916 323.31132 
L 238.443043 322.832424 
L 238.461745 322.353448 
L 238.477028 321.874522 
L 238.488898 321.395747 
L 238.497365 320.917111 
L 238.502435 320.437948 
L 238.643343 176.845057 
L 238.641659 176.324928 
L 238.636563 175.843736 
L 238.628086 175.364471 
L 238.616242 174.886739 
L 238.601047 174.410562 
L 238.58252 173.936041 
L 238.560679 173.463295 
L 238.535541 172.992453 
L 238.507128 172.523644 
L 238.475459 172.056998 
L 238.440556 171.592642 
L 238.402441 171.130704 
L 238.361137 170.67131 
L 238.316668 170.214582 
L 238.269056 169.760642 
L 238.218327 169.309611 
L 238.164507 168.861605 
L 238.10762 168.416739 
L 238.047693 167.975129 
L 237.984753 167.536884 
L 237.918827 167.102116 
L 237.849941 166.670931 
L 237.778126 166.243436 
L 237.703407 165.819735 
L 237.625815 165.399929 
L 237.545378 164.98412 
L 237.462125 164.572406 
L 237.376086 164.164884 
L 237.28729 163.761649 
L 237.195769 163.362795 
L 237.101551 162.968415 
L 237.004668 162.578599 
L 236.90515 162.193436 
L 236.803028 161.813014 
L 236.698334 161.437419 
L 236.591098 161.066737 
L 236.481353 160.701051 
L 236.369129 160.340444 
L 236.254458 159.984997 
L 236.137374 159.63479 
L 236.017907 159.289903 
L 235.896091 158.950413 
L 235.771957 158.616397 
L 235.645538 158.287932 
L 235.516868 157.965093 
L 235.385979 157.647953 
L 235.252904 157.336586 
L 235.117677 157.031065 
L 234.980332 156.731461 
L 234.840902 156.437845 
L 234.699422 156.150287 
L 234.555925 155.868856 
L 234.410446 155.59362 
L 234.26302 155.324648 
L 234.113683 155.062008 
L 233.962468 154.805766 
L 233.809413 154.555987 
L 233.654552 154.312737 
L 233.497923 154.076082 
L 233.33956 153.846084 
L 233.179502 153.622808 
L 233.017786 153.406317 
L 232.854449 153.196673 
L 232.689531 152.993944 
L 232.523067 152.798177 
L 232.355098 152.609441 
L 232.18566 152.427788 
L 232.014801 152.253297 
L 231.842551 152.086 
L 231.668958 151.925975 
L 231.494061 151.773271 
L 231.317901 151.627946 
L 231.140522 151.490053 
L 230.961966 151.359648 
L 230.782277 151.236784 
L 230.601498 151.121514 
L 230.419675 151.013889 
L 230.236852 150.91396 
L 230.053075 150.821776 
L 229.868391 150.737385 
L 229.682848 150.660834 
L 229.496491 150.592169 
L 229.30937 150.531436 
L 229.121533 150.478674 
L 228.933029 150.43393 
L 228.743905 150.397239 
L 228.554207 150.368643 
L 228.363975 150.348177 
L 228.173218 150.335879 
L 227.98127 150.331789 
L 218.388251 150.41234 
L 187.474993 152.668188 
L 52.313623 163.740195 
L 52.1227 163.768966 
L 51.931925 163.805971 
L 51.741281 163.851222 
L 51.550803 163.904723 
L 51.360536 163.966482 
L 51.170541 164.036483 
L 50.980864 164.114739 
L 50.791561 164.201245 
L 50.602696 164.295982 
L 50.414324 164.398946 
L 50.226505 164.510116 
L 50.039292 164.62949 
L 49.852747 164.757042 
L 49.666929 164.892752 
L 49.481896 165.036595 
L 49.297709 165.188545 
L 49.114427 165.348571 
L 48.932109 165.51664 
L 48.750815 165.692718 
L 48.570604 165.876764 
L 48.391536 166.068738 
L 48.213671 166.268595 
L 48.037069 166.476286 
L 47.861788 166.69176 
L 47.687887 166.914963 
L 47.515428 167.145838 
L 47.344467 167.384325 
L 47.175063 167.630359 
L 47.007276 167.883873 
L 46.841163 168.144799 
L 46.676782 168.413061 
L 46.514191 168.688584 
L 46.353445 168.971288 
L 46.194602 169.26109 
L 46.037718 169.557904 
L 45.882849 169.861641 
L 45.730048 170.172208 
L 45.57937 170.489511 
L 45.430869 170.81345 
L 45.284598 171.143924 
L 45.140608 171.480828 
L 44.998952 171.824056 
L 44.859679 172.173496 
L 44.72284 172.529037 
L 44.588483 172.89056 
L 44.456656 173.257947 
L 44.327406 173.631077 
L 44.200779 174.009825 
L 44.07682 174.394065 
L 43.955572 174.783667 
L 43.837079 175.178499 
L 43.721382 175.578428 
L 43.608522 175.983318 
L 43.498537 176.393029 
L 43.391466 176.807422 
L 43.28735 177.226352 
L 43.186214 177.649679 
L 43.088104 178.07725 
L 42.993043 178.508925 
L 42.90107 178.944549 
L 42.812214 179.383972 
L 42.726503 179.827042 
L 42.643964 180.273604 
L 42.564625 180.723505 
L 42.48851 181.176584 
L 42.415643 181.632692 
L 42.346045 182.091667 
L 42.279738 182.553347 
L 42.216742 183.017575 
L 42.157072 183.484193 
L 42.100748 183.953037 
L 42.047782 184.423947 
L 41.99819 184.896764 
L 41.951983 185.371324 
L 41.909173 185.847468 
L 41.869768 186.325034 
L 41.833776 186.803862 
L 41.801205 187.283792 
L 41.77206 187.764665 
L 41.746344 188.246324 
L 41.724061 188.728616 
L 41.705211 189.211392 
L 41.689794 189.694517 
L 41.67781 190.177885 
L 41.669255 190.661516 
L 41.664128 191.146179 
z
" clip-path="url(#p468e76e039)" style="fill: #1f77b4; opacity: 0.35; stroke: #00008b; stroke-width: 1.5; stroke-linejoin: miter"/>
   </g>
   <g id="patch_4">
    <path d="M 43.662628 343.975879 
L 49.654072 358.690085 
L 232.619294 345.100722 
L 238.429222 330.882494 
L 238.610802 164.022331 
L 233.342901 151.076387 
L 50.295147 164.65459 
L 44.017735 179.951366 
z
" clip-path="url(#p468e76e039)" style="fill: #ff7f0e; opacity: 0.35; stroke: #ff8c00; stroke-width: 1.5; stroke-linejoin: miter"/>
   </g>
   <g id="patch_5">
    <path d="M 45.204857 343.03786 
L 50.412953 355.828817 
L 230.397696 341.647509 
L 236.012343 327.764051 
L 235.984432 164.49643 
L 232.318897 155.489259 
L 51.251139 168.037594 
L 45.711789 181.425911 
z
" clip-path="url(#p468e76e039)" style="fill: #d62728; opacity: 0.35; stroke: #8b0000; stroke-width: 1.5; stroke-linejoin: miter"/>
   </g>
   <g id="matplotlib.axis_1"/>
   <g id="matplotlib.axis_2"/>
   <g id="text_1">
    <!-- (a) $\Delta\theta=0$ -->
    <g transform="translate(152.34 66.555) scale(0.13 -0.13)">
     <defs>
      <path id="TimesNewRomanPSMT-28" d="M 1988 -1253 
L 1988 -1369 
Q 1516 -1131 1200 -813 
Q 750 -359 506 256 
Q 263 872 263 1534 
Q 263 2503 741 3301 
Q 1219 4100 1988 4444 
L 1988 4313 
Q 1603 4100 1356 3731 
Q 1109 3363 987 2797 
Q 866 2231 866 1616 
Q 866 947 969 400 
Q 1050 -31 1165 -292 
Q 1281 -553 1476 -793 
Q 1672 -1034 1988 -1253 
z
" transform="scale(0.015625)"/>
      <path id="TimesNewRomanPSMT-61" d="M 1822 413 
Q 1381 72 1269 19 
Q 1100 -59 909 -59 
Q 613 -59 420 144 
Q 228 347 228 678 
Q 228 888 322 1041 
Q 450 1253 767 1440 
Q 1084 1628 1822 1897 
L 1822 2009 
Q 1822 2438 1686 2597 
Q 1550 2756 1291 2756 
Q 1094 2756 978 2650 
Q 859 2544 859 2406 
L 866 2225 
Q 866 2081 792 2003 
Q 719 1925 600 1925 
Q 484 1925 411 2006 
Q 338 2088 338 2228 
Q 338 2497 613 2722 
Q 888 2947 1384 2947 
Q 1766 2947 2009 2819 
Q 2194 2722 2281 2516 
Q 2338 2381 2338 1966 
L 2338 994 
Q 2338 584 2353 492 
Q 2369 400 2405 369 
Q 2441 338 2488 338 
Q 2538 338 2575 359 
Q 2641 400 2828 588 
L 2828 413 
Q 2478 -56 2159 -56 
Q 2006 -56 1915 50 
Q 1825 156 1822 413 
z
M 1822 616 
L 1822 1706 
Q 1350 1519 1213 1441 
Q 966 1303 859 1153 
Q 753 1003 753 825 
Q 753 600 887 451 
Q 1022 303 1197 303 
Q 1434 303 1822 616 
z
" transform="scale(0.015625)"/>
      <path id="TimesNewRomanPSMT-29" d="M 144 4313 
L 144 4444 
Q 619 4209 934 3891 
Q 1381 3434 1625 2820 
Q 1869 2206 1869 1541 
Q 1869 572 1392 -226 
Q 916 -1025 144 -1369 
L 144 -1253 
Q 528 -1038 776 -670 
Q 1025 -303 1145 264 
Q 1266 831 1266 1447 
Q 1266 2113 1163 2663 
Q 1084 3094 967 3353 
Q 850 3613 656 3853 
Q 463 4094 144 4313 
z
" transform="scale(0.015625)"/>
      <path id="TimesNewRomanPSMT-20" transform="scale(0.015625)"/>
      <path id="STIXGeneral-Regular-394" d="M 4320 0 
L 307 0 
L 2221 4314 
L 2349 4314 
L 4320 0 
z
M 3354 589 
L 2118 3405 
L 870 589 
L 3354 589 
z
" transform="scale(0.015625)"/>
      <path id="STIXGeneral-Italic-3b8" d="M 3162 3270 
Q 3162 2534 2925 1862 
Q 2688 1190 2304 678 
Q 1741 -70 992 -70 
Q 608 -70 390 224 
Q 173 518 173 1030 
Q 173 1997 592 2813 
Q 1011 3629 1594 4070 
Q 1952 4339 2374 4339 
Q 2733 4339 2947 4076 
Q 3162 3814 3162 3270 
z
M 941 2221 
L 2432 2221 
Q 2624 2874 2624 3533 
Q 2624 4205 2285 4205 
Q 2029 4205 1728 3814 
Q 1427 3424 1232 2992 
Q 1037 2560 941 2221 
z
M 2387 2016 
L 896 2016 
Q 710 1530 710 960 
Q 710 64 1069 64 
Q 1286 64 1510 275 
Q 1734 486 1904 806 
Q 2074 1126 2198 1440 
Q 2323 1754 2387 2016 
z
" transform="scale(0.015625)"/>
      <path id="STIXGeneral-Regular-3d" d="M 4077 2048 
L 307 2048 
L 307 2470 
L 4077 2470 
L 4077 2048 
z
M 4077 768 
L 307 768 
L 307 1190 
L 4077 1190 
L 4077 768 
z
" transform="scale(0.015625)"/>
      <path id="STIXGeneral-Regular-30" d="M 3046 2112 
Q 3046 1683 2963 1302 
Q 2880 922 2717 602 
Q 2554 282 2266 96 
Q 1978 -90 1600 -90 
Q 1210 -90 915 108 
Q 621 307 461 640 
Q 301 973 227 1350 
Q 154 1728 154 2150 
Q 154 2746 301 3222 
Q 448 3699 790 4012 
Q 1133 4326 1626 4326 
Q 2253 4326 2649 3712 
Q 3046 3098 3046 2112 
z
M 2432 2080 
Q 2432 3091 2217 3625 
Q 2003 4160 1587 4160 
Q 1190 4160 979 3622 
Q 768 3085 768 2106 
Q 768 1120 979 598 
Q 1190 77 1600 77 
Q 2003 77 2217 598 
Q 2432 1120 2432 2080 
z
" transform="scale(0.015625)"/>
     </defs>
     <use xlink:href="#TimesNewRomanPSMT-28" transform="translate(0 0.5625)"/>
     <use xlink:href="#TimesNewRomanPSMT-61" transform="translate(33.300781 0.5625)"/>
     <use xlink:href="#TimesNewRomanPSMT-29" transform="translate(77.685547 0.5625)"/>
     <use xlink:href="#TimesNewRomanPSMT-20" transform="translate(110.986328 0.5625)"/>
     <use xlink:href="#STIXGeneral-Regular-394" transform="translate(135.986328 0.5625)"/>
     <use xlink:href="#STIXGeneral-Italic-3b8" transform="translate(208.18631 0.5625)"/>
     <use xlink:href="#STIXGeneral-Regular-3d" transform="translate(270.626291 0.5625)"/>
     <use xlink:href="#STIXGeneral-Regular-30" transform="translate(353.566272 0.5625)"/>
    </g>
   </g>
  </g>
  <g id="axes_2">
   <g id="patch_6">
    <path d="M 365 393.9 
L 707.8 393.9 
L 707.8 69.415 
L 365 69.415 
z
" style="fill: #ffffff"/>
   </g>
   <g id="patch_7">
    <path d="M 409.328507 323.168472 
L 409.330282 323.744514 
L 409.335644 324.251077 
L 409.344575 324.756026 
L 409.35707 325.259789 
L 409.373101 325.762326 
L 409.392671 326.263546 
L 409.415761 326.763302 
L 409.442358 327.261467 
L 409.472445 327.757894 
L 409.506008 328.252441 
L 409.543029 328.744966 
L 409.583489 329.235326 
L 409.62737 329.723382 
L 409.674652 330.208993 
L 409.725315 330.692022 
L 409.779337 331.172331 
L 409.836696 331.649787 
L 409.897369 332.124256 
L 409.96133 332.595598 
L 410.028558 333.063694 
L 410.099026 333.528409 
L 410.172707 333.989617 
L 410.249577 334.447191 
L 410.329606 334.901008 
L 410.412768 335.350945 
L 410.499036 335.796882 
L 410.588372 336.238693 
L 410.680756 336.676267 
L 410.776155 337.109485 
L 410.874536 337.538233 
L 410.975869 337.962396 
L 411.080122 338.381865 
L 411.187265 338.796525 
L 411.297256 339.206272 
L 411.41007 339.610996 
L 411.52567 340.010591 
L 411.644022 340.404953 
L 411.765091 340.79398 
L 411.88884 341.17757 
L 412.015234 341.555622 
L 412.144237 341.928039 
L 412.275812 342.294723 
L 412.40992 342.655577 
L 412.546525 343.010509 
L 412.685588 343.359424 
L 412.82707 343.70223 
L 412.970933 344.038837 
L 413.117136 344.369157 
L 413.265643 344.693093 
L 413.416406 345.010577 
L 413.569387 345.321523 
L 413.724548 345.62583 
L 413.881845 345.923425 
L 414.041236 346.214227 
L 414.202678 346.498155 
L 414.366128 346.775133 
L 414.531543 347.045081 
L 414.698878 347.307926 
L 414.86809 347.563592 
L 415.039133 347.812007 
L 415.211962 348.053098 
L 415.386531 348.286794 
L 415.562795 348.513032 
L 415.740706 348.731738 
L 415.920216 348.942848 
L 416.10128 349.146297 
L 416.283847 349.342022 
L 416.467871 349.529962 
L 416.6533 349.710055 
L 416.840088 349.882243 
L 417.028182 350.04647 
L 417.217532 350.202678 
L 417.408088 350.350815 
L 417.599796 350.490823 
L 417.79261 350.622664 
L 417.986472 350.746276 
L 418.18133 350.861617 
L 418.377131 350.96864 
L 418.573821 351.067303 
L 418.771347 351.157562 
L 418.969654 351.239364 
L 419.168684 351.312714 
L 419.368386 351.377532 
L 419.568702 351.433795 
L 419.769579 351.481479 
L 419.970964 351.520548 
L 420.172806 351.550974 
L 420.375068 351.572733 
L 420.577765 351.585797 
L 420.782468 351.590132 
L 431.988728 351.497583 
L 527.810507 344.809526 
L 604.23817 337.008069 
L 606.877549 336.657152 
L 607.08271 336.617366 
L 607.287759 336.5687 
L 607.492758 336.511122 
L 607.697672 336.444614 
L 607.902449 336.369162 
L 608.107026 336.284759 
L 608.31134 336.191397 
L 608.515323 336.089076 
L 608.718911 335.977795 
L 608.922034 335.857561 
L 609.124623 335.728382 
L 609.326609 335.590271 
L 609.527923 335.443244 
L 609.728493 335.287321 
L 609.92825 335.122526 
L 610.127122 334.948888 
L 610.325038 334.766439 
L 610.521926 334.575216 
L 610.717715 334.375259 
L 610.912333 334.166613 
L 611.105709 333.949328 
L 611.29777 333.723458 
L 611.488445 333.489059 
L 611.677662 333.246195 
L 611.865351 332.994933 
L 612.051439 332.735343 
L 612.235858 332.467502 
L 612.418536 332.191487 
L 612.599403 331.907387 
L 612.778388 331.615282 
L 612.955427 331.315278 
L 613.130448 331.007466 
L 613.303385 330.691948 
L 613.474172 330.36883 
L 613.642743 330.038222 
L 613.809032 329.700238 
L 613.972977 329.354997 
L 614.134517 329.002628 
L 614.293582 328.643234 
L 614.45012 328.276968 
L 614.604069 327.903956 
L 614.755374 327.524343 
L 614.903972 327.138253 
L 615.04981 326.745837 
L 615.192834 326.347244 
L 615.332993 325.942623 
L 615.470234 325.532127 
L 615.604509 325.115912 
L 615.73577 324.694137 
L 615.863969 324.266961 
L 615.989064 323.834549 
L 616.11101 323.397067 
L 616.229766 322.95468 
L 616.345293 322.50756 
L 616.457553 322.055877 
L 616.56651 321.599803 
L 616.67213 321.139514 
L 616.77438 320.675184 
L 616.87323 320.20699 
L 616.96865 319.735108 
L 617.060614 319.259719 
L 617.149096 318.780999 
L 617.234073 318.299128 
L 617.315524 317.814288 
L 617.393428 317.326654 
L 617.467765 316.836414 
L 617.538527 316.343735 
L 617.605687 315.848808 
L 617.669245 315.3518 
L 617.729181 314.852899 
L 617.785488 314.352281 
L 617.838159 313.85012 
L 617.887186 313.346593 
L 617.932566 312.841874 
L 617.974296 312.336136 
L 618.012374 311.829551 
L 618.046801 311.322289 
L 618.077577 310.814517 
L 618.104706 310.306398 
L 618.128192 309.798095 
L 618.14804 309.289763 
L 618.164258 308.781541 
L 618.176854 308.273539 
L 618.185837 307.765753 
L 618.191217 307.257498 
L 618.350429 154.915846 
L 618.34864 154.368722 
L 618.343233 153.858175 
L 618.334236 153.349674 
L 618.321671 152.842844 
L 618.305553 152.337717 
L 618.285902 151.8344 
L 618.262737 151.333023 
L 618.236079 150.833721 
L 618.205952 150.336631 
L 618.172377 149.84189 
L 618.135377 149.349633 
L 618.094976 148.859992 
L 618.0512 148.373105 
L 618.004074 147.889095 
L 617.953624 147.408093 
L 617.899877 146.930224 
L 617.84286 146.455611 
L 617.782601 145.984375 
L 617.719128 145.516634 
L 617.65247 145.052506 
L 617.582657 144.592106 
L 617.509718 144.135545 
L 617.433683 143.682934 
L 617.354582 143.234382 
L 617.272446 142.789995 
L 617.187307 142.349877 
L 617.099194 141.914131 
L 617.008141 141.482858 
L 616.914178 141.056155 
L 616.817338 140.634125 
L 616.717653 140.216858 
L 616.615155 139.80445 
L 616.509876 139.396993 
L 616.401851 138.994579 
L 616.291111 138.597296 
L 616.17769 138.205233 
L 616.061621 137.818477 
L 615.942937 137.437113 
L 615.821673 137.061224 
L 615.697861 136.690895 
L 615.571535 136.326207 
L 615.44273 135.967241 
L 615.311479 135.614076 
L 615.177817 135.266791 
L 615.041779 134.925464 
L 614.903395 134.590181 
L 614.762707 134.261 
L 614.619749 133.937996 
L 614.47455 133.621262 
L 614.32715 133.31086 
L 614.177582 133.006866 
L 614.025884 132.709349 
L 613.872091 132.418383 
L 613.716238 132.134037 
L 613.558364 131.856383 
L 613.398503 131.585489 
L 613.236694 131.321424 
L 613.072973 131.064257 
L 612.907377 130.81406 
L 612.739946 130.570893 
L 612.570717 130.334825 
L 612.399729 130.105923 
L 612.227022 129.884253 
L 612.052633 129.669878 
L 611.876604 129.462865 
L 611.698977 129.263263 
L 611.519789 129.071161 
L 611.339082 128.886609 
L 611.156899 128.709669 
L 610.973282 128.540403 
L 610.788273 128.378871 
L 610.601918 128.225134 
L 610.414258 128.079249 
L 610.22534 127.941276 
L 610.035208 127.811272 
L 609.843908 127.689293 
L 609.651489 127.575402 
L 609.457992 127.469632 
L 609.263471 127.372058 
L 609.067972 127.282725 
L 608.871545 127.201684 
L 608.674239 127.128985 
L 608.476105 127.064676 
L 608.277194 127.008804 
L 608.077556 126.961416 
L 607.877242 126.922555 
L 607.676301 126.892263 
L 607.474775 126.870581 
L 607.272679 126.85755 
L 607.069406 126.853215 
L 596.900336 126.943515 
L 564.119853 129.481599 
L 420.782045 141.944135 
L 420.579707 141.974626 
L 420.377518 142.013846 
L 420.175455 142.061807 
L 419.973554 142.118517 
L 419.771867 142.183979 
L 419.570448 142.258193 
L 419.369355 142.341159 
L 419.16865 142.432873 
L 418.968391 142.533325 
L 418.768642 142.642508 
L 418.569462 142.760408 
L 418.370914 142.887009 
L 418.173062 143.022294 
L 417.975966 143.166241 
L 417.779691 143.318824 
L 417.584299 143.480018 
L 417.389854 143.64979 
L 417.196418 143.828109 
L 417.004057 144.014935 
L 416.812832 144.210231 
L 416.622807 144.413951 
L 416.434047 144.62605 
L 416.246615 144.846477 
L 416.060573 145.07518 
L 415.875986 145.3121 
L 415.692916 145.557179 
L 415.511427 145.810352 
L 415.331581 146.071553 
L 415.15344 146.340711 
L 414.977067 146.617753 
L 414.802524 146.902599 
L 414.629872 147.195171 
L 414.459171 147.495384 
L 414.290483 147.803149 
L 414.123866 148.118376 
L 413.959382 148.44097 
L 413.797087 148.770833 
L 413.637041 149.107864 
L 413.479301 149.451957 
L 413.323923 149.803006 
L 413.170964 150.160898 
L 413.020478 150.525519 
L 412.87252 150.896752 
L 412.727143 151.274476 
L 412.584398 151.658567 
L 412.444339 152.048898 
L 412.307014 152.445338 
L 412.172474 152.847756 
L 412.040765 153.256016 
L 411.911936 153.66998 
L 411.786032 154.089507 
L 411.663097 154.514453 
L 411.543176 154.944674 
L 411.42631 155.38002 
L 411.31254 155.820342 
L 411.201905 156.265486 
L 411.094444 156.715299 
L 410.990193 157.169623 
L 410.889188 157.628301 
L 410.791463 158.091172 
L 410.69705 158.558074 
L 410.60598 159.028844 
L 410.518283 159.503317 
L 410.433986 159.981328 
L 410.353117 160.462708 
L 410.275701 160.947289 
L 410.20176 161.434906 
L 410.131317 161.925382 
L 410.064393 162.418552 
L 410.001007 162.914241 
L 409.941174 163.412279 
L 409.884913 163.912494 
L 409.832237 164.414713 
L 409.783158 164.918764 
L 409.737689 165.424474 
L 409.695839 165.931673 
L 409.657616 166.440188 
L 409.623027 166.949847 
L 409.59208 167.460478 
L 409.564774 167.971922 
L 409.541112 168.484011 
L 409.521098 168.996582 
L 409.50473 169.509491 
L 409.492008 170.022623 
L 409.482926 170.53599 
L 409.477484 171.050371 
z
" clip-path="url(#p74fc2ff551)" style="fill: #1f77b4; opacity: 0.35; stroke: #00008b; stroke-width: 1.5; stroke-linejoin: miter"/>
   </g>
   <g id="patch_8">
    <path d="M 411.426265 332.104758 
L 418.036557 348.317217 
L 611.593149 332.413863 
L 616.241358 321.528966 
L 617.997982 145.128861 
L 610.963521 127.911158 
L 416.259216 145.691417 
L 412.96592 153.644949 
z
" clip-path="url(#p74fc2ff551)" style="fill: #ff7f0e; opacity: 0.35; stroke: #ff8c00; stroke-width: 1.5; stroke-linejoin: miter"/>
   </g>
   <g id="patch_9">
    <path d="M 413.970322 330.041486 
L 419.60406 343.863794 
L 609.114711 327.0562 
L 613.197744 317.377546 
L 614.612283 150.145518 
L 609.167359 136.819108 
L 418.312615 152.43397 
L 415.663159 158.746399 
z
" clip-path="url(#p74fc2ff551)" style="fill: #d62728; opacity: 0.35; stroke: #8b0000; stroke-width: 1.5; stroke-linejoin: miter"/>
   </g>
   <g id="matplotlib.axis_3"/>
   <g id="matplotlib.axis_4"/>
   <g id="text_2">
    <!-- (b) $\Delta\theta=+0.15$ -->
    <g transform="translate(497.205 66.555) scale(0.13 -0.13)">
     <defs>
      <path id="TimesNewRomanPSMT-62" d="M 984 2369 
Q 1400 2947 1881 2947 
Q 2322 2947 2650 2570 
Q 2978 2194 2978 1541 
Q 2978 778 2472 313 
Q 2038 -88 1503 -88 
Q 1253 -88 995 3 
Q 738 94 469 275 
L 469 3241 
Q 469 3728 445 3840 
Q 422 3953 372 3993 
Q 322 4034 247 4034 
Q 159 4034 28 3984 
L -16 4094 
L 844 4444 
L 984 4444 
L 984 2369 
z
M 984 2169 
L 984 456 
Q 1144 300 1314 220 
Q 1484 141 1663 141 
Q 1947 141 2192 453 
Q 2438 766 2438 1363 
Q 2438 1913 2192 2208 
Q 1947 2503 1634 2503 
Q 1469 2503 1303 2419 
Q 1178 2356 984 2169 
z
" transform="scale(0.015625)"/>
      <path id="STIXGeneral-Regular-2b" d="M 4070 1408 
L 2400 1408 
L 2400 -262 
L 1978 -262 
L 1978 1408 
L 307 1408 
L 307 1830 
L 1978 1830 
L 1978 3501 
L 2400 3501 
L 2400 1830 
L 4070 1830 
L 4070 1408 
z
" transform="scale(0.015625)"/>
      <path id="STIXGeneral-Regular-2e" d="M 1158 275 
Q 1158 134 1052 32 
Q 947 -70 800 -70 
Q 653 -70 550 32 
Q 448 134 448 281 
Q 448 429 553 534 
Q 659 640 806 640 
Q 947 640 1052 531 
Q 1158 422 1158 275 
z
" transform="scale(0.015625)"/>
      <path id="STIXGeneral-Regular-31" d="M 2522 0 
L 755 0 
L 755 96 
Q 1107 115 1235 227 
Q 1363 339 1363 608 
L 1363 3482 
Q 1363 3795 1171 3795 
Q 1082 3795 883 3718 
L 710 3654 
L 710 3744 
L 1856 4326 
L 1914 4307 
L 1914 486 
Q 1914 275 2042 185 
Q 2170 96 2522 96 
L 2522 0 
z
" transform="scale(0.015625)"/>
      <path id="STIXGeneral-Regular-35" d="M 2803 4358 
L 2573 3814 
Q 2534 3731 2400 3731 
L 1158 3731 
L 902 3187 
Q 1606 3053 1920 2896 
Q 2234 2739 2502 2368 
Q 2726 2061 2726 1555 
Q 2726 1094 2576 780 
Q 2426 467 2099 224 
Q 1664 -90 1011 -90 
Q 646 -90 422 19 
Q 198 128 198 307 
Q 198 550 486 550 
Q 717 550 960 352 
Q 1210 147 1414 147 
Q 1747 147 2012 480 
Q 2278 813 2278 1229 
Q 2278 1843 1850 2189 
Q 1293 2637 486 2637 
Q 410 2637 410 2688 
L 416 2720 
L 1114 4237 
L 2438 4237 
Q 2547 4237 2608 4269 
Q 2669 4301 2746 4403 
L 2803 4358 
z
" transform="scale(0.015625)"/>
     </defs>
     <use xlink:href="#TimesNewRomanPSMT-28" transform="translate(0 0.5625)"/>
     <use xlink:href="#TimesNewRomanPSMT-62" transform="translate(33.300781 0.5625)"/>
     <use xlink:href="#TimesNewRomanPSMT-29" transform="translate(83.300781 0.5625)"/>
     <use xlink:href="#TimesNewRomanPSMT-20" transform="translate(116.601562 0.5625)"/>
     <use xlink:href="#STIXGeneral-Regular-394" transform="translate(141.601562 0.5625)"/>
     <use xlink:href="#STIXGeneral-Italic-3b8" transform="translate(213.801544 0.5625)"/>
     <use xlink:href="#STIXGeneral-Regular-3d" transform="translate(276.241525 0.5625)"/>
     <use xlink:href="#STIXGeneral-Regular-2b" transform="translate(359.181506 0.5625)"/>
     <use xlink:href="#STIXGeneral-Regular-30" transform="translate(427.681491 0.5625)"/>
     <use xlink:href="#STIXGeneral-Regular-2e" transform="translate(477.681476 0.5625)"/>
     <use xlink:href="#STIXGeneral-Regular-31" transform="translate(502.681461 0.5625)"/>
     <use xlink:href="#STIXGeneral-Regular-35" transform="translate(552.681445 0.5625)"/>
    </g>
   </g>
  </g>
  <g id="axes_3">
   <g id="patch_10">
    <path d="M 722.8 393.9 
L 1065.6 393.9 
L 1065.6 69.415 
L 722.8 69.415 
z
" style="fill: #ffffff"/>
   </g>
   <g id="patch_11">
    <path d="M 747.138027 345.877052 
L 747.139597 346.403789 
L 747.144345 346.85265 
L 747.152258 347.300039 
L 747.163325 347.746394 
L 747.177534 348.191711 
L 747.194877 348.635901 
L 747.215342 349.078849 
L 747.23892 349.520437 
L 747.265591 349.960528 
L 747.29535 350.39901 
L 747.328175 350.835741 
L 747.364056 351.270605 
L 747.402976 351.703475 
L 747.444916 352.134224 
L 747.489859 352.56273 
L 747.537789 352.988871 
L 747.588684 353.412526 
L 747.642528 353.83358 
L 747.699293 354.251898 
L 747.758964 354.66738 
L 747.821518 355.079906 
L 747.88693 355.489355 
L 747.95518 355.895621 
L 748.026245 356.298593 
L 748.100093 356.698149 
L 748.176706 357.09419 
L 748.256057 357.486607 
L 748.338119 357.875292 
L 748.422866 358.26014 
L 748.51027 358.641047 
L 748.600306 359.017911 
L 748.692937 359.390629 
L 748.788143 359.759104 
L 748.885892 360.123235 
L 748.986153 360.482927 
L 749.088897 360.838082 
L 749.194093 361.188608 
L 749.30171 361.534409 
L 749.411718 361.875391 
L 749.524076 362.211476 
L 749.638762 362.54256 
L 749.755742 362.868554 
L 749.874972 363.189391 
L 749.996429 363.504965 
L 750.120075 363.815199 
L 750.24588 364.12 
L 750.373796 364.419314 
L 750.5038 364.713033 
L 750.635851 365.001088 
L 750.769913 365.2834 
L 750.905949 365.559892 
L 751.043921 365.830489 
L 751.183793 366.095117 
L 751.325527 366.353703 
L 751.469082 366.606175 
L 751.614423 366.852458 
L 751.761505 367.092494 
L 751.910294 367.326206 
L 752.060748 367.553525 
L 752.212824 367.774395 
L 752.366483 367.988747 
L 752.521684 368.196517 
L 752.678385 368.397645 
L 752.836544 368.592069 
L 752.996117 368.779732 
L 753.157062 368.960575 
L 753.319336 369.134543 
L 753.482894 369.301582 
L 753.647692 369.461636 
L 753.813683 369.614651 
L 753.980826 369.760585 
L 754.149076 369.899389 
L 754.318383 370.031006 
L 754.488702 370.155396 
L 754.659986 370.272512 
L 754.832188 370.382314 
L 755.00526 370.484757 
L 755.179156 370.579808 
L 755.353825 370.667424 
L 755.529219 370.747569 
L 755.70529 370.820211 
L 755.881987 370.885315 
L 756.059263 370.942856 
L 756.237067 370.992796 
L 756.415351 371.035115 
L 756.594068 371.069785 
L 756.773176 371.096783 
L 756.952645 371.116087 
L 757.132503 371.127677 
L 757.314598 371.131517 
L 767.255589 371.058224 
L 878.922372 363.640384 
L 922.060411 359.434138 
L 922.242821 359.406672 
L 922.424511 359.371442 
L 922.606106 359.328343 
L 922.787624 359.27736 
L 922.96903 359.218482 
L 923.150275 359.151701 
L 923.331305 359.077013 
L 923.512063 358.994416 
L 923.692493 358.903906 
L 923.872533 358.805497 
L 924.052125 358.699193 
L 924.231208 358.585003 
L 924.409722 358.462941 
L 924.587606 358.333026 
L 924.764798 358.195278 
L 924.941237 358.049719 
L 925.116862 357.89638 
L 925.29161 357.735288 
L 925.465419 357.56648 
L 925.638227 357.389994 
L 925.809972 357.20587 
L 925.980591 357.014161 
L 926.150026 356.814895 
L 926.318208 356.608152 
L 926.485082 356.393968 
L 926.650583 356.172409 
L 926.81465 355.943538 
L 926.977223 355.707423 
L 927.138241 355.464136 
L 927.297645 355.21375 
L 927.455374 354.956342 
L 927.611369 354.691998 
L 927.765571 354.420801 
L 927.917924 354.14284 
L 928.068369 353.858207 
L 928.216851 353.566999 
L 928.363313 353.269314 
L 928.507701 352.965256 
L 928.649962 352.654931 
L 928.790041 352.338449 
L 928.927887 352.015919 
L 929.063449 351.687458 
L 929.196677 351.353184 
L 929.327522 351.013219 
L 929.455937 350.667686 
L 929.581874 350.316713 
L 929.705289 349.960428 
L 929.826138 349.598964 
L 929.944378 349.232454 
L 930.059967 348.861034 
L 930.172866 348.484843 
L 930.283036 348.104021 
L 930.390439 347.718711 
L 930.495039 347.329056 
L 930.596803 346.935203 
L 930.695697 346.537298 
L 930.79169 346.135489 
L 930.884752 345.729928 
L 930.974853 345.320764 
L 931.061968 344.908149 
L 931.14607 344.492237 
L 931.227137 344.073177 
L 931.305145 343.651133 
L 931.380069 343.226254 
L 931.4519 342.798687 
L 931.520605 342.368593 
L 931.586188 341.93614 
L 931.648616 341.501466 
L 931.70788 341.064733 
L 931.763974 340.626093 
L 931.81688 340.185703 
L 931.866592 339.743717 
L 931.913102 339.300289 
L 931.956399 338.855567 
L 931.996491 338.409712 
L 932.033361 337.962867 
L 932.067012 337.515185 
L 932.097441 337.066812 
L 932.12465 336.617897 
L 932.148639 336.168582 
L 932.16941 335.719008 
L 932.186969 335.269309 
L 932.201319 334.819608 
L 932.212466 334.369994 
L 932.220417 333.920447 
L 932.225178 333.470183 
L 932.349001 198.61058 
L 932.347417 198.117081 
L 932.342637 197.665218 
L 932.334676 197.215122 
L 932.323552 196.76643 
L 932.30928 196.319153 
L 932.291876 195.873383 
L 932.271356 195.429232 
L 932.247736 194.986819 
L 932.221035 194.546267 
L 932.191272 194.107698 
L 932.158466 193.671233 
L 932.122636 193.236993 
L 932.083805 192.805095 
L 932.041992 192.375658 
L 931.997221 191.948795 
L 931.949513 191.524622 
L 931.898892 191.103249 
L 931.845382 190.684786 
L 931.789006 190.269343 
L 931.729789 189.857024 
L 931.667756 189.447935 
L 931.602934 189.042178 
L 931.535347 188.639856 
L 931.465021 188.241066 
L 931.391984 187.845907 
L 931.316263 187.454475 
L 931.237884 187.066865 
L 931.156876 186.68317 
L 931.073265 186.30348 
L 930.987081 185.927887 
L 930.898351 185.556478 
L 930.807104 185.18934 
L 930.71337 184.82656 
L 930.617176 184.468222 
L 930.518553 184.114408 
L 930.41753 183.765202 
L 930.314137 183.420682 
L 930.208403 183.080929 
L 930.100359 182.746021 
L 929.990035 182.416035 
L 929.877461 182.091047 
L 929.762669 181.771133 
L 929.645688 181.456365 
L 929.526551 181.146819 
L 929.405288 180.842564 
L 929.281931 180.543674 
L 929.156511 180.250219 
L 929.029061 179.962268 
L 928.899611 179.679893 
L 928.768196 179.403156 
L 928.634849 179.132121 
L 928.499599 178.866865 
L 928.362482 178.607449 
L 928.22353 178.353938 
L 928.082777 178.106396 
L 927.940257 177.864887 
L 927.796005 177.629473 
L 927.650053 177.400226 
L 927.502438 177.177182 
L 927.353193 176.960427 
L 927.202355 176.750013 
L 927.04996 176.546 
L 926.896044 176.348453 
L 926.740641 176.15741 
L 926.58379 175.97295 
L 926.425529 175.795122 
L 926.265895 175.623983 
L 926.104925 175.459589 
L 925.942662 175.302001 
L 925.779139 175.151258 
L 925.614396 175.007415 
L 925.448477 174.870538 
L 925.281422 174.740671 
L 925.11327 174.617864 
L 924.944064 174.502169 
L 924.773845 174.393633 
L 924.602657 174.292303 
L 924.430542 174.198227 
L 924.257544 174.111449 
L 924.083709 174.032016 
L 923.909079 173.959968 
L 923.733703 173.895356 
L 923.55762 173.838199 
L 923.380883 173.788556 
L 923.203536 173.746466 
L 923.025621 173.711945 
L 922.847186 173.685047 
L 922.668263 173.6658 
L 922.488858 173.654234 
L 922.308238 173.65039 
L 913.291206 173.721757 
L 815.844888 180.631187 
L 757.251069 185.478596 
L 757.071563 185.505645 
L 756.892206 185.540435 
L 756.712985 185.582974 
L 756.533931 185.633266 
L 756.355089 185.691312 
L 756.17651 185.757111 
L 755.998245 185.830658 
L 755.820344 185.911954 
L 755.642866 186.000979 
L 755.465864 186.097727 
L 755.289393 186.202179 
L 755.113504 186.314332 
L 754.938254 186.434161 
L 754.763699 186.561645 
L 754.589894 186.69676 
L 754.416895 186.83948 
L 754.244757 186.989775 
L 754.073536 187.147615 
L 753.903288 187.312964 
L 753.734069 187.485785 
L 753.565934 187.666038 
L 753.398939 187.85368 
L 753.233139 188.048666 
L 753.068591 188.250947 
L 752.905349 188.46047 
L 752.743468 188.677182 
L 752.583005 188.901025 
L 752.424012 189.131938 
L 752.266545 189.36986 
L 752.110658 189.614722 
L 751.956405 189.866456 
L 751.803839 190.12499 
L 751.653012 190.390249 
L 751.503979 190.662155 
L 751.35679 190.940627 
L 751.211497 191.22558 
L 751.068152 191.516929 
L 750.926804 191.814584 
L 750.787504 192.118453 
L 750.6503 192.42844 
L 750.515241 192.744448 
L 750.382376 193.066376 
L 750.25175 193.394121 
L 750.123411 193.727577 
L 749.997402 194.066635 
L 749.87377 194.411185 
L 749.752557 194.761113 
L 749.633806 195.116303 
L 749.51756 195.476636 
L 749.403857 195.841993 
L 749.29274 196.21225 
L 749.184245 196.587283 
L 749.078411 196.966964 
L 748.975275 197.351165 
L 748.874871 197.739754 
L 748.777235 198.1326 
L 748.682399 198.529567 
L 748.590395 198.93052 
L 748.501254 199.33532 
L 748.415006 199.743828 
L 748.33168 200.155905 
L 748.251302 200.571407 
L 748.173897 200.990192 
L 748.099492 201.412115 
L 748.028109 201.837031 
L 747.95977 202.264794 
L 747.894496 202.695257 
L 747.832306 203.128271 
L 747.773219 203.563689 
L 747.717251 204.00136 
L 747.664419 204.441137 
L 747.614736 204.882867 
L 747.568214 205.326405 
L 747.524867 205.771596 
L 747.484705 206.218291 
L 747.447736 206.666342 
L 747.413967 207.115597 
L 747.383408 207.565905 
L 747.356058 208.017128 
L 747.331927 208.46911 
L 747.311016 208.921705 
L 747.293327 209.374784 
L 747.278856 209.828226 
L 747.26761 210.281923 
L 747.259578 210.735908 
L 747.254765 211.190944 
z
" clip-path="url(#p02df0c3a59)" style="fill: #1f77b4; opacity: 0.35; stroke: #00008b; stroke-width: 1.5; stroke-linejoin: miter"/>
   </g>
   <g id="patch_12">
    <path d="M 748.428438 356.783173 
L 753.080552 368.13341 
L 925.113944 356.954749 
L 932.094118 339.045658 
L 930.618584 178.799232 
L 929.032708 174.928742 
L 755.354453 184.633962 
L 747.735868 203.46483 
z
" clip-path="url(#p02df0c3a59)" style="fill: #ff7f0e; opacity: 0.35; stroke: #ff8c00; stroke-width: 1.5; stroke-linejoin: miter"/>
   </g>
   <g id="patch_13">
    <path d="M 752.222188 354.390228 
L 755.582639 362.588418 
L 919.020417 350.416035 
L 926.606405 330.416775 
L 924.879997 185.141335 
L 758.577176 192.550589 
L 751.890665 208.6685 
z
" clip-path="url(#p02df0c3a59)" style="fill: #d62728; opacity: 0.35; stroke: #8b0000; stroke-width: 1.5; stroke-linejoin: miter"/>
   </g>
   <g id="matplotlib.axis_5"/>
   <g id="matplotlib.axis_6"/>
   <g id="text_3">
    <!-- (c) $\Delta\theta=-0.15$ -->
    <g transform="translate(855.33 66.555) scale(0.13 -0.13)">
     <defs>
      <path id="TimesNewRomanPSMT-63" d="M 2631 1088 
Q 2516 522 2178 217 
Q 1841 -88 1431 -88 
Q 944 -88 581 321 
Q 219 731 219 1428 
Q 219 2103 620 2525 
Q 1022 2947 1584 2947 
Q 2006 2947 2278 2723 
Q 2550 2500 2550 2259 
Q 2550 2141 2473 2067 
Q 2397 1994 2259 1994 
Q 2075 1994 1981 2113 
Q 1928 2178 1911 2362 
Q 1894 2547 1784 2644 
Q 1675 2738 1481 2738 
Q 1169 2738 978 2506 
Q 725 2200 725 1697 
Q 725 1184 976 792 
Q 1228 400 1656 400 
Q 1963 400 2206 609 
Q 2378 753 2541 1131 
L 2631 1088 
z
" transform="scale(0.015625)"/>
      <path id="STIXGeneral-Regular-2212" d="M 3974 1408 
L 410 1408 
L 410 1830 
L 3974 1830 
L 3974 1408 
z
" transform="scale(0.015625)"/>
     </defs>
     <use xlink:href="#TimesNewRomanPSMT-28" transform="translate(0 0.5625)"/>
     <use xlink:href="#TimesNewRomanPSMT-63" transform="translate(33.300781 0.5625)"/>
     <use xlink:href="#TimesNewRomanPSMT-29" transform="translate(77.685547 0.5625)"/>
     <use xlink:href="#TimesNewRomanPSMT-20" transform="translate(110.986328 0.5625)"/>
     <use xlink:href="#STIXGeneral-Regular-394" transform="translate(135.986328 0.5625)"/>
     <use xlink:href="#STIXGeneral-Italic-3b8" transform="translate(208.18631 0.5625)"/>
     <use xlink:href="#STIXGeneral-Regular-3d" transform="translate(270.626291 0.5625)"/>
     <use xlink:href="#STIXGeneral-Regular-2212" transform="translate(353.566272 0.5625)"/>
     <use xlink:href="#STIXGeneral-Regular-30" transform="translate(422.066257 0.5625)"/>
     <use xlink:href="#STIXGeneral-Regular-2e" transform="translate(472.066241 0.5625)"/>
     <use xlink:href="#STIXGeneral-Regular-31" transform="translate(497.066226 0.5625)"/>
     <use xlink:href="#STIXGeneral-Regular-35" transform="translate(547.066211 0.5625)"/>
    </g>
   </g>
  </g>
  <g id="axes_4">
   <g id="patch_14">
    <path d="M 7.2 753.1 
L 350 753.1 
L 350 428.615 
L 7.2 428.615 
z
" style="fill: #ffffff"/>
   </g>
   <g id="patch_15">
    <path d="M 61.528212 670.956192 
L 61.530086 671.557591 
L 61.535757 672.093091 
L 61.5452 672.626874 
L 61.558403 673.159378 
L 61.575355 673.690569 
L 61.596039 674.220331 
L 61.620443 674.748523 
L 61.648552 675.275 
L 61.680348 675.799611 
L 61.715814 676.322205 
L 61.754932 676.842632 
L 61.79768 677.360741 
L 61.844042 677.876386 
L 61.893995 678.38942 
L 61.947516 678.899697 
L 62.004582 679.407074 
L 62.06517 679.911408 
L 62.129254 680.412558 
L 62.19681 680.910386 
L 62.267811 681.404754 
L 62.34223 681.895528 
L 62.42004 682.382572 
L 62.501211 682.865756 
L 62.585716 683.34495 
L 62.673523 683.820023 
L 62.764604 684.29085 
L 62.858926 684.757305 
L 62.956462 685.219267 
L 63.057172 685.676608 
L 63.161025 686.12921 
L 63.267992 686.576957 
L 63.378037 687.019731 
L 63.491126 687.457415 
L 63.607223 687.889897 
L 63.726293 688.317063 
L 63.8483 688.738804 
L 63.973207 689.15501 
L 64.100978 689.565573 
L 64.231575 689.970388 
L 64.36496 690.369349 
L 64.501094 690.762354 
L 64.63994 691.149302 
L 64.781457 691.530091 
L 64.925606 691.904624 
L 65.072346 692.272802 
L 65.221638 692.63453 
L 65.37344 692.989713 
L 65.52771 693.338259 
L 65.684406 693.680075 
L 65.843487 694.015072 
L 66.004908 694.34316 
L 66.168627 694.664253 
L 66.334601 694.978263 
L 66.502784 695.285105 
L 66.673132 695.584697 
L 66.8456 695.876956 
L 67.020143 696.161802 
L 67.196715 696.439154 
L 67.375268 696.708935 
L 67.555756 696.971067 
L 67.738132 697.225477 
L 67.922348 697.472089 
L 68.108355 697.710831 
L 68.296105 697.941632 
L 68.485547 698.164422 
L 68.676633 698.379132 
L 68.869312 698.585697 
L 69.063532 698.784051 
L 69.259243 698.97413 
L 69.456393 699.155871 
L 69.654929 699.329214 
L 69.854798 699.494101 
L 70.055948 699.650472 
L 70.258323 699.798274 
L 70.461869 699.937451 
L 70.666532 700.06795 
L 70.872256 700.189723 
L 71.078985 700.30272 
L 71.286662 700.406894 
L 71.49523 700.502199 
L 71.704632 700.588594 
L 71.914808 700.66603 
L 72.125705 700.734482 
L 72.337263 700.793912 
L 72.549421 700.844271 
L 72.762126 700.885537 
L 72.975324 700.917676 
L 73.188974 700.94066 
L 73.403084 700.954462 
L 73.61911 700.959043 
L 85.457209 700.85608 
L 172.89575 694.608499 
L 263.502778 685.197882 
L 270.307216 684.273606 
L 270.524151 684.231537 
L 270.740947 684.180082 
L 270.957709 684.1192 
L 271.174403 684.048868 
L 271.390974 683.96907 
L 271.607358 683.879795 
L 271.823486 683.781034 
L 272.039288 683.672784 
L 272.254694 683.555043 
L 272.46963 683.427816 
L 272.684025 683.29111 
L 272.897802 683.144936 
L 273.11089 682.989309 
L 273.323211 682.82425 
L 273.534692 682.649783 
L 273.745257 682.465936 
L 273.954828 682.272742 
L 274.163331 682.070238 
L 274.370688 681.858467 
L 274.576823 681.637474 
L 274.781659 681.407311 
L 274.98512 681.168034 
L 275.187128 680.919703 
L 275.387608 680.662384 
L 275.586482 680.396147 
L 275.783675 680.121067 
L 275.979111 679.837224 
L 276.172715 679.544702 
L 276.364411 679.243591 
L 276.554126 678.933984 
L 276.741786 678.615981 
L 276.927317 678.289686 
L 277.110648 677.955206 
L 277.291707 677.612654 
L 277.470424 677.262148 
L 277.646729 676.903809 
L 277.820552 676.537766 
L 277.991828 676.164146 
L 278.160487 675.783074 
L 278.32647 675.39471 
L 278.489713 674.999196 
L 278.650147 674.596659 
L 278.807716 674.187259 
L 278.962359 673.771152 
L 279.114019 673.348493 
L 279.262639 672.919445 
L 279.408165 672.484171 
L 279.550543 672.042838 
L 279.689722 671.595616 
L 279.825654 671.142678 
L 279.958289 670.6842 
L 280.087583 670.220358 
L 280.21349 669.751332 
L 280.33597 669.277304 
L 280.454981 668.798458 
L 280.570485 668.31498 
L 280.682446 667.827055 
L 280.79083 667.334872 
L 280.895603 666.83862 
L 280.996736 666.33849 
L 281.094199 665.834672 
L 281.187967 665.327358 
L 281.278014 664.81674 
L 281.364315 664.303016 
L 281.446858 663.786361 
L 281.525615 663.266985 
L 281.600572 662.745075 
L 281.671712 662.220826 
L 281.739031 661.694412 
L 281.802507 661.166043 
L 281.862135 660.635902 
L 281.917906 660.104177 
L 281.969812 659.571053 
L 282.017858 659.036723 
L 282.062033 658.501365 
L 282.102336 657.965162 
L 282.138773 657.428298 
L 282.171342 656.89095 
L 282.200048 656.353292 
L 282.224896 655.815497 
L 282.245894 655.277728 
L 282.26305 654.740136 
L 282.276372 654.202839 
L 282.285873 653.665843 
L 282.29156 653.128474 
L 282.470315 492.022028 
L 282.468426 491.4477 
L 282.462706 490.907724 
L 282.453192 490.369922 
L 282.439903 489.833934 
L 282.422858 489.299803 
L 282.402081 488.767646 
L 282.377591 488.237599 
L 282.349413 487.709805 
L 282.31757 487.18441 
L 282.282086 486.661556 
L 282.242988 486.141386 
L 282.200302 485.624041 
L 282.154053 485.109658 
L 282.104272 484.598375 
L 282.050985 484.090324 
L 281.994221 483.585637 
L 281.934011 483.08444 
L 281.870383 482.586866 
L 281.80337 482.093032 
L 281.733001 481.603062 
L 281.659308 481.117076 
L 281.582323 480.635191 
L 281.502078 480.15752 
L 281.418605 479.684177 
L 281.331938 479.215272 
L 281.242109 478.750913 
L 281.149152 478.291208 
L 281.0531 477.836259 
L 280.953987 477.386171 
L 280.851847 476.941042 
L 280.746714 476.500972 
L 280.638623 476.066059 
L 280.527607 475.636398 
L 280.413699 475.212082 
L 280.296943 474.793204 
L 280.177364 474.379854 
L 280.055 473.972124 
L 279.929887 473.570098 
L 279.802059 473.173867 
L 279.671552 472.783514 
L 279.538402 472.399123 
L 279.402644 472.020779 
L 279.264313 471.648564 
L 279.123446 471.282558 
L 278.980078 470.922842 
L 278.834246 470.569495 
L 278.685985 470.222597 
L 278.535333 469.882223 
L 278.382324 469.548452 
L 278.226997 469.221359 
L 278.069388 468.90102 
L 277.909534 468.587508 
L 277.747473 468.280899 
L 277.583242 467.981266 
L 277.416878 467.688681 
L 277.248419 467.403218 
L 277.077905 467.124946 
L 276.905373 466.853939 
L 276.730862 466.590267 
L 276.554413 466.334 
L 276.376063 466.085208 
L 276.195853 465.843959 
L 276.013825 465.610323 
L 275.830018 465.384369 
L 275.644473 465.166163 
L 275.457233 464.955774 
L 275.268339 464.753267 
L 275.077835 464.558709 
L 274.885763 464.372165 
L 274.692169 464.193701 
L 274.497094 464.023381 
L 274.300586 463.861268 
L 274.10269 463.707425 
L 273.903452 463.561915 
L 273.702918 463.424799 
L 273.501137 463.296137 
L 273.298159 463.175995 
L 273.094029 463.064419 
L 272.888798 462.961473 
L 272.682518 462.867213 
L 272.475237 462.781688 
L 272.267012 462.704965 
L 272.057893 462.637091 
L 271.847933 462.578116 
L 271.637185 462.528089 
L 271.425702 462.48706 
L 271.213538 462.455082 
L 271.000734 462.43218 
L 270.787313 462.418424 
L 270.572719 462.413837 
L 259.827542 462.514452 
L 258.506549 462.611259 
L 73.656356 479.29018 
L 73.442608 479.322391 
L 73.229009 479.363824 
L 73.01553 479.414496 
L 72.802209 479.474414 
L 72.589098 479.543585 
L 72.376257 479.622007 
L 72.163746 479.709684 
L 71.95163 479.806613 
L 71.739971 479.912784 
L 71.528836 480.02819 
L 71.318289 480.152819 
L 71.108396 480.286655 
L 70.899223 480.429681 
L 70.690836 480.581873 
L 70.483303 480.74321 
L 70.276689 480.913661 
L 70.071062 481.093197 
L 69.86649 481.281782 
L 69.663039 481.479379 
L 69.460777 481.685946 
L 69.259772 481.901439 
L 69.060092 482.125809 
L 68.861803 482.359004 
L 68.664973 482.600968 
L 68.469669 482.851643 
L 68.27596 483.110966 
L 68.083911 483.37887 
L 67.89359 483.655284 
L 67.705063 483.940136 
L 67.518396 484.233346 
L 67.333656 484.534834 
L 67.150907 484.844515 
L 66.970215 485.1623 
L 66.791644 485.488096 
L 66.615258 485.821806 
L 66.441121 486.163331 
L 66.269295 486.512567 
L 66.099843 486.869407 
L 65.932824 487.23374 
L 65.768301 487.605451 
L 65.606333 487.984421 
L 65.446979 488.370531 
L 65.290296 488.763654 
L 65.136342 489.163663 
L 64.985172 489.570425 
L 64.836841 489.983806 
L 64.691404 490.403667 
L 64.548912 490.829868 
L 64.409417 491.262263 
L 64.27297 491.700706 
L 64.139619 492.145047 
L 64.009412 492.595132 
L 63.882395 493.050807 
L 63.758614 493.511914 
L 63.638111 493.978292 
L 63.520929 494.449779 
L 63.407109 494.926209 
L 63.29669 495.407415 
L 63.189709 495.893229 
L 63.086203 496.38348 
L 62.986207 496.877994 
L 62.889752 497.376598 
L 62.796871 497.879116 
L 62.707594 498.38537 
L 62.621949 498.895182 
L 62.539962 499.408373 
L 62.461658 499.924762 
L 62.387061 500.444167 
L 62.316191 500.966406 
L 62.24907 501.491298 
L 62.185715 502.018658 
L 62.126144 502.548302 
L 62.07037 503.080048 
L 62.018409 503.613712 
L 61.970271 504.14911 
L 61.925965 504.686058 
L 61.885502 505.224374 
L 61.84889 505.763871 
L 61.816131 506.304376 
L 61.787226 506.845715 
L 61.762186 507.387697 
L 61.741003 507.930164 
L 61.723682 508.472953 
L 61.710219 509.015942 
L 61.700609 509.559134 
L 61.694851 510.103321 
z
" clip-path="url(#p5aac439faa)" style="fill: #1f77b4; opacity: 0.35; stroke: #00008b; stroke-width: 1.5; stroke-linejoin: miter"/>
   </g>
   <g id="patch_16">
    <path d="M 63.142711 680.036742 
L 70.330444 697.617755 
L 274.352304 679.539091 
L 278.257112 670.783113 
L 281.811972 484.505597 
L 273.585422 464.48888 
L 66.070517 486.480129 
z
" clip-path="url(#p5aac439faa)" style="fill: #ff7f0e; opacity: 0.35; stroke: #ff8c00; stroke-width: 1.5; stroke-linejoin: miter"/>
   </g>
   <g id="patch_17">
    <path d="M 67.402037 675.883143 
L 73.457396 690.703672 
L 270.390495 671.343711 
L 273.665495 663.868905 
L 276.516057 495.591635 
L 270.267095 480.387167 
L 70.395307 498.387271 
z
" clip-path="url(#p5aac439faa)" style="fill: #d62728; opacity: 0.35; stroke: #8b0000; stroke-width: 1.5; stroke-linejoin: miter"/>
   </g>
   <g id="matplotlib.axis_7"/>
   <g id="matplotlib.axis_8"/>
   <g id="text_4">
    <!-- (d) $\Delta\theta=+0.30$ -->
    <g transform="translate(139.405 425.755) scale(0.13 -0.13)">
     <defs>
      <path id="TimesNewRomanPSMT-64" d="M 2222 322 
Q 2013 103 1813 7 
Q 1613 -88 1381 -88 
Q 913 -88 563 304 
Q 213 697 213 1313 
Q 213 1928 600 2439 
Q 988 2950 1597 2950 
Q 1975 2950 2222 2709 
L 2222 3238 
Q 2222 3728 2198 3840 
Q 2175 3953 2125 3993 
Q 2075 4034 2000 4034 
Q 1919 4034 1784 3984 
L 1744 4094 
L 2597 4444 
L 2738 4444 
L 2738 1134 
Q 2738 631 2761 520 
Q 2784 409 2836 365 
Q 2888 322 2956 322 
Q 3041 322 3181 375 
L 3216 266 
L 2366 -88 
L 2222 -88 
L 2222 322 
z
M 2222 541 
L 2222 2016 
Q 2203 2228 2109 2403 
Q 2016 2578 1861 2667 
Q 1706 2756 1559 2756 
Q 1284 2756 1069 2509 
Q 784 2184 784 1559 
Q 784 928 1059 592 
Q 1334 256 1672 256 
Q 1956 256 2222 541 
z
" transform="scale(0.015625)"/>
      <path id="STIXGeneral-Regular-33" d="M 390 3264 
L 288 3290 
Q 435 3770 748 4048 
Q 1062 4326 1542 4326 
Q 1990 4326 2265 4083 
Q 2541 3840 2541 3450 
Q 2541 2925 1946 2566 
Q 2298 2413 2477 2227 
Q 2758 1914 2758 1402 
Q 2758 890 2464 506 
Q 2246 211 1840 60 
Q 1434 -90 979 -90 
Q 262 -90 262 275 
Q 262 378 339 442 
Q 416 506 525 506 
Q 685 506 915 339 
Q 1197 141 1466 141 
Q 1818 141 2058 425 
Q 2298 710 2298 1120 
Q 2298 1856 1632 2048 
Q 1434 2112 979 2112 
L 979 2202 
Q 1338 2323 1517 2432 
Q 2035 2726 2035 3290 
Q 2035 3610 1852 3776 
Q 1670 3942 1344 3942 
Q 768 3942 390 3264 
z
" transform="scale(0.015625)"/>
     </defs>
     <use xlink:href="#TimesNewRomanPSMT-28" transform="translate(0 0.5625)"/>
     <use xlink:href="#TimesNewRomanPSMT-64" transform="translate(33.300781 0.5625)"/>
     <use xlink:href="#TimesNewRomanPSMT-29" transform="translate(83.300781 0.5625)"/>
     <use xlink:href="#TimesNewRomanPSMT-20" transform="translate(116.601562 0.5625)"/>
     <use xlink:href="#STIXGeneral-Regular-394" transform="translate(141.601562 0.5625)"/>
     <use xlink:href="#STIXGeneral-Italic-3b8" transform="translate(213.801544 0.5625)"/>
     <use xlink:href="#STIXGeneral-Regular-3d" transform="translate(276.241525 0.5625)"/>
     <use xlink:href="#STIXGeneral-Regular-2b" transform="translate(359.181506 0.5625)"/>
     <use xlink:href="#STIXGeneral-Regular-30" transform="translate(427.681491 0.5625)"/>
     <use xlink:href="#STIXGeneral-Regular-2e" transform="translate(477.681476 0.5625)"/>
     <use xlink:href="#STIXGeneral-Regular-33" transform="translate(502.681461 0.5625)"/>
     <use xlink:href="#STIXGeneral-Regular-30" transform="translate(552.681445 0.5625)"/>
    </g>
   </g>
  </g>
  <g id="axes_5">
   <g id="patch_18">
    <path d="M 365 753.1 
L 707.8 753.1 
L 707.8 428.615 
L 365 428.615 
z
" style="fill: #ffffff"/>
   </g>
   <g id="patch_19">
    <path d="M 379.347236 716.373227 
L 379.348702 716.876372 
L 379.353146 717.296435 
L 379.36055 717.715088 
L 379.370905 718.132783 
L 379.384202 718.549525 
L 379.400433 718.965233 
L 379.419586 719.379802 
L 379.441653 719.793117 
L 379.466619 720.205061 
L 379.494474 720.615515 
L 379.525205 721.02436 
L 379.558796 721.431478 
L 379.595234 721.836751 
L 379.634505 722.240068 
L 379.676587 722.641295 
L 379.721468 723.040338 
L 379.769129 723.437069 
L 379.819552 723.831383 
L 379.872717 724.223165 
L 379.928605 724.612306 
L 379.987196 724.998697 
L 380.048468 725.382229 
L 380.1124 725.762795 
L 380.178971 726.140291 
L 380.248156 726.514611 
L 380.319933 726.885652 
L 380.394278 727.253314 
L 380.471167 727.617494 
L 380.550574 727.978094 
L 380.632474 728.335016 
L 380.716841 728.688162 
L 380.803648 729.037438 
L 380.892872 729.382748 
L 380.984476 729.724001 
L 381.078441 730.061103 
L 381.174736 730.393964 
L 381.273331 730.722496 
L 381.374201 731.046605 
L 381.477309 731.366211 
L 381.582625 731.681232 
L 381.690125 731.991572 
L 381.799775 732.297154 
L 381.911542 732.597894 
L 382.025395 732.893712 
L 382.141303 733.184529 
L 382.259231 733.470264 
L 382.379147 733.750842 
L 382.501018 734.026187 
L 382.624808 734.296222 
L 382.750485 734.560875 
L 382.878012 734.820074 
L 383.007356 735.073746 
L 383.138479 735.321822 
L 383.271347 735.564233 
L 383.405922 735.800912 
L 383.542169 736.03179 
L 383.68005 736.256805 
L 383.819527 736.47589 
L 383.960562 736.688984 
L 384.103118 736.896025 
L 384.247155 737.096953 
L 384.392635 737.291707 
L 384.539517 737.480232 
L 384.687763 737.66247 
L 384.837329 737.838358 
L 384.98818 738.007866 
L 385.140271 738.170917 
L 385.293561 738.327469 
L 385.448008 738.477471 
L 385.603571 738.620875 
L 385.760206 738.757633 
L 385.91787 738.887702 
L 386.076521 739.011035 
L 386.236114 739.12759 
L 386.396605 739.237327 
L 386.55795 739.340205 
L 386.720103 739.436187 
L 386.883019 739.525234 
L 387.046654 739.607315 
L 387.21096 739.682394 
L 387.375892 739.75044 
L 387.541403 739.811422 
L 387.707448 739.865317 
L 387.87398 739.912091 
L 388.040953 739.951724 
L 388.208324 739.984192 
L 388.376053 740.009474 
L 388.544116 740.027551 
L 388.712549 740.038402 
L 388.883367 740.041995 
L 400.543962 739.879273 
L 514.845264 732.470012 
L 543.06729 729.799191 
L 543.237719 729.773527 
L 543.407704 729.740563 
L 543.577593 729.700243 
L 543.747394 729.652552 
L 543.917071 729.597482 
L 544.086581 729.535026 
L 544.255871 729.465183 
L 544.424889 729.38795 
L 544.593581 729.303332 
L 544.761892 729.211334 
L 544.929767 729.111965 
L 545.09715 729.005236 
L 545.263984 728.891162 
L 545.430212 728.769759 
L 545.595778 728.641049 
L 545.760625 728.505055 
L 545.924696 728.361803 
L 546.087932 728.211324 
L 546.25028 728.053643 
L 546.411675 727.888811 
L 546.572063 727.716869 
L 546.731389 727.537845 
L 546.889595 727.351783 
L 547.04662 727.158757 
L 547.202411 726.958797 
L 547.356911 726.751959 
L 547.51006 726.538326 
L 547.661806 726.317938 
L 547.812091 726.090861 
L 547.960859 725.857187 
L 548.108057 725.616966 
L 548.253629 725.370285 
L 548.397522 725.11722 
L 548.539682 724.857855 
L 548.680057 724.592275 
L 548.818595 724.320571 
L 548.955243 724.042833 
L 549.089953 723.759157 
L 549.222671 723.469632 
L 549.353353 723.174377 
L 549.481951 722.873487 
L 549.608415 722.567068 
L 549.732701 722.25523 
L 549.854764 721.938084 
L 549.974562 721.615753 
L 550.092043 721.288332 
L 550.207175 720.95596 
L 550.319914 720.618753 
L 550.430224 720.276838 
L 550.538059 719.930331 
L 550.643388 719.579366 
L 550.746172 719.224072 
L 550.846379 718.864579 
L 550.943974 718.501021 
L 551.038926 718.133531 
L 551.131204 717.762246 
L 551.220779 717.387301 
L 551.307623 717.008837 
L 551.391709 716.62699 
L 551.473012 716.241902 
L 551.551506 715.85371 
L 551.627176 715.462568 
L 551.699992 715.068602 
L 551.769936 714.671959 
L 551.836996 714.272795 
L 551.901149 713.871238 
L 551.96238 713.467438 
L 552.020674 713.061541 
L 552.076024 712.653677 
L 552.128411 712.244004 
L 552.177828 711.832661 
L 552.224265 711.419789 
L 552.267715 711.005532 
L 552.308172 710.59003 
L 552.345629 710.173424 
L 552.380084 709.755855 
L 552.411533 709.337462 
L 552.439974 708.918381 
L 552.465407 708.49875 
L 552.487833 708.078701 
L 552.507254 707.658365 
L 552.523672 707.237867 
L 552.53709 706.817319 
L 552.547517 706.396801 
L 552.554954 705.976286 
L 552.559409 705.55512 
L 552.667342 579.412853 
L 552.665864 578.946072 
L 552.661394 578.52342 
L 552.653948 578.102431 
L 552.643543 577.682721 
L 552.630192 577.264294 
L 552.613909 576.847232 
L 552.594708 576.431639 
L 552.572605 576.017626 
L 552.547616 575.605309 
L 552.519757 575.194801 
L 552.489046 574.786218 
L 552.455502 574.379671 
L 552.419143 573.975274 
L 552.379989 573.573136 
L 552.338059 573.173366 
L 552.293374 572.776072 
L 552.245956 572.381359 
L 552.195826 571.989332 
L 552.143006 571.600093 
L 552.087519 571.213742 
L 552.029388 570.830381 
L 551.968636 570.450105 
L 551.905287 570.073011 
L 551.839366 569.699194 
L 551.770896 569.328748 
L 551.699904 568.961763 
L 551.626414 568.598329 
L 551.550452 568.238537 
L 551.472044 567.882472 
L 551.391216 567.530221 
L 551.307994 567.181869 
L 551.222406 566.837498 
L 551.134478 566.49719 
L 551.044237 566.161027 
L 550.951712 565.829088 
L 550.856929 565.501452 
L 550.759916 565.178195 
L 550.660703 564.859393 
L 550.559316 564.545122 
L 550.455786 564.235456 
L 550.350139 563.930467 
L 550.242407 563.630227 
L 550.132617 563.334807 
L 550.020799 563.044278 
L 549.906983 562.758708 
L 549.791195 562.478174 
L 549.673475 562.202718 
L 549.553843 561.932433 
L 549.432335 561.667375 
L 549.308979 561.407608 
L 549.183807 561.153197 
L 549.056851 560.904207 
L 548.928142 560.660698 
L 548.797711 560.422733 
L 548.665591 560.190374 
L 548.531814 559.96368 
L 548.396412 559.742711 
L 548.259419 559.527527 
L 548.120867 559.318185 
L 547.980789 559.114744 
L 547.839221 558.917261 
L 547.696196 558.725792 
L 547.551748 558.540392 
L 547.405912 558.361116 
L 547.258724 558.188019 
L 547.110219 558.021154 
L 546.960434 557.860574 
L 546.809404 557.70633 
L 546.657167 557.558475 
L 546.503759 557.417058 
L 546.349219 557.282128 
L 546.193585 557.153735 
L 546.036895 557.031927 
L 545.879189 556.916749 
L 545.720506 556.808249 
L 545.560886 556.706471 
L 545.40037 556.611459 
L 545.238999 556.523255 
L 545.076815 556.441902 
L 544.913859 556.36744 
L 544.750174 556.299908 
L 544.585803 556.239345 
L 544.420789 556.185787 
L 544.255176 556.13927 
L 544.089007 556.099827 
L 543.922324 556.067491 
L 543.755167 556.042294 
L 543.58757 556.024266 
L 543.419529 556.013435 
L 543.250237 556.009837 
L 534.809111 556.072586 
L 443.621029 562.118108 
L 388.79436 566.359571 
L 388.626277 566.384898 
L 388.458341 566.417472 
L 388.290544 566.457299 
L 388.122915 566.504381 
L 387.955496 566.558719 
L 387.788334 566.620311 
L 387.621478 566.689151 
L 387.454976 566.765233 
L 387.288876 566.848555 
L 387.123235 566.939093 
L 386.9581 567.03684 
L 386.793526 567.141773 
L 386.629559 567.253887 
L 386.466253 567.373155 
L 386.30366 567.499554 
L 386.141831 567.633058 
L 385.980819 567.773639 
L 385.820675 567.921267 
L 385.661452 568.075908 
L 385.503201 568.237527 
L 385.345974 568.406086 
L 385.189823 568.581543 
L 385.0348 568.763855 
L 384.880957 568.952976 
L 384.728344 569.148856 
L 384.577013 569.351445 
L 384.427015 569.560688 
L 384.278401 569.776529 
L 384.131221 569.998906 
L 383.985526 570.227759 
L 383.841367 570.463029 
L 383.698791 570.704626 
L 383.557848 570.952503 
L 383.418587 571.206579 
L 383.281056 571.466778 
L 383.145303 571.733023 
L 383.011375 572.00523 
L 382.879319 572.283318 
L 382.749181 572.5672 
L 382.621007 572.856787 
L 382.49484 573.151988 
L 382.370727 573.452709 
L 382.24871 573.758855 
L 382.128832 574.070327 
L 382.011134 574.387024 
L 381.895658 574.708842 
L 381.782445 575.035676 
L 381.671534 575.367418 
L 381.562963 575.703958 
L 381.45677 576.045185 
L 381.352992 576.390985 
L 381.251665 576.741241 
L 381.152824 577.095836 
L 381.056503 577.45465 
L 380.962734 577.817562 
L 380.871549 578.184449 
L 380.782979 578.555186 
L 380.697055 578.929646 
L 380.613803 579.307703 
L 380.533253 579.689227 
L 380.455429 580.074088 
L 380.380359 580.462154 
L 380.308064 580.853293 
L 380.23857 581.24737 
L 380.171896 581.644252 
L 380.108064 582.043802 
L 380.047094 582.445884 
L 379.989003 582.850361 
L 379.933809 583.257094 
L 379.881526 583.665948 
L 379.83217 584.076783 
L 379.785755 584.48946 
L 379.742292 584.903839 
L 379.701793 585.31978 
L 379.664268 585.737145 
L 379.629725 586.155795 
L 379.59817 586.57559 
L 379.569612 586.996395 
L 379.544055 587.418069 
L 379.521504 587.840476 
L 379.501959 588.263487 
L 379.485425 588.68697 
L 379.471903 589.110812 
L 379.461387 589.53493 
L 379.45388 589.959356 
L 379.44938 590.384844 
z
" clip-path="url(#p6ff3a5e049)" style="fill: #1f77b4; opacity: 0.35; stroke: #00008b; stroke-width: 1.5; stroke-linejoin: miter"/>
   </g>
   <g id="patch_20">
    <path d="M 381.11582 728.008366 
L 384.591209 736.424128 
L 547.083918 727.133122 
L 554.6549 706.842403 
L 551.855988 557.294382 
L 388.221726 563.56615 
L 379.610184 585.12737 
z
" clip-path="url(#p6ff3a5e049)" style="fill: #ff7f0e; opacity: 0.35; stroke: #ff8c00; stroke-width: 1.5; stroke-linejoin: miter"/>
   </g>
   <g id="patch_21">
    <path d="M 387.634426 724.054282 
L 389.155336 727.736448 
L 536.968174 717.077568 
L 545.826735 692.186884 
L 543.122544 574.195956 
L 394.066748 577.003683 
L 386.755204 594.48486 
z
" clip-path="url(#p6ff3a5e049)" style="fill: #d62728; opacity: 0.35; stroke: #8b0000; stroke-width: 1.5; stroke-linejoin: miter"/>
   </g>
   <g id="matplotlib.axis_9"/>
   <g id="matplotlib.axis_10"/>
   <g id="text_5">
    <!-- (e) $\Delta\theta=-0.30$ -->
    <g transform="translate(497.53 425.755) scale(0.13 -0.13)">
     <defs>
      <path id="TimesNewRomanPSMT-65" d="M 681 1784 
Q 678 1147 991 784 
Q 1303 422 1725 422 
Q 2006 422 2214 576 
Q 2422 731 2563 1106 
L 2659 1044 
Q 2594 616 2278 264 
Q 1963 -88 1488 -88 
Q 972 -88 605 314 
Q 238 716 238 1394 
Q 238 2128 614 2539 
Q 991 2950 1559 2950 
Q 2041 2950 2350 2633 
Q 2659 2316 2659 1784 
L 681 1784 
z
M 681 1966 
L 2006 1966 
Q 1991 2241 1941 2353 
Q 1863 2528 1708 2628 
Q 1553 2728 1384 2728 
Q 1125 2728 920 2526 
Q 716 2325 681 1966 
z
" transform="scale(0.015625)"/>
     </defs>
     <use xlink:href="#TimesNewRomanPSMT-28" transform="translate(0 0.5625)"/>
     <use xlink:href="#TimesNewRomanPSMT-65" transform="translate(33.300781 0.5625)"/>
     <use xlink:href="#TimesNewRomanPSMT-29" transform="translate(77.685547 0.5625)"/>
     <use xlink:href="#TimesNewRomanPSMT-20" transform="translate(110.986328 0.5625)"/>
     <use xlink:href="#STIXGeneral-Regular-394" transform="translate(135.986328 0.5625)"/>
     <use xlink:href="#STIXGeneral-Italic-3b8" transform="translate(208.18631 0.5625)"/>
     <use xlink:href="#STIXGeneral-Regular-3d" transform="translate(270.626291 0.5625)"/>
     <use xlink:href="#STIXGeneral-Regular-2212" transform="translate(353.566272 0.5625)"/>
     <use xlink:href="#STIXGeneral-Regular-30" transform="translate(422.066257 0.5625)"/>
     <use xlink:href="#STIXGeneral-Regular-2e" transform="translate(472.066241 0.5625)"/>
     <use xlink:href="#STIXGeneral-Regular-33" transform="translate(497.066226 0.5625)"/>
     <use xlink:href="#STIXGeneral-Regular-30" transform="translate(547.066211 0.5625)"/>
    </g>
   </g>
  </g>
  <g id="axes_6">
   <g id="patch_22">
    <path d="M 722.8 753.1 
L 1065.6 753.1 
L 1065.6 428.615 
L 722.8 428.615 
z
" style="fill: #ffffff"/>
   </g>
   <g id="patch_23">
    <path d="M 787.130903 659.505415 
L 787.132879 660.132417 
L 787.138858 660.696858 
L 787.148812 661.259504 
L 787.162729 661.820781 
L 787.180594 662.380645 
L 787.202394 662.938974 
L 787.228115 663.495618 
L 787.257735 664.050422 
L 787.29124 664.603228 
L 787.328609 665.153875 
L 787.369826 665.702208 
L 787.414866 666.248069 
L 787.463708 666.791303 
L 787.516331 667.331755 
L 787.572709 667.869273 
L 787.632818 668.403706 
L 787.696633 668.934903 
L 787.764128 669.46272 
L 787.835273 669.98701 
L 787.910044 670.50763 
L 787.988411 671.024437 
L 788.070344 671.537293 
L 788.155813 672.046057 
L 788.244787 672.550595 
L 788.337235 673.050772 
L 788.433124 673.546455 
L 788.532421 674.037513 
L 788.635094 674.523818 
L 788.741107 675.005241 
L 788.850427 675.481658 
L 788.963018 675.952944 
L 789.078844 676.418978 
L 789.197869 676.879639 
L 789.320056 677.334808 
L 789.445369 677.78437 
L 789.573768 678.228206 
L 789.705215 678.666205 
L 789.839673 679.098254 
L 789.977101 679.524243 
L 790.117459 679.944062 
L 790.260708 680.357604 
L 790.406806 680.764764 
L 790.555712 681.165436 
L 790.707385 681.559518 
L 790.861783 681.946909 
L 791.018863 682.327508 
L 791.178582 682.701216 
L 791.340897 683.067938 
L 791.505764 683.427576 
L 791.673138 683.780038 
L 791.842974 684.12523 
L 792.015228 684.463061 
L 792.189853 684.79344 
L 792.366804 685.116279 
L 792.546034 685.431491 
L 792.727496 685.73899 
L 792.911142 686.038691 
L 793.096924 686.330511 
L 793.284793 686.614368 
L 793.474702 686.890182 
L 793.6666 687.157874 
L 793.860436 687.417366 
L 794.056162 687.668582 
L 794.253726 687.911448 
L 794.453075 688.145889 
L 794.654159 688.371834 
L 794.856925 688.589213 
L 795.061319 688.797957 
L 795.267288 688.997998 
L 795.474777 689.189271 
L 795.683733 689.371712 
L 795.894099 689.545258 
L 796.105821 689.709849 
L 796.318841 689.865424 
L 796.533102 690.011928 
L 796.748547 690.149303 
L 796.965119 690.277497 
L 797.182757 690.396457 
L 797.401406 690.506117 
L 797.620999 690.606478 
L 797.841483 690.697445 
L 798.062795 690.778991 
L 798.284873 690.851071 
L 798.507658 690.91365 
L 798.731088 690.966685 
L 798.955104 691.010145 
L 799.17965 691.043996 
L 799.404681 691.068206 
L 799.630199 691.082745 
L 799.857558 691.087571 
L 811.889069 690.993228 
L 890.549208 685.262784 
L 994.30341 674.323289 
L 1007.145097 672.550283 
L 1007.373847 672.505926 
L 1007.602405 672.45168 
L 1007.830942 672.38749 
L 1008.059433 672.313329 
L 1008.287817 672.229179 
L 1008.516029 672.135023 
L 1008.743995 672.030852 
L 1008.971642 671.916661 
L 1009.198895 671.792444 
L 1009.425676 671.658205 
L 1009.651909 671.51395 
L 1009.877515 671.359688 
L 1010.102414 671.195434 
L 1010.326529 671.021208 
L 1010.549779 670.837026 
L 1010.772081 670.64293 
L 1010.993356 670.438946 
L 1011.213523 670.225114 
L 1011.4325 670.001475 
L 1011.650206 669.768077 
L 1011.866558 669.524974 
L 1012.081475 669.272224 
L 1012.294873 669.009895 
L 1012.506675 668.738044 
L 1012.716796 668.45675 
L 1012.925156 668.166093 
L 1013.131673 667.866156 
L 1013.336268 667.557027 
L 1013.53886 667.238802 
L 1013.739369 666.911579 
L 1013.937717 666.575464 
L 1014.133826 666.230566 
L 1014.327617 665.877 
L 1014.519016 665.514886 
L 1014.707947 665.144348 
L 1014.894334 664.765516 
L 1015.078105 664.378525 
L 1015.259187 663.983513 
L 1015.437507 663.580615 
L 1015.613004 663.170006 
L 1015.785601 662.751811 
L 1015.955234 662.326196 
L 1016.121838 661.89332 
L 1016.285345 661.453344 
L 1016.445706 661.006455 
L 1016.602848 660.552804 
L 1016.756717 660.092574 
L 1016.907256 659.625944 
L 1017.054411 659.153095 
L 1017.198129 658.674212 
L 1017.338359 658.189482 
L 1017.475052 657.699096 
L 1017.60816 657.203246 
L 1017.73764 656.702125 
L 1017.863448 656.195931 
L 1017.985544 655.684863 
L 1018.103889 655.169118 
L 1018.218444 654.648905 
L 1018.329181 654.124409 
L 1018.436063 653.595851 
L 1018.53906 653.063427 
L 1018.638145 652.527344 
L 1018.733292 651.987806 
L 1018.824478 651.445019 
L 1018.91168 650.899188 
L 1018.994879 650.350516 
L 1019.074056 649.799219 
L 1019.149201 649.245483 
L 1019.220296 648.68952 
L 1019.28733 648.131539 
L 1019.350294 647.571736 
L 1019.409181 647.01031 
L 1019.463983 646.447463 
L 1019.514701 645.883394 
L 1019.56133 645.318297 
L 1019.603867 644.752365 
L 1019.642321 644.185793 
L 1019.676689 643.618768 
L 1019.706977 643.051476 
L 1019.733193 642.4841 
L 1019.755343 641.916812 
L 1019.773439 641.349775 
L 1019.78749 640.783116 
L 1019.797509 640.216847 
L 1019.803506 639.650292 
L 1020.003074 469.763203 
L 1020.001075 469.161049 
L 1019.995041 468.591569 
L 1019.985007 468.024397 
L 1019.970991 467.459188 
L 1019.953022 466.896002 
L 1019.931116 466.334957 
L 1019.9053 465.7762 
L 1019.875599 465.219883 
L 1019.842038 464.666155 
L 1019.804645 464.11517 
L 1019.763448 463.567075 
L 1019.718475 463.022018 
L 1019.669755 462.480143 
L 1019.617318 461.941592 
L 1019.561196 461.406506 
L 1019.501418 460.875019 
L 1019.438017 460.347267 
L 1019.371025 459.823381 
L 1019.300473 459.303484 
L 1019.226401 458.787719 
L 1019.148835 458.276193 
L 1019.067813 457.769033 
L 1018.983367 457.266357 
L 1018.895533 456.768283 
L 1018.804346 456.274924 
L 1018.709841 455.786393 
L 1018.61205 455.302796 
L 1018.511018 454.82425 
L 1018.406772 454.350851 
L 1018.299367 453.882629 
L 1018.18879 453.419919 
L 1018.075127 452.962587 
L 1017.958397 452.510809 
L 1017.838638 452.064683 
L 1017.715885 451.624302 
L 1017.590175 451.18976 
L 1017.461542 450.761151 
L 1017.330029 450.338562 
L 1017.195669 449.922085 
L 1017.058503 449.511802 
L 1016.918562 449.107808 
L 1016.775886 448.710185 
L 1016.630512 448.319018 
L 1016.482474 447.934397 
L 1016.331821 447.556381 
L 1016.178577 447.185077 
L 1016.022785 446.820558 
L 1015.864483 446.462901 
L 1015.703708 446.112188 
L 1015.540498 445.768496 
L 1015.374893 445.431904 
L 1015.20693 445.102488 
L 1015.036647 444.780324 
L 1014.864083 444.465489 
L 1014.689278 444.158058 
L 1014.51227 443.858107 
L 1014.3331 443.565709 
L 1014.151806 443.280947 
L 1013.968429 443.003871 
L 1013.78301 442.734577 
L 1013.595589 442.473131 
L 1013.406208 442.219604 
L 1013.214907 441.974068 
L 1013.02173 441.736596 
L 1012.826719 441.507257 
L 1012.629917 441.286122 
L 1012.431367 441.073264 
L 1012.231114 440.868749 
L 1012.029201 440.672648 
L 1011.825675 440.485028 
L 1011.620581 440.305959 
L 1011.413966 440.135508 
L 1011.205876 439.973741 
L 1010.99636 439.820725 
L 1010.785467 439.676525 
L 1010.573245 439.541205 
L 1010.359744 439.414829 
L 1010.145016 439.297461 
L 1009.929112 439.18916 
L 1009.712087 439.089996 
L 1009.493989 439.000013 
L 1009.274872 438.919272 
L 1009.054796 438.847841 
L 1008.833814 438.785769 
L 1008.61198 438.733111 
L 1008.389352 438.689919 
L 1008.165982 438.656245 
L 1007.94192 438.632137 
L 1007.717188 438.617644 
L 1007.49128 438.612819 
L 996.169945 438.724316 
L 995.22373 438.791748 
L 799.936577 457.378096 
L 799.711423 457.412026 
L 799.486419 457.455672 
L 799.261527 457.509053 
L 799.036786 457.57218 
L 798.812252 457.645058 
L 798.587987 457.72769 
L 798.364056 457.82008 
L 798.140524 457.922224 
L 797.91746 458.034117 
L 797.694932 458.155751 
L 797.473009 458.287114 
L 797.25176 458.428192 
L 797.031254 458.578966 
L 796.811562 458.739416 
L 796.592755 458.909516 
L 796.374902 459.08924 
L 796.158076 459.278554 
L 795.942346 459.477425 
L 795.727785 459.685812 
L 795.514464 459.903674 
L 795.302455 460.130965 
L 795.091828 460.367634 
L 794.882656 460.613628 
L 794.67501 460.86889 
L 794.468962 461.133356 
L 794.264582 461.406963 
L 794.061943 461.689641 
L 793.861115 461.981316 
L 793.662168 462.28191 
L 793.465173 462.591344 
L 793.270201 462.90953 
L 793.07732 463.236381 
L 792.886601 463.571801 
L 792.69811 463.915695 
L 792.511917 464.26796 
L 792.32809 464.62849 
L 792.146694 464.997178 
L 791.967796 465.373908 
L 791.791461 465.758565 
L 791.617753 466.151026 
L 791.446737 466.551167 
L 791.278475 466.95886 
L 791.113028 467.373972 
L 790.950458 467.796367 
L 790.790824 468.225905 
L 790.634184 468.662444 
L 790.480595 469.105836 
L 790.330115 469.555931 
L 790.182796 470.012578 
L 790.038694 470.475618 
L 789.89786 470.944893 
L 789.760345 471.42024 
L 789.626198 471.901495 
L 789.495467 472.388489 
L 789.368199 472.881052 
L 789.244438 473.37901 
L 789.124227 473.882188 
L 789.007609 474.390409 
L 788.894624 474.903493 
L 788.785309 475.421257 
L 788.679701 475.943518 
L 788.577836 476.47009 
L 788.479747 477.000787 
L 788.385465 477.535419 
L 788.295021 478.073798 
L 788.208442 478.615731 
L 788.125755 479.161028 
L 788.046983 479.709494 
L 787.972151 480.260935 
L 787.901279 480.815158 
L 787.834386 481.371968 
L 787.77149 481.93117 
L 787.712607 482.492568 
L 787.657749 483.055968 
L 787.606931 483.621173 
L 787.560161 484.187989 
L 787.517449 484.756222 
L 787.478802 485.325678 
L 787.444227 485.896164 
L 787.413723 486.467491 
L 787.387292 487.039483 
L 787.36494 487.611943 
L 787.346662 488.18471 
L 787.332455 488.757651 
L 787.322316 489.330757 
L 787.316239 489.904857 
z
" clip-path="url(#p8b1e0f33e6)" style="fill: #1f77b4; opacity: 0.35; stroke: #00008b; stroke-width: 1.5; stroke-linejoin: miter"/>
   </g>
   <g id="patch_24">
    <path d="M 788.880579 668.42169 
L 796.755019 687.626901 
L 1011.835042 667.22596 
L 1014.90923 660.626886 
L 1020.549997 464.126407 
L 1011.01592 441.074257 
L 793.299092 467.324829 
z
" clip-path="url(#p8b1e0f33e6)" style="fill: #ff7f0e; opacity: 0.35; stroke: #ff8c00; stroke-width: 1.5; stroke-linejoin: miter"/>
   </g>
   <g id="patch_25">
    <path d="M 795.035525 662.068222 
L 801.597035 678.085412 
L 1006.200011 656.047867 
L 1008.592076 650.791808 
L 1012.962627 481.66968 
L 1005.90896 464.61405 
L 799.33344 484.833534 
z
" clip-path="url(#p8b1e0f33e6)" style="fill: #d62728; opacity: 0.35; stroke: #8b0000; stroke-width: 1.5; stroke-linejoin: miter"/>
   </g>
   <g id="matplotlib.axis_11"/>
   <g id="matplotlib.axis_12"/>
   <g id="text_6">
    <!-- (f) $\Delta\theta=+0.45$ -->
    <g transform="translate(856.11 425.755) scale(0.13 -0.13)">
     <defs>
      <path id="TimesNewRomanPSMT-66" d="M 1319 2638 
L 1319 756 
Q 1319 356 1406 250 
Q 1522 113 1716 113 
L 1975 113 
L 1975 0 
L 266 0 
L 266 113 
L 394 113 
Q 519 113 622 175 
Q 725 238 764 344 
Q 803 450 803 756 
L 803 2638 
L 247 2638 
L 247 2863 
L 803 2863 
L 803 3050 
Q 803 3478 940 3775 
Q 1078 4072 1361 4255 
Q 1644 4438 1997 4438 
Q 2325 4438 2600 4225 
Q 2781 4084 2781 3909 
Q 2781 3816 2700 3733 
Q 2619 3650 2525 3650 
Q 2453 3650 2373 3701 
Q 2294 3753 2178 3923 
Q 2063 4094 1966 4153 
Q 1869 4213 1750 4213 
Q 1606 4213 1506 4136 
Q 1406 4059 1362 3898 
Q 1319 3738 1319 3069 
L 1319 2863 
L 2056 2863 
L 2056 2638 
L 1319 2638 
z
" transform="scale(0.015625)"/>
      <path id="STIXGeneral-Regular-34" d="M 3027 1069 
L 2368 1069 
L 2368 0 
L 1869 0 
L 1869 1069 
L 77 1069 
L 77 1478 
L 2086 4326 
L 2368 4326 
L 2368 1478 
L 3027 1478 
L 3027 1069 
z
M 1869 1478 
L 1869 3674 
L 333 1478 
L 1869 1478 
z
" transform="scale(0.015625)"/>
     </defs>
     <use xlink:href="#TimesNewRomanPSMT-28" transform="translate(0 0.5625)"/>
     <use xlink:href="#TimesNewRomanPSMT-66" transform="translate(33.300781 0.5625)"/>
     <use xlink:href="#TimesNewRomanPSMT-29" transform="translate(66.601562 0.5625)"/>
     <use xlink:href="#TimesNewRomanPSMT-20" transform="translate(99.902344 0.5625)"/>
     <use xlink:href="#STIXGeneral-Regular-394" transform="translate(124.902344 0.5625)"/>
     <use xlink:href="#STIXGeneral-Italic-3b8" transform="translate(197.102325 0.5625)"/>
     <use xlink:href="#STIXGeneral-Regular-3d" transform="translate(259.542307 0.5625)"/>
     <use xlink:href="#STIXGeneral-Regular-2b" transform="translate(342.482288 0.5625)"/>
     <use xlink:href="#STIXGeneral-Regular-30" transform="translate(410.982272 0.5625)"/>
     <use xlink:href="#STIXGeneral-Regular-2e" transform="translate(460.982257 0.5625)"/>
     <use xlink:href="#STIXGeneral-Regular-34" transform="translate(485.982242 0.5625)"/>
     <use xlink:href="#STIXGeneral-Regular-35" transform="translate(535.982227 0.5625)"/>
    </g>
   </g>
  </g>
  <g id="legend_1">
   <g id="patch_26">
    <path d="M 285.543672 29.505156 
L 787.256328 29.505156 
Q 789.856328 29.505156 789.856328 26.905156 
L 789.856328 9.8 
Q 789.856328 7.2 787.256328 7.2 
L 285.543672 7.2 
Q 282.943672 7.2 282.943672 9.8 
L 282.943672 26.905156 
Q 282.943672 29.505156 285.543672 29.505156 
z
" style="fill: #ffffff; opacity: 0.8; stroke: #cccccc; stroke-linejoin: miter"/>
   </g>
   <g id="patch_27">
    <path d="M 288.143672 21.5 
L 314.143672 21.5 
L 314.143672 12.4 
L 288.143672 12.4 
z
" style="fill: #1f77b4; opacity: 0.35; stroke: #00008b; stroke-width: 1.5; stroke-linejoin: miter"/>
   </g>
   <g id="text_7">
    <!-- Original region -->
    <g transform="translate(324.543672 21.5) scale(0.13 -0.13)">
     <defs>
      <path id="TimesNewRomanPSMT-4f" d="M 2341 4334 
Q 3166 4334 3770 3707 
Q 4375 3081 4375 2144 
Q 4375 1178 3765 540 
Q 3156 -97 2291 -97 
Q 1416 -97 820 525 
Q 225 1147 225 2134 
Q 225 3144 913 3781 
Q 1509 4334 2341 4334 
z
M 2281 4106 
Q 1713 4106 1369 3684 
Q 941 3159 941 2147 
Q 941 1109 1384 550 
Q 1725 125 2284 125 
Q 2881 125 3270 590 
Q 3659 1056 3659 2059 
Q 3659 3147 3231 3681 
Q 2888 4106 2281 4106 
z
" transform="scale(0.015625)"/>
      <path id="TimesNewRomanPSMT-72" d="M 1038 2947 
L 1038 2303 
Q 1397 2947 1775 2947 
Q 1947 2947 2059 2842 
Q 2172 2738 2172 2600 
Q 2172 2478 2090 2393 
Q 2009 2309 1897 2309 
Q 1788 2309 1652 2417 
Q 1516 2525 1450 2525 
Q 1394 2525 1328 2463 
Q 1188 2334 1038 2041 
L 1038 669 
Q 1038 431 1097 309 
Q 1138 225 1241 169 
Q 1344 113 1538 113 
L 1538 0 
L 72 0 
L 72 113 
Q 291 113 397 181 
Q 475 231 506 341 
Q 522 394 522 644 
L 522 1753 
Q 522 2253 501 2348 
Q 481 2444 426 2487 
Q 372 2531 291 2531 
Q 194 2531 72 2484 
L 41 2597 
L 906 2947 
L 1038 2947 
z
" transform="scale(0.015625)"/>
      <path id="TimesNewRomanPSMT-69" d="M 928 4444 
Q 1059 4444 1151 4351 
Q 1244 4259 1244 4128 
Q 1244 3997 1151 3903 
Q 1059 3809 928 3809 
Q 797 3809 703 3903 
Q 609 3997 609 4128 
Q 609 4259 701 4351 
Q 794 4444 928 4444 
z
M 1188 2947 
L 1188 647 
Q 1188 378 1227 289 
Q 1266 200 1342 156 
Q 1419 113 1622 113 
L 1622 0 
L 231 0 
L 231 113 
Q 441 113 512 153 
Q 584 194 626 287 
Q 669 381 669 647 
L 669 1750 
Q 669 2216 641 2353 
Q 619 2453 572 2492 
Q 525 2531 444 2531 
Q 356 2531 231 2484 
L 188 2597 
L 1050 2947 
L 1188 2947 
z
" transform="scale(0.015625)"/>
      <path id="TimesNewRomanPSMT-67" d="M 966 1044 
Q 703 1172 562 1401 
Q 422 1631 422 1909 
Q 422 2334 742 2640 
Q 1063 2947 1563 2947 
Q 1972 2947 2272 2747 
L 2878 2747 
Q 3013 2747 3034 2739 
Q 3056 2731 3066 2713 
Q 3084 2684 3084 2613 
Q 3084 2531 3069 2500 
Q 3059 2484 3036 2475 
Q 3013 2466 2878 2466 
L 2506 2466 
Q 2681 2241 2681 1891 
Q 2681 1491 2375 1206 
Q 2069 922 1553 922 
Q 1341 922 1119 984 
Q 981 866 932 777 
Q 884 688 884 625 
Q 884 572 936 522 
Q 988 472 1138 450 
Q 1225 438 1575 428 
Q 2219 413 2409 384 
Q 2700 344 2873 169 
Q 3047 -6 3047 -263 
Q 3047 -616 2716 -925 
Q 2228 -1381 1444 -1381 
Q 841 -1381 425 -1109 
Q 191 -953 191 -784 
Q 191 -709 225 -634 
Q 278 -519 444 -313 
Q 466 -284 763 25 
Q 600 122 533 198 
Q 466 275 466 372 
Q 466 481 555 628 
Q 644 775 966 1044 
z
M 1509 2797 
Q 1278 2797 1122 2612 
Q 966 2428 966 2047 
Q 966 1553 1178 1281 
Q 1341 1075 1591 1075 
Q 1828 1075 1981 1253 
Q 2134 1431 2134 1813 
Q 2134 2309 1919 2591 
Q 1759 2797 1509 2797 
z
M 934 0 
Q 788 -159 713 -296 
Q 638 -434 638 -550 
Q 638 -700 819 -813 
Q 1131 -1006 1722 -1006 
Q 2284 -1006 2551 -807 
Q 2819 -609 2819 -384 
Q 2819 -222 2659 -153 
Q 2497 -84 2016 -72 
Q 1313 -53 934 0 
z
" transform="scale(0.015625)"/>
      <path id="TimesNewRomanPSMT-6e" d="M 1034 2341 
Q 1538 2947 1994 2947 
Q 2228 2947 2397 2830 
Q 2566 2713 2666 2444 
Q 2734 2256 2734 1869 
L 2734 647 
Q 2734 375 2778 278 
Q 2813 200 2889 156 
Q 2966 113 3172 113 
L 3172 0 
L 1756 0 
L 1756 113 
L 1816 113 
Q 2016 113 2095 173 
Q 2175 234 2206 353 
Q 2219 400 2219 647 
L 2219 1819 
Q 2219 2209 2117 2386 
Q 2016 2563 1775 2563 
Q 1403 2563 1034 2156 
L 1034 647 
Q 1034 356 1069 288 
Q 1113 197 1189 155 
Q 1266 113 1500 113 
L 1500 0 
L 84 0 
L 84 113 
L 147 113 
Q 366 113 442 223 
Q 519 334 519 647 
L 519 1709 
Q 519 2225 495 2337 
Q 472 2450 423 2490 
Q 375 2531 294 2531 
Q 206 2531 84 2484 
L 38 2597 
L 900 2947 
L 1034 2947 
L 1034 2341 
z
" transform="scale(0.015625)"/>
      <path id="TimesNewRomanPSMT-6c" d="M 1184 4444 
L 1184 647 
Q 1184 378 1223 290 
Q 1263 203 1344 158 
Q 1425 113 1647 113 
L 1647 0 
L 244 0 
L 244 113 
Q 441 113 512 153 
Q 584 194 625 287 
Q 666 381 666 647 
L 666 3247 
Q 666 3731 644 3842 
Q 622 3953 573 3993 
Q 525 4034 450 4034 
Q 369 4034 244 3984 
L 191 4094 
L 1044 4444 
L 1184 4444 
z
" transform="scale(0.015625)"/>
      <path id="TimesNewRomanPSMT-6f" d="M 1600 2947 
Q 2250 2947 2644 2453 
Q 2978 2031 2978 1484 
Q 2978 1100 2793 706 
Q 2609 313 2286 112 
Q 1963 -88 1566 -88 
Q 919 -88 538 428 
Q 216 863 216 1403 
Q 216 1797 411 2186 
Q 606 2575 925 2761 
Q 1244 2947 1600 2947 
z
M 1503 2744 
Q 1338 2744 1170 2645 
Q 1003 2547 900 2300 
Q 797 2053 797 1666 
Q 797 1041 1045 587 
Q 1294 134 1700 134 
Q 2003 134 2200 384 
Q 2397 634 2397 1244 
Q 2397 2006 2069 2444 
Q 1847 2744 1503 2744 
z
" transform="scale(0.015625)"/>
     </defs>
     <use xlink:href="#TimesNewRomanPSMT-4f"/>
     <use xlink:href="#TimesNewRomanPSMT-72" transform="translate(72.216797 0)"/>
     <use xlink:href="#TimesNewRomanPSMT-69" transform="translate(105.517578 0)"/>
     <use xlink:href="#TimesNewRomanPSMT-67" transform="translate(133.300781 0)"/>
     <use xlink:href="#TimesNewRomanPSMT-69" transform="translate(183.300781 0)"/>
     <use xlink:href="#TimesNewRomanPSMT-6e" transform="translate(211.083984 0)"/>
     <use xlink:href="#TimesNewRomanPSMT-61" transform="translate(261.083984 0)"/>
     <use xlink:href="#TimesNewRomanPSMT-6c" transform="translate(305.46875 0)"/>
     <use xlink:href="#TimesNewRomanPSMT-20" transform="translate(333.251953 0)"/>
     <use xlink:href="#TimesNewRomanPSMT-72" transform="translate(358.251953 0)"/>
     <use xlink:href="#TimesNewRomanPSMT-65" transform="translate(391.552734 0)"/>
     <use xlink:href="#TimesNewRomanPSMT-67" transform="translate(435.9375 0)"/>
     <use xlink:href="#TimesNewRomanPSMT-69" transform="translate(485.9375 0)"/>
     <use xlink:href="#TimesNewRomanPSMT-6f" transform="translate(513.720703 0)"/>
     <use xlink:href="#TimesNewRomanPSMT-6e" transform="translate(563.720703 0)"/>
    </g>
   </g>
   <g id="patch_28">
    <path d="M 430.327109 21.5 
L 456.327109 21.5 
L 456.327109 12.4 
L 430.327109 12.4 
z
" style="fill: #ff7f0e; opacity: 0.35; stroke: #ff8c00; stroke-width: 1.5; stroke-linejoin: miter"/>
   </g>
   <g id="text_8">
    <!-- Learned region-moderate -->
    <g transform="translate(466.727109 21.5) scale(0.13 -0.13)">
     <defs>
      <path id="TimesNewRomanPSMT-4c" d="M 3669 1172 
L 3772 1150 
L 3409 0 
L 128 0 
L 128 116 
L 288 116 
Q 556 116 672 291 
Q 738 391 738 753 
L 738 3488 
Q 738 3884 650 3984 
Q 528 4122 288 4122 
L 128 4122 
L 128 4238 
L 2047 4238 
L 2047 4122 
Q 1709 4125 1573 4059 
Q 1438 3994 1388 3894 
Q 1338 3794 1338 3416 
L 1338 753 
Q 1338 494 1388 397 
Q 1425 331 1503 300 
Q 1581 269 1991 269 
L 2300 269 
Q 2788 269 2984 341 
Q 3181 413 3343 595 
Q 3506 778 3669 1172 
z
" transform="scale(0.015625)"/>
      <path id="TimesNewRomanPSMT-2d" d="M 259 1672 
L 1875 1672 
L 1875 1200 
L 259 1200 
L 259 1672 
z
" transform="scale(0.015625)"/>
      <path id="TimesNewRomanPSMT-6d" d="M 1050 2338 
Q 1363 2650 1419 2697 
Q 1559 2816 1721 2881 
Q 1884 2947 2044 2947 
Q 2313 2947 2506 2790 
Q 2700 2634 2766 2338 
Q 3088 2713 3309 2830 
Q 3531 2947 3766 2947 
Q 3994 2947 4170 2830 
Q 4347 2713 4450 2447 
Q 4519 2266 4519 1878 
L 4519 647 
Q 4519 378 4559 278 
Q 4591 209 4675 161 
Q 4759 113 4950 113 
L 4950 0 
L 3538 0 
L 3538 113 
L 3597 113 
Q 3781 113 3884 184 
Q 3956 234 3988 344 
Q 4000 397 4000 647 
L 4000 1878 
Q 4000 2228 3916 2372 
Q 3794 2572 3525 2572 
Q 3359 2572 3192 2489 
Q 3025 2406 2788 2181 
L 2781 2147 
L 2788 2013 
L 2788 647 
Q 2788 353 2820 281 
Q 2853 209 2943 161 
Q 3034 113 3253 113 
L 3253 0 
L 1806 0 
L 1806 113 
Q 2044 113 2133 169 
Q 2222 225 2256 338 
Q 2272 391 2272 647 
L 2272 1878 
Q 2272 2228 2169 2381 
Q 2031 2581 1784 2581 
Q 1616 2581 1450 2491 
Q 1191 2353 1050 2181 
L 1050 647 
Q 1050 366 1089 281 
Q 1128 197 1204 155 
Q 1281 113 1516 113 
L 1516 0 
L 100 0 
L 100 113 
Q 297 113 375 155 
Q 453 197 493 289 
Q 534 381 534 647 
L 534 1741 
Q 534 2213 506 2350 
Q 484 2453 437 2492 
Q 391 2531 309 2531 
Q 222 2531 100 2484 
L 53 2597 
L 916 2947 
L 1050 2947 
L 1050 2338 
z
" transform="scale(0.015625)"/>
      <path id="TimesNewRomanPSMT-74" d="M 1031 3803 
L 1031 2863 
L 1700 2863 
L 1700 2644 
L 1031 2644 
L 1031 788 
Q 1031 509 1111 412 
Q 1191 316 1316 316 
Q 1419 316 1516 380 
Q 1613 444 1666 569 
L 1788 569 
Q 1678 263 1478 108 
Q 1278 -47 1066 -47 
Q 922 -47 784 33 
Q 647 113 581 261 
Q 516 409 516 719 
L 516 2644 
L 63 2644 
L 63 2747 
Q 234 2816 414 2980 
Q 594 3144 734 3369 
Q 806 3488 934 3803 
L 1031 3803 
z
" transform="scale(0.015625)"/>
     </defs>
     <use xlink:href="#TimesNewRomanPSMT-4c"/>
     <use xlink:href="#TimesNewRomanPSMT-65" transform="translate(61.083984 0)"/>
     <use xlink:href="#TimesNewRomanPSMT-61" transform="translate(105.46875 0)"/>
     <use xlink:href="#TimesNewRomanPSMT-72" transform="translate(149.853516 0)"/>
     <use xlink:href="#TimesNewRomanPSMT-6e" transform="translate(183.154297 0)"/>
     <use xlink:href="#TimesNewRomanPSMT-65" transform="translate(233.154297 0)"/>
     <use xlink:href="#TimesNewRomanPSMT-64" transform="translate(277.539062 0)"/>
     <use xlink:href="#TimesNewRomanPSMT-20" transform="translate(327.539062 0)"/>
     <use xlink:href="#TimesNewRomanPSMT-72" transform="translate(352.539062 0)"/>
     <use xlink:href="#TimesNewRomanPSMT-65" transform="translate(385.839844 0)"/>
     <use xlink:href="#TimesNewRomanPSMT-67" transform="translate(430.224609 0)"/>
     <use xlink:href="#TimesNewRomanPSMT-69" transform="translate(480.224609 0)"/>
     <use xlink:href="#TimesNewRomanPSMT-6f" transform="translate(508.007812 0)"/>
     <use xlink:href="#TimesNewRomanPSMT-6e" transform="translate(558.007812 0)"/>
     <use xlink:href="#TimesNewRomanPSMT-2d" transform="translate(608.007812 0)"/>
     <use xlink:href="#TimesNewRomanPSMT-6d" transform="translate(641.308594 0)"/>
     <use xlink:href="#TimesNewRomanPSMT-6f" transform="translate(719.091797 0)"/>
     <use xlink:href="#TimesNewRomanPSMT-64" transform="translate(769.091797 0)"/>
     <use xlink:href="#TimesNewRomanPSMT-65" transform="translate(819.091797 0)"/>
     <use xlink:href="#TimesNewRomanPSMT-72" transform="translate(863.476562 0)"/>
     <use xlink:href="#TimesNewRomanPSMT-61" transform="translate(896.777344 0)"/>
     <use xlink:href="#TimesNewRomanPSMT-74" transform="translate(941.162109 0)"/>
     <use xlink:href="#TimesNewRomanPSMT-65" transform="translate(968.945312 0)"/>
    </g>
   </g>
   <g id="patch_29">
    <path d="M 624.461797 21.5 
L 650.461797 21.5 
L 650.461797 12.4 
L 624.461797 12.4 
z
" style="fill: #d62728; opacity: 0.35; stroke: #8b0000; stroke-width: 1.5; stroke-linejoin: miter"/>
   </g>
   <g id="text_9">
    <!-- Learned region-feasible -->
    <g transform="translate(660.861797 21.5) scale(0.13 -0.13)">
     <defs>
      <path id="TimesNewRomanPSMT-73" d="M 2050 2947 
L 2050 1972 
L 1947 1972 
Q 1828 2431 1642 2597 
Q 1456 2763 1169 2763 
Q 950 2763 815 2647 
Q 681 2531 681 2391 
Q 681 2216 781 2091 
Q 878 1963 1175 1819 
L 1631 1597 
Q 2266 1288 2266 781 
Q 2266 391 1970 151 
Q 1675 -88 1309 -88 
Q 1047 -88 709 6 
Q 606 38 541 38 
Q 469 38 428 -44 
L 325 -44 
L 325 978 
L 428 978 
Q 516 541 762 319 
Q 1009 97 1316 97 
Q 1531 97 1667 223 
Q 1803 350 1803 528 
Q 1803 744 1651 891 
Q 1500 1038 1047 1263 
Q 594 1488 453 1669 
Q 313 1847 313 2119 
Q 313 2472 555 2709 
Q 797 2947 1181 2947 
Q 1350 2947 1591 2875 
Q 1750 2828 1803 2828 
Q 1853 2828 1881 2850 
Q 1909 2872 1947 2947 
L 2050 2947 
z
" transform="scale(0.015625)"/>
     </defs>
     <use xlink:href="#TimesNewRomanPSMT-4c"/>
     <use xlink:href="#TimesNewRomanPSMT-65" transform="translate(61.083984 0)"/>
     <use xlink:href="#TimesNewRomanPSMT-61" transform="translate(105.46875 0)"/>
     <use xlink:href="#TimesNewRomanPSMT-72" transform="translate(149.853516 0)"/>
     <use xlink:href="#TimesNewRomanPSMT-6e" transform="translate(183.154297 0)"/>
     <use xlink:href="#TimesNewRomanPSMT-65" transform="translate(233.154297 0)"/>
     <use xlink:href="#TimesNewRomanPSMT-64" transform="translate(277.539062 0)"/>
     <use xlink:href="#TimesNewRomanPSMT-20" transform="translate(327.539062 0)"/>
     <use xlink:href="#TimesNewRomanPSMT-72" transform="translate(352.539062 0)"/>
     <use xlink:href="#TimesNewRomanPSMT-65" transform="translate(385.839844 0)"/>
     <use xlink:href="#TimesNewRomanPSMT-67" transform="translate(430.224609 0)"/>
     <use xlink:href="#TimesNewRomanPSMT-69" transform="translate(480.224609 0)"/>
     <use xlink:href="#TimesNewRomanPSMT-6f" transform="translate(508.007812 0)"/>
     <use xlink:href="#TimesNewRomanPSMT-6e" transform="translate(558.007812 0)"/>
     <use xlink:href="#TimesNewRomanPSMT-2d" transform="translate(608.007812 0)"/>
     <use xlink:href="#TimesNewRomanPSMT-66" transform="translate(641.308594 0)"/>
     <use xlink:href="#TimesNewRomanPSMT-65" transform="translate(674.609375 0)"/>
     <use xlink:href="#TimesNewRomanPSMT-61" transform="translate(718.994141 0)"/>
     <use xlink:href="#TimesNewRomanPSMT-73" transform="translate(763.378906 0)"/>
     <use xlink:href="#TimesNewRomanPSMT-69" transform="translate(802.294922 0)"/>
     <use xlink:href="#TimesNewRomanPSMT-62" transform="translate(830.078125 0)"/>
     <use xlink:href="#TimesNewRomanPSMT-6c" transform="translate(880.078125 0)"/>
     <use xlink:href="#TimesNewRomanPSMT-65" transform="translate(907.861328 0)"/>
    </g>
   </g>
  </g>
 </g>
 <defs>
  <clipPath id="p468e76e039">
   <rect x="7.2" y="69.415" width="342.8" height="324.485"/>
  </clipPath>
  <clipPath id="p74fc2ff551">
   <rect x="365" y="69.415" width="342.8" height="324.485"/>
  </clipPath>
  <clipPath id="p02df0c3a59">
   <rect x="722.8" y="69.415" width="342.8" height="324.485"/>
  </clipPath>
  <clipPath id="p5aac439faa">
   <rect x="7.2" y="428.615" width="342.8" height="324.485"/>
  </clipPath>
  <clipPath id="p6ff3a5e049">
   <rect x="365" y="428.615" width="342.8" height="324.485"/>
  </clipPath>
  <clipPath id="p8b1e0f33e6">
   <rect x="722.8" y="428.615" width="342.8" height="324.485"/>
  </clipPath>
 </defs>
</svg>
