<?xml version="1.0" encoding="utf-8" standalone="no"?>
<!DOCTYPE svg PUBLIC "-//W3C//DTD SVG 1.1//EN"
  "http://www.w3.org/Graphics/SVG/1.1/DTD/svg11.dtd">
<svg xmlns:xlink="http://www.w3.org/1999/xlink" width="490.065625pt" height="474.598125pt" viewBox="0 0 490.065625 474.598125" xmlns="http://www.w3.org/2000/svg" version="1.1">
 <metadata>
  <rdf:RDF xmlns:dc="http://purl.org/dc/elements/1.1/" xmlns:cc="http://creativecommons.org/ns#" xmlns:rdf="http://www.w3.org/1999/02/22-rdf-syntax-ns#">
   <cc:Work>
    <dc:type rdf:resource="http://purl.org/dc/dcmitype/StillImage"/>
    <dc:date>2026-05-24T22:44:34.725594</dc:date>
    <dc:format>image/svg+xml</dc:format>
    <dc:creator>
     <cc:Agent>
      <dc:title>Matplotlib v3.10.6, https://matplotlib.org/</dc:title>
     </cc:Agent>
    </dc:creator>
   </cc:Work>
  </rdf:RDF>
 </metadata>
 <defs>
  <style type="text/css">*{stroke-linejoin: round; stroke-linecap: butt}</style>
 </defs>
 <g id="figure_1">
  <g id="patch_1">
   <path d="M 0 474.598125 
L 490.065625 474.598125 
L 490.065625 0 
L 0 0 
z
" style="fill: #ffffff"/>
  </g>
  <g id="axes_1">
   <g id="patch_2">
    <path d="M 36.465625 450.72 
L 482.865625 450.72 
L 482.865625 7.2 
L 36.465625 7.2 
z
" style="fill: #ffffff"/>
   </g>
   <g id="patch_3">
    <path d="M 135.860658 267.335792 
L 135.309552 286.044274 
L 134.691952 329.669945 
L 134.619447 347.899925 
L 134.62139 348.264234 
L 134.627243 348.62386 
L 134.636974 348.98187 
L 134.650553 349.338376 
L 134.667955 349.693353 
L 134.689153 350.046742 
L 134.71412 350.398479 
L 134.742829 350.748494 
L 134.775255 351.096719 
L 134.811368 351.443085 
L 134.851144 351.787523 
L 134.894555 352.129965 
L 134.941574 352.470346 
L 134.992174 352.808599 
L 135.046328 353.144659 
L 135.10401 353.478464 
L 135.165194 353.80995 
L 135.229852 354.139054 
L 135.297958 354.465717 
L 135.369485 354.789876 
L 135.444409 355.111473 
L 135.522702 355.430449 
L 135.604339 355.746743 
L 135.689294 356.060299 
L 135.777542 356.371059 
L 135.869056 356.678965 
L 135.963811 356.983961 
L 136.061783 357.285991 
L 136.162946 357.584997 
L 136.267275 357.880925 
L 136.374744 358.173719 
L 136.48533 358.463323 
L 136.599008 358.749681 
L 136.715752 359.032739 
L 136.835538 359.31244 
L 136.958342 359.588731 
L 137.084139 359.861555 
L 137.212905 360.130858 
L 137.344615 360.396583 
L 137.479244 360.658676 
L 137.616767 360.91708 
L 137.757162 361.171739 
L 137.900401 361.422599 
L 138.046461 361.669601 
L 138.195317 361.91269 
L 138.346944 362.151809 
L 138.501316 362.3869 
L 138.658408 362.617907 
L 138.818194 362.844771 
L 138.980648 363.067433 
L 139.145744 363.285836 
L 139.313456 363.49992 
L 139.483756 363.709627 
L 139.656617 363.914895 
L 139.832011 364.115666 
L 140.009911 364.311877 
L 140.190287 364.503469 
L 140.37311 364.69038 
L 140.558351 364.872547 
L 140.745979 365.049908 
L 140.935963 365.222401 
L 141.128271 365.389963 
L 141.322871 365.552529 
L 141.519728 365.710037 
L 141.718811 365.862421 
L 141.920082 366.009617 
L 142.123506 366.15156 
L 142.329047 366.288185 
L 142.536665 366.419427 
L 142.746323 366.545219 
L 142.95798 366.665497 
L 143.171594 366.780194 
L 143.387123 366.889245 
L 143.604523 366.992584 
L 143.823748 367.090146 
L 144.044752 367.181864 
L 144.267487 367.267673 
L 144.491904 367.347509 
L 144.71795 367.421307 
L 144.945575 367.489004 
L 145.174723 367.550535 
L 145.405339 367.605838 
L 145.637366 367.654852 
L 145.870747 367.697515 
L 146.105423 367.733768 
L 146.341337 367.763553 
L 146.578434 367.786812 
L 146.816679 367.803488 
L 147.056112 367.813527 
L 147.298232 367.816862 
L 179.644826 367.320704 
L 228.479242 365.309951 
L 240.617569 364.367383 
L 265.15473 362.022122 
L 290.548244 358.761296 
L 301.594143 357.066192 
L 301.861843 357.017411 
L 302.119893 356.962905 
L 302.378327 356.900932 
L 302.637105 356.831443 
L 302.896134 356.754405 
L 303.155308 356.669789 
L 303.414512 356.577574 
L 303.673629 356.477745 
L 303.932538 356.370293 
L 304.191115 356.255216 
L 304.449233 356.132519 
L 304.706763 356.002212 
L 304.963575 355.864317 
L 305.219538 355.718858 
L 305.474517 355.565869 
L 305.72838 355.405392 
L 305.98099 355.237476 
L 306.232212 355.062178 
L 306.481911 354.879562 
L 306.729952 354.689701 
L 306.976199 354.492675 
L 307.220519 354.28857 
L 307.462778 354.077483 
L 307.702845 353.859516 
L 307.940589 353.634777 
L 308.175884 353.403385 
L 308.408603 353.165462 
L 308.638623 352.921138 
L 308.865825 352.670549 
L 309.09009 352.413837 
L 309.311305 352.151148 
L 309.529361 351.882636 
L 309.74415 351.608456 
L 309.955571 351.328772 
L 310.163525 351.043747 
L 310.367918 350.753552 
L 310.568661 350.458357 
L 310.765669 350.158337 
L 310.958862 349.853669 
L 311.148164 349.544531 
L 311.333505 349.231103 
L 311.514818 348.913567 
L 311.692044 348.592102 
L 311.865124 348.266891 
L 312.034009 347.938114 
L 312.19865 347.605952 
L 312.359007 347.270585 
L 312.51504 346.93219 
L 312.666717 346.590943 
L 312.81401 346.24702 
L 312.956892 345.900593 
L 313.095345 345.551831 
L 313.229351 345.200902 
L 313.358897 344.847969 
L 313.483974 344.493195 
L 313.604577 344.136737 
L 313.720702 343.77875 
L 313.832352 343.419386 
L 313.939528 343.058791 
L 314.042238 342.69711 
L 314.140491 342.334484 
L 314.234298 341.971048 
L 314.323672 341.606936 
L 314.408631 341.242278 
L 314.48919 340.877198 
L 314.565371 340.511817 
L 314.637194 340.146255 
L 314.704682 339.780625 
L 314.767858 339.415037 
L 314.826749 339.049598 
L 314.88138 338.684413 
L 314.931778 338.319579 
L 314.977972 337.955192 
L 315.019991 337.591343 
L 315.057864 337.228118 
L 315.091621 336.865593 
L 315.121293 336.503827 
L 315.146915 336.142826 
L 315.168537 335.782237 
L 318.677455 271.965817 
L 318.822435 268.503081 
L 318.827227 268.325758 
L 319.355716 227.298022 
L 319.472978 203.871425 
L 319.472117 203.706797 
L 319.469486 203.544808 
L 319.465089 203.382908 
L 319.458922 203.220924 
L 319.450978 203.05884 
L 319.441251 202.896662 
L 319.429735 202.73442 
L 319.416425 202.572137 
L 319.401312 202.409838 
L 319.384391 202.247547 
L 319.365653 202.085284 
L 319.345088 201.923065 
L 319.322687 201.760902 
L 319.298437 201.598799 
L 319.272323 201.436751 
L 319.244326 201.27474 
L 319.214423 201.112733 
L 319.182583 200.950679 
L 319.148768 200.788496 
L 319.112924 200.626067 
L 319.074984 200.463225 
L 319.034851 200.299732 
L 318.992394 200.135253 
L 318.947428 199.969308 
L 318.899685 199.801205 
L 318.84877 199.629927 
L 318.794082 199.453936 
L 318.734662 199.270807 
L 318.668112 199.074237 
L 313.44819 183.984521 
L 313.063276 182.935732 
L 312.683471 181.940939 
L 312.314388 181.011019 
L 311.960267 180.152231 
L 308.862632 172.987121 
L 308.548825 172.280911 
L 304.029611 162.533926 
L 303.759338 161.968517 
L 301.778071 157.951853 
L 301.543204 157.494376 
L 301.323236 157.080955 
L 301.116543 156.705948 
L 300.921663 156.364571 
L 300.737224 156.052709 
L 300.561993 155.766489 
L 300.394848 155.502848 
L 300.234792 155.259056 
L 300.080941 155.032778 
L 299.932519 154.822015 
L 299.788841 154.625059 
L 299.64931 154.440451 
L 299.513403 154.266944 
L 299.380663 154.103469 
L 299.250689 153.949111 
L 299.123133 153.803085 
L 298.997689 153.664715 
L 298.874091 153.533419 
L 298.752105 153.408696 
L 298.631528 153.29011 
L 298.512181 153.177285 
L 298.39391 153.069894 
L 298.276577 152.967653 
L 298.160065 152.870314 
L 298.044269 152.777659 
L 297.9291 152.689499 
L 297.814479 152.605669 
L 297.700338 152.52602 
L 297.586619 152.450426 
L 297.473271 152.378773 
L 297.360252 152.310959 
L 297.247524 152.246897 
L 297.135058 152.186507 
L 297.022827 152.129719 
L 296.91081 152.076471 
L 296.798991 152.026706 
L 296.687356 151.980376 
L 296.575896 151.937434 
L 296.464604 151.897841 
L 296.353476 151.86156 
L 296.24251 151.828558 
L 296.131706 151.798805 
L 296.021066 151.772273 
L 295.910593 151.748937 
L 295.800294 151.728775 
L 295.690171 151.711765 
L 295.580445 151.697836 
L 295.470459 151.687123 
L 295.36085 151.679456 
L 295.251303 151.674873 
L 295.140184 151.673371 
L 265.16769 151.968472 
L 221.450567 153.367733 
L 215.219906 153.789377 
L 202.634381 155.057002 
L 154.239813 160.957775 
L 153.996508 160.995351 
L 153.752764 161.039907 
L 153.508431 161.09152 
L 153.263551 161.150246 
L 153.018193 161.216132 
L 152.772437 161.289223 
L 152.52637 161.369561 
L 152.280082 161.457182 
L 152.033666 161.552119 
L 151.787218 161.6544 
L 151.540839 161.76405 
L 151.29463 161.881088 
L 151.048696 162.005527 
L 150.803144 162.137378 
L 150.558083 162.276642 
L 150.313627 162.423319 
L 150.069887 162.577398 
L 149.82698 162.738865 
L 149.585024 162.907699 
L 149.344136 163.083871 
L 149.104439 163.267348 
L 148.866052 163.458087 
L 148.629098 163.656039 
L 148.393701 163.861149 
L 148.159984 164.073353 
L 147.928071 164.29258 
L 147.698085 164.518753 
L 147.47015 164.751787 
L 147.244389 164.991589 
L 147.020924 165.238059 
L 146.799875 165.491092 
L 146.581363 165.750572 
L 146.365505 166.016381 
L 146.152417 166.28839 
L 145.942213 166.566468 
L 145.735004 166.850473 
L 145.530899 167.140262 
L 145.330004 167.435683 
L 145.132421 167.736581 
L 144.93825 168.042794 
L 144.747586 168.354157 
L 144.560522 168.670501 
L 144.377145 168.991653 
L 144.19754 169.317436 
L 144.021787 169.647671 
L 143.849961 169.982176 
L 143.682134 170.320768 
L 143.518372 170.663259 
L 143.358739 171.009464 
L 143.203292 171.359195 
L 143.052083 171.712264 
L 142.905163 172.068481 
L 142.762576 172.427661 
L 142.624361 172.789615 
L 142.490555 173.154157 
L 142.361187 173.521102 
L 142.236286 173.890267 
L 142.115873 174.261472 
L 141.999968 174.634537 
L 141.888586 175.009286 
L 141.781736 175.385545 
L 141.679427 175.763143 
L 141.581663 176.141914 
L 141.488443 176.521693 
L 141.399765 176.902319 
L 141.315623 177.283635 
L 141.236008 177.665488 
L 141.160908 178.047729 
L 141.090311 178.430212 
L 141.024197 178.812795 
L 140.96255 179.195342 
L 140.905348 179.577719 
L 140.852567 179.9598 
L 140.804184 180.341463 
L 140.76017 180.722594 
L 140.720497 181.103097 
L 140.685131 181.482927 
L 140.653947 181.863305 
L 139.679037 196.144033 
L 137.737559 228.862397 
L 136.074699 262.259604 
z
" clip-path="url(#p3c8f365ab0)" style="fill: #0000ff; opacity: 0.3; stroke: #0000ff; stroke-linejoin: miter"/>
   </g>
   <g id="patch_4">
    <path d="M 134.619373 347.905369 
L 134.811324 351.443363 
L 135.369442 354.790032 
L 136.267229 357.881037 
L 137.479194 360.658766 
L 138.980592 363.067512 
L 140.74591 365.049981 
L 142.746227 366.545289 
L 144.945401 367.489075 
L 147.295276 367.816981 
L 302.63741 356.831478 
L 305.21966 355.718913 
L 307.702925 353.859578 
L 309.955633 351.328844 
L 311.865176 348.266977 
L 313.358941 344.848083 
L 314.408669 341.242454 
L 315.02002 337.59176 
L 319.473052 203.866558 
L 319.384443 202.247337 
L 319.112993 200.626022 
L 313.448149 183.984171 
L 301.543187 157.494276 
L 299.788871 154.624945 
L 298.512233 153.177196 
L 297.360334 152.31088 
L 296.242669 151.828483 
L 295.1432 151.673252 
L 153.017937 161.216083 
L 150.557973 162.27658 
L 148.159912 164.073282 
L 145.942157 166.566387 
L 144.021741 169.647575 
L 142.490515 173.154031 
L 141.39973 176.902124 
L 140.760152 180.72207 
z
" clip-path="url(#p3c8f365ab0)" style="fill: #008000; opacity: 0.3; stroke: #008000; stroke-linejoin: miter"/>
   </g>
   <g id="patch_5">
    <path d="M 138.856958 350.162823 
L 140.166783 355.968565 
L 143.734074 358.0421 
L 277.279578 354.105589 
L 305.494809 346.11732 
L 311.265656 329.914618 
L 311.836427 200.751631 
L 305.83314 174.786983 
L 294.041182 158.818756 
L 185.429665 159.644942 
L 147.95822 169.651796 
L 145.667699 173.993377 
L 139.849058 227.067152 
z
" clip-path="url(#p3c8f365ab0)" style="fill: #ff0000; opacity: 0.3; stroke: #0000ff; stroke-linejoin: miter"/>
   </g>
   <g id="matplotlib.axis_1">
    <g id="xtick_1">
     <g id="line2d_1">
      <defs>
       <path id="m06c71b1763" d="M 0 0 
L 0 3.5 
" style="stroke: #000000; stroke-width: 0.8"/>
      </defs>
      <g>
       <use xlink:href="#m06c71b1763" x="49.637175" y="450.72" style="stroke: #000000; stroke-width: 0.8"/>
      </g>
     </g>
     <g id="text_1">
      <!-- 0.2 -->
      <g transform="translate(41.685612 465.318437) scale(0.1 -0.1)">
       <defs>
        <path id="DejaVuSans-30" d="M 2034 4250 
Q 1547 4250 1301 3770 
Q 1056 3291 1056 2328 
Q 1056 1369 1301 889 
Q 1547 409 2034 409 
Q 2525 409 2770 889 
Q 3016 1369 3016 2328 
Q 3016 3291 2770 3770 
Q 2525 4250 2034 4250 
z
M 2034 4750 
Q 2819 4750 3233 4129 
Q 3647 3509 3647 2328 
Q 3647 1150 3233 529 
Q 2819 -91 2034 -91 
Q 1250 -91 836 529 
Q 422 1150 422 2328 
Q 422 3509 836 4129 
Q 1250 4750 2034 4750 
z
" transform="scale(0.015625)"/>
        <path id="DejaVuSans-2e" d="M 684 794 
L 1344 794 
L 1344 0 
L 684 0 
L 684 794 
z
" transform="scale(0.015625)"/>
        <path id="DejaVuSans-32" d="M 1228 531 
L 3431 531 
L 3431 0 
L 469 0 
L 469 531 
Q 828 903 1448 1529 
Q 2069 2156 2228 2338 
Q 2531 2678 2651 2914 
Q 2772 3150 2772 3378 
Q 2772 3750 2511 3984 
Q 2250 4219 1831 4219 
Q 1534 4219 1204 4116 
Q 875 4013 500 3803 
L 500 4441 
Q 881 4594 1212 4672 
Q 1544 4750 1819 4750 
Q 2544 4750 2975 4387 
Q 3406 4025 3406 3419 
Q 3406 3131 3298 2873 
Q 3191 2616 2906 2266 
Q 2828 2175 2409 1742 
Q 1991 1309 1228 531 
z
" transform="scale(0.015625)"/>
       </defs>
       <use xlink:href="#DejaVuSans-30"/>
       <use xlink:href="#DejaVuSans-2e" transform="translate(63.623047 0)"/>
       <use xlink:href="#DejaVuSans-32" transform="translate(95.410156 0)"/>
      </g>
     </g>
    </g>
    <g id="xtick_2">
     <g id="line2d_2">
      <g>
       <use xlink:href="#m06c71b1763" x="142.069104" y="450.72" style="stroke: #000000; stroke-width: 0.8"/>
      </g>
     </g>
     <g id="text_2">
      <!-- 0.3 -->
      <g transform="translate(134.117541 465.318437) scale(0.1 -0.1)">
       <defs>
        <path id="DejaVuSans-33" d="M 2597 2516 
Q 3050 2419 3304 2112 
Q 3559 1806 3559 1356 
Q 3559 666 3084 287 
Q 2609 -91 1734 -91 
Q 1441 -91 1130 -33 
Q 819 25 488 141 
L 488 750 
Q 750 597 1062 519 
Q 1375 441 1716 441 
Q 2309 441 2620 675 
Q 2931 909 2931 1356 
Q 2931 1769 2642 2001 
Q 2353 2234 1838 2234 
L 1294 2234 
L 1294 2753 
L 1863 2753 
Q 2328 2753 2575 2939 
Q 2822 3125 2822 3475 
Q 2822 3834 2567 4026 
Q 2313 4219 1838 4219 
Q 1578 4219 1281 4162 
Q 984 4106 628 3988 
L 628 4550 
Q 988 4650 1302 4700 
Q 1616 4750 1894 4750 
Q 2613 4750 3031 4423 
Q 3450 4097 3450 3541 
Q 3450 3153 3228 2886 
Q 3006 2619 2597 2516 
z
" transform="scale(0.015625)"/>
       </defs>
       <use xlink:href="#DejaVuSans-30"/>
       <use xlink:href="#DejaVuSans-2e" transform="translate(63.623047 0)"/>
       <use xlink:href="#DejaVuSans-33" transform="translate(95.410156 0)"/>
      </g>
     </g>
    </g>
    <g id="xtick_3">
     <g id="line2d_3">
      <g>
       <use xlink:href="#m06c71b1763" x="234.501032" y="450.72" style="stroke: #000000; stroke-width: 0.8"/>
      </g>
     </g>
     <g id="text_3">
      <!-- 0.4 -->
      <g transform="translate(226.54947 465.318437) scale(0.1 -0.1)">
       <defs>
        <path id="DejaVuSans-34" d="M 2419 4116 
L 825 1625 
L 2419 1625 
L 2419 4116 
z
M 2253 4666 
L 3047 4666 
L 3047 1625 
L 3713 1625 
L 3713 1100 
L 3047 1100 
L 3047 0 
L 2419 0 
L 2419 1100 
L 313 1100 
L 313 1709 
L 2253 4666 
z
" transform="scale(0.015625)"/>
       </defs>
       <use xlink:href="#DejaVuSans-30"/>
       <use xlink:href="#DejaVuSans-2e" transform="translate(63.623047 0)"/>
       <use xlink:href="#DejaVuSans-34" transform="translate(95.410156 0)"/>
      </g>
     </g>
    </g>
    <g id="xtick_4">
     <g id="line2d_4">
      <g>
       <use xlink:href="#m06c71b1763" x="326.932961" y="450.72" style="stroke: #000000; stroke-width: 0.8"/>
      </g>
     </g>
     <g id="text_4">
      <!-- 0.5 -->
      <g transform="translate(318.981399 465.318437) scale(0.1 -0.1)">
       <defs>
        <path id="DejaVuSans-35" d="M 691 4666 
L 3169 4666 
L 3169 4134 
L 1269 4134 
L 1269 2991 
Q 1406 3038 1543 3061 
Q 1681 3084 1819 3084 
Q 2600 3084 3056 2656 
Q 3513 2228 3513 1497 
Q 3513 744 3044 326 
Q 2575 -91 1722 -91 
Q 1428 -91 1123 -41 
Q 819 9 494 109 
L 494 744 
Q 775 591 1075 516 
Q 1375 441 1709 441 
Q 2250 441 2565 725 
Q 2881 1009 2881 1497 
Q 2881 1984 2565 2268 
Q 2250 2553 1709 2553 
Q 1456 2553 1204 2497 
Q 953 2441 691 2322 
L 691 4666 
z
" transform="scale(0.015625)"/>
       </defs>
       <use xlink:href="#DejaVuSans-30"/>
       <use xlink:href="#DejaVuSans-2e" transform="translate(63.623047 0)"/>
       <use xlink:href="#DejaVuSans-35" transform="translate(95.410156 0)"/>
      </g>
     </g>
    </g>
    <g id="xtick_5">
     <g id="line2d_5">
      <g>
       <use xlink:href="#m06c71b1763" x="419.36489" y="450.72" style="stroke: #000000; stroke-width: 0.8"/>
      </g>
     </g>
     <g id="text_5">
      <!-- 0.6 -->
      <g transform="translate(411.413327 465.318437) scale(0.1 -0.1)">
       <defs>
        <path id="DejaVuSans-36" d="M 2113 2584 
Q 1688 2584 1439 2293 
Q 1191 2003 1191 1497 
Q 1191 994 1439 701 
Q 1688 409 2113 409 
Q 2538 409 2786 701 
Q 3034 994 3034 1497 
Q 3034 2003 2786 2293 
Q 2538 2584 2113 2584 
z
M 3366 4563 
L 3366 3988 
Q 3128 4100 2886 4159 
Q 2644 4219 2406 4219 
Q 1781 4219 1451 3797 
Q 1122 3375 1075 2522 
Q 1259 2794 1537 2939 
Q 1816 3084 2150 3084 
Q 2853 3084 3261 2657 
Q 3669 2231 3669 1497 
Q 3669 778 3244 343 
Q 2819 -91 2113 -91 
Q 1303 -91 875 529 
Q 447 1150 447 2328 
Q 447 3434 972 4092 
Q 1497 4750 2381 4750 
Q 2619 4750 2861 4703 
Q 3103 4656 3366 4563 
z
" transform="scale(0.015625)"/>
       </defs>
       <use xlink:href="#DejaVuSans-30"/>
       <use xlink:href="#DejaVuSans-2e" transform="translate(63.623047 0)"/>
       <use xlink:href="#DejaVuSans-36" transform="translate(95.410156 0)"/>
      </g>
     </g>
    </g>
   </g>
   <g id="matplotlib.axis_2">
    <g id="ytick_1">
     <g id="line2d_6">
      <defs>
       <path id="mbf00693765" d="M 0 0 
L -3.5 0 
" style="stroke: #000000; stroke-width: 0.8"/>
      </defs>
      <g>
       <use xlink:href="#mbf00693765" x="36.465625" y="398.802943" style="stroke: #000000; stroke-width: 0.8"/>
      </g>
     </g>
     <g id="text_6">
      <!-- 0.15 -->
      <g transform="translate(7.2 402.602162) scale(0.1 -0.1)">
       <defs>
        <path id="DejaVuSans-31" d="M 794 531 
L 1825 531 
L 1825 4091 
L 703 3866 
L 703 4441 
L 1819 4666 
L 2450 4666 
L 2450 531 
L 3481 531 
L 3481 0 
L 794 0 
L 794 531 
z
" transform="scale(0.015625)"/>
       </defs>
       <use xlink:href="#DejaVuSans-30"/>
       <use xlink:href="#DejaVuSans-2e" transform="translate(63.623047 0)"/>
       <use xlink:href="#DejaVuSans-31" transform="translate(95.410156 0)"/>
       <use xlink:href="#DejaVuSans-35" transform="translate(159.033203 0)"/>
      </g>
     </g>
    </g>
    <g id="ytick_2">
     <g id="line2d_7">
      <g>
       <use xlink:href="#mbf00693765" x="36.465625" y="324.635719" style="stroke: #000000; stroke-width: 0.8"/>
      </g>
     </g>
     <g id="text_7">
      <!-- 0.20 -->
      <g transform="translate(7.2 328.434938) scale(0.1 -0.1)">
       <use xlink:href="#DejaVuSans-30"/>
       <use xlink:href="#DejaVuSans-2e" transform="translate(63.623047 0)"/>
       <use xlink:href="#DejaVuSans-32" transform="translate(95.410156 0)"/>
       <use xlink:href="#DejaVuSans-30" transform="translate(159.033203 0)"/>
      </g>
     </g>
    </g>
    <g id="ytick_3">
     <g id="line2d_8">
      <g>
       <use xlink:href="#mbf00693765" x="36.465625" y="250.468495" style="stroke: #000000; stroke-width: 0.8"/>
      </g>
     </g>
     <g id="text_8">
      <!-- 0.25 -->
      <g transform="translate(7.2 254.267714) scale(0.1 -0.1)">
       <use xlink:href="#DejaVuSans-30"/>
       <use xlink:href="#DejaVuSans-2e" transform="translate(63.623047 0)"/>
       <use xlink:href="#DejaVuSans-32" transform="translate(95.410156 0)"/>
       <use xlink:href="#DejaVuSans-35" transform="translate(159.033203 0)"/>
      </g>
     </g>
    </g>
    <g id="ytick_4">
     <g id="line2d_9">
      <g>
       <use xlink:href="#mbf00693765" x="36.465625" y="176.301271" style="stroke: #000000; stroke-width: 0.8"/>
      </g>
     </g>
     <g id="text_9">
      <!-- 0.30 -->
      <g transform="translate(7.2 180.10049) scale(0.1 -0.1)">
       <use xlink:href="#DejaVuSans-30"/>
       <use xlink:href="#DejaVuSans-2e" transform="translate(63.623047 0)"/>
       <use xlink:href="#DejaVuSans-33" transform="translate(95.410156 0)"/>
       <use xlink:href="#DejaVuSans-30" transform="translate(159.033203 0)"/>
      </g>
     </g>
    </g>
    <g id="ytick_5">
     <g id="line2d_10">
      <g>
       <use xlink:href="#mbf00693765" x="36.465625" y="102.134047" style="stroke: #000000; stroke-width: 0.8"/>
      </g>
     </g>
     <g id="text_10">
      <!-- 0.35 -->
      <g transform="translate(7.2 105.933266) scale(0.1 -0.1)">
       <use xlink:href="#DejaVuSans-30"/>
       <use xlink:href="#DejaVuSans-2e" transform="translate(63.623047 0)"/>
       <use xlink:href="#DejaVuSans-33" transform="translate(95.410156 0)"/>
       <use xlink:href="#DejaVuSans-35" transform="translate(159.033203 0)"/>
      </g>
     </g>
    </g>
    <g id="ytick_6">
     <g id="line2d_11">
      <g>
       <use xlink:href="#mbf00693765" x="36.465625" y="27.966823" style="stroke: #000000; stroke-width: 0.8"/>
      </g>
     </g>
     <g id="text_11">
      <!-- 0.40 -->
      <g transform="translate(7.2 31.766041) scale(0.1 -0.1)">
       <use xlink:href="#DejaVuSans-30"/>
       <use xlink:href="#DejaVuSans-2e" transform="translate(63.623047 0)"/>
       <use xlink:href="#DejaVuSans-34" transform="translate(95.410156 0)"/>
       <use xlink:href="#DejaVuSans-30" transform="translate(159.033203 0)"/>
      </g>
     </g>
    </g>
   </g>
   <g id="patch_6">
    <path d="M 36.465625 450.72 
L 36.465625 7.2 
" style="fill: none; stroke: #000000; stroke-width: 0.8; stroke-linejoin: miter; stroke-linecap: square"/>
   </g>
   <g id="patch_7">
    <path d="M 482.865625 450.72 
L 482.865625 7.2 
" style="fill: none; stroke: #000000; stroke-width: 0.8; stroke-linejoin: miter; stroke-linecap: square"/>
   </g>
   <g id="patch_8">
    <path d="M 36.465625 450.72 
L 482.865625 450.72 
" style="fill: none; stroke: #000000; stroke-width: 0.8; stroke-linejoin: miter; stroke-linecap: square"/>
   </g>
   <g id="patch_9">
    <path d="M 36.465625 7.2 
L 482.865625 7.2 
" style="fill: none; stroke: #000000; stroke-width: 0.8; stroke-linejoin: miter; stroke-linecap: square"/>
   </g>
   <g id="legend_1">
    <g id="patch_10">
     <path d="M 311.785937 23.798437 
L 331.785937 23.798437 
L 331.785937 16.798437 
L 311.785937 16.798437 
z
" style="fill: #0000ff; opacity: 0.3; stroke: #0000ff; stroke-linejoin: miter"/>
    </g>
    <g id="text_12">
     <!-- Original region -->
     <g transform="translate(339.785937 23.798437) scale(0.1 -0.1)">
      <defs>
       <path id="DejaVuSans-4f" d="M 2522 4238 
Q 1834 4238 1429 3725 
Q 1025 3213 1025 2328 
Q 1025 1447 1429 934 
Q 1834 422 2522 422 
Q 3209 422 3611 934 
Q 4013 1447 4013 2328 
Q 4013 3213 3611 3725 
Q 3209 4238 2522 4238 
z
M 2522 4750 
Q 3503 4750 4090 4092 
Q 4678 3434 4678 2328 
Q 4678 1225 4090 567 
Q 3503 -91 2522 -91 
Q 1538 -91 948 565 
Q 359 1222 359 2328 
Q 359 3434 948 4092 
Q 1538 4750 2522 4750 
z
" transform="scale(0.015625)"/>
       <path id="DejaVuSans-72" d="M 2631 2963 
Q 2534 3019 2420 3045 
Q 2306 3072 2169 3072 
Q 1681 3072 1420 2755 
Q 1159 2438 1159 1844 
L 1159 0 
L 581 0 
L 581 3500 
L 1159 3500 
L 1159 2956 
Q 1341 3275 1631 3429 
Q 1922 3584 2338 3584 
Q 2397 3584 2469 3576 
Q 2541 3569 2628 3553 
L 2631 2963 
z
" transform="scale(0.015625)"/>
       <path id="DejaVuSans-69" d="M 603 3500 
L 1178 3500 
L 1178 0 
L 603 0 
L 603 3500 
z
M 603 4863 
L 1178 4863 
L 1178 4134 
L 603 4134 
L 603 4863 
z
" transform="scale(0.015625)"/>
       <path id="DejaVuSans-67" d="M 2906 1791 
Q 2906 2416 2648 2759 
Q 2391 3103 1925 3103 
Q 1463 3103 1205 2759 
Q 947 2416 947 1791 
Q 947 1169 1205 825 
Q 1463 481 1925 481 
Q 2391 481 2648 825 
Q 2906 1169 2906 1791 
z
M 3481 434 
Q 3481 -459 3084 -895 
Q 2688 -1331 1869 -1331 
Q 1566 -1331 1297 -1286 
Q 1028 -1241 775 -1147 
L 775 -588 
Q 1028 -725 1275 -790 
Q 1522 -856 1778 -856 
Q 2344 -856 2625 -561 
Q 2906 -266 2906 331 
L 2906 616 
Q 2728 306 2450 153 
Q 2172 0 1784 0 
Q 1141 0 747 490 
Q 353 981 353 1791 
Q 353 2603 747 3093 
Q 1141 3584 1784 3584 
Q 2172 3584 2450 3431 
Q 2728 3278 2906 2969 
L 2906 3500 
L 3481 3500 
L 3481 434 
z
" transform="scale(0.015625)"/>
       <path id="DejaVuSans-6e" d="M 3513 2113 
L 3513 0 
L 2938 0 
L 2938 2094 
Q 2938 2591 2744 2837 
Q 2550 3084 2163 3084 
Q 1697 3084 1428 2787 
Q 1159 2491 1159 1978 
L 1159 0 
L 581 0 
L 581 3500 
L 1159 3500 
L 1159 2956 
Q 1366 3272 1645 3428 
Q 1925 3584 2291 3584 
Q 2894 3584 3203 3211 
Q 3513 2838 3513 2113 
z
" transform="scale(0.015625)"/>
       <path id="DejaVuSans-61" d="M 2194 1759 
Q 1497 1759 1228 1600 
Q 959 1441 959 1056 
Q 959 750 1161 570 
Q 1363 391 1709 391 
Q 2188 391 2477 730 
Q 2766 1069 2766 1631 
L 2766 1759 
L 2194 1759 
z
M 3341 1997 
L 3341 0 
L 2766 0 
L 2766 531 
Q 2569 213 2275 61 
Q 1981 -91 1556 -91 
Q 1019 -91 701 211 
Q 384 513 384 1019 
Q 384 1609 779 1909 
Q 1175 2209 1959 2209 
L 2766 2209 
L 2766 2266 
Q 2766 2663 2505 2880 
Q 2244 3097 1772 3097 
Q 1472 3097 1187 3025 
Q 903 2953 641 2809 
L 641 3341 
Q 956 3463 1253 3523 
Q 1550 3584 1831 3584 
Q 2591 3584 2966 3190 
Q 3341 2797 3341 1997 
z
" transform="scale(0.015625)"/>
       <path id="DejaVuSans-6c" d="M 603 4863 
L 1178 4863 
L 1178 0 
L 603 0 
L 603 4863 
z
" transform="scale(0.015625)"/>
       <path id="DejaVuSans-20" transform="scale(0.015625)"/>
       <path id="DejaVuSans-65" d="M 3597 1894 
L 3597 1613 
L 953 1613 
Q 991 1019 1311 708 
Q 1631 397 2203 397 
Q 2534 397 2845 478 
Q 3156 559 3463 722 
L 3463 178 
Q 3153 47 2828 -22 
Q 2503 -91 2169 -91 
Q 1331 -91 842 396 
Q 353 884 353 1716 
Q 353 2575 817 3079 
Q 1281 3584 2069 3584 
Q 2775 3584 3186 3129 
Q 3597 2675 3597 1894 
z
M 3022 2063 
Q 3016 2534 2758 2815 
Q 2500 3097 2075 3097 
Q 1594 3097 1305 2825 
Q 1016 2553 972 2059 
L 3022 2063 
z
" transform="scale(0.015625)"/>
       <path id="DejaVuSans-6f" d="M 1959 3097 
Q 1497 3097 1228 2736 
Q 959 2375 959 1747 
Q 959 1119 1226 758 
Q 1494 397 1959 397 
Q 2419 397 2687 759 
Q 2956 1122 2956 1747 
Q 2956 2369 2687 2733 
Q 2419 3097 1959 3097 
z
M 1959 3584 
Q 2709 3584 3137 3096 
Q 3566 2609 3566 1747 
Q 3566 888 3137 398 
Q 2709 -91 1959 -91 
Q 1206 -91 779 398 
Q 353 888 353 1747 
Q 353 2609 779 3096 
Q 1206 3584 1959 3584 
z
" transform="scale(0.015625)"/>
      </defs>
      <use xlink:href="#DejaVuSans-4f"/>
      <use xlink:href="#DejaVuSans-72" transform="translate(78.710938 0)"/>
      <use xlink:href="#DejaVuSans-69" transform="translate(119.824219 0)"/>
      <use xlink:href="#DejaVuSans-67" transform="translate(147.607422 0)"/>
      <use xlink:href="#DejaVuSans-69" transform="translate(211.083984 0)"/>
      <use xlink:href="#DejaVuSans-6e" transform="translate(238.867188 0)"/>
      <use xlink:href="#DejaVuSans-61" transform="translate(302.246094 0)"/>
      <use xlink:href="#DejaVuSans-6c" transform="translate(363.525391 0)"/>
      <use xlink:href="#DejaVuSans-20" transform="translate(391.308594 0)"/>
      <use xlink:href="#DejaVuSans-72" transform="translate(423.095703 0)"/>
      <use xlink:href="#DejaVuSans-65" transform="translate(461.958984 0)"/>
      <use xlink:href="#DejaVuSans-67" transform="translate(523.482422 0)"/>
      <use xlink:href="#DejaVuSans-69" transform="translate(586.958984 0)"/>
      <use xlink:href="#DejaVuSans-6f" transform="translate(614.742188 0)"/>
      <use xlink:href="#DejaVuSans-6e" transform="translate(675.923828 0)"/>
     </g>
    </g>
    <g id="patch_11">
     <path d="M 311.785937 38.476562 
L 331.785937 38.476562 
L 331.785937 31.476562 
L 311.785937 31.476562 
z
" style="fill: #008000; opacity: 0.3; stroke: #008000; stroke-linejoin: miter"/>
    </g>
    <g id="text_13">
     <!-- Analytical polygon (m=36) -->
     <g transform="translate(339.785937 38.476562) scale(0.1 -0.1)">
      <defs>
       <path id="DejaVuSans-41" d="M 2188 4044 
L 1331 1722 
L 3047 1722 
L 2188 4044 
z
M 1831 4666 
L 2547 4666 
L 4325 0 
L 3669 0 
L 3244 1197 
L 1141 1197 
L 716 0 
L 50 0 
L 1831 4666 
z
" transform="scale(0.015625)"/>
       <path id="DejaVuSans-79" d="M 2059 -325 
Q 1816 -950 1584 -1140 
Q 1353 -1331 966 -1331 
L 506 -1331 
L 506 -850 
L 844 -850 
Q 1081 -850 1212 -737 
Q 1344 -625 1503 -206 
L 1606 56 
L 191 3500 
L 800 3500 
L 1894 763 
L 2988 3500 
L 3597 3500 
L 2059 -325 
z
" transform="scale(0.015625)"/>
       <path id="DejaVuSans-74" d="M 1172 4494 
L 1172 3500 
L 2356 3500 
L 2356 3053 
L 1172 3053 
L 1172 1153 
Q 1172 725 1289 603 
Q 1406 481 1766 481 
L 2356 481 
L 2356 0 
L 1766 0 
Q 1100 0 847 248 
Q 594 497 594 1153 
L 594 3053 
L 172 3053 
L 172 3500 
L 594 3500 
L 594 4494 
L 1172 4494 
z
" transform="scale(0.015625)"/>
       <path id="DejaVuSans-63" d="M 3122 3366 
L 3122 2828 
Q 2878 2963 2633 3030 
Q 2388 3097 2138 3097 
Q 1578 3097 1268 2742 
Q 959 2388 959 1747 
Q 959 1106 1268 751 
Q 1578 397 2138 397 
Q 2388 397 2633 464 
Q 2878 531 3122 666 
L 3122 134 
Q 2881 22 2623 -34 
Q 2366 -91 2075 -91 
Q 1284 -91 818 406 
Q 353 903 353 1747 
Q 353 2603 823 3093 
Q 1294 3584 2113 3584 
Q 2378 3584 2631 3529 
Q 2884 3475 3122 3366 
z
" transform="scale(0.015625)"/>
       <path id="DejaVuSans-70" d="M 1159 525 
L 1159 -1331 
L 581 -1331 
L 581 3500 
L 1159 3500 
L 1159 2969 
Q 1341 3281 1617 3432 
Q 1894 3584 2278 3584 
Q 2916 3584 3314 3078 
Q 3713 2572 3713 1747 
Q 3713 922 3314 415 
Q 2916 -91 2278 -91 
Q 1894 -91 1617 61 
Q 1341 213 1159 525 
z
M 3116 1747 
Q 3116 2381 2855 2742 
Q 2594 3103 2138 3103 
Q 1681 3103 1420 2742 
Q 1159 2381 1159 1747 
Q 1159 1113 1420 752 
Q 1681 391 2138 391 
Q 2594 391 2855 752 
Q 3116 1113 3116 1747 
z
" transform="scale(0.015625)"/>
       <path id="DejaVuSans-28" d="M 1984 4856 
Q 1566 4138 1362 3434 
Q 1159 2731 1159 2009 
Q 1159 1288 1364 580 
Q 1569 -128 1984 -844 
L 1484 -844 
Q 1016 -109 783 600 
Q 550 1309 550 2009 
Q 550 2706 781 3412 
Q 1013 4119 1484 4856 
L 1984 4856 
z
" transform="scale(0.015625)"/>
       <path id="DejaVuSans-6d" d="M 3328 2828 
Q 3544 3216 3844 3400 
Q 4144 3584 4550 3584 
Q 5097 3584 5394 3201 
Q 5691 2819 5691 2113 
L 5691 0 
L 5113 0 
L 5113 2094 
Q 5113 2597 4934 2840 
Q 4756 3084 4391 3084 
Q 3944 3084 3684 2787 
Q 3425 2491 3425 1978 
L 3425 0 
L 2847 0 
L 2847 2094 
Q 2847 2600 2669 2842 
Q 2491 3084 2119 3084 
Q 1678 3084 1418 2786 
Q 1159 2488 1159 1978 
L 1159 0 
L 581 0 
L 581 3500 
L 1159 3500 
L 1159 2956 
Q 1356 3278 1631 3431 
Q 1906 3584 2284 3584 
Q 2666 3584 2933 3390 
Q 3200 3197 3328 2828 
z
" transform="scale(0.015625)"/>
       <path id="DejaVuSans-3d" d="M 678 2906 
L 4684 2906 
L 4684 2381 
L 678 2381 
L 678 2906 
z
M 678 1631 
L 4684 1631 
L 4684 1100 
L 678 1100 
L 678 1631 
z
" transform="scale(0.015625)"/>
       <path id="DejaVuSans-29" d="M 513 4856 
L 1013 4856 
Q 1481 4119 1714 3412 
Q 1947 2706 1947 2009 
Q 1947 1309 1714 600 
Q 1481 -109 1013 -844 
L 513 -844 
Q 928 -128 1133 580 
Q 1338 1288 1338 2009 
Q 1338 2731 1133 3434 
Q 928 4138 513 4856 
z
" transform="scale(0.015625)"/>
      </defs>
      <use xlink:href="#DejaVuSans-41"/>
      <use xlink:href="#DejaVuSans-6e" transform="translate(68.408203 0)"/>
      <use xlink:href="#DejaVuSans-61" transform="translate(131.787109 0)"/>
      <use xlink:href="#DejaVuSans-6c" transform="translate(193.066406 0)"/>
      <use xlink:href="#DejaVuSans-79" transform="translate(220.849609 0)"/>
      <use xlink:href="#DejaVuSans-74" transform="translate(280.029297 0)"/>
      <use xlink:href="#DejaVuSans-69" transform="translate(319.238281 0)"/>
      <use xlink:href="#DejaVuSans-63" transform="translate(347.021484 0)"/>
      <use xlink:href="#DejaVuSans-61" transform="translate(402.001953 0)"/>
      <use xlink:href="#DejaVuSans-6c" transform="translate(463.28125 0)"/>
      <use xlink:href="#DejaVuSans-20" transform="translate(491.064453 0)"/>
      <use xlink:href="#DejaVuSans-70" transform="translate(522.851562 0)"/>
      <use xlink:href="#DejaVuSans-6f" transform="translate(586.328125 0)"/>
      <use xlink:href="#DejaVuSans-6c" transform="translate(647.509766 0)"/>
      <use xlink:href="#DejaVuSans-79" transform="translate(675.292969 0)"/>
      <use xlink:href="#DejaVuSans-67" transform="translate(734.472656 0)"/>
      <use xlink:href="#DejaVuSans-6f" transform="translate(797.949219 0)"/>
      <use xlink:href="#DejaVuSans-6e" transform="translate(859.130859 0)"/>
      <use xlink:href="#DejaVuSans-20" transform="translate(922.509766 0)"/>
      <use xlink:href="#DejaVuSans-28" transform="translate(954.296875 0)"/>
      <use xlink:href="#DejaVuSans-6d" transform="translate(993.310547 0)"/>
      <use xlink:href="#DejaVuSans-3d" transform="translate(1090.722656 0)"/>
      <use xlink:href="#DejaVuSans-33" transform="translate(1174.511719 0)"/>
      <use xlink:href="#DejaVuSans-36" transform="translate(1238.134766 0)"/>
      <use xlink:href="#DejaVuSans-29" transform="translate(1301.757812 0)"/>
     </g>
    </g>
    <g id="patch_12">
     <path d="M 311.785937 53.154687 
L 331.785937 53.154687 
L 331.785937 46.154687 
L 311.785937 46.154687 
z
" style="fill: #ff0000; opacity: 0.3; stroke: #0000ff; stroke-linejoin: miter"/>
    </g>
    <g id="text_14">
     <!-- Learned region -->
     <g transform="translate(339.785937 53.154687) scale(0.1 -0.1)">
      <defs>
       <path id="DejaVuSans-4c" d="M 628 4666 
L 1259 4666 
L 1259 531 
L 3531 531 
L 3531 0 
L 628 0 
L 628 4666 
z
" transform="scale(0.015625)"/>
       <path id="DejaVuSans-64" d="M 2906 2969 
L 2906 4863 
L 3481 4863 
L 3481 0 
L 2906 0 
L 2906 525 
Q 2725 213 2448 61 
Q 2172 -91 1784 -91 
Q 1150 -91 751 415 
Q 353 922 353 1747 
Q 353 2572 751 3078 
Q 1150 3584 1784 3584 
Q 2172 3584 2448 3432 
Q 2725 3281 2906 2969 
z
M 947 1747 
Q 947 1113 1208 752 
Q 1469 391 1925 391 
Q 2381 391 2643 752 
Q 2906 1113 2906 1747 
Q 2906 2381 2643 2742 
Q 2381 3103 1925 3103 
Q 1469 3103 1208 2742 
Q 947 2381 947 1747 
z
" transform="scale(0.015625)"/>
      </defs>
      <use xlink:href="#DejaVuSans-4c"/>
      <use xlink:href="#DejaVuSans-65" transform="translate(53.962891 0)"/>
      <use xlink:href="#DejaVuSans-61" transform="translate(115.486328 0)"/>
      <use xlink:href="#DejaVuSans-72" transform="translate(176.765625 0)"/>
      <use xlink:href="#DejaVuSans-6e" transform="translate(216.128906 0)"/>
      <use xlink:href="#DejaVuSans-65" transform="translate(279.507812 0)"/>
      <use xlink:href="#DejaVuSans-64" transform="translate(341.03125 0)"/>
      <use xlink:href="#DejaVuSans-20" transform="translate(404.507812 0)"/>
      <use xlink:href="#DejaVuSans-72" transform="translate(436.294922 0)"/>
      <use xlink:href="#DejaVuSans-65" transform="translate(475.158203 0)"/>
      <use xlink:href="#DejaVuSans-67" transform="translate(536.681641 0)"/>
      <use xlink:href="#DejaVuSans-69" transform="translate(600.158203 0)"/>
      <use xlink:href="#DejaVuSans-6f" transform="translate(627.941406 0)"/>
      <use xlink:href="#DejaVuSans-6e" transform="translate(689.123047 0)"/>
     </g>
    </g>
   </g>
  </g>
 </g>
 <defs>
  <clipPath id="p3c8f365ab0">
   <rect x="36.465625" y="7.2" width="446.4" height="443.52"/>
  </clipPath>
 </defs>
</svg>
