<?xml version="1.0" encoding="utf-8" standalone="no"?>
<!DOCTYPE svg PUBLIC "-//W3C//DTD SVG 1.1//EN"
  "http://www.w3.org/Graphics/SVG/1.1/DTD/svg11.dtd">
<svg xmlns:xlink="http://www.w3.org/1999/xlink" width="1072.8pt" height="760.3pt" viewBox="0 0 1072.8 760.3" xmlns="http://www.w3.org/2000/svg" version="1.1">
 <metadata>
  <rdf:RDF xmlns:dc="http://purl.org/dc/elements/1.1/" xmlns:cc="http://creativecommons.org/ns#" xmlns:rdf="http://www.w3.org/1999/02/22-rdf-syntax-ns#">
   <cc:Work>
    <dc:type rdf:resource="http://purl.org/dc/dcmitype/StillImage"/>
    <dc:date>2026-05-03T10:17:56.627119</dc:date>
    <dc:format>image/svg+xml</dc:format>
    <dc:creator>
     <cc:Agent>
      <dc:title>Matplotlib v3.10.6, https://matplotlib.org/</dc:title>
     </cc:Agent>
    </dc:creator>
   </cc:Work>
  </rdf:RDF>
 </metadata>
 <defs>
  <style type="text/css">*{stroke-linejoin: round; stroke-linecap: butt}</style>
 </defs>
 <g id="figure_1">
  <g id="patch_1">
   <path d="M 0 760.3 
L 1072.8 760.3 
L 1072.8 0 
L 0 0 
z
" style="fill: #ffffff"/>
  </g>
  <g id="axes_1">
   <g id="patch_2">
    <path d="M 7.2 393.9 
L 350 393.9 
L 350 69.415 
L 7.2 69.415 
z
" style="fill: #ffffff"/>
   </g>
   <g id="patch_3">
    <path d="M 83.527548 259.733729 
L 83.104342 273.421097 
L 82.630074 305.338206 
L 82.574396 318.675496 
L 82.575887 318.942029 
L 82.580383 319.205136 
L 82.587855 319.467061 
L 82.598282 319.727886 
L 82.611646 319.987591 
L 82.627924 320.246135 
L 82.647097 320.50347 
L 82.669143 320.759546 
L 82.694043 321.014312 
L 82.721776 321.267718 
L 82.752321 321.519713 
L 82.785657 321.770248 
L 82.821764 322.019275 
L 82.86062 322.266745 
L 82.902207 322.512612 
L 82.946502 322.756828 
L 82.993486 322.999347 
L 83.043138 323.240124 
L 83.095438 323.479115 
L 83.150366 323.716274 
L 83.207901 323.951559 
L 83.268024 324.184925 
L 83.330715 324.41633 
L 83.395954 324.645732 
L 83.463721 324.873088 
L 83.533997 325.098356 
L 83.606761 325.321495 
L 83.681996 325.542464 
L 83.759681 325.761221 
L 83.839797 325.977726 
L 83.922326 326.191937 
L 84.007247 326.403815 
L 84.094542 326.613318 
L 84.184193 326.820407 
L 84.276179 327.025041 
L 84.370483 327.227179 
L 84.467085 327.42678 
L 84.565967 327.623805 
L 84.667109 327.818213 
L 84.770494 328.009964 
L 84.876101 328.199016 
L 84.983913 328.385328 
L 85.09391 328.56886 
L 85.206072 328.74957 
L 85.320382 328.927417 
L 85.436819 329.10236 
L 85.555365 329.274356 
L 85.675999 329.443363 
L 85.798702 329.609339 
L 85.923454 329.772242 
L 86.050235 329.932029 
L 86.179024 330.088655 
L 86.309801 330.242079 
L 86.442545 330.392256 
L 86.577234 330.539143 
L 86.713847 330.682694 
L 86.852361 330.822865 
L 86.992755 330.959611 
L 87.135006 331.092887 
L 87.279089 331.222647 
L 87.424982 331.348845 
L 87.572659 331.471435 
L 87.722096 331.590371 
L 87.873268 331.705605 
L 88.026147 331.817091 
L 88.180707 331.924782 
L 88.336921 332.028629 
L 88.49476 332.128586 
L 88.654195 332.224604 
L 88.815196 332.316636 
L 88.977731 332.404632 
L 89.14177 332.488547 
L 89.307279 332.56833 
L 89.474225 332.643934 
L 89.642573 332.715311 
L 89.812287 332.782413 
L 89.98333 332.845192 
L 90.155664 332.903601 
L 90.32925 332.957593 
L 90.504047 333.007121 
L 90.680015 333.052137 
L 90.85711 333.092598 
L 91.035289 333.128457 
L 91.214507 333.15967 
L 91.39472 333.186194 
L 91.575882 333.207984 
L 91.757954 333.225001 
L 91.940908 333.237202 
L 92.124774 333.244546 
L 92.310702 333.246986 
L 117.150336 332.883991 
L 154.651317 331.412897 
L 163.972595 330.723302 
L 182.8152 329.007479 
L 202.315417 326.621816 
L 210.797796 325.381656 
L 211.003368 325.345968 
L 211.20153 325.30609 
L 211.399987 325.260749 
L 211.598708 325.209911 
L 211.797622 325.153549 
L 211.996647 325.091643 
L 212.195695 325.024177 
L 212.394677 324.951141 
L 212.593499 324.872528 
L 212.792065 324.788336 
L 212.990279 324.698568 
L 213.188042 324.603235 
L 213.385254 324.502349 
L 213.581813 324.395929 
L 213.777617 324.284 
L 213.972563 324.166593 
L 214.166548 324.043744 
L 214.359467 323.915494 
L 214.551216 323.781889 
L 214.741692 323.642985 
L 214.93079 323.498837 
L 215.118408 323.349512 
L 215.304444 323.195078 
L 215.488797 323.03561 
L 215.671366 322.871189 
L 215.852054 322.701899 
L 216.030764 322.527832 
L 216.207401 322.349081 
L 216.381874 322.165747 
L 216.554092 321.977932 
L 216.723968 321.785746 
L 216.891417 321.589299 
L 217.056358 321.388706 
L 217.218713 321.184085 
L 217.378405 320.975557 
L 217.535363 320.763246 
L 217.689518 320.547278 
L 217.840804 320.327779 
L 217.989161 320.10488 
L 218.13453 319.878711 
L 218.276857 319.649403 
L 218.416092 319.417089 
L 218.552187 319.181902 
L 218.685099 318.943973 
L 218.814789 318.703436 
L 218.941221 318.460422 
L 219.064362 318.215063 
L 219.184183 317.967488 
L 219.30066 317.717828 
L 219.413769 317.466209 
L 219.523491 317.212759 
L 219.629812 316.9576 
L 219.732718 316.700855 
L 219.832199 316.442645 
L 219.928248 316.183088 
L 220.020862 315.922299 
L 220.110037 315.660391 
L 220.195775 315.397475 
L 220.278078 315.133659 
L 220.356951 314.869049 
L 220.432401 314.603747 
L 220.504438 314.337852 
L 220.57307 314.071464 
L 220.638312 313.804675 
L 220.700175 313.537577 
L 220.758676 313.27026 
L 220.81383 313.00281 
L 220.865656 312.73531 
L 220.91417 312.467841 
L 220.959393 312.200482 
L 221.001346 311.933307 
L 221.040048 311.66639 
L 221.075521 311.3998 
L 221.107788 311.133603 
L 221.136871 310.867863 
L 221.162794 310.602635 
L 221.18558 310.337962 
L 221.205256 310.07385 
L 221.221859 309.810038 
L 223.916433 263.121115 
L 224.027766 260.587733 
L 224.031445 260.458001 
L 224.437283 230.441575 
L 224.527331 213.302372 
L 224.52667 213.181928 
L 224.52465 213.063415 
L 224.521273 212.944967 
L 224.516537 212.826457 
L 224.510436 212.707874 
L 224.502967 212.589223 
L 224.494124 212.470525 
L 224.483903 212.351796 
L 224.472298 212.233056 
L 224.459303 212.114322 
L 224.444914 211.995608 
L 224.429122 211.876927 
L 224.41192 211.758286 
L 224.393298 211.63969 
L 224.373244 211.521133 
L 224.351744 211.402604 
L 224.328781 211.284078 
L 224.304331 211.165516 
L 224.278363 211.046861 
L 224.250838 210.928026 
L 224.221703 210.808888 
L 224.190884 210.689275 
L 224.158281 210.56894 
L 224.12375 210.447533 
L 224.087087 210.324547 
L 224.047989 210.199237 
L 224.005993 210.07048 
L 223.960363 209.9365 
L 223.909258 209.792687 
L 219.900769 198.752854 
L 219.605185 197.985547 
L 219.313525 197.257743 
L 219.030098 196.577402 
L 218.758162 195.949101 
L 216.379422 190.707014 
L 216.138443 190.190341 
L 212.668043 183.05932 
L 212.460495 182.64566 
L 210.939038 179.707016 
L 210.758679 179.37232 
L 210.58976 179.069856 
L 210.431037 178.795496 
L 210.281384 178.54574 
L 210.139749 178.317578 
L 210.005186 178.108176 
L 209.876832 177.915292 
L 209.753921 177.736931 
L 209.635776 177.571383 
L 209.521799 177.417186 
L 209.411466 177.273091 
L 209.304317 177.138029 
L 209.199952 177.011089 
L 209.098017 176.891488 
L 208.998208 176.778558 
L 208.900255 176.671723 
L 208.803924 176.57049 
L 208.70901 176.474433 
L 208.615334 176.383183 
L 208.522741 176.296424 
L 208.431092 176.21388 
L 208.340269 176.135312 
L 208.250167 176.060511 
L 208.160694 175.989296 
L 208.071772 175.921508 
L 207.983331 175.85701 
L 207.895311 175.795678 
L 207.80766 175.737407 
L 207.720333 175.682101 
L 207.633291 175.629678 
L 207.546501 175.580065 
L 207.459935 175.533196 
L 207.37357 175.489014 
L 207.287385 175.447467 
L 207.201365 175.40851 
L 207.115497 175.372102 
L 207.02977 175.338206 
L 206.944178 175.306789 
L 206.858714 175.277823 
L 206.773377 175.251279 
L 206.688163 175.227134 
L 206.603074 175.205366 
L 206.518112 175.185955 
L 206.433278 175.168882 
L 206.348576 175.154131 
L 206.26401 175.141686 
L 206.179749 175.131496 
L 206.09529 175.123658 
L 206.011118 175.118049 
L 205.926994 175.114696 
L 205.841664 175.113597 
L 182.825152 175.329497 
L 149.253849 176.353214 
L 144.469192 176.661694 
L 134.804501 177.589105 
L 97.64129 181.906188 
L 97.454451 181.933679 
L 97.267275 181.966276 
L 97.079646 182.004037 
L 96.891597 182.047002 
L 96.703182 182.095205 
L 96.514461 182.14868 
L 96.325501 182.207456 
L 96.136371 182.27156 
L 95.947143 182.341017 
L 95.75789 182.415848 
L 95.56869 182.496069 
L 95.379621 182.581695 
L 95.190763 182.672737 
L 95.002198 182.769201 
L 94.814012 182.871088 
L 94.626288 182.978399 
L 94.439115 183.091125 
L 94.252582 183.209256 
L 94.066778 183.332777 
L 93.881796 183.461668 
L 93.697727 183.595902 
L 93.514665 183.735449 
L 93.332703 183.880273 
L 93.151937 184.030334 
L 92.97246 184.185585 
L 92.794369 184.345975 
L 92.617758 184.511446 
L 92.442722 184.681936 
L 92.269356 184.857378 
L 92.097752 185.037699 
L 91.928004 185.222821 
L 91.760204 185.412661 
L 91.594442 185.60713 
L 91.430807 185.806135 
L 91.269387 186.00958 
L 91.110267 186.217363 
L 90.95353 186.429376 
L 90.799259 186.64551 
L 90.647531 186.86565 
L 90.498423 187.08968 
L 90.352008 187.317477 
L 90.208357 187.548919 
L 90.067538 187.783878 
L 89.929616 188.022225 
L 89.794651 188.263829 
L 89.662703 188.508557 
L 89.533825 188.756275 
L 89.408069 189.006846 
L 89.285483 189.260134 
L 89.166111 189.516002 
L 89.049995 189.774311 
L 88.937172 190.034925 
L 88.827677 190.297706 
L 88.721539 190.562516 
L 88.618786 190.829219 
L 88.519442 191.097681 
L 88.423527 191.367767 
L 88.33106 191.639346 
L 88.242054 191.912285 
L 88.156521 192.186456 
L 88.074469 192.461732 
L 87.995904 192.737988 
L 87.920828 193.015101 
L 87.849243 193.292953 
L 87.781145 193.571424 
L 87.716531 193.850399 
L 87.655393 194.129768 
L 87.597722 194.40942 
L 87.543509 194.68925 
L 87.492739 194.969153 
L 87.445399 195.249029 
L 87.401472 195.528781 
L 87.36094 195.808317 
L 87.323786 196.087546 
L 87.289987 196.366387 
L 87.259521 196.644768 
L 87.232363 196.922656 
L 87.208416 197.200946 
L 86.459762 207.648912 
L 84.96886 231.586092 
L 83.691915 256.019923 
z
" clip-path="url(#p4c30778bb6)" style="fill: #1f77b4; opacity: 0.35; stroke: #00008b; stroke-width: 1.5; stroke-linejoin: miter"/>
   </g>
   <g id="patch_4">
    <path d="M 83.588619 321.298086 
L 85.0249 327.338339 
L 89.999347 330.104883 
L 192.681161 327.641291 
L 216.225741 321.39762 
L 221.672087 306.961256 
L 222.291471 211.420873 
L 216.635871 187.996981 
L 206.582582 175.036728 
L 121.877917 175.997009 
L 91.587173 183.853487 
L 88.570681 189.340456 
L 84.239797 227.652505 
z
" clip-path="url(#p4c30778bb6)" style="fill: #ff7f0e; opacity: 0.35; stroke: #ff8c00; stroke-width: 1.5; stroke-linejoin: miter"/>
   </g>
   <g id="patch_5">
    <path d="M 85.82847 320.331062 
L 86.834313 324.578618 
L 89.573711 326.095643 
L 192.126127 323.215641 
L 213.7932 317.371319 
L 218.224755 305.517212 
L 218.663062 211.019891 
L 214.053011 192.023816 
L 204.997717 180.341253 
L 121.592636 180.945702 
L 92.817522 188.266847 
L 91.058582 191.443204 
L 86.590324 230.272668 
z
" clip-path="url(#p4c30778bb6)" style="fill: #d62728; opacity: 0.35; stroke: #8b0000; stroke-width: 1.5; stroke-linejoin: miter"/>
   </g>
   <g id="matplotlib.axis_1"/>
   <g id="matplotlib.axis_2"/>
   <g id="text_1">
    <!-- (a) $\Delta\theta=0$ -->
    <g transform="translate(152.34 66.555) scale(0.13 -0.13)">
     <defs>
      <path id="TimesNewRomanPSMT-28" d="M 1988 -1253 
L 1988 -1369 
Q 1516 -1131 1200 -813 
Q 750 -359 506 256 
Q 263 872 263 1534 
Q 263 2503 741 3301 
Q 1219 4100 1988 4444 
L 1988 4313 
Q 1603 4100 1356 3731 
Q 1109 3363 987 2797 
Q 866 2231 866 1616 
Q 866 947 969 400 
Q 1050 -31 1165 -292 
Q 1281 -553 1476 -793 
Q 1672 -1034 1988 -1253 
z
" transform="scale(0.015625)"/>
      <path id="TimesNewRomanPSMT-61" d="M 1822 413 
Q 1381 72 1269 19 
Q 1100 -59 909 -59 
Q 613 -59 420 144 
Q 228 347 228 678 
Q 228 888 322 1041 
Q 450 1253 767 1440 
Q 1084 1628 1822 1897 
L 1822 2009 
Q 1822 2438 1686 2597 
Q 1550 2756 1291 2756 
Q 1094 2756 978 2650 
Q 859 2544 859 2406 
L 866 2225 
Q 866 2081 792 2003 
Q 719 1925 600 1925 
Q 484 1925 411 2006 
Q 338 2088 338 2228 
Q 338 2497 613 2722 
Q 888 2947 1384 2947 
Q 1766 2947 2009 2819 
Q 2194 2722 2281 2516 
Q 2338 2381 2338 1966 
L 2338 994 
Q 2338 584 2353 492 
Q 2369 400 2405 369 
Q 2441 338 2488 338 
Q 2538 338 2575 359 
Q 2641 400 2828 588 
L 2828 413 
Q 2478 -56 2159 -56 
Q 2006 -56 1915 50 
Q 1825 156 1822 413 
z
M 1822 616 
L 1822 1706 
Q 1350 1519 1213 1441 
Q 966 1303 859 1153 
Q 753 1003 753 825 
Q 753 600 887 451 
Q 1022 303 1197 303 
Q 1434 303 1822 616 
z
" transform="scale(0.015625)"/>
      <path id="TimesNewRomanPSMT-29" d="M 144 4313 
L 144 4444 
Q 619 4209 934 3891 
Q 1381 3434 1625 2820 
Q 1869 2206 1869 1541 
Q 1869 572 1392 -226 
Q 916 -1025 144 -1369 
L 144 -1253 
Q 528 -1038 776 -670 
Q 1025 -303 1145 264 
Q 1266 831 1266 1447 
Q 1266 2113 1163 2663 
Q 1084 3094 967 3353 
Q 850 3613 656 3853 
Q 463 4094 144 4313 
z
" transform="scale(0.015625)"/>
      <path id="TimesNewRomanPSMT-20" transform="scale(0.015625)"/>
      <path id="STIXGeneral-Regular-394" d="M 4320 0 
L 307 0 
L 2221 4314 
L 2349 4314 
L 4320 0 
z
M 3354 589 
L 2118 3405 
L 870 589 
L 3354 589 
z
" transform="scale(0.015625)"/>
      <path id="STIXGeneral-Italic-3b8" d="M 3162 3270 
Q 3162 2534 2925 1862 
Q 2688 1190 2304 678 
Q 1741 -70 992 -70 
Q 608 -70 390 224 
Q 173 518 173 1030 
Q 173 1997 592 2813 
Q 1011 3629 1594 4070 
Q 1952 4339 2374 4339 
Q 2733 4339 2947 4076 
Q 3162 3814 3162 3270 
z
M 941 2221 
L 2432 2221 
Q 2624 2874 2624 3533 
Q 2624 4205 2285 4205 
Q 2029 4205 1728 3814 
Q 1427 3424 1232 2992 
Q 1037 2560 941 2221 
z
M 2387 2016 
L 896 2016 
Q 710 1530 710 960 
Q 710 64 1069 64 
Q 1286 64 1510 275 
Q 1734 486 1904 806 
Q 2074 1126 2198 1440 
Q 2323 1754 2387 2016 
z
" transform="scale(0.015625)"/>
      <path id="STIXGeneral-Regular-3d" d="M 4077 2048 
L 307 2048 
L 307 2470 
L 4077 2470 
L 4077 2048 
z
M 4077 768 
L 307 768 
L 307 1190 
L 4077 1190 
L 4077 768 
z
" transform="scale(0.015625)"/>
      <path id="STIXGeneral-Regular-30" d="M 3046 2112 
Q 3046 1683 2963 1302 
Q 2880 922 2717 602 
Q 2554 282 2266 96 
Q 1978 -90 1600 -90 
Q 1210 -90 915 108 
Q 621 307 461 640 
Q 301 973 227 1350 
Q 154 1728 154 2150 
Q 154 2746 301 3222 
Q 448 3699 790 4012 
Q 1133 4326 1626 4326 
Q 2253 4326 2649 3712 
Q 3046 3098 3046 2112 
z
M 2432 2080 
Q 2432 3091 2217 3625 
Q 2003 4160 1587 4160 
Q 1190 4160 979 3622 
Q 768 3085 768 2106 
Q 768 1120 979 598 
Q 1190 77 1600 77 
Q 2003 77 2217 598 
Q 2432 1120 2432 2080 
z
" transform="scale(0.015625)"/>
     </defs>
     <use xlink:href="#TimesNewRomanPSMT-28" transform="translate(0 0.5625)"/>
     <use xlink:href="#TimesNewRomanPSMT-61" transform="translate(33.300781 0.5625)"/>
     <use xlink:href="#TimesNewRomanPSMT-29" transform="translate(77.685547 0.5625)"/>
     <use xlink:href="#TimesNewRomanPSMT-20" transform="translate(110.986328 0.5625)"/>
     <use xlink:href="#STIXGeneral-Regular-394" transform="translate(135.986328 0.5625)"/>
     <use xlink:href="#STIXGeneral-Italic-3b8" transform="translate(208.18631 0.5625)"/>
     <use xlink:href="#STIXGeneral-Regular-3d" transform="translate(270.626291 0.5625)"/>
     <use xlink:href="#STIXGeneral-Regular-30" transform="translate(353.566272 0.5625)"/>
    </g>
   </g>
  </g>
  <g id="axes_2">
   <g id="patch_6">
    <path d="M 365 393.9 
L 707.8 393.9 
L 707.8 69.415 
L 365 69.415 
z
" style="fill: #ffffff"/>
   </g>
   <g id="patch_7">
    <path d="M 454.24276 250.503836 
L 454.007066 258.097173 
L 453.471109 291.960946 
L 453.408445 306.098392 
L 453.410026 306.380315 
L 453.414787 306.658903 
L 453.422698 306.936207 
L 453.433737 307.2123 
L 453.44788 307.487161 
L 453.465105 307.760746 
L 453.48539 308.033006 
L 453.508712 308.303888 
L 453.535048 308.573342 
L 453.564375 308.841316 
L 453.596671 309.107759 
L 453.631913 309.37262 
L 453.670079 309.635851 
L 453.711147 309.897401 
L 453.755094 310.157224 
L 453.801898 310.415271 
L 453.851537 310.671497 
L 453.90399 310.925855 
L 453.959234 311.178299 
L 454.017249 311.428785 
L 454.078012 311.677268 
L 454.141502 311.923705 
L 454.207699 312.168052 
L 454.276581 312.410265 
L 454.348128 312.650302 
L 454.422319 312.888121 
L 454.499134 313.123679 
L 454.578552 313.356934 
L 454.660553 313.587845 
L 454.745117 313.81637 
L 454.832225 314.042467 
L 454.921856 314.266096 
L 455.01399 314.487213 
L 455.108609 314.70578 
L 455.205693 314.921753 
L 455.305223 315.135091 
L 455.407178 315.345754 
L 455.511541 315.5537 
L 455.618291 315.758886 
L 455.727409 315.961271 
L 455.838877 316.160814 
L 455.952675 316.357472 
L 456.068784 316.551202 
L 456.187185 316.741962 
L 456.307858 316.92971 
L 456.430784 317.114401 
L 456.555943 317.295993 
L 456.683316 317.474442 
L 456.812883 317.649703 
L 456.944624 317.821732 
L 457.078519 317.990485 
L 457.214548 318.155916 
L 457.352689 318.317979 
L 457.492922 318.476629 
L 457.635226 318.63182 
L 457.779579 318.783504 
L 457.925959 318.931634 
L 458.074344 319.076163 
L 458.22471 319.217043 
L 458.377035 319.354226 
L 458.531295 319.487662 
L 458.687465 319.617302 
L 458.845521 319.743097 
L 459.005436 319.864997 
L 459.167185 319.982951 
L 459.330741 320.096909 
L 459.496075 320.20682 
L 459.66316 320.312632 
L 459.831966 320.414293 
L 460.002463 320.511753 
L 460.174619 320.604959 
L 460.348403 320.693858 
L 460.523781 320.778398 
L 460.700719 320.858527 
L 460.879181 320.934193 
L 461.059132 321.005343 
L 461.240533 321.071924 
L 461.423345 321.133884 
L 461.607529 321.191172 
L 461.793042 321.243736 
L 461.979842 321.291525 
L 462.167886 321.334487 
L 462.357126 321.372572 
L 462.547519 321.405732 
L 462.739015 321.433916 
L 462.93157 321.457078 
L 463.125139 321.475169 
L 463.319691 321.488144 
L 463.515252 321.495957 
L 463.712863 321.498555 
L 489.454829 321.104926 
L 529.434808 319.451679 
L 536.973162 318.876358 
L 556.610644 317.055499 
L 572.344176 315.145812 
L 585.759574 313.242111 
L 590.112766 312.519087 
L 590.324932 312.476392 
L 590.537431 312.427844 
L 590.750285 312.373389 
L 590.963421 312.312997 
L 591.176752 312.246641 
L 591.390181 312.174301 
L 591.603611 312.095961 
L 591.81694 312.011612 
L 592.030062 311.921248 
L 592.24287 311.824871 
L 592.455255 311.722489 
L 592.667106 311.614113 
L 592.878312 311.499763 
L 593.088757 311.379465 
L 593.298329 311.25325 
L 593.50691 311.121157 
L 593.714385 310.983229 
L 593.920639 310.839519 
L 594.125553 310.690085 
L 594.329014 310.534989 
L 594.530905 310.374304 
L 594.731112 310.208106 
L 594.929522 310.036479 
L 595.126022 309.859511 
L 595.320504 309.677298 
L 595.512858 309.48994 
L 595.702979 309.297544 
L 595.890764 309.100222 
L 596.076112 308.898089 
L 596.258925 308.691267 
L 596.43911 308.47988 
L 596.616574 308.264057 
L 596.791231 308.043931 
L 596.962996 307.819639 
L 597.13179 307.591317 
L 597.297538 307.359108 
L 597.460166 307.123154 
L 597.619608 306.883601 
L 597.7758 306.640593 
L 597.928683 306.394279 
L 598.078202 306.144806 
L 598.224306 305.892322 
L 598.36695 305.636974 
L 598.50609 305.37891 
L 598.641689 305.118276 
L 598.773714 304.855217 
L 598.902133 304.589877 
L 599.026922 304.3224 
L 599.148059 304.052925 
L 599.265523 303.78159 
L 599.379302 303.508533 
L 599.489384 303.233887 
L 599.595759 302.957783 
L 599.698424 302.68035 
L 599.797376 302.401712 
L 599.892616 302.121993 
L 599.984148 301.841312 
L 600.071976 301.559786 
L 600.156111 301.277526 
L 600.236561 300.994645 
L 600.313339 300.711247 
L 600.386461 300.427437 
L 600.455941 300.143314 
L 600.521798 299.858977 
L 600.584051 299.574518 
L 600.642719 299.290029 
L 600.697825 299.005596 
L 600.749391 298.721305 
L 600.797441 298.437237 
L 600.841999 298.153469 
L 600.883091 297.870077 
L 600.92074 297.587134 
L 600.954975 297.304705 
L 600.985822 297.022855 
L 601.013307 296.741634 
L 601.03746 296.461098 
L 601.05831 296.181211 
L 601.075938 295.901062 
L 601.279928 292.19232 
L 601.284699 292.073018 
L 601.288113 291.953291 
L 601.290169 291.832632 
L 601.396543 269.618227 
L 601.34214 253.758553 
L 601.247575 247.875344 
L 601.23866 247.56306 
L 600.515154 229.746658 
L 600.508562 229.618385 
L 600.500537 229.490897 
L 600.491042 229.363454 
L 600.480073 229.236042 
L 600.467621 229.108655 
L 600.453674 228.981237 
L 599.833678 223.969965 
L 599.816573 223.841445 
L 599.104044 218.746258 
L 599.084095 218.619198 
L 599.062629 218.492285 
L 599.039626 218.365465 
L 599.015068 218.238701 
L 598.988929 218.111949 
L 598.961178 217.985144 
L 598.931774 217.858194 
L 598.900662 217.730973 
L 598.867767 217.603301 
L 598.832986 217.474928 
L 598.796176 217.345503 
L 598.757133 217.214531 
L 598.715561 217.081294 
L 598.671023 216.944739 
L 598.622841 216.80326 
L 598.570045 216.654523 
L 588.455205 188.995285 
L 586.533898 183.932662 
L 586.169374 183.023099 
L 585.80887 182.157779 
L 585.459978 181.351683 
L 585.128353 180.613765 
L 580.518931 170.841082 
L 580.257647 170.300986 
L 577.814251 165.425126 
L 577.418131 164.663949 
L 576.975673 163.843505 
L 576.490116 162.974452 
L 575.968764 162.073598 
L 574.994794 160.436254 
L 574.897371 160.279241 
L 574.806495 160.137819 
L 574.720141 160.008056 
L 572.84267 157.255138 
L 572.78105 157.168725 
L 572.718676 157.084426 
L 572.65541 157.001809 
L 572.591308 156.921016 
L 572.526387 156.84206 
L 572.460667 156.764958 
L 572.394199 156.689689 
L 572.326898 156.616363 
L 572.258913 156.544858 
L 572.174877 156.459982 
L 572.08393 156.371394 
L 571.993706 156.286857 
L 571.904125 156.206176 
L 571.815086 156.129153 
L 571.726501 156.055613 
L 571.638292 155.985404 
L 571.550393 155.918397 
L 571.46278 155.854442 
L 571.375341 155.793514 
L 571.288031 155.73553 
L 571.200888 155.680342 
L 571.11385 155.627922 
L 571.026893 155.578214 
L 570.94 155.531168 
L 570.853156 155.486741 
L 570.76635 155.444895 
L 570.679575 155.405597 
L 570.592826 155.368815 
L 570.5061 155.334524 
L 570.419397 155.3027 
L 570.332718 155.273322 
L 570.246067 155.24637 
L 570.159524 155.221792 
L 570.07295 155.199642 
L 569.986422 155.179871 
L 569.899949 155.162466 
L 569.813541 155.147415 
L 569.727063 155.134743 
L 569.640784 155.124367 
L 569.554583 155.116314 
L 569.46845 155.110574 
L 569.382312 155.10714 
L 569.2949 155.106013 
L 545.128744 155.33148 
L 499.270516 157.002218 
L 499.187773 157.007714 
L 498.813849 157.045865 
L 474.493306 159.995269 
L 469.654248 160.650606 
L 469.45471 160.685356 
L 469.25463 160.725623 
L 469.054029 160.771456 
L 468.852962 160.822896 
L 468.651494 160.879983 
L 468.449695 160.942753 
L 468.24764 161.011239 
L 468.045406 161.085471 
L 467.843071 161.165474 
L 467.64072 161.251272 
L 467.438437 161.342883 
L 467.23631 161.440322 
L 467.034427 161.543598 
L 466.832882 161.652719 
L 466.631768 161.767684 
L 466.43118 161.88849 
L 466.231217 162.015127 
L 466.031978 162.14758 
L 465.833563 162.28583 
L 465.636075 162.42985 
L 465.439617 162.579609 
L 465.244293 162.735069 
L 465.050208 162.896186 
L 464.857468 163.062911 
L 464.666178 163.235188 
L 464.476444 163.412955 
L 464.288371 163.596143 
L 464.102066 163.784679 
L 463.917633 163.978482 
L 463.735174 164.177465 
L 463.554794 164.381537 
L 463.376592 164.5906 
L 463.200669 164.80455 
L 463.027122 165.023279 
L 462.856046 165.246674 
L 462.687535 165.474614 
L 462.521679 165.706978 
L 462.358566 165.943637 
L 462.198281 166.18446 
L 462.040904 166.429311 
L 461.886516 166.678053 
L 461.73519 166.930543 
L 461.586998 167.186637 
L 461.442008 167.446189 
L 461.300283 167.709049 
L 461.161883 167.975068 
L 461.026865 168.244094 
L 460.895281 168.515975 
L 460.767178 168.790558 
L 460.6426 169.067691 
L 460.521588 169.34722 
L 460.404179 169.628993 
L 460.290403 169.91286 
L 460.180289 170.198668 
L 460.073862 170.48627 
L 459.971143 170.775518 
L 459.872148 171.066267 
L 459.776891 171.358372 
L 459.685384 171.651695 
L 459.597631 171.946094 
L 459.513638 172.241436 
L 459.433405 172.537586 
L 459.35693 172.834415 
L 459.284208 173.131796 
L 459.215231 173.429605 
L 459.14999 173.727721 
L 459.088473 174.026028 
L 459.030664 174.324411 
L 458.976548 174.622761 
L 458.926107 174.920971 
L 458.87932 175.218938 
L 458.836165 175.516564 
L 458.79662 175.813756 
L 458.76066 176.11043 
L 458.728256 176.406519 
L 458.699375 176.70204 
L 458.673909 176.997519 
L 457.308817 195.386097 
L 455.563579 223.097155 
L 454.498704 243.264032 
z
" clip-path="url(#pb550090e35)" style="fill: #1f77b4; opacity: 0.35; stroke: #00008b; stroke-width: 1.5; stroke-linejoin: miter"/>
   </g>
   <g id="patch_8">
    <path d="M 453.213814 309.379051 
L 454.467326 314.801093 
L 462.762796 319.306257 
L 570.292324 315.09355 
L 595.469196 308.214107 
L 596.285776 306.117731 
L 599.567833 280.024726 
L 600.27162 241.976738 
L 598.124762 222.275241 
L 575.305081 161.445732 
L 573.711458 158.533775 
L 568.81435 155.858533 
L 482.56408 158.405408 
L 462.282773 164.000304 
L 459.3231 169.36463 
L 454.888816 206.330714 
z
" clip-path="url(#pb550090e35)" style="fill: #ff7f0e; opacity: 0.35; stroke: #ff8c00; stroke-width: 1.5; stroke-linejoin: miter"/>
   </g>
   <g id="patch_9">
    <path d="M 456.979427 308.887219 
L 457.351395 310.507109 
L 462.145993 313.094105 
L 570.576695 308.186551 
L 591.617763 302.294832 
L 594.064413 295.926465 
L 595.116012 229.359736 
L 585.134943 187.642475 
L 581.797505 178.745927 
L 569.556214 162.970486 
L 483.957969 164.97032 
L 464.433165 170.217049 
L 463.776021 171.395966 
L 458.811241 211.611597 
z
" clip-path="url(#pb550090e35)" style="fill: #d62728; opacity: 0.35; stroke: #8b0000; stroke-width: 1.5; stroke-linejoin: miter"/>
   </g>
   <g id="matplotlib.axis_3"/>
   <g id="matplotlib.axis_4"/>
   <g id="text_2">
    <!-- (b) $\Delta\theta=+0.15$ -->
    <g transform="translate(497.205 66.555) scale(0.13 -0.13)">
     <defs>
      <path id="TimesNewRomanPSMT-62" d="M 984 2369 
Q 1400 2947 1881 2947 
Q 2322 2947 2650 2570 
Q 2978 2194 2978 1541 
Q 2978 778 2472 313 
Q 2038 -88 1503 -88 
Q 1253 -88 995 3 
Q 738 94 469 275 
L 469 3241 
Q 469 3728 445 3840 
Q 422 3953 372 3993 
Q 322 4034 247 4034 
Q 159 4034 28 3984 
L -16 4094 
L 844 4444 
L 984 4444 
L 984 2369 
z
M 984 2169 
L 984 456 
Q 1144 300 1314 220 
Q 1484 141 1663 141 
Q 1947 141 2192 453 
Q 2438 766 2438 1363 
Q 2438 1913 2192 2208 
Q 1947 2503 1634 2503 
Q 1469 2503 1303 2419 
Q 1178 2356 984 2169 
z
" transform="scale(0.015625)"/>
      <path id="STIXGeneral-Regular-2b" d="M 4070 1408 
L 2400 1408 
L 2400 -262 
L 1978 -262 
L 1978 1408 
L 307 1408 
L 307 1830 
L 1978 1830 
L 1978 3501 
L 2400 3501 
L 2400 1830 
L 4070 1830 
L 4070 1408 
z
" transform="scale(0.015625)"/>
      <path id="STIXGeneral-Regular-2e" d="M 1158 275 
Q 1158 134 1052 32 
Q 947 -70 800 -70 
Q 653 -70 550 32 
Q 448 134 448 281 
Q 448 429 553 534 
Q 659 640 806 640 
Q 947 640 1052 531 
Q 1158 422 1158 275 
z
" transform="scale(0.015625)"/>
      <path id="STIXGeneral-Regular-31" d="M 2522 0 
L 755 0 
L 755 96 
Q 1107 115 1235 227 
Q 1363 339 1363 608 
L 1363 3482 
Q 1363 3795 1171 3795 
Q 1082 3795 883 3718 
L 710 3654 
L 710 3744 
L 1856 4326 
L 1914 4307 
L 1914 486 
Q 1914 275 2042 185 
Q 2170 96 2522 96 
L 2522 0 
z
" transform="scale(0.015625)"/>
      <path id="STIXGeneral-Regular-35" d="M 2803 4358 
L 2573 3814 
Q 2534 3731 2400 3731 
L 1158 3731 
L 902 3187 
Q 1606 3053 1920 2896 
Q 2234 2739 2502 2368 
Q 2726 2061 2726 1555 
Q 2726 1094 2576 780 
Q 2426 467 2099 224 
Q 1664 -90 1011 -90 
Q 646 -90 422 19 
Q 198 128 198 307 
Q 198 550 486 550 
Q 717 550 960 352 
Q 1210 147 1414 147 
Q 1747 147 2012 480 
Q 2278 813 2278 1229 
Q 2278 1843 1850 2189 
Q 1293 2637 486 2637 
Q 410 2637 410 2688 
L 416 2720 
L 1114 4237 
L 2438 4237 
Q 2547 4237 2608 4269 
Q 2669 4301 2746 4403 
L 2803 4358 
z
" transform="scale(0.015625)"/>
     </defs>
     <use xlink:href="#TimesNewRomanPSMT-28" transform="translate(0 0.5625)"/>
     <use xlink:href="#TimesNewRomanPSMT-62" transform="translate(33.300781 0.5625)"/>
     <use xlink:href="#TimesNewRomanPSMT-29" transform="translate(83.300781 0.5625)"/>
     <use xlink:href="#TimesNewRomanPSMT-20" transform="translate(116.601562 0.5625)"/>
     <use xlink:href="#STIXGeneral-Regular-394" transform="translate(141.601562 0.5625)"/>
     <use xlink:href="#STIXGeneral-Italic-3b8" transform="translate(213.801544 0.5625)"/>
     <use xlink:href="#STIXGeneral-Regular-3d" transform="translate(276.241525 0.5625)"/>
     <use xlink:href="#STIXGeneral-Regular-2b" transform="translate(359.181506 0.5625)"/>
     <use xlink:href="#STIXGeneral-Regular-30" transform="translate(427.681491 0.5625)"/>
     <use xlink:href="#STIXGeneral-Regular-2e" transform="translate(477.681476 0.5625)"/>
     <use xlink:href="#STIXGeneral-Regular-31" transform="translate(502.681461 0.5625)"/>
     <use xlink:href="#STIXGeneral-Regular-35" transform="translate(552.681445 0.5625)"/>
    </g>
   </g>
  </g>
  <g id="axes_3">
   <g id="patch_10">
    <path d="M 722.8 393.9 
L 1065.6 393.9 
L 1065.6 69.415 
L 722.8 69.415 
z
" style="fill: #ffffff"/>
   </g>
   <g id="patch_11">
    <path d="M 786.052634 275.824351 
L 785.681837 288.668408 
L 785.268195 318.369506 
L 785.215975 331.179935 
L 785.217377 331.431071 
L 785.221606 331.678654 
L 785.228637 331.92515 
L 785.238452 332.170651 
L 785.251032 332.41514 
L 785.266359 332.658577 
L 785.284415 332.900917 
L 785.30518 333.14211 
L 785.328636 333.382108 
L 785.354765 333.620861 
L 785.383548 333.85832 
L 785.414965 334.094437 
L 785.448999 334.329166 
L 785.485629 334.562457 
L 785.524838 334.794266 
L 785.566606 335.024547 
L 785.610913 335.253254 
L 785.657743 335.480342 
L 785.707075 335.705769 
L 785.75889 335.929491 
L 785.81317 336.151463 
L 785.869896 336.371645 
L 785.92905 336.589994 
L 785.990612 336.806468 
L 786.054565 337.021027 
L 786.120889 337.233628 
L 786.189566 337.444231 
L 786.260577 337.652796 
L 786.333905 337.859283 
L 786.40953 338.063652 
L 786.487434 338.265862 
L 786.5676 338.465874 
L 786.650008 338.663649 
L 786.734641 338.859148 
L 786.82148 339.05233 
L 786.910507 339.243156 
L 787.001703 339.431588 
L 787.09505 339.617585 
L 787.19053 339.801109 
L 787.288124 339.982121 
L 787.387815 340.16058 
L 787.489582 340.336447 
L 787.593408 340.509683 
L 787.699274 340.680248 
L 787.807161 340.848102 
L 787.917049 341.013206 
L 788.028921 341.175518 
L 788.142755 341.334999 
L 788.258534 341.491609 
L 788.376236 341.645306 
L 788.495842 341.79605 
L 788.617332 341.9438 
L 788.740685 342.088514 
L 788.86588 342.230151 
L 788.992896 342.36867 
L 789.121712 342.504027 
L 789.252305 342.636182 
L 789.384653 342.765091 
L 789.518733 342.890713 
L 789.654522 343.013003 
L 789.791997 343.13192 
L 789.931133 343.24742 
L 790.071905 343.359459 
L 790.214288 343.467994 
L 790.358256 343.572982 
L 790.503782 343.674377 
L 790.650839 343.772138 
L 790.799399 343.866218 
L 790.949432 343.956574 
L 791.100911 344.043162 
L 791.253803 344.125938 
L 791.408078 344.204858 
L 791.563704 344.279877 
L 791.720647 344.350951 
L 791.878875 344.418037 
L 792.038351 344.481091 
L 792.19904 344.54007 
L 792.360906 344.594931 
L 792.523909 344.645631 
L 792.688011 344.692128 
L 792.853173 344.73438 
L 793.019353 344.772347 
L 793.186509 344.805987 
L 793.354599 344.835262 
L 793.52358 344.860132 
L 793.69341 344.880559 
L 793.864051 344.896507 
L 794.035479 344.907938 
L 794.207732 344.914818 
L 794.382084 344.917101 
L 817.710713 344.597951 
L 852.861945 343.306236 
L 869.793988 342.065147 
L 882.968113 340.807989 
L 900.930357 338.670438 
L 905.261952 338.044622 
L 905.44633 338.012519 
L 905.630809 337.975394 
L 905.815519 337.933195 
L 906.000413 337.885894 
L 906.185423 337.833472 
L 906.370474 337.775912 
L 906.555487 337.713204 
L 906.740377 337.645341 
L 906.925062 337.572317 
L 907.109455 337.494135 
L 907.293467 337.4108 
L 907.477011 337.322321 
L 907.659995 337.228713 
L 907.842329 337.129995 
L 908.023922 337.026191 
L 908.20468 336.917329 
L 908.384511 336.803443 
L 908.563321 336.684572 
L 908.741019 336.560758 
L 908.917512 336.432051 
L 909.092706 336.298503 
L 909.266511 336.160172 
L 909.438834 336.01712 
L 909.609588 335.869416 
L 909.778681 335.717131 
L 909.946028 335.560341 
L 910.111542 335.399127 
L 910.275138 335.233573 
L 910.436736 335.063768 
L 910.596253 334.889804 
L 910.753614 334.711777 
L 910.908741 334.529786 
L 911.061562 334.343933 
L 911.212006 334.154323 
L 911.360005 333.961064 
L 911.505496 333.764264 
L 911.648415 333.564037 
L 911.788703 333.360495 
L 911.926306 333.153754 
L 912.061169 332.943929 
L 912.193244 332.73114 
L 912.322483 332.515502 
L 912.448844 332.297136 
L 912.572286 332.07616 
L 912.692773 331.852692 
L 912.81027 331.626851 
L 912.924746 331.398756 
L 913.036174 331.168523 
L 913.14453 330.936269 
L 913.24979 330.70211 
L 913.351936 330.466161 
L 913.450951 330.228533 
L 913.546823 329.989338 
L 913.639539 329.748687 
L 913.729092 329.506686 
L 913.815474 329.263442 
L 913.898682 329.01906 
L 913.978714 328.77364 
L 914.05557 328.527284 
L 914.129252 328.280088 
L 914.199765 328.032148 
L 914.267113 327.783557 
L 914.331304 327.534406 
L 914.392347 327.284784 
L 914.450252 327.034776 
L 914.505031 326.784468 
L 914.556695 326.533939 
L 914.60526 326.283269 
L 914.650738 326.032536 
L 914.693147 325.781814 
L 914.732503 325.531175 
L 914.768822 325.280688 
L 914.802124 325.030422 
L 914.832425 324.780439 
L 914.859746 324.530802 
L 914.884105 324.281566 
L 914.905524 324.032777 
L 914.924023 323.784455 
L 914.93963 323.53649 
L 918.180112 265.189402 
L 918.713409 252.120416 
L 918.720602 251.868362 
L 919.308337 219.258473 
L 919.34627 209.17659 
L 919.344832 208.929016 
L 919.340618 208.682429 
L 919.333626 208.437313 
L 919.323882 208.193609 
L 919.311416 207.95133 
L 919.296254 207.710503 
L 919.278422 207.47116 
L 919.257947 207.233335 
L 919.234854 206.997059 
L 919.20917 206.762367 
L 919.180919 206.52929 
L 919.150125 206.297859 
L 919.116813 206.068106 
L 919.081007 205.840061 
L 919.042729 205.613753 
L 919.002003 205.389212 
L 918.95885 205.166465 
L 918.913292 204.945542 
L 918.865351 204.726469 
L 918.815048 204.509275 
L 918.762402 204.293985 
L 918.707434 204.080628 
L 918.650164 203.869229 
L 918.590609 203.659815 
L 918.52879 203.452412 
L 918.464723 203.247046 
L 918.398427 203.043743 
L 918.329919 202.842531 
L 918.259216 202.643434 
L 918.186334 202.446478 
L 918.11129 202.251692 
L 918.034098 202.059099 
L 917.954775 201.868729 
L 917.873336 201.680607 
L 917.789795 201.49476 
L 917.704166 201.311216 
L 917.616463 201.130003 
L 917.5267 200.951148 
L 917.434892 200.774681 
L 917.341049 200.600629 
L 917.245187 200.429022 
L 917.147317 200.25989 
L 917.047451 200.093262 
L 916.945602 199.929169 
L 916.841783 199.767643 
L 916.736004 199.608715 
L 916.628278 199.452417 
L 916.518616 199.298782 
L 916.40703 199.147843 
L 916.293531 198.999635 
L 916.17813 198.854192 
L 916.060839 198.711549 
L 915.941669 198.571742 
L 915.820631 198.434809 
L 915.697737 198.300787 
L 915.572999 198.169713 
L 915.446426 198.041628 
L 915.318033 197.916571 
L 915.187829 197.794582 
L 915.055827 197.675703 
L 914.92204 197.559977 
L 914.78648 197.447446 
L 914.64916 197.338155 
L 914.510093 197.232148 
L 914.369292 197.129471 
L 914.226773 197.030171 
L 914.082549 196.934295 
L 913.936636 196.841892 
L 913.78905 196.75301 
L 913.639806 196.6677 
L 913.488923 196.586013 
L 913.336419 196.508 
L 913.182311 196.433713 
L 913.026621 196.363207 
L 912.869368 196.296535 
L 912.710575 196.233752 
L 912.550265 196.174913 
L 912.388462 196.120074 
L 912.225191 196.069292 
L 912.060479 196.022623 
L 911.894355 195.980125 
L 911.726847 195.941856 
L 911.557987 195.907873 
L 911.387806 195.878235 
L 911.216339 195.852999 
L 911.043618 195.832225 
L 910.869675 195.815968 
L 910.694535 195.804289 
L 910.518182 195.797244 
L 910.340075 195.794897 
L 891.880282 196.056508 
L 851.444671 197.714192 
L 851.265174 197.726117 
L 808.566717 201.9418 
L 798.970097 203.049802 
L 798.795459 203.075499 
L 798.620489 203.10597 
L 798.445152 203.141257 
L 798.269485 203.181392 
L 798.093538 203.226405 
L 797.91737 203.276323 
L 797.741042 203.331169 
L 797.564618 203.390967 
L 797.388166 203.455734 
L 797.211754 203.525487 
L 797.035451 203.60024 
L 796.85933 203.680002 
L 796.683464 203.76478 
L 796.50793 203.854577 
L 796.332803 203.949394 
L 796.158161 204.049226 
L 795.984084 204.154064 
L 795.810653 204.263898 
L 795.637949 204.378711 
L 795.466055 204.498481 
L 795.295053 204.623185 
L 795.125028 204.752794 
L 794.956065 204.887273 
L 794.788247 205.026584 
L 794.621661 205.170685 
L 794.456392 205.319527 
L 794.292524 205.473059 
L 794.130142 205.631223 
L 793.969332 205.793959 
L 793.810175 205.9612 
L 793.652756 206.132876 
L 793.497156 206.308913 
L 793.343457 206.48923 
L 793.191737 206.673746 
L 793.042075 206.862372 
L 792.894547 207.055017 
L 792.749227 207.251586 
L 792.606189 207.451981 
L 792.465504 207.656101 
L 792.327238 207.86384 
L 792.191459 208.07509 
L 792.05823 208.28974 
L 791.927612 208.507679 
L 791.799664 208.728791 
L 791.67444 208.952958 
L 791.551994 209.180061 
L 791.432375 209.409982 
L 791.315631 209.642597 
L 791.201805 209.877785 
L 791.090939 210.115423 
L 790.98307 210.355386 
L 790.878233 210.597552 
L 790.776461 210.841797 
L 790.677782 211.087997 
L 790.582223 211.33603 
L 790.489806 211.585772 
L 790.400552 211.837104 
L 790.314478 212.089904 
L 790.231599 212.344054 
L 790.151928 212.599436 
L 790.075473 212.855935 
L 790.002242 213.113435 
L 789.932239 213.371825 
L 789.865467 213.630995 
L 789.801926 213.890835 
L 789.741613 214.15124 
L 789.684524 214.412106 
L 789.630654 214.673332 
L 789.579994 214.934818 
L 789.532535 215.196468 
L 789.488266 215.458188 
L 789.447174 215.719887 
L 789.409245 215.981476 
L 789.374464 216.242872 
L 789.342812 216.503995 
L 789.314273 216.764773 
L 789.288826 217.025156 
L 789.26644 217.285217 
L 789.183462 218.467388 
L 787.832894 240.037122 
L 786.324528 269.443915 
z
" clip-path="url(#pfc26b68138)" style="fill: #1f77b4; opacity: 0.35; stroke: #00008b; stroke-width: 1.5; stroke-linejoin: miter"/>
   </g>
   <g id="patch_12">
    <path d="M 786.111308 323.234609 
L 786.923678 329.904813 
L 791.183316 341.075183 
L 791.359147 341.301516 
L 791.359295 341.301549 
L 791.359506 341.301856 
L 794.210364 342.100441 
L 884.831604 340.291913 
L 908.263392 334.180685 
L 915.696547 313.579549 
L 915.422161 196.528382 
L 914.547916 195.39675 
L 828.148322 195.518488 
L 793.835117 203.959944 
L 789.957558 211.096542 
L 786.102825 248.491665 
z
" clip-path="url(#pfc26b68138)" style="fill: #ff7f0e; opacity: 0.35; stroke: #ff8c00; stroke-width: 1.5; stroke-linejoin: miter"/>
   </g>
   <g id="patch_13">
    <path d="M 789.283936 331.163001 
L 790.283941 335.272471 
L 793.287127 336.966199 
L 884.352597 334.66537 
L 904.726114 329.233722 
L 910.993355 311.638078 
L 910.471448 203.605438 
L 826.16898 203.227289 
L 795.412641 210.57958 
L 793.212433 214.588109 
L 789.439248 250.357698 
z
" clip-path="url(#pfc26b68138)" style="fill: #d62728; opacity: 0.35; stroke: #8b0000; stroke-width: 1.5; stroke-linejoin: miter"/>
   </g>
   <g id="matplotlib.axis_5"/>
   <g id="matplotlib.axis_6"/>
   <g id="text_3">
    <!-- (c) $\Delta\theta=-0.15$ -->
    <g transform="translate(855.33 66.555) scale(0.13 -0.13)">
     <defs>
      <path id="TimesNewRomanPSMT-63" d="M 2631 1088 
Q 2516 522 2178 217 
Q 1841 -88 1431 -88 
Q 944 -88 581 321 
Q 219 731 219 1428 
Q 219 2103 620 2525 
Q 1022 2947 1584 2947 
Q 2006 2947 2278 2723 
Q 2550 2500 2550 2259 
Q 2550 2141 2473 2067 
Q 2397 1994 2259 1994 
Q 2075 1994 1981 2113 
Q 1928 2178 1911 2362 
Q 1894 2547 1784 2644 
Q 1675 2738 1481 2738 
Q 1169 2738 978 2506 
Q 725 2200 725 1697 
Q 725 1184 976 792 
Q 1228 400 1656 400 
Q 1963 400 2206 609 
Q 2378 753 2541 1131 
L 2631 1088 
z
" transform="scale(0.015625)"/>
      <path id="STIXGeneral-Regular-2212" d="M 3974 1408 
L 410 1408 
L 410 1830 
L 3974 1830 
L 3974 1408 
z
" transform="scale(0.015625)"/>
     </defs>
     <use xlink:href="#TimesNewRomanPSMT-28" transform="translate(0 0.5625)"/>
     <use xlink:href="#TimesNewRomanPSMT-63" transform="translate(33.300781 0.5625)"/>
     <use xlink:href="#TimesNewRomanPSMT-29" transform="translate(77.685547 0.5625)"/>
     <use xlink:href="#TimesNewRomanPSMT-20" transform="translate(110.986328 0.5625)"/>
     <use xlink:href="#STIXGeneral-Regular-394" transform="translate(135.986328 0.5625)"/>
     <use xlink:href="#STIXGeneral-Italic-3b8" transform="translate(208.18631 0.5625)"/>
     <use xlink:href="#STIXGeneral-Regular-3d" transform="translate(270.626291 0.5625)"/>
     <use xlink:href="#STIXGeneral-Regular-2212" transform="translate(353.566272 0.5625)"/>
     <use xlink:href="#STIXGeneral-Regular-30" transform="translate(422.066257 0.5625)"/>
     <use xlink:href="#STIXGeneral-Regular-2e" transform="translate(472.066241 0.5625)"/>
     <use xlink:href="#STIXGeneral-Regular-31" transform="translate(497.066226 0.5625)"/>
     <use xlink:href="#STIXGeneral-Regular-35" transform="translate(547.066211 0.5625)"/>
    </g>
   </g>
  </g>
  <g id="axes_4">
   <g id="patch_14">
    <path d="M 7.2 753.1 
L 350 753.1 
L 350 428.615 
L 7.2 428.615 
z
" style="fill: #ffffff"/>
   </g>
   <g id="patch_15">
    <path d="M 109.649648 594.061741 
L 109.391838 601.894805 
L 108.79008 637.705741 
L 108.719857 652.646937 
L 108.721527 652.944235 
L 108.726552 653.238259 
L 108.734901 653.530888 
L 108.746548 653.822191 
L 108.761468 654.112144 
L 108.779637 654.4007 
L 108.801028 654.68781 
L 108.825618 654.97342 
L 108.853381 655.257479 
L 108.884293 655.539934 
L 108.91833 655.820733 
L 108.955465 656.099825 
L 108.995677 656.377161 
L 109.03894 656.652691 
L 109.08523 656.926367 
L 109.134524 657.19814 
L 109.186797 657.467963 
L 109.242028 657.735791 
L 109.300192 658.001577 
L 109.361267 658.265276 
L 109.425229 658.526844 
L 109.492057 658.786235 
L 109.561728 659.043406 
L 109.634221 659.298313 
L 109.709512 659.550913 
L 109.787582 659.801164 
L 109.868407 660.049023 
L 109.951968 660.294446 
L 110.038243 660.537393 
L 110.127212 660.77782 
L 110.218854 661.015686 
L 110.313147 661.250948 
L 110.410074 661.483565 
L 110.509612 661.713494 
L 110.611742 661.940693 
L 110.716445 662.165121 
L 110.8237 662.386734 
L 110.933489 662.605491 
L 111.045791 662.821349 
L 111.160587 663.034264 
L 111.277857 663.244195 
L 111.397583 663.451097 
L 111.519745 663.654927 
L 111.644324 663.85564 
L 111.7713 664.053194 
L 111.900653 664.247543 
L 112.032365 664.438642 
L 112.166416 664.626445 
L 112.302786 664.810908 
L 112.441454 664.991983 
L 112.582402 665.169625 
L 112.725609 665.343785 
L 112.871054 665.514417 
L 113.018716 665.681472 
L 113.168575 665.844902 
L 113.320609 666.004657 
L 113.474796 666.160688 
L 113.631115 666.312945 
L 113.789542 666.461378 
L 113.950055 666.605934 
L 114.11263 666.746562 
L 114.277242 666.883211 
L 114.443868 667.015827 
L 114.612482 667.144357 
L 114.783057 667.268747 
L 114.955566 667.388944 
L 115.129984 667.504893 
L 115.306279 667.616538 
L 115.484425 667.723824 
L 115.664389 667.826695 
L 115.846141 667.925096 
L 116.029649 668.01897 
L 116.214879 668.10826 
L 116.401797 668.192908 
L 116.590367 668.272859 
L 116.780551 668.348056 
L 116.972313 668.41844 
L 117.165612 668.483954 
L 117.360406 668.544543 
L 117.556655 668.600148 
L 117.754313 668.650715 
L 117.953336 668.696185 
L 118.153677 668.736505 
L 118.355288 668.771619 
L 118.558121 668.801472 
L 118.762126 668.826011 
L 118.967259 668.845184 
L 119.173484 668.858938 
L 119.38082 668.867223 
L 119.590217 668.869979 
L 141.543542 668.575989 
L 183.208064 666.898725 
L 189.919868 666.526163 
L 211.051791 664.638334 
L 229.657138 662.419829 
L 248.445098 659.661992 
L 250.13092 659.373205 
L 250.301749 659.338833 
L 250.472109 659.299914 
L 250.642092 659.256431 
L 250.81168 659.20838 
L 250.980847 659.155764 
L 251.149562 659.098581 
L 251.317792 659.036834 
L 251.485504 658.970523 
L 251.652663 658.89965 
L 251.819235 658.824214 
L 251.985184 658.744218 
L 252.150475 658.659662 
L 252.315072 658.570548 
L 252.478939 658.476877 
L 252.642037 658.378651 
L 252.804332 658.275872 
L 252.965784 658.16854 
L 253.126355 658.05666 
L 253.286007 657.940233 
L 253.444702 657.819263 
L 253.602398 657.693752 
L 253.759056 657.563705 
L 253.914636 657.429126 
L 254.069096 657.290019 
L 254.222394 657.14639 
L 254.374488 656.998246 
L 254.525334 656.845594 
L 254.67489 656.688441 
L 254.823111 656.526795 
L 254.969952 656.360668 
L 255.115367 656.190069 
L 255.25931 656.01501 
L 255.401735 655.835505 
L 255.542594 655.651568 
L 255.681838 655.463215 
L 255.819419 655.270464 
L 255.955287 655.073333 
L 256.089392 654.871843 
L 256.221683 654.666018 
L 256.352109 654.455881 
L 256.480618 654.24146 
L 256.607157 654.022783 
L 256.731672 653.799881 
L 256.854111 653.572789 
L 256.974418 653.341542 
L 257.09254 653.106181 
L 257.20846 652.866756 
L 257.322004 652.62328 
L 257.433233 652.37584 
L 257.542044 652.12449 
L 257.648325 651.869428 
L 257.720073 651.691156 
L 257.762357 651.581409 
L 257.803388 651.470529 
L 257.843198 651.358425 
L 257.881792 651.24507 
L 257.921457 651.123277 
L 258.00276 650.86272 
L 258.082487 650.595099 
L 258.15975 650.323409 
L 258.234472 650.047586 
L 258.306586 649.76767 
L 258.376024 649.483707 
L 258.442718 649.19574 
L 258.506599 648.903822 
L 258.567599 648.60801 
L 258.625648 648.308369 
L 258.680677 648.004971 
L 258.732616 647.697895 
L 258.781395 647.387226 
L 258.826946 647.07306 
L 258.869201 646.755497 
L 258.908091 646.434648 
L 258.943551 646.110633 
L 258.975517 645.783578 
L 259.003925 645.45362 
L 259.028715 645.120901 
L 259.049829 644.785574 
L 259.067212 644.447796 
L 259.080811 644.107726 
L 259.090577 643.765512 
L 259.096465 643.421202 
L 259.098427 643.070277 
L 259.086232 631.017928 
L 258.655154 600.127728 
L 258.651288 599.990571 
L 258.428791 594.460665 
L 258.421806 594.325631 
L 258.413299 594.190506 
L 258.403244 594.055553 
L 258.391641 593.920788 
L 258.378491 593.786247 
L 258.363794 593.651968 
L 258.347554 593.517994 
L 258.329772 593.384366 
L 258.310452 593.251126 
L 258.289598 593.118317 
L 258.267212 592.985979 
L 258.2433 592.854153 
L 258.217862 592.722866 
L 258.190966 592.592259 
L 257.197164 588.131941 
L 256.777516 586.278455 
L 255.032185 579.171811 
L 254.876859 578.569331 
L 254.697958 577.909242 
L 254.492939 577.188602 
L 254.259823 576.406777 
L 253.997638 575.56659 
L 253.706905 574.675244 
L 253.390051 573.744779 
L 253.05156 572.791696 
L 245.481059 552.532271 
L 238.24582 533.6498 
L 238.137557 533.379928 
L 237.981367 533.005564 
L 237.720263 532.403516 
L 233.385979 522.700636 
L 231.589758 518.858708 
L 231.142626 517.933822 
L 230.817897 517.286159 
L 230.572418 516.813928 
L 227.2497 510.715591 
L 227.094402 510.437427 
L 222.81784 503.0381 
L 222.034754 501.731534 
L 221.672387 501.142684 
L 221.60948 501.044804 
L 221.545567 500.948773 
L 221.480623 500.854465 
L 221.41466 500.762128 
L 221.347701 500.671553 
L 221.279767 500.582843 
L 221.210882 500.496023 
L 221.141068 500.411119 
L 221.070349 500.328153 
L 220.998749 500.247149 
L 220.92629 500.168128 
L 220.85299 500.091107 
L 220.778854 500.016088 
L 220.703578 499.94271 
L 220.622559 499.866874 
L 220.541043 499.793463 
L 218.630285 498.170526 
L 218.551846 498.105386 
L 218.474129 498.043529 
L 218.39595 497.983933 
L 218.317304 497.92658 
L 218.238205 497.871466 
L 218.15867 497.818592 
L 218.078715 497.767957 
L 217.998356 497.719562 
L 217.9176 497.673401 
L 217.836266 497.629372 
L 213.092944 495.161092 
L 213.007172 495.119742 
L 212.921162 495.080791 
L 212.8349 495.044217 
L 212.748401 495.010017 
L 212.661479 494.97812 
L 211.923605 494.725928 
L 211.841577 494.70041 
L 211.759455 494.677145 
L 211.677227 494.656109 
L 211.594888 494.637297 
L 211.512458 494.620708 
L 211.429954 494.60634 
L 211.347394 494.59419 
L 211.264792 494.584257 
L 211.182157 494.576537 
L 211.099481 494.571028 
L 211.016658 494.567728 
L 209.314427 494.557603 
L 186.838629 494.743247 
L 143.892858 496.265647 
L 143.495637 496.288429 
L 142.200032 496.416293 
L 133.698226 497.387786 
L 126.399521 498.421609 
L 126.187453 498.458541 
L 125.974754 498.501348 
L 125.761424 498.55009 
L 125.547517 498.604815 
L 125.3331 498.665572 
L 125.118247 498.732403 
L 124.903039 498.805348 
L 124.687556 498.884442 
L 124.471886 498.969719 
L 124.256117 499.061206 
L 124.040341 499.158928 
L 123.824652 499.262905 
L 123.609149 499.373151 
L 123.39393 499.489675 
L 123.179098 499.612481 
L 122.964759 499.741569 
L 122.751019 499.876932 
L 122.537987 500.018554 
L 122.325775 500.166419 
L 122.114494 500.320498 
L 121.904259 500.480759 
L 121.695184 500.647163 
L 121.487387 500.819664 
L 121.280984 500.998208 
L 121.076092 501.182735 
L 120.87283 501.373177 
L 120.671314 501.56946 
L 120.471661 501.771503 
L 120.273989 501.979217 
L 120.078413 502.192507 
L 119.885046 502.411271 
L 119.694002 502.6354 
L 119.505392 502.86478 
L 119.319324 503.09929 
L 119.135904 503.338804 
L 118.955237 503.583188 
L 118.777423 503.832305 
L 118.602558 504.086013 
L 118.430739 504.344166 
L 118.262054 504.606612 
L 118.096591 504.873196 
L 117.934433 505.14376 
L 117.775657 505.418144 
L 117.620339 505.696184 
L 117.468547 505.977715 
L 117.320349 506.262568 
L 117.175804 506.550577 
L 117.034969 506.841571 
L 116.897895 507.135382 
L 116.76463 507.43184 
L 116.635217 507.730777 
L 116.509693 508.032023 
L 116.388091 508.335412 
L 116.270442 508.640779 
L 116.15677 508.94796 
L 116.047095 509.256794 
L 115.941434 509.567121 
L 115.8398 509.878785 
L 115.7422 510.191632 
L 115.648641 510.505513 
L 115.559124 510.820279 
L 115.473646 511.135787 
L 115.392203 511.451897 
L 115.314787 511.768472 
L 115.241387 512.08538 
L 115.171989 512.402491 
L 115.106577 512.719682 
L 115.045132 513.036831 
L 114.987635 513.353821 
L 114.934063 513.67054 
L 114.884391 513.98688 
L 114.838592 514.302739 
L 114.79664 514.61802 
L 114.758504 514.93264 
L 114.724151 515.246545 
L 114.693519 515.560006 
L 114.002445 523.898404 
L 112.354787 546.195801 
L 110.540725 575.083234 
L 109.944968 586.191904 
z
" clip-path="url(#pbf9e1922a4)" style="fill: #1f77b4; opacity: 0.35; stroke: #00008b; stroke-width: 1.5; stroke-linejoin: miter"/>
   </g>
   <g id="patch_16">
    <path d="M 106.097359 656.076881 
L 107.272391 661.296621 
L 119.62053 667.831535 
L 233.041629 661.02268 
L 250.223606 656.168847 
L 253.608132 630.607618 
L 248.714577 584.272706 
L 225.20799 521.357234 
L 217.587877 507.416066 
L 197.718329 496.658143 
L 121.817967 500.603442 
L 116.878635 502.061701 
L 113.136123 508.868212 
L 109.041104 541.799795 
z
" clip-path="url(#pbf9e1922a4)" style="fill: #ff7f0e; opacity: 0.35; stroke: #ff8c00; stroke-width: 1.5; stroke-linejoin: miter"/>
   </g>
   <g id="patch_17">
    <path d="M 112.696652 654.241331 
L 119.548733 657.825381 
L 233.74364 649.850385 
L 250.606659 644.903891 
L 250.93852 644.051165 
L 251.765973 612.996578 
L 249.801503 594.39429 
L 245.002167 574.277774 
L 225.246976 521.402287 
L 220.730954 513.140073 
L 216.192127 507.282976 
L 124.395835 511.114495 
L 120.886036 512.109383 
L 115.825323 550.926071 
z
" clip-path="url(#pbf9e1922a4)" style="fill: #d62728; opacity: 0.35; stroke: #8b0000; stroke-width: 1.5; stroke-linejoin: miter"/>
   </g>
   <g id="matplotlib.axis_7"/>
   <g id="matplotlib.axis_8"/>
   <g id="text_4">
    <!-- (d) $\Delta\theta=+0.30$ -->
    <g transform="translate(139.405 425.755) scale(0.13 -0.13)">
     <defs>
      <path id="TimesNewRomanPSMT-64" d="M 2222 322 
Q 2013 103 1813 7 
Q 1613 -88 1381 -88 
Q 913 -88 563 304 
Q 213 697 213 1313 
Q 213 1928 600 2439 
Q 988 2950 1597 2950 
Q 1975 2950 2222 2709 
L 2222 3238 
Q 2222 3728 2198 3840 
Q 2175 3953 2125 3993 
Q 2075 4034 2000 4034 
Q 1919 4034 1784 3984 
L 1744 4094 
L 2597 4444 
L 2738 4444 
L 2738 1134 
Q 2738 631 2761 520 
Q 2784 409 2836 365 
Q 2888 322 2956 322 
Q 3041 322 3181 375 
L 3216 266 
L 2366 -88 
L 2222 -88 
L 2222 322 
z
M 2222 541 
L 2222 2016 
Q 2203 2228 2109 2403 
Q 2016 2578 1861 2667 
Q 1706 2756 1559 2756 
Q 1284 2756 1069 2509 
Q 784 2184 784 1559 
Q 784 928 1059 592 
Q 1334 256 1672 256 
Q 1956 256 2222 541 
z
" transform="scale(0.015625)"/>
      <path id="STIXGeneral-Regular-33" d="M 390 3264 
L 288 3290 
Q 435 3770 748 4048 
Q 1062 4326 1542 4326 
Q 1990 4326 2265 4083 
Q 2541 3840 2541 3450 
Q 2541 2925 1946 2566 
Q 2298 2413 2477 2227 
Q 2758 1914 2758 1402 
Q 2758 890 2464 506 
Q 2246 211 1840 60 
Q 1434 -90 979 -90 
Q 262 -90 262 275 
Q 262 378 339 442 
Q 416 506 525 506 
Q 685 506 915 339 
Q 1197 141 1466 141 
Q 1818 141 2058 425 
Q 2298 710 2298 1120 
Q 2298 1856 1632 2048 
Q 1434 2112 979 2112 
L 979 2202 
Q 1338 2323 1517 2432 
Q 2035 2726 2035 3290 
Q 2035 3610 1852 3776 
Q 1670 3942 1344 3942 
Q 768 3942 390 3264 
z
" transform="scale(0.015625)"/>
     </defs>
     <use xlink:href="#TimesNewRomanPSMT-28" transform="translate(0 0.5625)"/>
     <use xlink:href="#TimesNewRomanPSMT-64" transform="translate(33.300781 0.5625)"/>
     <use xlink:href="#TimesNewRomanPSMT-29" transform="translate(83.300781 0.5625)"/>
     <use xlink:href="#TimesNewRomanPSMT-20" transform="translate(116.601562 0.5625)"/>
     <use xlink:href="#STIXGeneral-Regular-394" transform="translate(141.601562 0.5625)"/>
     <use xlink:href="#STIXGeneral-Italic-3b8" transform="translate(213.801544 0.5625)"/>
     <use xlink:href="#STIXGeneral-Regular-3d" transform="translate(276.241525 0.5625)"/>
     <use xlink:href="#STIXGeneral-Regular-2b" transform="translate(359.181506 0.5625)"/>
     <use xlink:href="#STIXGeneral-Regular-30" transform="translate(427.681491 0.5625)"/>
     <use xlink:href="#STIXGeneral-Regular-2e" transform="translate(477.681476 0.5625)"/>
     <use xlink:href="#STIXGeneral-Regular-33" transform="translate(502.681461 0.5625)"/>
     <use xlink:href="#STIXGeneral-Regular-30" transform="translate(552.681445 0.5625)"/>
    </g>
   </g>
  </g>
  <g id="axes_5">
   <g id="patch_18">
    <path d="M 365 753.1 
L 707.8 753.1 
L 707.8 428.615 
L 365 428.615 
z
" style="fill: #ffffff"/>
   </g>
   <g id="patch_19">
    <path d="M 415.260029 651.040445 
L 414.937745 663.041297 
L 414.63583 685.509496 
L 414.531515 702.813324 
L 414.532828 703.049066 
L 414.53679 703.281086 
L 414.54338 703.512108 
L 414.552579 703.742233 
L 414.564373 703.971447 
L 414.578745 704.199714 
L 414.595677 704.42699 
L 414.615155 704.653228 
L 414.63716 704.87838 
L 414.661676 705.102398 
L 414.688687 705.325236 
L 414.718174 705.546847 
L 414.750121 705.767184 
L 414.78451 705.986201 
L 414.821324 706.203854 
L 414.860546 706.420098 
L 414.902158 706.634889 
L 414.946142 706.848184 
L 414.992482 707.05994 
L 415.04116 707.270113 
L 415.092158 707.478664 
L 415.145458 707.685549 
L 415.201044 707.890729 
L 415.258898 708.094162 
L 415.319001 708.295808 
L 415.381338 708.495627 
L 415.445889 708.693579 
L 415.512638 708.889626 
L 415.581567 709.083727 
L 415.652659 709.275845 
L 415.725896 709.46594 
L 415.801261 709.653973 
L 415.878735 709.839907 
L 415.958302 710.023703 
L 416.039943 710.205323 
L 416.123642 710.384729 
L 416.20938 710.561883 
L 416.297139 710.736746 
L 416.386902 710.909282 
L 416.478651 711.079452 
L 416.572368 711.247217 
L 416.668034 711.412541 
L 416.765632 711.575385 
L 416.865143 711.735711 
L 416.966548 711.893481 
L 417.069829 712.048656 
L 417.174966 712.201199 
L 417.281942 712.351071 
L 417.390736 712.498233 
L 417.501329 712.642647 
L 417.613701 712.784274 
L 417.727833 712.923075 
L 417.843703 713.059011 
L 417.961292 713.192043 
L 418.080578 713.322131 
L 418.20154 713.449236 
L 418.324156 713.573319 
L 418.448404 713.694339 
L 418.574262 713.812256 
L 418.701707 713.927032 
L 418.830715 714.038625 
L 418.961262 714.146995 
L 419.093324 714.252102 
L 419.226876 714.353905 
L 419.361893 714.452365 
L 419.498347 714.54744 
L 419.636212 714.639089 
L 419.775461 714.727273 
L 419.916066 714.811951 
L 420.057997 714.893082 
L 420.201225 714.970625 
L 420.345719 715.044542 
L 420.491449 715.11479 
L 420.638382 715.181331 
L 420.786485 715.244124 
L 420.935724 715.303131 
L 421.086066 715.358312 
L 421.237473 715.409628 
L 421.389911 715.457042 
L 421.54334 715.500514 
L 421.697724 715.540009 
L 421.853023 715.575489 
L 422.009196 715.606919 
L 422.166204 715.634264 
L 422.324006 715.657488 
L 422.482564 715.676559 
L 422.641841 715.691444 
L 422.801817 715.702111 
L 422.962539 715.708528 
L 423.12542 715.710656 
L 447.066685 715.376485 
L 477.761289 714.30716 
L 493.930271 713.200576 
L 510.601854 711.644889 
L 524.155122 710.070411 
L 526.466208 709.753451 
L 526.63715 709.723686 
L 526.808229 709.689258 
L 526.979473 709.650135 
L 527.150833 709.606297 
L 527.322245 709.557728 
L 527.49364 709.504417 
L 527.664945 709.446355 
L 527.836085 709.383539 
L 528.006984 709.315966 
L 528.177565 709.243641 
L 528.347747 709.166569 
L 528.517453 709.084761 
L 528.6866 708.998232 
L 528.855107 708.907001 
L 529.022892 708.811089 
L 529.189872 708.710525 
L 529.355966 708.605339 
L 529.52109 708.495567 
L 529.685161 708.381248 
L 529.848097 708.262427 
L 530.009816 708.139151 
L 530.170236 708.011472 
L 530.329277 707.879447 
L 530.486859 707.743137 
L 530.642903 707.602604 
L 530.797331 707.457918 
L 530.950068 707.309149 
L 531.101037 707.156373 
L 531.250167 706.999669 
L 531.397385 706.839119 
L 531.542623 706.674806 
L 531.685813 706.50682 
L 531.826889 706.33525 
L 531.965789 706.160189 
L 532.102453 705.981733 
L 532.23682 705.799978 
L 532.368837 705.615024 
L 532.49845 705.426972 
L 532.625607 705.235924 
L 532.750262 705.041982 
L 532.872369 704.845252 
L 532.991885 704.645838 
L 533.10877 704.443846 
L 533.222988 704.239383 
L 533.334504 704.032553 
L 533.443285 703.823463 
L 533.549304 703.612219 
L 533.652533 703.398927 
L 533.752949 703.183691 
L 533.85053 702.966615 
L 533.945257 702.747803 
L 534.037113 702.527356 
L 534.126085 702.305375 
L 534.21216 702.081961 
L 534.295329 701.857211 
L 534.375583 701.631222 
L 534.452918 701.404089 
L 534.527328 701.175907 
L 534.598814 700.946766 
L 534.667373 700.716757 
L 534.733007 700.485968 
L 534.795721 700.254485 
L 534.855517 700.022393 
L 534.912402 699.789774 
L 534.966383 699.556708 
L 535.017468 699.323275 
L 535.065667 699.08955 
L 535.11099 698.855609 
L 535.153449 698.621523 
L 535.193056 698.387364 
L 535.229825 698.153201 
L 535.263768 697.919098 
L 535.294901 697.685122 
L 535.32324 697.451334 
L 535.348799 697.217792 
L 535.371595 696.98455 
L 535.391645 696.751657 
L 535.408966 696.519139 
L 535.423581 696.286953 
L 538.205601 641.946532 
L 538.665077 629.755592 
L 538.671826 629.519269 
L 539.181109 599.029136 
L 539.214194 589.593893 
L 539.212881 589.36008 
L 539.208929 589.128793 
L 539.20237 588.898829 
L 539.193226 588.670123 
L 539.181524 588.442687 
L 539.167286 588.216547 
L 539.150537 587.991736 
L 539.1313 587.768289 
L 539.109598 587.546239 
L 539.085454 587.325619 
L 539.05889 587.106464 
L 539.029929 586.888805 
L 538.998592 586.672675 
L 538.964902 586.458104 
L 538.928878 586.245124 
L 538.890542 586.033765 
L 538.849915 585.824056 
L 538.807016 585.616026 
L 538.761866 585.409704 
L 538.714483 585.205119 
L 538.664886 585.002298 
L 538.613094 584.801269 
L 538.559126 584.60206 
L 538.502999 584.404697 
L 538.444731 584.209208 
L 538.384338 584.015619 
L 538.321838 583.823958 
L 538.257248 583.63425 
L 538.190582 583.446524 
L 538.121858 583.260805 
L 538.051091 583.07712 
L 537.978296 582.895497 
L 537.903488 582.715961 
L 537.826681 582.538541 
L 537.747891 582.363263 
L 537.66713 582.190155 
L 537.584414 582.019245 
L 537.499756 581.85056 
L 537.413168 581.684129 
L 537.324665 581.51998 
L 537.23426 581.358142 
L 537.141965 581.198644 
L 537.047793 581.041516 
L 536.951757 580.886788 
L 536.853868 580.73449 
L 536.75414 580.584653 
L 536.652585 580.437308 
L 536.549215 580.292487 
L 536.444041 580.150223 
L 536.337077 580.010548 
L 536.228334 579.873495 
L 536.117824 579.739098 
L 536.005559 579.607393 
L 535.891552 579.478414 
L 535.775815 579.352196 
L 535.65836 579.228776 
L 535.5392 579.108192 
L 535.418348 578.99048 
L 535.295816 578.875679 
L 535.171618 578.763827 
L 535.045767 578.654966 
L 534.918277 578.549134 
L 534.789162 578.446373 
L 534.658436 578.346724 
L 534.526116 578.250231 
L 534.392215 578.156936 
L 534.25675 578.066882 
L 534.119738 577.980116 
L 533.981195 577.89668 
L 533.84114 577.816622 
L 533.69959 577.739988 
L 533.556566 577.666824 
L 533.412087 577.597179 
L 533.266174 577.531101 
L 533.11885 577.468638 
L 532.970137 577.40984 
L 532.820058 577.354756 
L 532.66864 577.303437 
L 532.515908 577.255932 
L 532.36189 577.212293 
L 532.206614 577.172571 
L 532.05011 577.136816 
L 531.892409 577.105079 
L 531.733544 577.077411 
L 531.573548 577.053864 
L 531.412452 577.034488 
L 531.250288 577.019333 
L 531.087079 577.008449 
L 530.922804 577.001888 
L 530.756815 576.999705 
L 513.493847 577.227095 
L 475.768707 578.663337 
L 475.601155 578.67453 
L 430.947714 582.828273 
L 427.03512 583.256543 
L 426.872863 583.280479 
L 426.709953 583.30885 
L 426.546753 583.341694 
L 426.383301 583.379038 
L 426.219647 583.420905 
L 426.055845 583.467318 
L 425.891951 583.518297 
L 425.728025 583.573858 
L 425.564129 583.634016 
L 425.400324 583.698784 
L 425.236676 583.768171 
L 425.07325 583.842183 
L 424.910114 583.920824 
L 424.747336 584.004096 
L 424.584986 584.091995 
L 424.423134 584.184515 
L 424.261852 584.281648 
L 424.101214 584.38338 
L 423.941292 584.489694 
L 423.78216 584.600572 
L 423.623895 584.715988 
L 423.46657 584.835915 
L 423.310262 584.960322 
L 423.155046 585.089172 
L 423.000999 585.222425 
L 422.848197 585.360039 
L 422.696716 585.501966 
L 422.54663 585.648153 
L 422.398017 585.798546 
L 422.250949 585.953084 
L 422.105501 586.111705 
L 421.961745 586.274341 
L 421.819755 586.440922 
L 421.6796 586.611372 
L 421.54135 586.785615 
L 421.405073 586.963568 
L 421.270835 587.145147 
L 421.138702 587.330265 
L 421.008737 587.518831 
L 420.881 587.710751 
L 420.75555 587.90593 
L 420.632446 588.104269 
L 420.51174 588.305669 
L 420.393487 588.510026 
L 420.277735 588.717237 
L 420.164533 588.927195 
L 420.053926 589.139794 
L 419.945956 589.354926 
L 419.840665 589.572481 
L 419.738088 589.792349 
L 419.638263 590.014421 
L 419.541219 590.238584 
L 419.446989 590.46473 
L 419.355599 590.692746 
L 419.267073 590.922522 
L 419.181434 591.153949 
L 419.098701 591.386917 
L 419.018892 591.621318 
L 418.942022 591.857043 
L 418.868103 592.093986 
L 418.797146 592.332042 
L 418.729158 592.571108 
L 418.664145 592.811079 
L 418.602112 593.051857 
L 418.543059 593.29334 
L 418.486988 593.535432 
L 418.433895 593.778038 
L 418.383779 594.021063 
L 418.336632 594.264416 
L 418.292449 594.508007 
L 418.251222 594.751748 
L 418.212939 594.995556 
L 418.177591 595.239347 
L 418.145165 595.483042 
L 418.115647 595.726565 
L 418.089023 595.969846 
L 418.065275 596.21283 
L 418.044385 596.455511 
L 418.026245 596.699211 
L 417.354184 607.658288 
L 415.903382 635.849641 
z
" clip-path="url(#pd595f402fc)" style="fill: #1f77b4; opacity: 0.35; stroke: #00008b; stroke-width: 1.5; stroke-linejoin: miter"/>
   </g>
   <g id="patch_20">
    <path d="M 422.800654 696.60748 
L 425.667927 704.080877 
L 425.971823 704.63196 
L 426.275507 704.903848 
L 449.854779 711.652708 
L 506.354467 710.523906 
L 528.433066 704.852439 
L 537.50689 678.494598 
L 536.541515 572.152775 
L 458.903451 571.69956 
L 423.936868 579.829332 
L 419.129197 588.791567 
L 415.158605 631.673966 
L 415.183672 635.876081 
z
" clip-path="url(#pd595f402fc)" style="fill: #ff7f0e; opacity: 0.35; stroke: #ff8c00; stroke-width: 1.5; stroke-linejoin: miter"/>
   </g>
   <g id="patch_21">
    <path d="M 420.634334 679.946113 
L 422.733977 696.682482 
L 425.583967 704.110486 
L 425.653035 704.235765 
L 425.852917 704.350225 
L 505.668597 702.123476 
L 522.77662 697.58322 
L 530.285971 675.313859 
L 529.129344 585.017715 
L 455.741632 583.905004 
L 426.469614 590.395399 
L 424.388417 594.214433 
L 420.50904 634.508883 
z
" clip-path="url(#pd595f402fc)" style="fill: #d62728; opacity: 0.35; stroke: #8b0000; stroke-width: 1.5; stroke-linejoin: miter"/>
   </g>
   <g id="matplotlib.axis_9"/>
   <g id="matplotlib.axis_10"/>
   <g id="text_5">
    <!-- (e) $\Delta\theta=-0.30$ -->
    <g transform="translate(497.53 425.755) scale(0.13 -0.13)">
     <defs>
      <path id="TimesNewRomanPSMT-65" d="M 681 1784 
Q 678 1147 991 784 
Q 1303 422 1725 422 
Q 2006 422 2214 576 
Q 2422 731 2563 1106 
L 2659 1044 
Q 2594 616 2278 264 
Q 1963 -88 1488 -88 
Q 972 -88 605 314 
Q 238 716 238 1394 
Q 238 2128 614 2539 
Q 991 2950 1559 2950 
Q 2041 2950 2350 2633 
Q 2659 2316 2659 1784 
L 681 1784 
z
M 681 1966 
L 2006 1966 
Q 1991 2241 1941 2353 
Q 1863 2528 1708 2628 
Q 1553 2728 1384 2728 
Q 1125 2728 920 2526 
Q 716 2325 681 1966 
z
" transform="scale(0.015625)"/>
     </defs>
     <use xlink:href="#TimesNewRomanPSMT-28" transform="translate(0 0.5625)"/>
     <use xlink:href="#TimesNewRomanPSMT-65" transform="translate(33.300781 0.5625)"/>
     <use xlink:href="#TimesNewRomanPSMT-29" transform="translate(77.685547 0.5625)"/>
     <use xlink:href="#TimesNewRomanPSMT-20" transform="translate(110.986328 0.5625)"/>
     <use xlink:href="#STIXGeneral-Regular-394" transform="translate(135.986328 0.5625)"/>
     <use xlink:href="#STIXGeneral-Italic-3b8" transform="translate(208.18631 0.5625)"/>
     <use xlink:href="#STIXGeneral-Regular-3d" transform="translate(270.626291 0.5625)"/>
     <use xlink:href="#STIXGeneral-Regular-2212" transform="translate(353.566272 0.5625)"/>
     <use xlink:href="#STIXGeneral-Regular-30" transform="translate(422.066257 0.5625)"/>
     <use xlink:href="#STIXGeneral-Regular-2e" transform="translate(472.066241 0.5625)"/>
     <use xlink:href="#STIXGeneral-Regular-33" transform="translate(497.066226 0.5625)"/>
     <use xlink:href="#STIXGeneral-Regular-30" transform="translate(547.066211 0.5625)"/>
    </g>
   </g>
  </g>
  <g id="axes_6">
   <g id="patch_22">
    <path d="M 722.8 753.1 
L 1065.6 753.1 
L 1065.6 428.615 
L 722.8 428.615 
z
" style="fill: #ffffff"/>
   </g>
   <g id="patch_23">
    <path d="M 838.27069 586.063643 
L 838.260515 586.414125 
L 837.58864 624.17489 
L 837.510435 639.919379 
L 837.512193 640.232028 
L 837.517482 640.541437 
L 837.526267 640.849336 
L 837.53852 641.155787 
L 837.554214 641.460764 
L 837.57332 641.764218 
L 837.595813 642.0661 
L 837.621663 642.366356 
L 837.650846 642.664933 
L 837.683333 642.961779 
L 837.719098 643.25684 
L 837.758114 643.550066 
L 837.800357 643.841407 
L 837.845798 644.130813 
L 837.894413 644.418234 
L 837.946177 644.703625 
L 838.001064 644.986936 
L 838.059049 645.268121 
L 838.120108 645.547134 
L 838.184216 645.82393 
L 838.251349 646.098464 
L 838.321484 646.370691 
L 838.394597 646.640568 
L 838.470666 646.90805 
L 838.549666 647.173094 
L 838.631577 647.435656 
L 838.716374 647.695695 
L 838.804037 647.953167 
L 838.894544 648.208029 
L 838.987873 648.460239 
L 839.084003 648.709754 
L 839.182912 648.956532 
L 839.284581 649.200531 
L 839.388988 649.441707 
L 839.496113 649.680018 
L 839.605937 649.915422 
L 839.718438 650.147874 
L 839.833597 650.377332 
L 839.951394 650.603753 
L 840.07181 650.827092 
L 840.194825 651.047305 
L 840.32042 651.264349 
L 840.448575 651.478178 
L 840.579271 651.688748 
L 840.712488 651.896012 
L 840.848208 652.099926 
L 840.98641 652.300441 
L 841.127076 652.497513 
L 841.270185 652.691092 
L 841.415719 652.881132 
L 841.563657 653.067583 
L 841.713979 653.250397 
L 841.866665 653.429524 
L 842.021695 653.604915 
L 842.179049 653.776517 
L 842.338704 653.94428 
L 842.500639 654.108152 
L 842.664834 654.268081 
L 842.831265 654.424012 
L 842.99991 654.575892 
L 843.170746 654.723666 
L 843.343749 654.86728 
L 843.518895 655.006677 
L 843.696158 655.141801 
L 843.875514 655.272594 
L 844.056935 655.399 
L 844.240395 655.52096 
L 844.425864 655.638414 
L 844.613315 655.751305 
L 844.802717 655.859571 
L 844.994038 655.963153 
L 845.187248 656.061989 
L 845.382311 656.156019 
L 845.579195 656.245181 
L 845.777863 656.329414 
L 845.978277 656.408655 
L 846.1804 656.482842 
L 846.384191 656.551913 
L 846.589609 656.615805 
L 846.79661 656.674458 
L 847.00515 656.727808 
L 847.215183 656.775794 
L 847.426661 656.818356 
L 847.639535 656.855431 
L 847.853754 656.88696 
L 848.069269 656.912884 
L 848.286031 656.933144 
L 848.504003 656.947683 
L 848.723198 656.956442 
L 848.944481 656.959359 
L 872.089853 656.631829 
L 910.421109 655.069584 
L 923.200387 654.341733 
L 945.449931 652.238614 
L 958.740962 650.636505 
L 978.505246 647.727846 
L 979.135047 647.624216 
L 979.295803 647.591874 
L 979.439824 647.559203 
L 979.528227 647.536533 
L 979.616385 647.511556 
L 979.704275 647.484277 
L 979.7917 647.454586 
L 979.878854 647.422597 
L 979.965819 647.388207 
L 980.056142 647.349891 
L 980.147701 647.308426 
L 980.23878 647.264521 
L 980.329365 647.218241 
L 980.419281 647.1695 
L 980.508655 647.118412 
L 980.597465 647.064987 
L 980.685547 647.009146 
L 980.773027 646.950992 
L 980.859827 646.890513 
L 980.945938 646.827717 
L 981.031336 646.762621 
L 981.116 646.695237 
L 981.19991 646.625582 
L 981.283047 646.553668 
L 981.365389 646.479511 
L 981.446917 646.403127 
L 981.52761 646.32453 
L 981.607448 646.243737 
L 981.686412 646.160763 
L 981.76448 646.075625 
L 981.841632 645.98834 
L 981.917849 645.898924 
L 981.993111 645.807394 
L 982.067429 645.7138 
L 982.14072 645.618095 
L 982.212995 645.52033 
L 982.284204 645.420491 
L 982.354391 645.318658 
L 982.423503 645.214819 
L 982.491522 645.108992 
L 982.558428 645.001196 
L 982.624203 644.89145 
L 982.688826 644.779772 
L 982.75228 644.66618 
L 982.814546 644.550694 
L 982.875604 644.433332 
L 982.935437 644.314112 
L 982.994026 644.193054 
L 983.051353 644.070173 
L 983.107401 643.94549 
L 983.16215 643.819019 
L 983.215585 643.690779 
L 983.267687 643.560785 
L 983.318438 643.429052 
L 983.367823 643.295594 
L 983.415824 643.160426 
L 983.462423 643.023559 
L 983.507605 642.885005 
L 983.551352 642.744771 
L 983.593649 642.602867 
L 983.634478 642.459297 
L 983.673822 642.314065 
L 983.711667 642.167172 
L 983.747994 642.018614 
L 983.782787 641.868387 
L 983.816029 641.71648 
L 983.847703 641.562881 
L 983.877791 641.407571 
L 983.906275 641.250525 
L 983.933136 641.091713 
L 983.958355 640.931098 
L 983.98191 640.768635 
L 984.003779 640.604268 
L 984.02394 640.437934 
L 984.042366 640.269556 
L 984.05903 640.099043 
L 984.073902 639.926291 
L 984.086948 639.751175 
L 984.09813 639.573552 
L 984.107406 639.393252 
L 984.114727 639.210077 
L 984.12004 639.023783 
L 984.123281 638.834033 
L 984.124373 638.639852 
L 984.077677 626.113148 
L 984.074209 625.910771 
L 983.621751 610.912362 
L 983.507509 608.114912 
L 982.816462 595.234406 
L 982.620765 591.992631 
L 982.608303 591.825377 
L 982.593726 591.656108 
L 981.9571 585.339673 
L 981.937951 585.164705 
L 981.91638 584.986773 
L 981.892167 584.804845 
L 981.865079 584.618066 
L 981.834815 584.425372 
L 981.800982 584.225407 
L 981.763064 584.01642 
L 981.720371 583.79613 
L 981.671974 583.561532 
L 981.616602 583.308621 
L 981.552502 583.032 
L 981.477217 582.724306 
L 981.387265 582.375381 
L 981.277656 581.971076 
L 981.141182 581.49156 
L 980.967425 580.909104 
L 980.741508 580.185578 
L 980.442986 579.270982 
L 980.046239 578.106756 
L 979.525571 576.641748 
L 978.869424 574.869633 
L 978.101842 572.877847 
L 966.475344 544.186513 
L 966.254558 543.657897 
L 952.413542 511.642065 
L 951.663462 509.958231 
L 948.25518 502.648547 
L 945.797205 497.564108 
L 945.394311 496.76084 
L 944.556032 495.148547 
L 944.253506 494.582329 
L 944.191372 494.471117 
L 943.778616 493.758515 
L 943.398649 493.124085 
L 943.079404 492.609533 
L 942.808504 492.187842 
L 942.575373 491.837406 
L 942.371581 491.541604 
L 942.19058 491.287928 
L 942.02734 491.067045 
L 941.878012 490.871994 
L 941.739643 490.697558 
L 941.609953 490.539802 
L 941.487145 490.395702 
L 939.192867 487.818804 
L 938.940383 487.543419 
L 938.711637 487.302967 
L 938.596154 487.185589 
L 938.171274 486.777023 
L 936.085635 484.822618 
L 934.144044 483.073418 
L 932.403502 481.567119 
L 930.885775 480.306505 
L 930.48972 479.987233 
L 930.405329 479.922898 
L 930.320329 479.86091 
L 930.234708 479.80125 
L 930.148488 479.743932 
L 930.061698 479.688966 
L 929.974364 479.636369 
L 929.886515 479.586151 
L 929.79818 479.538324 
L 929.709388 479.492901 
L 929.620167 479.449891 
L 929.530546 479.409304 
L 929.440553 479.371147 
L 929.350218 479.335429 
L 929.259566 479.302156 
L 929.168625 479.271333 
L 929.07741 479.242963 
L 928.985828 479.217017 
L 925.69521 478.393077 
L 925.511724 478.349795 
L 925.43356 478.334069 
L 923.388214 477.975992 
L 923.296567 477.962441 
L 923.204806 477.951462 
L 918.973791 477.581274 
L 896.923101 476.387178 
L 889.398056 476.019512 
L 884.373846 475.994113 
L 861.384461 476.32217 
L 860.837665 476.346784 
L 860.616265 476.360657 
L 860.470101 476.374693 
L 857.771415 476.68295 
L 856.695233 476.841742 
L 856.470449 476.880889 
L 856.244943 476.926273 
L 856.018698 476.977965 
L 855.791752 477.036027 
L 855.564175 477.100514 
L 855.336044 477.171475 
L 855.107444 477.24896 
L 854.878462 477.33301 
L 854.649189 477.423666 
L 854.419722 477.520962 
L 854.190159 477.624929 
L 853.960602 477.735591 
L 853.731157 477.85297 
L 853.501931 477.977078 
L 853.273038 478.107924 
L 853.04459 478.245509 
L 852.816704 478.38983 
L 852.589501 478.540875 
L 852.363102 478.698624 
L 852.13763 478.863053 
L 851.913212 479.034126 
L 851.689974 479.211804 
L 851.468044 479.396037 
L 851.247553 479.586768 
L 851.02863 479.783932 
L 850.811405 479.987456 
L 850.59601 480.197259 
L 850.382573 480.413251 
L 850.171225 480.635336 
L 849.962094 480.863408 
L 849.755308 481.097356 
L 849.550991 481.337057 
L 849.349266 481.582386 
L 849.150256 481.833209 
L 848.954077 482.089383 
L 848.760846 482.350762 
L 848.570673 482.617194 
L 848.383668 482.888518 
L 848.199933 483.164572 
L 848.01957 483.445188 
L 847.842674 483.730193 
L 847.669336 484.01941 
L 847.499643 484.312662 
L 847.333675 484.609765 
L 847.17151 484.910536 
L 847.013218 485.21479 
L 846.858866 485.52234 
L 846.708514 485.832998 
L 846.562218 486.146577 
L 846.420027 486.46289 
L 846.281988 486.781751 
L 846.14814 487.102974 
L 846.018518 487.426376 
L 845.89315 487.751776 
L 845.772063 488.078994 
L 845.655276 488.407854 
L 845.542805 488.738183 
L 845.43466 489.069811 
L 845.330849 489.40257 
L 845.231373 489.736299 
L 845.136232 490.070838 
L 845.045421 490.406033 
L 844.958931 490.741733 
L 844.87675 491.077792 
L 844.798863 491.414068 
L 844.725253 491.750425 
L 844.655899 492.08673 
L 844.590778 492.422856 
L 844.529865 492.758679 
L 844.473132 493.094081 
L 844.42055 493.42895 
L 844.372088 493.76318 
L 844.327713 494.096673 
L 844.287388 494.429348 
L 844.251072 494.761191 
L 844.218567 495.093922 
L 842.904122 510.359108 
L 840.861931 537.763808 
L 839.252574 563.027077 
L 838.879703 569.832944 
z
" clip-path="url(#p269b7fdc4c)" style="fill: #1f77b4; opacity: 0.35; stroke: #00008b; stroke-width: 1.5; stroke-linejoin: miter"/>
   </g>
   <g id="patch_24">
    <path d="M 832.774894 642.619201 
L 833.855474 647.557302 
L 850.384622 656.061422 
L 971.884175 646.064437 
L 978.70975 644.06795 
L 978.825927 643.235002 
L 973.088038 587.016805 
L 949.180121 522.760187 
L 934.843248 496.497853 
L 899.755475 477.680212 
L 843.749199 481.949875 
L 840.816941 487.309415 
L 837.323557 514.477727 
z
" clip-path="url(#p269b7fdc4c)" style="fill: #ff7f0e; opacity: 0.35; stroke: #ff8c00; stroke-width: 1.5; stroke-linejoin: miter"/>
   </g>
   <g id="patch_25">
    <path d="M 842.618527 637.532017 
L 851.066452 641.801227 
L 973.120319 630.068646 
L 977.379598 628.757886 
L 973.117358 586.989928 
L 949.244048 522.824872 
L 934.843608 496.446073 
L 926.70273 492.080386 
L 851.585419 496.695498 
L 847.215929 528.508678 
z
" clip-path="url(#p269b7fdc4c)" style="fill: #d62728; opacity: 0.35; stroke: #8b0000; stroke-width: 1.5; stroke-linejoin: miter"/>
   </g>
   <g id="matplotlib.axis_11"/>
   <g id="matplotlib.axis_12"/>
   <g id="text_6">
    <!-- (f) $\Delta\theta=+0.45$ -->
    <g transform="translate(856.11 425.755) scale(0.13 -0.13)">
     <defs>
      <path id="TimesNewRomanPSMT-66" d="M 1319 2638 
L 1319 756 
Q 1319 356 1406 250 
Q 1522 113 1716 113 
L 1975 113 
L 1975 0 
L 266 0 
L 266 113 
L 394 113 
Q 519 113 622 175 
Q 725 238 764 344 
Q 803 450 803 756 
L 803 2638 
L 247 2638 
L 247 2863 
L 803 2863 
L 803 3050 
Q 803 3478 940 3775 
Q 1078 4072 1361 4255 
Q 1644 4438 1997 4438 
Q 2325 4438 2600 4225 
Q 2781 4084 2781 3909 
Q 2781 3816 2700 3733 
Q 2619 3650 2525 3650 
Q 2453 3650 2373 3701 
Q 2294 3753 2178 3923 
Q 2063 4094 1966 4153 
Q 1869 4213 1750 4213 
Q 1606 4213 1506 4136 
Q 1406 4059 1362 3898 
Q 1319 3738 1319 3069 
L 1319 2863 
L 2056 2863 
L 2056 2638 
L 1319 2638 
z
" transform="scale(0.015625)"/>
      <path id="STIXGeneral-Regular-34" d="M 3027 1069 
L 2368 1069 
L 2368 0 
L 1869 0 
L 1869 1069 
L 77 1069 
L 77 1478 
L 2086 4326 
L 2368 4326 
L 2368 1478 
L 3027 1478 
L 3027 1069 
z
M 1869 1478 
L 1869 3674 
L 333 1478 
L 1869 1478 
z
" transform="scale(0.015625)"/>
     </defs>
     <use xlink:href="#TimesNewRomanPSMT-28" transform="translate(0 0.5625)"/>
     <use xlink:href="#TimesNewRomanPSMT-66" transform="translate(33.300781 0.5625)"/>
     <use xlink:href="#TimesNewRomanPSMT-29" transform="translate(66.601562 0.5625)"/>
     <use xlink:href="#TimesNewRomanPSMT-20" transform="translate(99.902344 0.5625)"/>
     <use xlink:href="#STIXGeneral-Regular-394" transform="translate(124.902344 0.5625)"/>
     <use xlink:href="#STIXGeneral-Italic-3b8" transform="translate(197.102325 0.5625)"/>
     <use xlink:href="#STIXGeneral-Regular-3d" transform="translate(259.542307 0.5625)"/>
     <use xlink:href="#STIXGeneral-Regular-2b" transform="translate(342.482288 0.5625)"/>
     <use xlink:href="#STIXGeneral-Regular-30" transform="translate(410.982272 0.5625)"/>
     <use xlink:href="#STIXGeneral-Regular-2e" transform="translate(460.982257 0.5625)"/>
     <use xlink:href="#STIXGeneral-Regular-34" transform="translate(485.982242 0.5625)"/>
     <use xlink:href="#STIXGeneral-Regular-35" transform="translate(535.982227 0.5625)"/>
    </g>
   </g>
  </g>
  <g id="legend_1">
   <g id="patch_26">
    <path d="M 285.543672 29.505156 
L 787.256328 29.505156 
Q 789.856328 29.505156 789.856328 26.905156 
L 789.856328 9.8 
Q 789.856328 7.2 787.256328 7.2 
L 285.543672 7.2 
Q 282.943672 7.2 282.943672 9.8 
L 282.943672 26.905156 
Q 282.943672 29.505156 285.543672 29.505156 
z
" style="fill: #ffffff; opacity: 0.8; stroke: #cccccc; stroke-linejoin: miter"/>
   </g>
   <g id="patch_27">
    <path d="M 288.143672 21.5 
L 314.143672 21.5 
L 314.143672 12.4 
L 288.143672 12.4 
z
" style="fill: #1f77b4; opacity: 0.35; stroke: #00008b; stroke-width: 1.5; stroke-linejoin: miter"/>
   </g>
   <g id="text_7">
    <!-- Original region -->
    <g transform="translate(324.543672 21.5) scale(0.13 -0.13)">
     <defs>
      <path id="TimesNewRomanPSMT-4f" d="M 2341 4334 
Q 3166 4334 3770 3707 
Q 4375 3081 4375 2144 
Q 4375 1178 3765 540 
Q 3156 -97 2291 -97 
Q 1416 -97 820 525 
Q 225 1147 225 2134 
Q 225 3144 913 3781 
Q 1509 4334 2341 4334 
z
M 2281 4106 
Q 1713 4106 1369 3684 
Q 941 3159 941 2147 
Q 941 1109 1384 550 
Q 1725 125 2284 125 
Q 2881 125 3270 590 
Q 3659 1056 3659 2059 
Q 3659 3147 3231 3681 
Q 2888 4106 2281 4106 
z
" transform="scale(0.015625)"/>
      <path id="TimesNewRomanPSMT-72" d="M 1038 2947 
L 1038 2303 
Q 1397 2947 1775 2947 
Q 1947 2947 2059 2842 
Q 2172 2738 2172 2600 
Q 2172 2478 2090 2393 
Q 2009 2309 1897 2309 
Q 1788 2309 1652 2417 
Q 1516 2525 1450 2525 
Q 1394 2525 1328 2463 
Q 1188 2334 1038 2041 
L 1038 669 
Q 1038 431 1097 309 
Q 1138 225 1241 169 
Q 1344 113 1538 113 
L 1538 0 
L 72 0 
L 72 113 
Q 291 113 397 181 
Q 475 231 506 341 
Q 522 394 522 644 
L 522 1753 
Q 522 2253 501 2348 
Q 481 2444 426 2487 
Q 372 2531 291 2531 
Q 194 2531 72 2484 
L 41 2597 
L 906 2947 
L 1038 2947 
z
" transform="scale(0.015625)"/>
      <path id="TimesNewRomanPSMT-69" d="M 928 4444 
Q 1059 4444 1151 4351 
Q 1244 4259 1244 4128 
Q 1244 3997 1151 3903 
Q 1059 3809 928 3809 
Q 797 3809 703 3903 
Q 609 3997 609 4128 
Q 609 4259 701 4351 
Q 794 4444 928 4444 
z
M 1188 2947 
L 1188 647 
Q 1188 378 1227 289 
Q 1266 200 1342 156 
Q 1419 113 1622 113 
L 1622 0 
L 231 0 
L 231 113 
Q 441 113 512 153 
Q 584 194 626 287 
Q 669 381 669 647 
L 669 1750 
Q 669 2216 641 2353 
Q 619 2453 572 2492 
Q 525 2531 444 2531 
Q 356 2531 231 2484 
L 188 2597 
L 1050 2947 
L 1188 2947 
z
" transform="scale(0.015625)"/>
      <path id="TimesNewRomanPSMT-67" d="M 966 1044 
Q 703 1172 562 1401 
Q 422 1631 422 1909 
Q 422 2334 742 2640 
Q 1063 2947 1563 2947 
Q 1972 2947 2272 2747 
L 2878 2747 
Q 3013 2747 3034 2739 
Q 3056 2731 3066 2713 
Q 3084 2684 3084 2613 
Q 3084 2531 3069 2500 
Q 3059 2484 3036 2475 
Q 3013 2466 2878 2466 
L 2506 2466 
Q 2681 2241 2681 1891 
Q 2681 1491 2375 1206 
Q 2069 922 1553 922 
Q 1341 922 1119 984 
Q 981 866 932 777 
Q 884 688 884 625 
Q 884 572 936 522 
Q 988 472 1138 450 
Q 1225 438 1575 428 
Q 2219 413 2409 384 
Q 2700 344 2873 169 
Q 3047 -6 3047 -263 
Q 3047 -616 2716 -925 
Q 2228 -1381 1444 -1381 
Q 841 -1381 425 -1109 
Q 191 -953 191 -784 
Q 191 -709 225 -634 
Q 278 -519 444 -313 
Q 466 -284 763 25 
Q 600 122 533 198 
Q 466 275 466 372 
Q 466 481 555 628 
Q 644 775 966 1044 
z
M 1509 2797 
Q 1278 2797 1122 2612 
Q 966 2428 966 2047 
Q 966 1553 1178 1281 
Q 1341 1075 1591 1075 
Q 1828 1075 1981 1253 
Q 2134 1431 2134 1813 
Q 2134 2309 1919 2591 
Q 1759 2797 1509 2797 
z
M 934 0 
Q 788 -159 713 -296 
Q 638 -434 638 -550 
Q 638 -700 819 -813 
Q 1131 -1006 1722 -1006 
Q 2284 -1006 2551 -807 
Q 2819 -609 2819 -384 
Q 2819 -222 2659 -153 
Q 2497 -84 2016 -72 
Q 1313 -53 934 0 
z
" transform="scale(0.015625)"/>
      <path id="TimesNewRomanPSMT-6e" d="M 1034 2341 
Q 1538 2947 1994 2947 
Q 2228 2947 2397 2830 
Q 2566 2713 2666 2444 
Q 2734 2256 2734 1869 
L 2734 647 
Q 2734 375 2778 278 
Q 2813 200 2889 156 
Q 2966 113 3172 113 
L 3172 0 
L 1756 0 
L 1756 113 
L 1816 113 
Q 2016 113 2095 173 
Q 2175 234 2206 353 
Q 2219 400 2219 647 
L 2219 1819 
Q 2219 2209 2117 2386 
Q 2016 2563 1775 2563 
Q 1403 2563 1034 2156 
L 1034 647 
Q 1034 356 1069 288 
Q 1113 197 1189 155 
Q 1266 113 1500 113 
L 1500 0 
L 84 0 
L 84 113 
L 147 113 
Q 366 113 442 223 
Q 519 334 519 647 
L 519 1709 
Q 519 2225 495 2337 
Q 472 2450 423 2490 
Q 375 2531 294 2531 
Q 206 2531 84 2484 
L 38 2597 
L 900 2947 
L 1034 2947 
L 1034 2341 
z
" transform="scale(0.015625)"/>
      <path id="TimesNewRomanPSMT-6c" d="M 1184 4444 
L 1184 647 
Q 1184 378 1223 290 
Q 1263 203 1344 158 
Q 1425 113 1647 113 
L 1647 0 
L 244 0 
L 244 113 
Q 441 113 512 153 
Q 584 194 625 287 
Q 666 381 666 647 
L 666 3247 
Q 666 3731 644 3842 
Q 622 3953 573 3993 
Q 525 4034 450 4034 
Q 369 4034 244 3984 
L 191 4094 
L 1044 4444 
L 1184 4444 
z
" transform="scale(0.015625)"/>
      <path id="TimesNewRomanPSMT-6f" d="M 1600 2947 
Q 2250 2947 2644 2453 
Q 2978 2031 2978 1484 
Q 2978 1100 2793 706 
Q 2609 313 2286 112 
Q 1963 -88 1566 -88 
Q 919 -88 538 428 
Q 216 863 216 1403 
Q 216 1797 411 2186 
Q 606 2575 925 2761 
Q 1244 2947 1600 2947 
z
M 1503 2744 
Q 1338 2744 1170 2645 
Q 1003 2547 900 2300 
Q 797 2053 797 1666 
Q 797 1041 1045 587 
Q 1294 134 1700 134 
Q 2003 134 2200 384 
Q 2397 634 2397 1244 
Q 2397 2006 2069 2444 
Q 1847 2744 1503 2744 
z
" transform="scale(0.015625)"/>
     </defs>
     <use xlink:href="#TimesNewRomanPSMT-4f"/>
     <use xlink:href="#TimesNewRomanPSMT-72" transform="translate(72.216797 0)"/>
     <use xlink:href="#TimesNewRomanPSMT-69" transform="translate(105.517578 0)"/>
     <use xlink:href="#TimesNewRomanPSMT-67" transform="translate(133.300781 0)"/>
     <use xlink:href="#TimesNewRomanPSMT-69" transform="translate(183.300781 0)"/>
     <use xlink:href="#TimesNewRomanPSMT-6e" transform="translate(211.083984 0)"/>
     <use xlink:href="#TimesNewRomanPSMT-61" transform="translate(261.083984 0)"/>
     <use xlink:href="#TimesNewRomanPSMT-6c" transform="translate(305.46875 0)"/>
     <use xlink:href="#TimesNewRomanPSMT-20" transform="translate(333.251953 0)"/>
     <use xlink:href="#TimesNewRomanPSMT-72" transform="translate(358.251953 0)"/>
     <use xlink:href="#TimesNewRomanPSMT-65" transform="translate(391.552734 0)"/>
     <use xlink:href="#TimesNewRomanPSMT-67" transform="translate(435.9375 0)"/>
     <use xlink:href="#TimesNewRomanPSMT-69" transform="translate(485.9375 0)"/>
     <use xlink:href="#TimesNewRomanPSMT-6f" transform="translate(513.720703 0)"/>
     <use xlink:href="#TimesNewRomanPSMT-6e" transform="translate(563.720703 0)"/>
    </g>
   </g>
   <g id="patch_28">
    <path d="M 430.327109 21.5 
L 456.327109 21.5 
L 456.327109 12.4 
L 430.327109 12.4 
z
" style="fill: #ff7f0e; opacity: 0.35; stroke: #ff8c00; stroke-width: 1.5; stroke-linejoin: miter"/>
   </g>
   <g id="text_8">
    <!-- Learned region-moderate -->
    <g transform="translate(466.727109 21.5) scale(0.13 -0.13)">
     <defs>
      <path id="TimesNewRomanPSMT-4c" d="M 3669 1172 
L 3772 1150 
L 3409 0 
L 128 0 
L 128 116 
L 288 116 
Q 556 116 672 291 
Q 738 391 738 753 
L 738 3488 
Q 738 3884 650 3984 
Q 528 4122 288 4122 
L 128 4122 
L 128 4238 
L 2047 4238 
L 2047 4122 
Q 1709 4125 1573 4059 
Q 1438 3994 1388 3894 
Q 1338 3794 1338 3416 
L 1338 753 
Q 1338 494 1388 397 
Q 1425 331 1503 300 
Q 1581 269 1991 269 
L 2300 269 
Q 2788 269 2984 341 
Q 3181 413 3343 595 
Q 3506 778 3669 1172 
z
" transform="scale(0.015625)"/>
      <path id="TimesNewRomanPSMT-2d" d="M 259 1672 
L 1875 1672 
L 1875 1200 
L 259 1200 
L 259 1672 
z
" transform="scale(0.015625)"/>
      <path id="TimesNewRomanPSMT-6d" d="M 1050 2338 
Q 1363 2650 1419 2697 
Q 1559 2816 1721 2881 
Q 1884 2947 2044 2947 
Q 2313 2947 2506 2790 
Q 2700 2634 2766 2338 
Q 3088 2713 3309 2830 
Q 3531 2947 3766 2947 
Q 3994 2947 4170 2830 
Q 4347 2713 4450 2447 
Q 4519 2266 4519 1878 
L 4519 647 
Q 4519 378 4559 278 
Q 4591 209 4675 161 
Q 4759 113 4950 113 
L 4950 0 
L 3538 0 
L 3538 113 
L 3597 113 
Q 3781 113 3884 184 
Q 3956 234 3988 344 
Q 4000 397 4000 647 
L 4000 1878 
Q 4000 2228 3916 2372 
Q 3794 2572 3525 2572 
Q 3359 2572 3192 2489 
Q 3025 2406 2788 2181 
L 2781 2147 
L 2788 2013 
L 2788 647 
Q 2788 353 2820 281 
Q 2853 209 2943 161 
Q 3034 113 3253 113 
L 3253 0 
L 1806 0 
L 1806 113 
Q 2044 113 2133 169 
Q 2222 225 2256 338 
Q 2272 391 2272 647 
L 2272 1878 
Q 2272 2228 2169 2381 
Q 2031 2581 1784 2581 
Q 1616 2581 1450 2491 
Q 1191 2353 1050 2181 
L 1050 647 
Q 1050 366 1089 281 
Q 1128 197 1204 155 
Q 1281 113 1516 113 
L 1516 0 
L 100 0 
L 100 113 
Q 297 113 375 155 
Q 453 197 493 289 
Q 534 381 534 647 
L 534 1741 
Q 534 2213 506 2350 
Q 484 2453 437 2492 
Q 391 2531 309 2531 
Q 222 2531 100 2484 
L 53 2597 
L 916 2947 
L 1050 2947 
L 1050 2338 
z
" transform="scale(0.015625)"/>
      <path id="TimesNewRomanPSMT-74" d="M 1031 3803 
L 1031 2863 
L 1700 2863 
L 1700 2644 
L 1031 2644 
L 1031 788 
Q 1031 509 1111 412 
Q 1191 316 1316 316 
Q 1419 316 1516 380 
Q 1613 444 1666 569 
L 1788 569 
Q 1678 263 1478 108 
Q 1278 -47 1066 -47 
Q 922 -47 784 33 
Q 647 113 581 261 
Q 516 409 516 719 
L 516 2644 
L 63 2644 
L 63 2747 
Q 234 2816 414 2980 
Q 594 3144 734 3369 
Q 806 3488 934 3803 
L 1031 3803 
z
" transform="scale(0.015625)"/>
     </defs>
     <use xlink:href="#TimesNewRomanPSMT-4c"/>
     <use xlink:href="#TimesNewRomanPSMT-65" transform="translate(61.083984 0)"/>
     <use xlink:href="#TimesNewRomanPSMT-61" transform="translate(105.46875 0)"/>
     <use xlink:href="#TimesNewRomanPSMT-72" transform="translate(149.853516 0)"/>
     <use xlink:href="#TimesNewRomanPSMT-6e" transform="translate(183.154297 0)"/>
     <use xlink:href="#TimesNewRomanPSMT-65" transform="translate(233.154297 0)"/>
     <use xlink:href="#TimesNewRomanPSMT-64" transform="translate(277.539062 0)"/>
     <use xlink:href="#TimesNewRomanPSMT-20" transform="translate(327.539062 0)"/>
     <use xlink:href="#TimesNewRomanPSMT-72" transform="translate(352.539062 0)"/>
     <use xlink:href="#TimesNewRomanPSMT-65" transform="translate(385.839844 0)"/>
     <use xlink:href="#TimesNewRomanPSMT-67" transform="translate(430.224609 0)"/>
     <use xlink:href="#TimesNewRomanPSMT-69" transform="translate(480.224609 0)"/>
     <use xlink:href="#TimesNewRomanPSMT-6f" transform="translate(508.007812 0)"/>
     <use xlink:href="#TimesNewRomanPSMT-6e" transform="translate(558.007812 0)"/>
     <use xlink:href="#TimesNewRomanPSMT-2d" transform="translate(608.007812 0)"/>
     <use xlink:href="#TimesNewRomanPSMT-6d" transform="translate(641.308594 0)"/>
     <use xlink:href="#TimesNewRomanPSMT-6f" transform="translate(719.091797 0)"/>
     <use xlink:href="#TimesNewRomanPSMT-64" transform="translate(769.091797 0)"/>
     <use xlink:href="#TimesNewRomanPSMT-65" transform="translate(819.091797 0)"/>
     <use xlink:href="#TimesNewRomanPSMT-72" transform="translate(863.476562 0)"/>
     <use xlink:href="#TimesNewRomanPSMT-61" transform="translate(896.777344 0)"/>
     <use xlink:href="#TimesNewRomanPSMT-74" transform="translate(941.162109 0)"/>
     <use xlink:href="#TimesNewRomanPSMT-65" transform="translate(968.945312 0)"/>
    </g>
   </g>
   <g id="patch_29">
    <path d="M 624.461797 21.5 
L 650.461797 21.5 
L 650.461797 12.4 
L 624.461797 12.4 
z
" style="fill: #d62728; opacity: 0.35; stroke: #8b0000; stroke-width: 1.5; stroke-linejoin: miter"/>
   </g>
   <g id="text_9">
    <!-- Learned region-feasible -->
    <g transform="translate(660.861797 21.5) scale(0.13 -0.13)">
     <defs>
      <path id="TimesNewRomanPSMT-73" d="M 2050 2947 
L 2050 1972 
L 1947 1972 
Q 1828 2431 1642 2597 
Q 1456 2763 1169 2763 
Q 950 2763 815 2647 
Q 681 2531 681 2391 
Q 681 2216 781 2091 
Q 878 1963 1175 1819 
L 1631 1597 
Q 2266 1288 2266 781 
Q 2266 391 1970 151 
Q 1675 -88 1309 -88 
Q 1047 -88 709 6 
Q 606 38 541 38 
Q 469 38 428 -44 
L 325 -44 
L 325 978 
L 428 978 
Q 516 541 762 319 
Q 1009 97 1316 97 
Q 1531 97 1667 223 
Q 1803 350 1803 528 
Q 1803 744 1651 891 
Q 1500 1038 1047 1263 
Q 594 1488 453 1669 
Q 313 1847 313 2119 
Q 313 2472 555 2709 
Q 797 2947 1181 2947 
Q 1350 2947 1591 2875 
Q 1750 2828 1803 2828 
Q 1853 2828 1881 2850 
Q 1909 2872 1947 2947 
L 2050 2947 
z
" transform="scale(0.015625)"/>
     </defs>
     <use xlink:href="#TimesNewRomanPSMT-4c"/>
     <use xlink:href="#TimesNewRomanPSMT-65" transform="translate(61.083984 0)"/>
     <use xlink:href="#TimesNewRomanPSMT-61" transform="translate(105.46875 0)"/>
     <use xlink:href="#TimesNewRomanPSMT-72" transform="translate(149.853516 0)"/>
     <use xlink:href="#TimesNewRomanPSMT-6e" transform="translate(183.154297 0)"/>
     <use xlink:href="#TimesNewRomanPSMT-65" transform="translate(233.154297 0)"/>
     <use xlink:href="#TimesNewRomanPSMT-64" transform="translate(277.539062 0)"/>
     <use xlink:href="#TimesNewRomanPSMT-20" transform="translate(327.539062 0)"/>
     <use xlink:href="#TimesNewRomanPSMT-72" transform="translate(352.539062 0)"/>
     <use xlink:href="#TimesNewRomanPSMT-65" transform="translate(385.839844 0)"/>
     <use xlink:href="#TimesNewRomanPSMT-67" transform="translate(430.224609 0)"/>
     <use xlink:href="#TimesNewRomanPSMT-69" transform="translate(480.224609 0)"/>
     <use xlink:href="#TimesNewRomanPSMT-6f" transform="translate(508.007812 0)"/>
     <use xlink:href="#TimesNewRomanPSMT-6e" transform="translate(558.007812 0)"/>
     <use xlink:href="#TimesNewRomanPSMT-2d" transform="translate(608.007812 0)"/>
     <use xlink:href="#TimesNewRomanPSMT-66" transform="translate(641.308594 0)"/>
     <use xlink:href="#TimesNewRomanPSMT-65" transform="translate(674.609375 0)"/>
     <use xlink:href="#TimesNewRomanPSMT-61" transform="translate(718.994141 0)"/>
     <use xlink:href="#TimesNewRomanPSMT-73" transform="translate(763.378906 0)"/>
     <use xlink:href="#TimesNewRomanPSMT-69" transform="translate(802.294922 0)"/>
     <use xlink:href="#TimesNewRomanPSMT-62" transform="translate(830.078125 0)"/>
     <use xlink:href="#TimesNewRomanPSMT-6c" transform="translate(880.078125 0)"/>
     <use xlink:href="#TimesNewRomanPSMT-65" transform="translate(907.861328 0)"/>
    </g>
   </g>
  </g>
 </g>
 <defs>
  <clipPath id="p4c30778bb6">
   <rect x="7.2" y="69.415" width="342.8" height="324.485"/>
  </clipPath>
  <clipPath id="pb550090e35">
   <rect x="365" y="69.415" width="342.8" height="324.485"/>
  </clipPath>
  <clipPath id="pfc26b68138">
   <rect x="722.8" y="69.415" width="342.8" height="324.485"/>
  </clipPath>
  <clipPath id="pbf9e1922a4">
   <rect x="7.2" y="428.615" width="342.8" height="324.485"/>
  </clipPath>
  <clipPath id="pd595f402fc">
   <rect x="365" y="428.615" width="342.8" height="324.485"/>
  </clipPath>
  <clipPath id="p269b7fdc4c">
   <rect x="722.8" y="428.615" width="342.8" height="324.485"/>
  </clipPath>
 </defs>
</svg>
