<?xml version="1.0" encoding="utf-8" standalone="no"?>
<!DOCTYPE svg PUBLIC "-//W3C//DTD SVG 1.1//EN"
  "http://www.w3.org/Graphics/SVG/1.1/DTD/svg11.dtd">
<svg xmlns:xlink="http://www.w3.org/1999/xlink" width="1072.8pt" height="760.3pt" viewBox="0 0 1072.8 760.3" xmlns="http://www.w3.org/2000/svg" version="1.1">
 <metadata>
  <rdf:RDF xmlns:dc="http://purl.org/dc/elements/1.1/" xmlns:cc="http://creativecommons.org/ns#" xmlns:rdf="http://www.w3.org/1999/02/22-rdf-syntax-ns#">
   <cc:Work>
    <dc:type rdf:resource="http://purl.org/dc/dcmitype/StillImage"/>
    <dc:date>2026-04-30T19:56:49.545051</dc:date>
    <dc:format>image/svg+xml</dc:format>
    <dc:creator>
     <cc:Agent>
      <dc:title>Matplotlib v3.10.6, https://matplotlib.org/</dc:title>
     </cc:Agent>
    </dc:creator>
   </cc:Work>
  </rdf:RDF>
 </metadata>
 <defs>
  <style type="text/css">*{stroke-linejoin: round; stroke-linecap: butt}</style>
 </defs>
 <g id="figure_1">
  <g id="patch_1">
   <path d="M 0 760.3 
L 1072.8 760.3 
L 1072.8 0 
L 0 0 
z
" style="fill: #ffffff"/>
  </g>
  <g id="axes_1">
   <g id="patch_2">
    <path d="M 7.2 393.9 
L 350 393.9 
L 350 69.415 
L 7.2 69.415 
z
" style="fill: #ffffff"/>
   </g>
   <g id="patch_3">
    <path d="M 46.698038 230.573978 
L 46.703837 233.161365 
L 46.720961 235.187017 
L 46.749359 237.208505 
L 46.789399 239.212364 
L 46.84068 241.218231 
L 46.903309 243.220089 
L 46.977262 245.217573 
L 47.062513 247.210192 
L 47.159035 249.197441 
L 47.266796 251.178803 
L 47.385764 253.153752 
L 47.515902 255.121755 
L 47.657172 257.082279 
L 47.809534 259.034787 
L 47.972944 260.978744 
L 48.147224 262.914853 
L 48.332591 264.84003 
L 48.528862 266.755062 
L 48.735984 268.659416 
L 48.953902 270.552563 
L 49.182557 272.433973 
L 49.422029 274.302218 
L 49.671977 276.158615 
L 49.932474 278.0017 
L 50.203453 279.830956 
L 50.484843 281.645865 
L 50.776571 283.445912 
L 51.078562 285.230586 
L 51.390739 286.999377 
L 51.71302 288.751777 
L 52.045324 290.487284 
L 52.387565 292.205395 
L 52.739655 293.905613 
L 53.101504 295.587442 
L 53.473018 297.250389 
L 53.854103 298.893965 
L 54.244659 300.517685 
L 54.644586 302.121064 
L 55.05378 303.703625 
L 55.472136 305.264891 
L 55.899545 306.80439 
L 56.335894 308.321654 
L 56.781071 309.816219 
L 57.234959 311.287624 
L 57.697437 312.735413 
L 58.168384 314.159135 
L 58.647674 315.558342 
L 59.135181 316.932593 
L 59.630772 318.281448 
L 60.134317 319.604475 
L 60.645677 320.901247 
L 61.164715 322.171342 
L 61.69129 323.414343 
L 62.225256 324.629839 
L 62.766466 325.817425 
L 63.314772 326.976703 
L 63.87002 328.107279 
L 64.432055 329.208767 
L 65.000719 330.280789 
L 65.575851 331.322973 
L 66.157287 332.334952 
L 66.74486 333.316371 
L 67.338403 334.266878 
L 67.937743 335.186132 
L 68.542706 336.073798 
L 69.153115 336.929552 
L 69.76879 337.753077 
L 70.389549 338.544064 
L 71.015208 339.302215 
L 71.645579 340.027241 
L 72.280473 340.718861 
L 72.919697 341.376805 
L 73.563059 342.000814 
L 74.210361 342.590639 
L 74.861405 343.146039 
L 75.51599 343.666788 
L 76.173914 344.152668 
L 76.834972 344.603473 
L 77.49896 345.01901 
L 78.165671 345.399096 
L 78.834897 345.743561 
L 79.506431 346.052246 
L 80.180066 346.325006 
L 80.855601 346.561706 
L 81.532841 346.762227 
L 82.211613 346.926459 
L 82.890026 347.054758 
L 83.573405 347.14568 
L 84.257177 347.20049 
L 84.968089 347.218457 
L 167.873015 345.722146 
L 189.423923 344.086234 
L 201.214886 342.575144 
L 201.905724 342.444683 
L 202.59617 342.277707 
L 203.285182 342.073745 
L 203.974111 341.833088 
L 204.660354 341.555185 
L 205.344268 341.240051 
L 206.027417 340.888429 
L 206.708601 340.500097 
L 207.387591 340.075176 
L 208.064157 339.613798 
L 208.738066 339.116114 
L 209.409085 338.582292 
L 210.076982 338.012514 
L 210.741526 337.406978 
L 211.402486 336.765899 
L 212.059633 336.089506 
L 212.712739 335.378045 
L 213.361579 334.631776 
L 214.00593 333.850973 
L 214.645569 333.035926 
L 215.280278 332.18694 
L 215.90984 331.304332 
L 216.534041 330.388435 
L 217.152671 329.439593 
L 217.76552 328.458166 
L 218.372385 327.444525 
L 218.973063 326.399054 
L 219.567355 325.322148 
L 220.155067 324.214215 
L 220.736007 323.075674 
L 221.309987 321.906956 
L 221.876822 320.7085 
L 222.436333 319.480757 
L 222.988342 318.224187 
L 223.532676 316.939261 
L 224.069168 315.626456 
L 224.597652 314.286259 
L 225.117967 312.919165 
L 225.629958 311.525677 
L 226.13347 310.106306 
L 226.628357 308.661567 
L 227.114474 307.191985 
L 227.591681 305.698087 
L 228.059842 304.180409 
L 228.518826 302.639492 
L 228.968505 301.075879 
L 229.408757 299.490121 
L 229.839461 297.882771 
L 230.260504 296.254387 
L 230.671775 294.605529 
L 231.073167 292.936762 
L 231.464577 291.248652 
L 231.845908 289.541769 
L 232.217063 287.816683 
L 232.577954 286.073969 
L 232.928493 284.314202 
L 233.268598 282.537957 
L 233.59819 280.745812 
L 233.917193 278.938345 
L 234.225537 277.116135 
L 234.523153 275.279761 
L 234.809977 273.429803 
L 235.08595 271.56684 
L 235.351013 269.691452 
L 235.605114 267.804216 
L 235.848202 265.905713 
L 236.080231 263.996519 
L 236.301157 262.077209 
L 236.510939 260.148358 
L 236.709542 258.210537 
L 236.89693 256.264316 
L 237.073073 254.310255 
L 237.237942 252.348915 
L 237.391514 250.380841 
L 237.533766 248.406786 
L 237.664679 246.42708 
L 237.784236 244.442355 
L 237.892424 242.45316 
L 237.989232 240.460031 
L 238.074652 238.463493 
L 238.148677 236.464052 
L 238.211306 234.462196 
L 238.262538 232.458292 
L 238.302374 230.451964 
L 238.33082 228.442246 
L 238.347886 226.422661 
L 238.354347 221.727424 
L 238.348767 219.034549 
L 238.331742 217.020783 
L 238.303379 215.016999 
L 238.263699 213.018737 
L 238.212724 211.024826 
L 238.150475 209.035103 
L 238.07698 207.049949 
L 237.992263 205.069831 
L 237.896356 203.095226 
L 237.789289 201.126627 
L 237.671097 199.164536 
L 237.541814 197.209461 
L 237.401479 195.261966 
L 237.250131 193.32239 
L 237.087813 191.391397 
L 236.914569 189.469478 
L 236.730444 187.557138 
L 236.535487 185.654876 
L 236.329749 183.763198 
L 236.113281 181.882607 
L 235.886139 180.013608 
L 235.648378 178.156704 
L 235.400058 176.312396 
L 235.14124 174.481184 
L 234.871986 172.663567 
L 234.592361 170.860042 
L 234.302434 169.071105 
L 234.002274 167.297248 
L 233.691952 165.538962 
L 233.371542 163.796739 
L 233.041122 162.071065 
L 232.700768 160.362427 
L 232.350563 158.671308 
L 231.990589 156.998192 
L 231.620933 155.343557 
L 231.241681 153.707883 
L 230.852926 152.091646 
L 230.454758 150.495318 
L 230.047275 148.919373 
L 229.630573 147.364278 
L 229.204754 145.830501 
L 228.76992 144.318506 
L 228.326177 142.828753 
L 227.873633 141.361703 
L 227.4124 139.91781 
L 226.942592 138.497527 
L 226.464324 137.101303 
L 225.977716 135.729586 
L 225.482891 134.382816 
L 224.979974 133.061433 
L 224.469092 131.765872 
L 223.950376 130.496564 
L 223.42396 129.253936 
L 222.889981 128.038409 
L 222.348579 126.850401 
L 221.799896 125.690325 
L 221.244079 124.558588 
L 220.681276 123.455593 
L 220.111639 122.381734 
L 219.535323 121.337404 
L 218.952487 120.322987 
L 218.363292 119.338859 
L 217.767903 118.385394 
L 217.166486 117.462953 
L 216.559213 116.571896 
L 215.946258 115.71257 
L 215.327797 114.885317 
L 214.70401 114.09047 
L 214.07508 113.328353 
L 213.441194 112.599283 
L 212.80254 111.903565 
L 212.15931 111.241496 
L 211.5117 110.613364 
L 210.859906 110.019445 
L 210.20413 109.460005 
L 209.544574 108.935299 
L 208.881444 108.445571 
L 208.214947 107.991055 
L 207.545295 107.57197 
L 206.872698 107.188525 
L 206.19737 106.840915 
L 205.520227 106.528885 
L 204.840167 106.25348 
L 204.157142 106.014868 
L 203.473021 105.812302 
L 202.787206 105.646355 
L 202.099854 105.517145 
L 201.411009 105.424779 
L 200.723538 105.368804 
L 200.027951 105.350394 
L 120.982256 106.767404 
L 98.875747 108.335147 
L 83.51397 110.025054 
L 82.830394 110.153456 
L 82.148259 110.318458 
L 81.467281 110.520058 
L 80.787528 110.758218 
L 80.109159 111.032882 
L 79.432369 111.343974 
L 78.757366 111.691406 
L 78.084365 112.075072 
L 77.413585 112.494856 
L 76.745248 112.950622 
L 76.079574 113.442224 
L 75.416784 113.969498 
L 74.757099 114.53227 
L 74.100739 115.130347 
L 73.447923 115.763526 
L 72.798868 116.431588 
L 72.153791 117.134302 
L 71.512905 117.871421 
L 70.876424 118.642687 
L 70.244558 119.447828 
L 69.617515 120.286558 
L 68.995503 121.15858 
L 68.378724 122.063584 
L 67.767382 123.001247 
L 67.161675 123.971235 
L 66.5618 124.973201 
L 65.96795 126.006787 
L 65.380317 127.071624 
L 64.799089 128.167332 
L 64.224451 129.293521 
L 63.656585 130.449789 
L 63.095671 131.635726 
L 62.541883 132.85091 
L 61.995395 134.094911 
L 61.456375 135.367289 
L 60.92499 136.667597 
L 60.401402 137.995377 
L 59.88577 139.350164 
L 59.37825 140.731486 
L 58.878992 142.138861 
L 58.388146 143.571803 
L 57.905856 145.029816 
L 57.432263 146.5124 
L 56.967504 148.019046 
L 56.511714 149.549241 
L 56.065022 151.102466 
L 55.627554 152.678197 
L 55.199433 154.275903 
L 54.780778 155.895049 
L 54.371704 157.535098 
L 53.972323 159.195505 
L 53.582742 160.875725 
L 53.203066 162.575203 
L 52.833395 164.293388 
L 52.473825 166.029722 
L 52.12445 167.783643 
L 51.78536 169.55459 
L 51.45664 171.341996 
L 51.138372 173.145294 
L 50.830636 174.963913 
L 50.533507 176.797283 
L 50.247056 178.64483 
L 49.97121 180.505153 
L 49.706319 182.379296 
L 49.452301 184.265886 
L 49.209214 186.164347 
L 48.977113 188.0741 
L 48.75605 189.994565 
L 48.546073 191.925165 
L 48.347361 193.866482 
L 48.159686 195.815687 
L 47.983222 197.773299 
L 47.818005 199.738742 
L 47.664066 201.71144 
L 47.521436 203.690822 
L 47.390141 205.676317 
L 47.270203 207.667357 
L 47.161644 209.663381 
L 47.06448 211.663836 
L 46.978726 213.668181 
L 46.904394 215.675891 
L 46.841492 217.686459 
L 46.789901 219.694851 
L 46.749876 221.708957 
L 46.721414 223.7349 
L 46.704264 225.764275 
z
" clip-path="url(#p1117712aff)" style="fill: #1f77b4; opacity: 0.35; stroke: #00008b; stroke-width: 1.5; stroke-linejoin: miter"/>
   </g>
   <g id="patch_4">
    <path d="M 47.416438 250.394021 
L 52.204754 290.48358 
L 60.072251 319.160237 
L 69.43058 335.740228 
L 77.883417 345.177611 
L 206.769447 342.33707 
L 207.131412 342.141416 
L 214.661795 333.743184 
L 227.615799 310.66544 
L 237.38324 258.829071 
L 239.092956 227.736004 
L 236.534582 181.888847 
L 228.762842 140.647733 
L 227.087788 136.322152 
L 213.14532 111.524818 
L 205.827797 107.549503 
L 83.287276 109.105961 
L 79.175266 111.335659 
L 66.548267 125.387178 
L 65.61847 127.038737 
L 55.922956 152.0067 
L 49.928809 183.794369 
L 48.765827 193.62787 
L 47.355553 217.622017 
z
" clip-path="url(#p1117712aff)" style="fill: #ff7f0e; opacity: 0.35; stroke: #ff8c00; stroke-width: 1.5; stroke-linejoin: miter"/>
   </g>
   <g id="patch_5">
    <path d="M 49.834108 259.438096 
L 52.160935 278.722505 
L 63.422519 319.257092 
L 68.328096 327.875015 
L 80.339868 341.087379 
L 206.752399 337.467125 
L 227.063976 301.155976 
L 235.005215 259.040455 
L 237.041002 221.419906 
L 235.007117 185.410897 
L 226.727901 141.390927 
L 210.183876 111.911088 
L 82.916787 112.703864 
L 71.299474 125.464914 
L 58.413699 158.081217 
L 54.340647 179.249764 
z
" clip-path="url(#p1117712aff)" style="fill: #d62728; opacity: 0.35; stroke: #8b0000; stroke-width: 1.5; stroke-linejoin: miter"/>
   </g>
   <g id="matplotlib.axis_1"/>
   <g id="matplotlib.axis_2"/>
   <g id="text_1">
    <!-- (a) $\Delta\theta=0$ -->
    <g transform="translate(152.34 66.555) scale(0.13 -0.13)">
     <defs>
      <path id="TimesNewRomanPSMT-28" d="M 1988 -1253 
L 1988 -1369 
Q 1516 -1131 1200 -813 
Q 750 -359 506 256 
Q 263 872 263 1534 
Q 263 2503 741 3301 
Q 1219 4100 1988 4444 
L 1988 4313 
Q 1603 4100 1356 3731 
Q 1109 3363 987 2797 
Q 866 2231 866 1616 
Q 866 947 969 400 
Q 1050 -31 1165 -292 
Q 1281 -553 1476 -793 
Q 1672 -1034 1988 -1253 
z
" transform="scale(0.015625)"/>
      <path id="TimesNewRomanPSMT-61" d="M 1822 413 
Q 1381 72 1269 19 
Q 1100 -59 909 -59 
Q 613 -59 420 144 
Q 228 347 228 678 
Q 228 888 322 1041 
Q 450 1253 767 1440 
Q 1084 1628 1822 1897 
L 1822 2009 
Q 1822 2438 1686 2597 
Q 1550 2756 1291 2756 
Q 1094 2756 978 2650 
Q 859 2544 859 2406 
L 866 2225 
Q 866 2081 792 2003 
Q 719 1925 600 1925 
Q 484 1925 411 2006 
Q 338 2088 338 2228 
Q 338 2497 613 2722 
Q 888 2947 1384 2947 
Q 1766 2947 2009 2819 
Q 2194 2722 2281 2516 
Q 2338 2381 2338 1966 
L 2338 994 
Q 2338 584 2353 492 
Q 2369 400 2405 369 
Q 2441 338 2488 338 
Q 2538 338 2575 359 
Q 2641 400 2828 588 
L 2828 413 
Q 2478 -56 2159 -56 
Q 2006 -56 1915 50 
Q 1825 156 1822 413 
z
M 1822 616 
L 1822 1706 
Q 1350 1519 1213 1441 
Q 966 1303 859 1153 
Q 753 1003 753 825 
Q 753 600 887 451 
Q 1022 303 1197 303 
Q 1434 303 1822 616 
z
" transform="scale(0.015625)"/>
      <path id="TimesNewRomanPSMT-29" d="M 144 4313 
L 144 4444 
Q 619 4209 934 3891 
Q 1381 3434 1625 2820 
Q 1869 2206 1869 1541 
Q 1869 572 1392 -226 
Q 916 -1025 144 -1369 
L 144 -1253 
Q 528 -1038 776 -670 
Q 1025 -303 1145 264 
Q 1266 831 1266 1447 
Q 1266 2113 1163 2663 
Q 1084 3094 967 3353 
Q 850 3613 656 3853 
Q 463 4094 144 4313 
z
" transform="scale(0.015625)"/>
      <path id="TimesNewRomanPSMT-20" transform="scale(0.015625)"/>
      <path id="STIXGeneral-Regular-394" d="M 4320 0 
L 307 0 
L 2221 4314 
L 2349 4314 
L 4320 0 
z
M 3354 589 
L 2118 3405 
L 870 589 
L 3354 589 
z
" transform="scale(0.015625)"/>
      <path id="STIXGeneral-Italic-3b8" d="M 3162 3270 
Q 3162 2534 2925 1862 
Q 2688 1190 2304 678 
Q 1741 -70 992 -70 
Q 608 -70 390 224 
Q 173 518 173 1030 
Q 173 1997 592 2813 
Q 1011 3629 1594 4070 
Q 1952 4339 2374 4339 
Q 2733 4339 2947 4076 
Q 3162 3814 3162 3270 
z
M 941 2221 
L 2432 2221 
Q 2624 2874 2624 3533 
Q 2624 4205 2285 4205 
Q 2029 4205 1728 3814 
Q 1427 3424 1232 2992 
Q 1037 2560 941 2221 
z
M 2387 2016 
L 896 2016 
Q 710 1530 710 960 
Q 710 64 1069 64 
Q 1286 64 1510 275 
Q 1734 486 1904 806 
Q 2074 1126 2198 1440 
Q 2323 1754 2387 2016 
z
" transform="scale(0.015625)"/>
      <path id="STIXGeneral-Regular-3d" d="M 4077 2048 
L 307 2048 
L 307 2470 
L 4077 2470 
L 4077 2048 
z
M 4077 768 
L 307 768 
L 307 1190 
L 4077 1190 
L 4077 768 
z
" transform="scale(0.015625)"/>
      <path id="STIXGeneral-Regular-30" d="M 3046 2112 
Q 3046 1683 2963 1302 
Q 2880 922 2717 602 
Q 2554 282 2266 96 
Q 1978 -90 1600 -90 
Q 1210 -90 915 108 
Q 621 307 461 640 
Q 301 973 227 1350 
Q 154 1728 154 2150 
Q 154 2746 301 3222 
Q 448 3699 790 4012 
Q 1133 4326 1626 4326 
Q 2253 4326 2649 3712 
Q 3046 3098 3046 2112 
z
M 2432 2080 
Q 2432 3091 2217 3625 
Q 2003 4160 1587 4160 
Q 1190 4160 979 3622 
Q 768 3085 768 2106 
Q 768 1120 979 598 
Q 1190 77 1600 77 
Q 2003 77 2217 598 
Q 2432 1120 2432 2080 
z
" transform="scale(0.015625)"/>
     </defs>
     <use xlink:href="#TimesNewRomanPSMT-28" transform="translate(0 0.5625)"/>
     <use xlink:href="#TimesNewRomanPSMT-61" transform="translate(33.300781 0.5625)"/>
     <use xlink:href="#TimesNewRomanPSMT-29" transform="translate(77.685547 0.5625)"/>
     <use xlink:href="#TimesNewRomanPSMT-20" transform="translate(110.986328 0.5625)"/>
     <use xlink:href="#STIXGeneral-Regular-394" transform="translate(135.986328 0.5625)"/>
     <use xlink:href="#STIXGeneral-Italic-3b8" transform="translate(208.18631 0.5625)"/>
     <use xlink:href="#STIXGeneral-Regular-3d" transform="translate(270.626291 0.5625)"/>
     <use xlink:href="#STIXGeneral-Regular-30" transform="translate(353.566272 0.5625)"/>
    </g>
   </g>
  </g>
  <g id="axes_2">
   <g id="patch_6">
    <path d="M 365 393.9 
L 707.8 393.9 
L 707.8 69.415 
L 365 69.415 
z
" style="fill: #ffffff"/>
   </g>
   <g id="patch_7">
    <path d="M 414.872995 229.548942 
L 414.878964 232.620206 
L 414.897099 234.764784 
L 414.927182 236.904988 
L 414.969579 239.027337 
L 415.023886 241.151515 
L 415.09021 243.271458 
L 415.168525 245.386738 
L 415.258805 247.496843 
L 415.361017 249.601243 
L 415.475132 251.699394 
L 415.601112 253.79074 
L 415.73892 255.874719 
L 415.888515 257.950769 
L 416.049856 260.018326 
L 416.222895 262.076824 
L 416.407452 264.126939 
L 416.603742 266.165558 
L 416.81158 268.19344 
L 417.030908 270.210024 
L 417.26167 272.21475 
L 417.503942 274.206118 
L 417.757386 276.185503 
L 418.022072 278.151365 
L 418.297934 280.103155 
L 418.584899 282.040325 
L 418.882893 283.96233 
L 419.191841 285.868627 
L 419.511664 287.758677 
L 419.84228 289.631943 
L 420.183605 291.487889 
L 420.535552 293.325983 
L 420.898032 295.145697 
L 421.270953 296.946505 
L 421.65422 298.727882 
L 422.047735 300.489309 
L 422.451399 302.230268 
L 422.865109 303.950246 
L 423.288758 305.648733 
L 423.722239 307.325221 
L 424.16544 308.979206 
L 424.618247 310.610189 
L 425.080544 312.217675 
L 425.55221 313.801171 
L 426.033124 315.360189 
L 426.523159 316.894246 
L 427.022188 318.402863 
L 427.530079 319.885566 
L 428.046699 321.341883 
L 428.571909 322.771352 
L 429.105571 324.173511 
L 429.647541 325.547907 
L 430.197674 326.894091 
L 430.75582 328.211619 
L 431.321827 329.500053 
L 431.895542 330.758963 
L 432.476806 331.987924 
L 433.065458 333.186517 
L 433.661335 334.35433 
L 434.26427 335.490959 
L 434.874093 336.596007 
L 435.490631 337.669083 
L 436.11371 338.709806 
L 436.743151 339.7178 
L 437.378771 340.692701 
L 438.020388 341.634151 
L 438.667813 342.541801 
L 439.320857 343.415312 
L 439.979328 344.254353 
L 440.643029 345.058603 
L 441.311762 345.827753 
L 441.985327 346.561501 
L 442.663521 347.259557 
L 443.346137 347.921641 
L 444.032966 348.547485 
L 444.7238 349.136832 
L 445.418423 349.689435 
L 446.116622 350.205061 
L 446.81818 350.683487 
L 447.522307 351.124911 
L 448.230495 351.527913 
L 448.940812 351.893531 
L 449.653606 352.221186 
L 450.368659 352.51072 
L 451.085753 352.761988 
L 451.80468 352.974857 
L 452.525251 353.14921 
L 453.247323 353.284941 
L 453.970903 353.381953 
L 454.696662 353.440151 
L 455.447797 353.459255 
L 539.626055 351.984077 
L 564.018746 350.186021 
L 578.353767 348.313118 
L 579.600114 348.090312 
L 580.333999 347.91283 
L 581.066284 347.696054 
L 581.79844 347.440247 
L 582.526824 347.144561 
L 583.254779 346.80995 
L 583.980899 346.436206 
L 584.704947 346.023436 
L 585.426676 345.571765 
L 586.145838 345.081336 
L 586.862184 344.55231 
L 587.575465 343.984865 
L 588.285431 343.379196 
L 588.991834 342.735516 
L 589.694427 342.054055 
L 590.392963 341.33506 
L 591.087199 340.578793 
L 591.776892 339.785534 
L 592.461804 338.955579 
L 593.141696 338.08924 
L 593.816334 337.186843 
L 594.485486 336.248732 
L 595.148923 335.275263 
L 595.806419 334.266808 
L 596.457751 333.223754 
L 597.102699 332.146501 
L 597.741049 331.035461 
L 598.372588 329.891062 
L 598.997107 328.713741 
L 599.614401 327.503951 
L 600.224272 326.262153 
L 600.826521 324.988822 
L 601.420956 323.684443 
L 602.00739 322.34951 
L 602.585638 320.984529 
L 603.155522 319.590013 
L 603.716865 318.166487 
L 604.269497 316.714483 
L 604.813253 315.234539 
L 605.347971 313.727203 
L 605.873493 312.193031 
L 606.389667 310.632582 
L 606.896345 309.046425 
L 607.393383 307.435133 
L 607.880644 305.799284 
L 608.357993 304.139461 
L 608.825299 302.456254 
L 609.282438 300.750253 
L 609.72929 299.022055 
L 610.165738 297.27226 
L 610.59167 295.501469 
L 611.006978 293.710289 
L 611.411561 291.899325 
L 611.80532 290.069188 
L 612.188159 288.220488 
L 612.559989 286.353838 
L 612.920724 284.469853 
L 613.270281 282.569145 
L 613.608584 280.65233 
L 613.935558 278.720023 
L 614.251133 276.772841 
L 614.555243 274.811397 
L 614.847826 272.836307 
L 615.128823 270.848185 
L 615.39818 268.847645 
L 615.655845 266.8353 
L 615.90177 264.811762 
L 616.135912 262.777641 
L 616.358229 260.733545 
L 616.568685 258.680079 
L 616.767244 256.617847 
L 616.953875 254.547447 
L 617.128552 252.469468 
L 617.291249 250.384495 
L 617.441945 248.293094 
L 617.580621 246.196125 
L 617.70726 244.093841 
L 617.821851 241.986937 
L 617.924384 239.875981 
L 618.01485 237.761525 
L 618.093245 235.644101 
L 618.159567 233.524215 
L 618.213818 231.402297 
L 618.256 229.278142 
L 618.28612 227.150306 
L 618.30419 225.012579 
L 618.311141 219.978717 
L 618.305231 217.182697 
L 618.287207 215.051544 
L 618.257181 212.930459 
L 618.215174 210.815313 
L 618.161212 208.704625 
L 618.095317 206.598392 
L 618.017518 204.497044 
L 617.927844 202.401061 
L 617.826325 200.310947 
L 617.712996 198.227219 
L 617.587892 196.150405 
L 617.45105 194.081123 
L 617.302512 192.019654 
L 617.142318 189.966755 
L 616.970514 187.922933 
L 616.787145 185.888717 
L 616.59226 183.864631 
L 616.38591 181.851204 
L 616.168147 179.84897 
L 615.939026 177.858457 
L 615.698604 175.880196 
L 615.446941 173.914715 
L 615.184098 171.962542 
L 614.910138 170.024202 
L 614.625127 168.10022 
L 614.329134 166.191117 
L 614.022227 164.297414 
L 613.704481 162.41963 
L 613.375969 160.558282 
L 613.036768 158.713885 
L 612.686959 156.886953 
L 612.326623 155.077997 
L 611.955843 153.287528 
L 611.574708 151.516055 
L 611.183305 149.764082 
L 610.781726 148.032115 
L 610.370067 146.320656 
L 609.948422 144.630206 
L 609.516892 142.961261 
L 609.075579 141.314319 
L 608.624587 139.689872 
L 608.164024 138.088412 
L 607.693999 136.510426 
L 607.214626 134.956401 
L 606.726021 133.42682 
L 606.228302 131.922161 
L 605.721592 130.442903 
L 605.206013 128.989518 
L 604.681695 127.562477 
L 604.148768 126.162246 
L 603.607365 124.789288 
L 603.057624 123.44406 
L 602.499685 122.127018 
L 601.93369 120.838612 
L 601.359786 119.579286 
L 600.778124 118.34948 
L 600.188855 117.149631 
L 599.592136 115.980167 
L 598.988128 114.841512 
L 598.376992 113.734084 
L 597.758895 112.658295 
L 597.134008 111.61455 
L 596.502502 110.603247 
L 595.864556 109.624777 
L 595.220347 108.679523 
L 594.570061 107.767861 
L 593.913883 106.890158 
L 593.252005 106.046772 
L 592.584618 105.238054 
L 591.911921 104.464343 
L 591.234112 103.725971 
L 590.551396 103.023258 
L 589.863979 102.356515 
L 589.172071 101.726041 
L 588.475884 101.132125 
L 587.775634 100.575044 
L 587.071539 100.055062 
L 586.363821 99.572432 
L 585.652703 99.127394 
L 584.938411 98.720176 
L 584.221173 98.350991 
L 583.501218 98.020039 
L 582.779554 97.727061 
L 582.054068 97.473566 
L 581.327322 97.258373 
L 580.598745 97.082072 
L 579.86851 96.944792 
L 579.136685 96.846651 
L 578.402875 96.787763 
L 577.654717 96.768364 
L 499.204897 98.07259 
L 470.305874 100.130517 
L 453.949788 102.035686 
L 453.223867 102.172049 
L 452.499486 102.347276 
L 451.776317 102.561373 
L 451.054433 102.8143 
L 450.334005 103.105997 
L 449.615241 103.436386 
L 448.898365 103.805374 
L 448.183608 104.212849 
L 447.471203 104.658685 
L 446.761388 105.142739 
L 446.054398 105.664855 
L 445.35047 106.224859 
L 444.649839 106.822563 
L 443.952742 107.457762 
L 443.259412 108.130239 
L 442.57008 108.839758 
L 441.884979 109.586073 
L 441.204337 110.36892 
L 440.528381 111.188022 
L 439.857336 112.043086 
L 439.191425 112.933808 
L 438.530868 113.859869 
L 437.875883 114.820935 
L 437.226685 115.816661 
L 436.583487 116.846688 
L 435.946498 117.910646 
L 435.315925 119.008149 
L 434.691971 120.138803 
L 434.074837 121.302201 
L 433.46472 122.497923 
L 432.861814 123.72554 
L 432.266309 124.984611 
L 431.678392 126.274686 
L 431.098246 127.595303 
L 430.526052 128.945992 
L 429.961985 130.326273 
L 429.406218 131.735658 
L 428.85892 133.173647 
L 428.320254 134.639736 
L 427.790382 136.13341 
L 427.269462 137.654149 
L 426.757646 139.201423 
L 426.255083 140.774697 
L 425.761918 142.373428 
L 425.278294 143.997069 
L 424.804346 145.645065 
L 424.340209 147.316855 
L 423.886012 149.011876 
L 423.44188 150.729556 
L 423.007934 152.469322 
L 422.584291 154.230594 
L 422.171066 156.012789 
L 421.768366 157.815321 
L 421.376299 159.6376 
L 420.994965 161.479031 
L 420.624461 163.33902 
L 420.264883 165.216967 
L 419.916319 167.112271 
L 419.578856 169.024328 
L 419.252576 170.952535 
L 418.937557 172.896283 
L 418.633875 174.854965 
L 418.341601 176.827971 
L 418.060661 178.813828 
L 417.791402 180.813611 
L 417.533743 182.825882 
L 417.287739 184.850026 
L 417.053446 186.885433 
L 416.830911 188.931487 
L 416.620316 190.988739 
L 416.421435 193.054324 
L 416.234442 195.12873 
L 416.059375 197.211346 
L 415.896265 199.301565 
L 415.745143 201.398781 
L 415.606036 203.50239 
L 415.478967 205.611793 
L 415.363958 207.726397 
L 415.261024 209.845615 
L 415.170181 211.968878 
L 415.09144 214.095632 
L 415.02481 216.225345 
L 414.97017 218.352883 
L 414.927775 220.486199 
L 414.897621 222.631394 
L 414.879456 224.780128 
z
" clip-path="url(#p57344126d7)" style="fill: #1f77b4; opacity: 0.35; stroke: #00008b; stroke-width: 1.5; stroke-linejoin: miter"/>
   </g>
   <g id="patch_8">
    <path d="M 414.445247 252.135906 
L 420.304416 296.822382 
L 426.98718 319.833944 
L 437.674397 338.236184 
L 449.466001 351.04767 
L 564.705307 348.168985 
L 585.919048 336.888086 
L 590.678445 324.641418 
L 604.686852 273.093596 
L 605.753407 263.637764 
L 606.082472 202.201892 
L 600.672026 154.96946 
L 594.93417 133.84039 
L 586.614305 112.444541 
L 578.372215 103.390596 
L 447.483932 107.758317 
L 434.639739 121.636796 
L 422.889014 150.61202 
L 415.429202 188.019387 
L 414.247181 205.041251 
z
" clip-path="url(#p57344126d7)" style="fill: #ff7f0e; opacity: 0.35; stroke: #ff8c00; stroke-width: 1.5; stroke-linejoin: miter"/>
   </g>
   <g id="patch_9">
    <path d="M 428.708713 265.339131 
L 444.043014 314.246879 
L 457.177331 327.418079 
L 577.680939 319.556611 
L 597.631608 283.674067 
L 603.732697 251.349207 
L 605.819382 204.573944 
L 596.163496 151.904826 
L 581.885095 126.474117 
L 458.182826 126.318963 
L 451.419169 133.043083 
L 434.491146 171.55938 
z
" clip-path="url(#p57344126d7)" style="fill: #d62728; opacity: 0.35; stroke: #8b0000; stroke-width: 1.5; stroke-linejoin: miter"/>
   </g>
   <g id="matplotlib.axis_3"/>
   <g id="matplotlib.axis_4"/>
   <g id="text_2">
    <!-- (b) $\Delta\theta=+0.15$ -->
    <g transform="translate(497.205 66.555) scale(0.13 -0.13)">
     <defs>
      <path id="TimesNewRomanPSMT-62" d="M 984 2369 
Q 1400 2947 1881 2947 
Q 2322 2947 2650 2570 
Q 2978 2194 2978 1541 
Q 2978 778 2472 313 
Q 2038 -88 1503 -88 
Q 1253 -88 995 3 
Q 738 94 469 275 
L 469 3241 
Q 469 3728 445 3840 
Q 422 3953 372 3993 
Q 322 4034 247 4034 
Q 159 4034 28 3984 
L -16 4094 
L 844 4444 
L 984 4444 
L 984 2369 
z
M 984 2169 
L 984 456 
Q 1144 300 1314 220 
Q 1484 141 1663 141 
Q 1947 141 2192 453 
Q 2438 766 2438 1363 
Q 2438 1913 2192 2208 
Q 1947 2503 1634 2503 
Q 1469 2503 1303 2419 
Q 1178 2356 984 2169 
z
" transform="scale(0.015625)"/>
      <path id="STIXGeneral-Regular-2b" d="M 4070 1408 
L 2400 1408 
L 2400 -262 
L 1978 -262 
L 1978 1408 
L 307 1408 
L 307 1830 
L 1978 1830 
L 1978 3501 
L 2400 3501 
L 2400 1830 
L 4070 1830 
L 4070 1408 
z
" transform="scale(0.015625)"/>
      <path id="STIXGeneral-Regular-2e" d="M 1158 275 
Q 1158 134 1052 32 
Q 947 -70 800 -70 
Q 653 -70 550 32 
Q 448 134 448 281 
Q 448 429 553 534 
Q 659 640 806 640 
Q 947 640 1052 531 
Q 1158 422 1158 275 
z
" transform="scale(0.015625)"/>
      <path id="STIXGeneral-Regular-31" d="M 2522 0 
L 755 0 
L 755 96 
Q 1107 115 1235 227 
Q 1363 339 1363 608 
L 1363 3482 
Q 1363 3795 1171 3795 
Q 1082 3795 883 3718 
L 710 3654 
L 710 3744 
L 1856 4326 
L 1914 4307 
L 1914 486 
Q 1914 275 2042 185 
Q 2170 96 2522 96 
L 2522 0 
z
" transform="scale(0.015625)"/>
      <path id="STIXGeneral-Regular-35" d="M 2803 4358 
L 2573 3814 
Q 2534 3731 2400 3731 
L 1158 3731 
L 902 3187 
Q 1606 3053 1920 2896 
Q 2234 2739 2502 2368 
Q 2726 2061 2726 1555 
Q 2726 1094 2576 780 
Q 2426 467 2099 224 
Q 1664 -90 1011 -90 
Q 646 -90 422 19 
Q 198 128 198 307 
Q 198 550 486 550 
Q 717 550 960 352 
Q 1210 147 1414 147 
Q 1747 147 2012 480 
Q 2278 813 2278 1229 
Q 2278 1843 1850 2189 
Q 1293 2637 486 2637 
Q 410 2637 410 2688 
L 416 2720 
L 1114 4237 
L 2438 4237 
Q 2547 4237 2608 4269 
Q 2669 4301 2746 4403 
L 2803 4358 
z
" transform="scale(0.015625)"/>
     </defs>
     <use xlink:href="#TimesNewRomanPSMT-28" transform="translate(0 0.5625)"/>
     <use xlink:href="#TimesNewRomanPSMT-62" transform="translate(33.300781 0.5625)"/>
     <use xlink:href="#TimesNewRomanPSMT-29" transform="translate(83.300781 0.5625)"/>
     <use xlink:href="#TimesNewRomanPSMT-20" transform="translate(116.601562 0.5625)"/>
     <use xlink:href="#STIXGeneral-Regular-394" transform="translate(141.601562 0.5625)"/>
     <use xlink:href="#STIXGeneral-Italic-3b8" transform="translate(213.801544 0.5625)"/>
     <use xlink:href="#STIXGeneral-Regular-3d" transform="translate(276.241525 0.5625)"/>
     <use xlink:href="#STIXGeneral-Regular-2b" transform="translate(359.181506 0.5625)"/>
     <use xlink:href="#STIXGeneral-Regular-30" transform="translate(427.681491 0.5625)"/>
     <use xlink:href="#STIXGeneral-Regular-2e" transform="translate(477.681476 0.5625)"/>
     <use xlink:href="#STIXGeneral-Regular-31" transform="translate(502.681461 0.5625)"/>
     <use xlink:href="#STIXGeneral-Regular-35" transform="translate(552.681445 0.5625)"/>
    </g>
   </g>
  </g>
  <g id="axes_3">
   <g id="patch_10">
    <path d="M 722.8 393.9 
L 1065.6 393.9 
L 1065.6 69.415 
L 722.8 69.415 
z
" style="fill: #ffffff"/>
   </g>
   <g id="patch_11">
    <path d="M 751.934238 230.874141 
L 751.939542 233.685611 
L 751.955652 235.592027 
L 751.982364 237.494587 
L 752.020043 239.379739 
L 752.068292 241.267097 
L 752.127218 243.150657 
L 752.196801 245.030123 
L 752.277015 246.905032 
L 752.367834 248.774907 
L 752.469231 250.639256 
L 752.581172 252.497582 
L 752.703625 254.349383 
L 752.836554 256.194153 
L 752.97992 258.031385 
L 753.133682 259.860574 
L 753.297797 261.681212 
L 753.472086 263.493962 
L 753.656768 265.295921 
L 753.85166 267.087825 
L 754.056708 268.869172 
L 754.271859 270.639464 
L 754.497054 272.398201 
L 754.732374 274.144027 
L 754.977478 275.878203 
L 755.232441 277.599343 
L 755.497196 279.306959 
L 755.771673 281.000564 
L 756.055801 282.679675 
L 756.349507 284.343809 
L 756.652713 285.992489 
L 756.965341 287.625239 
L 757.287311 289.241585 
L 757.618538 290.841057 
L 757.958936 292.423187 
L 758.308417 293.987511 
L 758.66689 295.533569 
L 759.034262 297.060901 
L 759.410436 298.569052 
L 759.795315 300.057572 
L 760.188797 301.526013 
L 760.59078 302.97393 
L 761.001157 304.400882 
L 761.41982 305.806433 
L 761.846658 307.19015 
L 762.281557 308.551605 
L 762.724403 309.890372 
L 763.175075 311.206033 
L 763.633453 312.498172 
L 764.099413 313.766378 
L 764.572829 315.010246 
L 765.053572 316.229374 
L 765.54151 317.423367 
L 766.03651 318.591835 
L 766.538435 319.734394 
L 767.047146 320.850664 
L 767.5625 321.940272 
L 768.084354 323.002852 
L 768.612561 324.038042 
L 769.146971 325.04549 
L 769.687432 326.024847 
L 770.23379 326.975774 
L 770.785888 327.897936 
L 771.343566 328.791008 
L 771.906663 329.654671 
L 772.475013 330.488615 
L 773.048451 331.292537 
L 773.626806 332.066142 
L 774.209908 332.809144 
L 774.797583 333.521267 
L 775.389655 334.20224 
L 775.985945 334.851806 
L 776.586273 335.469713 
L 777.190456 336.055721 
L 777.798311 336.609599 
L 778.409651 337.131127 
L 779.024288 337.620093 
L 779.642031 338.076297 
L 780.26269 338.499549 
L 780.886072 338.889672 
L 781.511983 339.246495 
L 782.14023 339.569864 
L 782.770619 339.859632 
L 783.402957 340.115666 
L 784.037057 340.337843 
L 784.672738 340.526053 
L 785.309844 340.680196 
L 785.946479 340.800634 
L 786.58805 340.885938 
L 787.229978 340.937373 
L 787.877083 340.954943 
L 868.358117 339.499777 
L 888.022409 337.978458 
L 896.996287 336.860241 
L 897.647317 336.738081 
L 898.294608 336.581545 
L 898.940593 336.390324 
L 899.585403 336.164419 
L 900.229895 335.904198 
L 900.871006 335.608743 
L 901.511432 335.279113 
L 902.150003 334.915078 
L 902.786507 334.516748 
L 903.420728 334.084249 
L 904.052452 333.617722 
L 904.681461 333.117322 
L 905.307542 332.583219 
L 905.930478 332.015599 
L 906.550055 331.414659 
L 907.16606 330.780614 
L 907.778283 330.113691 
L 908.386514 329.41413 
L 908.990544 328.682188 
L 909.590168 327.918131 
L 910.185182 327.122242 
L 910.775384 326.294815 
L 911.360576 325.436158 
L 911.940561 324.546589 
L 912.515145 323.626442 
L 913.084138 322.676058 
L 913.64735 321.695795 
L 914.204598 320.686018 
L 914.755698 319.647104 
L 915.300473 318.579441 
L 915.838746 317.483428 
L 916.370346 316.359471 
L 916.895103 315.207989 
L 917.412852 314.029407 
L 917.923432 312.824161 
L 918.426684 311.592695 
L 918.922453 310.335458 
L 919.41059 309.052912 
L 919.890947 307.745522 
L 920.36338 306.413761 
L 920.82775 305.05811 
L 921.283922 303.679054 
L 921.731763 302.277085 
L 922.171146 300.852701 
L 922.601946 299.406403 
L 923.024042 297.9387 
L 923.437319 296.450102 
L 923.841664 294.941125 
L 924.236967 293.412288 
L 924.623124 291.864115 
L 925.000033 290.297132 
L 925.367597 288.711868 
L 925.725722 287.108854 
L 926.074317 285.488625 
L 926.413297 283.851716 
L 926.742579 282.198664 
L 927.062082 280.53001 
L 927.371733 278.846294 
L 927.671457 277.148058 
L 927.961188 275.435843 
L 928.240858 273.710194 
L 928.510408 271.971654 
L 928.769778 270.220767 
L 929.018912 268.458077 
L 929.25776 266.684129 
L 929.486272 264.899465 
L 929.704402 263.104627 
L 929.912108 261.300158 
L 930.109351 259.486596 
L 930.296094 257.66448 
L 930.472304 255.83434 
L 930.637949 253.99671 
L 930.793003 252.152109 
L 930.93744 250.301218 
L 931.071238 248.444392 
L 931.194377 246.582218 
L 931.306842 244.715219 
L 931.408617 242.843912 
L 931.499692 240.968803 
L 931.580056 239.090389 
L 931.649705 237.209151 
L 931.708633 235.325551 
L 931.756839 233.439886 
L 931.794325 231.551567 
L 931.821093 229.660304 
L 931.837152 227.759319 
L 931.843142 223.39834 
L 931.837892 220.813222 
L 931.821868 218.917188 
L 931.795173 217.031083 
L 931.757826 215.149951 
L 931.709845 213.273115 
L 931.651253 211.400222 
L 931.582073 209.531591 
L 931.502329 207.667665 
L 931.412049 205.808901 
L 931.311263 203.955766 
L 931.200003 202.108736 
L 931.078301 200.268291 
L 930.946194 198.434915 
L 930.803718 196.609135 
L 930.650915 194.791301 
L 930.487826 192.982018 
L 930.314494 191.181756 
L 930.130965 189.390993 
L 929.937288 187.610203 
L 929.733511 185.839865 
L 929.519688 184.080455 
L 929.295871 182.332451 
L 929.062117 180.596328 
L 928.818485 178.872558 
L 928.565033 177.161617 
L 928.301825 175.463973 
L 928.028925 173.780097 
L 927.7464 172.110455 
L 927.454318 170.455515 
L 927.152749 168.815738 
L 926.841768 167.191587 
L 926.521449 165.583523 
L 926.191869 163.992001 
L 925.853108 162.41748 
L 925.505249 160.860412 
L 925.148375 159.321248 
L 924.782573 157.800439 
L 924.407931 156.298432 
L 924.024542 154.815671 
L 923.632499 153.352598 
L 923.231898 151.909654 
L 922.822837 150.487276 
L 922.405417 149.085897 
L 921.979742 147.70595 
L 921.545919 146.347862 
L 921.104055 145.012059 
L 920.654263 143.698964 
L 920.196655 142.408994 
L 919.731349 141.142566 
L 919.258463 139.90009 
L 918.77812 138.681973 
L 918.290443 137.48862 
L 917.795562 136.320429 
L 917.293604 135.177796 
L 916.784705 134.061109 
L 916.268998 132.970755 
L 915.746623 131.907113 
L 915.217722 130.870558 
L 914.682437 129.86146 
L 914.140917 128.880182 
L 913.59331 127.927081 
L 913.039771 127.002509 
L 912.480454 126.106811 
L 911.915518 125.240325 
L 911.345123 124.40338 
L 910.769436 123.596302 
L 910.188621 122.819406 
L 909.602849 122.073 
L 909.012293 121.357384 
L 908.417127 120.672849 
L 907.817529 120.019679 
L 907.213681 119.398146 
L 906.605765 118.808516 
L 905.993966 118.251041 
L 905.378473 117.725969 
L 904.759476 117.233532 
L 904.137169 116.773954 
L 903.511745 116.347449 
L 902.883401 115.954219 
L 902.252336 115.594454 
L 901.618749 115.268332 
L 900.983545 114.975584 
L 900.3456 114.717236 
L 899.704848 114.493441 
L 899.063154 114.303443 
L 898.419899 114.147801 
L 897.775221 114.026622 
L 897.129141 113.940002 
L 896.484563 113.887485 
L 895.816748 113.870966 
L 816.734141 115.366832 
L 800.774406 116.511184 
L 786.495401 117.989819 
L 785.853994 118.110292 
L 785.212384 118.264787 
L 784.574987 118.45426 
L 783.937198 118.677713 
L 783.300721 118.93541 
L 782.665736 119.227282 
L 782.032437 119.553245 
L 781.401023 119.9132 
L 780.771699 120.307037 
L 780.14467 120.734631 
L 779.519632 121.195477 
L 778.898323 121.690523 
L 778.279416 122.218504 
L 777.663627 122.779611 
L 777.051161 123.373653 
L 776.442219 124.000426 
L 775.837004 124.659714 
L 775.235715 125.351289 
L 774.63855 126.074911 
L 774.045708 126.830325 
L 773.457381 127.617268 
L 772.873763 128.435462 
L 772.295045 129.284619 
L 771.721415 130.16444 
L 771.153058 131.074612 
L 770.59016 132.014815 
L 770.0329 132.984716 
L 769.481458 133.983971 
L 768.93601 135.012227 
L 768.396729 136.069122 
L 767.863786 137.154282 
L 767.337348 138.267324 
L 766.81758 139.407858 
L 766.304643 140.575483 
L 765.798697 141.76979 
L 765.299897 142.990361 
L 764.808396 144.236772 
L 764.324342 145.50859 
L 763.847882 146.805373 
L 763.379158 148.126675 
L 762.918311 149.47204 
L 762.465476 150.841008 
L 762.020786 152.233111 
L 761.58437 153.647876 
L 761.156355 155.084824 
L 760.736863 156.54347 
L 760.326013 158.023324 
L 759.923922 159.523891 
L 759.530701 161.044672 
L 759.14646 162.585164 
L 758.771303 164.144857 
L 758.405335 165.723241 
L 758.048652 167.3198 
L 757.70135 168.934015 
L 757.363521 170.565363 
L 757.035254 172.213321 
L 756.716634 173.87736 
L 756.407743 175.556951 
L 756.108658 177.25156 
L 755.819456 178.960654 
L 755.540207 180.683695 
L 755.270981 182.420146 
L 755.011701 184.168645 
L 754.762714 185.930264 
L 754.523936 187.703668 
L 754.295423 189.488315 
L 754.077227 191.28366 
L 753.869398 193.08916 
L 753.671982 194.90427 
L 753.485157 196.729606 
L 753.308693 198.562373 
L 753.142764 200.403124 
L 752.987404 202.251316 
L 752.842643 204.106408 
L 752.708512 205.96786 
L 752.585035 207.835134 
L 752.472235 209.707696 
L 752.370133 211.585017 
L 752.278745 213.466576 
L 752.198086 215.351862 
L 752.128168 217.240376 
L 752.069 219.131644 
L 752.020462 221.020731 
L 751.98281 222.915458 
L 751.956043 224.821968 
L 751.939909 226.731613 
z
" clip-path="url(#p2744651515)" style="fill: #1f77b4; opacity: 0.35; stroke: #00008b; stroke-width: 1.5; stroke-linejoin: miter"/>
   </g>
   <g id="patch_12">
    <path d="M 756.625595 270.00452 
L 762.338424 302.280929 
L 770.051921 322.724162 
L 773.106498 328.281304 
L 781.233669 337.528377 
L 905.075533 330.816522 
L 923.169707 297.903368 
L 932.16542 251.604803 
L 933.142541 231.141541 
L 930.567542 187.220397 
L 924.035766 153.774816 
L 904.180942 117.818172 
L 783.918673 118.695376 
L 771.385828 132.619997 
L 765.901569 142.511593 
L 762.397812 155.811609 
L 754.340333 228.074525 
z
" clip-path="url(#p2744651515)" style="fill: #ff7f0e; opacity: 0.35; stroke: #ff8c00; stroke-width: 1.5; stroke-linejoin: miter"/>
   </g>
   <g id="patch_13">
    <path d="M 765.583019 250.645408 
L 780.592041 303.896708 
L 785.809089 312.950321 
L 898.555416 303.26596 
L 911.472787 279.453532 
L 921.361893 227.883269 
L 922.01967 212.557044 
L 912.074135 160.991509 
L 897.682524 134.68197 
L 797.69106 133.036906 
L 780.33309 151.103943 
L 773.012256 169.486909 
L 767.801971 196.605858 
z
" clip-path="url(#p2744651515)" style="fill: #d62728; opacity: 0.35; stroke: #8b0000; stroke-width: 1.5; stroke-linejoin: miter"/>
   </g>
   <g id="matplotlib.axis_5"/>
   <g id="matplotlib.axis_6"/>
   <g id="text_3">
    <!-- (c) $\Delta\theta=-0.15$ -->
    <g transform="translate(855.33 66.555) scale(0.13 -0.13)">
     <defs>
      <path id="TimesNewRomanPSMT-63" d="M 2631 1088 
Q 2516 522 2178 217 
Q 1841 -88 1431 -88 
Q 944 -88 581 321 
Q 219 731 219 1428 
Q 219 2103 620 2525 
Q 1022 2947 1584 2947 
Q 2006 2947 2278 2723 
Q 2550 2500 2550 2259 
Q 2550 2141 2473 2067 
Q 2397 1994 2259 1994 
Q 2075 1994 1981 2113 
Q 1928 2178 1911 2362 
Q 1894 2547 1784 2644 
Q 1675 2738 1481 2738 
Q 1169 2738 978 2506 
Q 725 2200 725 1697 
Q 725 1184 976 792 
Q 1228 400 1656 400 
Q 1963 400 2206 609 
Q 2378 753 2541 1131 
L 2631 1088 
z
" transform="scale(0.015625)"/>
      <path id="STIXGeneral-Regular-2212" d="M 3974 1408 
L 410 1408 
L 410 1830 
L 3974 1830 
L 3974 1408 
z
" transform="scale(0.015625)"/>
     </defs>
     <use xlink:href="#TimesNewRomanPSMT-28" transform="translate(0 0.5625)"/>
     <use xlink:href="#TimesNewRomanPSMT-63" transform="translate(33.300781 0.5625)"/>
     <use xlink:href="#TimesNewRomanPSMT-29" transform="translate(77.685547 0.5625)"/>
     <use xlink:href="#TimesNewRomanPSMT-20" transform="translate(110.986328 0.5625)"/>
     <use xlink:href="#STIXGeneral-Regular-394" transform="translate(135.986328 0.5625)"/>
     <use xlink:href="#STIXGeneral-Italic-3b8" transform="translate(208.18631 0.5625)"/>
     <use xlink:href="#STIXGeneral-Regular-3d" transform="translate(270.626291 0.5625)"/>
     <use xlink:href="#STIXGeneral-Regular-2212" transform="translate(353.566272 0.5625)"/>
     <use xlink:href="#STIXGeneral-Regular-30" transform="translate(422.066257 0.5625)"/>
     <use xlink:href="#STIXGeneral-Regular-2e" transform="translate(472.066241 0.5625)"/>
     <use xlink:href="#STIXGeneral-Regular-31" transform="translate(497.066226 0.5625)"/>
     <use xlink:href="#STIXGeneral-Regular-35" transform="translate(547.066211 0.5625)"/>
    </g>
   </g>
  </g>
  <g id="axes_4">
   <g id="patch_14">
    <path d="M 7.2 753.1 
L 350 753.1 
L 350 428.615 
L 7.2 428.615 
z
" style="fill: #ffffff"/>
   </g>
   <g id="patch_15">
    <path d="M 67.465568 582.979266 
L 67.458704 588.068408 
L 67.465005 591.261928 
L 67.484149 593.525224 
L 67.515914 595.783937 
L 67.560663 598.024568 
L 67.617992 600.26685 
L 67.688004 602.504658 
L 67.770674 604.737513 
L 67.865971 606.964882 
L 67.973865 609.186211 
L 68.094319 611.400925 
L 68.227298 613.608441 
L 68.372761 615.80817 
L 68.530666 617.999519 
L 68.700967 620.181896 
L 68.883484 622.35603 
L 69.07843 624.518604 
L 69.285622 626.67044 
L 69.505002 628.810948 
L 69.736513 630.939539 
L 69.98023 633.054635 
L 70.235818 635.157679 
L 70.503345 637.24705 
L 70.782742 639.322168 
L 71.073939 641.382455 
L 71.37686 643.427337 
L 71.691429 645.45624 
L 72.017566 647.468595 
L 72.355188 649.463834 
L 72.704211 651.441393 
L 73.064546 653.400708 
L 73.436104 655.34122 
L 73.818791 657.262373 
L 74.21251 659.163612 
L 75.032647 662.90415 
L 75.458859 664.742355 
L 75.89569 666.558462 
L 76.343032 668.351933 
L 76.800769 670.122233 
L 77.268787 671.86883 
L 77.746965 673.591198 
L 78.235182 675.288813 
L 78.733313 676.961156 
L 79.241229 678.607711 
L 79.7588 680.227968 
L 80.285891 681.82142 
L 80.822365 683.387564 
L 81.368081 684.925905 
L 81.922897 686.43595 
L 82.486665 687.917212 
L 83.059236 689.369209 
L 83.640456 690.791467 
L 84.230171 692.183514 
L 84.82822 693.544887 
L 85.434442 694.875127 
L 86.04867 696.173784 
L 86.670736 697.440414 
L 87.300468 698.674577 
L 87.93769 699.875845 
L 88.582225 701.043794 
L 89.233891 702.178008 
L 89.892503 703.278082 
L 90.557873 704.343616 
L 91.22981 705.37422 
L 91.908121 706.369512 
L 92.592608 707.329121 
L 93.28307 708.252683 
L 93.979305 709.139846 
L 94.681107 709.990267 
L 95.388265 710.803613 
L 96.100569 711.579562 
L 96.817803 712.317803 
L 97.539749 713.018036 
L 98.266188 713.679974 
L 98.996896 714.303339 
L 99.731648 714.887868 
L 100.470217 715.433309 
L 101.212372 715.939423 
L 101.957314 716.406393 
L 102.706514 716.832779 
L 103.458034 717.219608 
L 104.212205 717.566287 
L 104.968795 717.872644 
L 105.727573 718.138522 
L 106.488315 718.363779 
L 107.250817 718.548284 
L 108.014919 718.691924 
L 108.780605 718.794594 
L 109.548499 718.85619 
L 110.340193 718.876435 
L 195.191093 717.457134 
L 223.583684 715.393361 
L 239.266449 713.304916 
L 241.730863 712.874252 
L 242.508503 712.68619 
L 243.284312 712.456526 
L 244.059946 712.185482 
L 244.831697 711.872232 
L 245.602967 711.517707 
L 246.372313 711.121712 
L 247.139478 710.684358 
L 247.904202 710.205777 
L 248.666217 709.686123 
L 249.425259 709.125564 
L 250.181059 708.524291 
L 250.933351 707.882512 
L 251.681868 707.200455 
L 252.426348 706.478365 
L 253.166526 705.716506 
L 253.902143 704.91516 
L 254.632938 704.074626 
L 255.358657 703.195222 
L 256.079044 702.277281 
L 256.793851 701.321154 
L 257.502828 700.327209 
L 258.205731 699.29583 
L 258.902319 698.227415 
L 259.592355 697.12238 
L 260.275604 695.981153 
L 260.951837 694.804178 
L 261.620827 693.591912 
L 262.282353 692.344827 
L 262.936196 691.063408 
L 263.582144 689.748149 
L 264.219988 688.39956 
L 264.849523 687.018161 
L 265.47055 685.604483 
L 266.082873 684.159066 
L 266.686303 682.682462 
L 267.280653 681.175232 
L 267.865744 679.637946 
L 268.4414 678.07118 
L 269.007449 676.475521 
L 269.563727 674.851563 
L 270.110072 673.199904 
L 270.646329 671.521152 
L 271.172346 669.815918 
L 271.687978 668.084821 
L 272.193083 666.328483 
L 272.687526 664.547532 
L 273.171176 662.742599 
L 273.643906 660.914318 
L 274.105594 659.06333 
L 274.556124 657.190273 
L 274.995385 655.295793 
L 275.423268 653.380536 
L 275.839671 651.445148 
L 276.244497 649.49028 
L 276.637651 647.516582 
L 277.019045 645.524704 
L 277.388593 643.515298 
L 277.746216 641.489017 
L 278.091837 639.446512 
L 278.425385 637.388435 
L 278.746792 635.315437 
L 279.055993 633.228168 
L 279.352929 631.127278 
L 279.637544 629.013416 
L 279.909786 626.887228 
L 280.169606 624.749361 
L 280.416961 622.600459 
L 280.651807 620.441164 
L 280.874109 618.272115 
L 281.083831 616.093949 
L 281.280943 613.907297 
L 281.465418 611.712785 
L 281.637231 609.511029 
L 281.79636 607.302634 
L 281.942789 605.088367 
L 282.076501 602.868692 
L 282.197485 600.64426 
L 282.305732 598.415669 
L 282.401236 596.183502 
L 282.483992 593.948316 
L 282.554001 591.710635 
L 282.611265 589.470931 
L 282.655787 587.229147 
L 282.687578 584.983512 
L 282.70665 582.72789 
L 282.71411 577.351187 
L 282.70787 574.456746 
L 282.68885 572.208506 
L 282.657164 569.970484 
L 282.612838 567.738708 
L 282.555896 565.511552 
L 282.486366 563.289135 
L 282.404275 561.071919 
L 282.309657 558.860403 
L 282.202543 556.655114 
L 282.082969 554.456594 
L 281.950974 552.265395 
L 281.806596 550.082098 
L 281.649879 547.907172 
L 281.480867 545.741281 
L 281.299605 543.584971 
L 281.106142 541.438793 
L 280.90053 539.303298 
L 280.682821 537.179045 
L 280.45307 535.06659 
L 280.211335 532.966488 
L 279.957674 530.879296 
L 279.692151 528.805566 
L 279.414827 526.745851 
L 279.125771 524.700701 
L 278.825049 522.670665 
L 278.512734 520.65629 
L 278.188896 518.658121 
L 277.853613 516.676702 
L 277.506961 514.712576 
L 277.149021 512.766282 
L 276.779874 510.83836 
L 276.399607 508.929347 
L 276.008305 507.039779 
L 275.606059 505.170189 
L 275.192962 503.32111 
L 274.769108 501.493071 
L 274.334595 499.686602 
L 273.889524 497.902229 
L 273.433996 496.140475 
L 272.968119 494.401863 
L 272.492001 492.686914 
L 272.005753 490.996144 
L 271.50949 489.33007 
L 271.003329 487.689202 
L 270.48739 486.074053 
L 269.961797 484.485128 
L 269.426676 482.922932 
L 268.882157 481.387966 
L 268.328373 479.880727 
L 267.76546 478.40171 
L 267.193557 476.951404 
L 266.612806 475.530296 
L 266.023354 474.138868 
L 265.425351 472.777598 
L 264.818949 471.446959 
L 264.204304 470.14742 
L 263.581576 468.879442 
L 262.95093 467.643485 
L 262.312531 466.439999 
L 261.666551 465.26943 
L 261.013164 464.132218 
L 260.352548 463.028795 
L 259.684884 461.959588 
L 259.010358 460.925013 
L 258.329159 459.925481 
L 257.64148 458.961396 
L 256.947517 458.03315 
L 256.24747 457.141128 
L 255.541543 456.285707 
L 254.829944 455.467252 
L 254.112883 454.68612 
L 253.390575 453.942654 
L 252.663239 453.237191 
L 251.931096 452.570053 
L 251.19437 451.941552 
L 250.453291 451.351987 
L 249.708089 450.801645 
L 248.958999 450.2908 
L 248.206259 449.819712 
L 247.450108 449.388627 
L 246.690788 448.997778 
L 245.928542 448.647383 
L 245.164389 448.337196 
L 244.397129 448.068295 
L 243.626679 447.840872 
L 242.855135 447.654167 
L 242.081805 447.508778 
L 241.306782 447.404832 
L 240.529714 447.342454 
L 239.739147 447.321885 
L 157.820558 448.721262 
L 128.334196 450.848042 
L 108.803 453.221561 
L 108.034553 453.365919 
L 107.267758 453.551413 
L 106.502231 453.778055 
L 105.738047 454.045807 
L 104.97539 454.354607 
L 104.214483 454.704372 
L 103.455563 455.095004 
L 102.698878 455.526384 
L 101.944677 455.99838 
L 101.193213 456.510839 
L 100.444736 457.063596 
L 99.699499 457.656464 
L 98.957754 458.289245 
L 98.219751 458.96172 
L 97.485739 459.673656 
L 96.755966 460.424804 
L 96.030677 461.214898 
L 95.310117 462.043659 
L 94.594527 462.910789 
L 93.884147 463.815977 
L 93.179213 464.758897 
L 92.47996 465.739208 
L 91.78662 466.756554 
L 91.099421 467.810565 
L 90.41859 468.900859 
L 89.744349 470.027039 
L 89.076918 471.188695 
L 88.416512 472.385403 
L 87.763345 473.616729 
L 87.117626 474.882226 
L 86.479561 476.181434 
L 85.84935 477.513883 
L 85.227193 478.879091 
L 84.613284 480.276566 
L 84.007813 481.705807 
L 83.410967 483.166301 
L 82.822928 484.657526 
L 82.243873 486.178951 
L 81.673978 487.730038 
L 81.113412 489.310237 
L 80.562341 490.918995 
L 80.020927 492.555746 
L 79.489327 494.219922 
L 78.967693 495.910943 
L 78.456176 497.628228 
L 77.954918 499.371186 
L 77.464061 501.139221 
L 76.983739 502.931733 
L 76.514086 504.748116 
L 76.055228 506.587759 
L 75.607287 508.450046 
L 75.170384 510.33436 
L 74.744632 512.240077 
L 74.330142 514.166572 
L 73.92702 516.113214 
L 73.535368 518.079373 
L 73.155284 520.064412 
L 72.786861 522.067696 
L 72.43019 524.088585 
L 72.085355 526.126439 
L 71.75244 528.180615 
L 71.431521 530.25047 
L 71.122672 532.33536 
L 70.825823 534.433776 
L 70.541322 536.546758 
L 70.26909 538.672834 
L 70.009186 540.811356 
L 69.761664 542.961676 
L 69.526576 545.123148 
L 69.304104 547.296288 
L 69.094022 549.478196 
L 68.896507 551.669328 
L 68.711596 553.86904 
L 68.539321 556.076691 
L 68.379715 558.291644 
L 68.232803 560.513261 
L 68.098611 562.740911 
L 67.977157 564.97397 
L 67.86846 567.211819 
L 67.772535 569.453858 
L 67.689391 571.699504 
L 67.619037 573.948205 
L 67.561352 576.19473 
L 67.51659 578.447086 
L 67.484747 580.711353 
z
" clip-path="url(#p9812e57c06)" style="fill: #1f77b4; opacity: 0.35; stroke: #00008b; stroke-width: 1.5; stroke-linejoin: miter"/>
   </g>
   <g id="patch_16">
    <path d="M 66.251273 612.919002 
L 73.358367 662.38945 
L 78.601903 679.452803 
L 90.899116 700.024811 
L 106.071984 716.076876 
L 209.721804 712.958163 
L 237.398352 698.497475 
L 241.281474 688.537035 
L 256.835205 631.155887 
L 257.462619 569.439157 
L 250.722563 508.942029 
L 240.227776 470.160523 
L 239.065481 467.184929 
L 230.97644 458.460649 
L 98.169703 465.747453 
L 88.607267 475.776669 
L 74.022468 510.190664 
L 66.508569 545.863131 
L 65.824637 554.326269 
z
" clip-path="url(#p9812e57c06)" style="fill: #ff7f0e; opacity: 0.35; stroke: #ff8c00; stroke-width: 1.5; stroke-linejoin: miter"/>
   </g>
   <g id="patch_17">
    <path d="M 96.829666 620.207283 
L 111.704203 661.970841 
L 119.194131 668.753104 
L 233.152384 656.524478 
L 251.756817 622.802448 
L 255.784289 601.498355 
L 256.915727 567.904978 
L 248.839967 522.637911 
L 237.34622 502.153379 
L 120.367117 501.083893 
L 119.839263 501.553791 
L 102.422099 536.920045 
z
" clip-path="url(#p9812e57c06)" style="fill: #d62728; opacity: 0.35; stroke: #8b0000; stroke-width: 1.5; stroke-linejoin: miter"/>
   </g>
   <g id="matplotlib.axis_7"/>
   <g id="matplotlib.axis_8"/>
   <g id="text_4">
    <!-- (d) $\Delta\theta=+0.30$ -->
    <g transform="translate(139.405 425.755) scale(0.13 -0.13)">
     <defs>
      <path id="TimesNewRomanPSMT-64" d="M 2222 322 
Q 2013 103 1813 7 
Q 1613 -88 1381 -88 
Q 913 -88 563 304 
Q 213 697 213 1313 
Q 213 1928 600 2439 
Q 988 2950 1597 2950 
Q 1975 2950 2222 2709 
L 2222 3238 
Q 2222 3728 2198 3840 
Q 2175 3953 2125 3993 
Q 2075 4034 2000 4034 
Q 1919 4034 1784 3984 
L 1744 4094 
L 2597 4444 
L 2738 4444 
L 2738 1134 
Q 2738 631 2761 520 
Q 2784 409 2836 365 
Q 2888 322 2956 322 
Q 3041 322 3181 375 
L 3216 266 
L 2366 -88 
L 2222 -88 
L 2222 322 
z
M 2222 541 
L 2222 2016 
Q 2203 2228 2109 2403 
Q 2016 2578 1861 2667 
Q 1706 2756 1559 2756 
Q 1284 2756 1069 2509 
Q 784 2184 784 1559 
Q 784 928 1059 592 
Q 1334 256 1672 256 
Q 1956 256 2222 541 
z
" transform="scale(0.015625)"/>
      <path id="STIXGeneral-Regular-33" d="M 390 3264 
L 288 3290 
Q 435 3770 748 4048 
Q 1062 4326 1542 4326 
Q 1990 4326 2265 4083 
Q 2541 3840 2541 3450 
Q 2541 2925 1946 2566 
Q 2298 2413 2477 2227 
Q 2758 1914 2758 1402 
Q 2758 890 2464 506 
Q 2246 211 1840 60 
Q 1434 -90 979 -90 
Q 262 -90 262 275 
Q 262 378 339 442 
Q 416 506 525 506 
Q 685 506 915 339 
Q 1197 141 1466 141 
Q 1818 141 2058 425 
Q 2298 710 2298 1120 
Q 2298 1856 1632 2048 
Q 1434 2112 979 2112 
L 979 2202 
Q 1338 2323 1517 2432 
Q 2035 2726 2035 3290 
Q 2035 3610 1852 3776 
Q 1670 3942 1344 3942 
Q 768 3942 390 3264 
z
" transform="scale(0.015625)"/>
     </defs>
     <use xlink:href="#TimesNewRomanPSMT-28" transform="translate(0 0.5625)"/>
     <use xlink:href="#TimesNewRomanPSMT-64" transform="translate(33.300781 0.5625)"/>
     <use xlink:href="#TimesNewRomanPSMT-29" transform="translate(83.300781 0.5625)"/>
     <use xlink:href="#TimesNewRomanPSMT-20" transform="translate(116.601562 0.5625)"/>
     <use xlink:href="#STIXGeneral-Regular-394" transform="translate(141.601562 0.5625)"/>
     <use xlink:href="#STIXGeneral-Italic-3b8" transform="translate(213.801544 0.5625)"/>
     <use xlink:href="#STIXGeneral-Regular-3d" transform="translate(276.241525 0.5625)"/>
     <use xlink:href="#STIXGeneral-Regular-2b" transform="translate(359.181506 0.5625)"/>
     <use xlink:href="#STIXGeneral-Regular-30" transform="translate(427.681491 0.5625)"/>
     <use xlink:href="#STIXGeneral-Regular-2e" transform="translate(477.681476 0.5625)"/>
     <use xlink:href="#STIXGeneral-Regular-33" transform="translate(502.681461 0.5625)"/>
     <use xlink:href="#STIXGeneral-Regular-30" transform="translate(552.681445 0.5625)"/>
    </g>
   </g>
  </g>
  <g id="axes_5">
   <g id="patch_18">
    <path d="M 365 753.1 
L 707.8 753.1 
L 707.8 428.615 
L 365 428.615 
z
" style="fill: #ffffff"/>
   </g>
   <g id="patch_19">
    <path d="M 383.780869 591.027724 
L 383.785995 593.393112 
L 383.80109 595.179915 
L 383.826111 596.963336 
L 383.861425 598.729544 
L 383.906637 600.498211 
L 383.961855 602.263266 
L 384.027058 604.02449 
L 384.102226 605.781469 
L 384.187333 607.533745 
L 384.282352 609.280856 
L 384.387253 611.022335 
L 384.502007 612.757707 
L 384.626577 614.486496 
L 384.760929 616.208227 
L 384.905024 617.922422 
L 385.058822 619.628603 
L 385.222279 621.326295 
L 385.395215 623.016125 
L 385.577852 624.695359 
L 385.770006 626.36469 
L 385.971626 628.023647 
L 386.182656 629.671762 
L 386.403041 631.308567 
L 386.632863 632.932776 
L 386.871781 634.5456 
L 387.11987 636.145727 
L 387.377065 637.732699 
L 387.643299 639.306061 
L 387.918502 640.865359 
L 388.202601 642.410144 
L 388.495521 643.939968 
L 388.797187 645.454387 
L 389.107518 646.952957 
L 389.426434 648.435241 
L 389.75385 649.900801 
L 390.089681 651.349204 
L 390.433838 652.780022 
L 390.78623 654.192826 
L 391.146764 655.587193 
L 391.515345 656.962704 
L 391.891874 658.318941 
L 392.276253 659.655493 
L 392.668378 660.971949 
L 393.068144 662.267905 
L 393.475444 663.542959 
L 393.890169 664.796715 
L 394.312205 666.02878 
L 394.74144 667.238767 
L 395.177756 668.426289 
L 395.621034 669.59097 
L 396.071152 670.732435 
L 396.527986 671.850315 
L 396.99141 672.944246 
L 397.461294 674.01387 
L 397.937509 675.058833 
L 398.41992 676.078788 
L 398.908391 677.073394 
L 399.402784 678.042315 
L 399.902958 678.985222 
L 400.40877 679.901792 
L 400.920076 680.79171 
L 401.436727 681.654665 
L 401.958574 682.490356 
L 402.485465 683.298486 
L 403.017244 684.078768 
L 403.553757 684.830922 
L 404.094843 685.554675 
L 404.640343 686.249762 
L 405.190093 686.915928 
L 405.743928 687.552922 
L 406.301682 688.160507 
L 406.863186 688.738451 
L 407.428269 689.286533 
L 407.996758 689.804539 
L 408.56848 690.292267 
L 409.143258 690.749522 
L 409.720915 691.17612 
L 410.301273 691.571887 
L 410.884152 691.936659 
L 411.469372 692.270282 
L 412.056752 692.572612 
L 412.646112 692.843516 
L 413.237272 693.082873 
L 413.83006 693.290569 
L 414.424311 693.466506 
L 415.01988 693.610592 
L 415.616677 693.722748 
L 416.214775 693.8029 
L 416.815008 693.850971 
L 417.446745 693.866674 
L 494.244457 692.513516 
L 512.814337 691.080487 
L 519.422012 690.285148 
L 520.024514 690.171217 
L 520.628914 690.025058 
L 521.232113 689.846508 
L 521.834201 689.635575 
L 522.436026 689.392633 
L 523.035405 689.117087 
L 523.632525 688.808982 
L 524.228729 688.469103 
L 524.822993 688.09721 
L 525.415118 687.693421 
L 526.004904 687.257867 
L 526.592152 686.790692 
L 527.176663 686.292055 
L 527.758237 685.762125 
L 528.336676 685.201088 
L 528.911784 684.60914 
L 529.483364 683.986492 
L 530.051224 683.333366 
L 530.61517 682.649997 
L 531.175011 681.936634 
L 531.730559 681.193535 
L 532.281628 680.420972 
L 532.828032 679.619229 
L 533.36959 678.788601 
L 533.906122 677.929392 
L 534.43745 677.041919 
L 534.9634 676.126511 
L 535.483801 675.183505 
L 535.998482 674.213248 
L 536.507277 673.216099 
L 537.010024 672.192423 
L 537.506562 671.142597 
L 537.996734 670.067007 
L 538.480385 668.966044 
L 538.957365 667.840112 
L 539.427526 666.689618 
L 539.890725 665.514981 
L 540.346819 664.316624 
L 540.795672 663.094979 
L 541.237148 661.850482 
L 541.671119 660.583578 
L 542.097456 659.294715 
L 542.516035 657.984349 
L 542.926737 656.652942 
L 543.329444 655.300957 
L 543.724044 653.928866 
L 544.110426 652.537142 
L 544.488484 651.126263 
L 544.858115 649.696712 
L 545.21922 648.248975 
L 545.571704 646.78354 
L 545.915473 645.300899 
L 546.250439 643.801546 
L 546.576516 642.285978 
L 546.893622 640.754695 
L 547.201678 639.208196 
L 547.500609 637.646985 
L 547.790342 636.071565 
L 548.070809 634.482442 
L 548.341943 632.880123 
L 548.603682 631.265114 
L 548.855968 629.637925 
L 549.098742 627.999063 
L 549.331953 626.349037 
L 549.55555 624.688355 
L 549.769485 623.017526 
L 549.973716 621.337058 
L 550.168199 619.647456 
L 550.352897 617.949226 
L 550.527775 616.24287 
L 550.692798 614.528888 
L 550.847938 612.807771 
L 550.993167 611.080151 
L 551.128459 609.346375 
L 551.253794 607.606994 
L 551.36915 605.862503 
L 551.474512 604.113393 
L 551.569865 602.360151 
L 551.655197 600.603253 
L 551.730498 598.843167 
L 551.795761 597.080351 
L 551.850981 595.31523 
L 551.896156 593.548023 
L 551.931286 591.777891 
L 551.956373 590.005427 
L 551.971424 588.22337 
L 551.976959 584.192485 
L 551.972039 581.719482 
L 551.957019 579.941696 
L 551.931996 578.173667 
L 551.896987 576.409893 
L 551.85201 574.650426 
L 551.797083 572.894679 
L 551.73223 571.142896 
L 551.657472 569.39549 
L 551.572836 567.652897 
L 551.478349 565.915559 
L 551.374041 564.183923 
L 551.259942 562.458446 
L 551.136087 560.739582 
L 551.002511 559.027789 
L 550.859251 557.323566 
L 550.706347 555.627247 
L 550.54384 553.939398 
L 550.371774 552.260461 
L 550.190193 550.590889 
L 549.999146 548.931129 
L 549.798681 547.281633 
L 549.588849 545.642849 
L 549.369704 544.015226 
L 549.141301 542.39921 
L 548.903698 540.795249 
L 548.656953 539.203787 
L 548.401128 537.625265 
L 548.136285 536.060125 
L 547.862492 534.508807 
L 547.579814 532.971748 
L 547.288322 531.449382 
L 546.988087 529.942143 
L 546.679183 528.450463 
L 546.361686 526.97477 
L 546.035674 525.515492 
L 545.701227 524.073053 
L 545.358428 522.647877 
L 545.007361 521.240382 
L 544.648113 519.850987 
L 544.280774 518.480108 
L 543.905434 517.128156 
L 543.522189 515.795542 
L 543.131133 514.482673 
L 542.732366 513.189954 
L 542.325988 511.917785 
L 541.912103 510.666563 
L 541.490816 509.436685 
L 541.062236 508.228542 
L 540.626472 507.042521 
L 540.183639 505.879006 
L 539.733852 504.738377 
L 539.277228 503.621011 
L 538.81389 502.527279 
L 538.343959 501.457548 
L 537.867561 500.412182 
L 537.384826 499.391539 
L 536.895883 498.395972 
L 536.400868 497.425828 
L 535.899914 496.48145 
L 535.393163 495.563176 
L 534.880753 494.671336 
L 534.362831 493.806256 
L 533.839542 492.968255 
L 533.311036 492.157644 
L 532.777463 491.374729 
L 532.238979 490.619809 
L 531.695741 489.893175 
L 531.147906 489.195112 
L 530.595639 488.525894 
L 530.039102 487.88579 
L 529.478463 487.27506 
L 528.91389 486.693954 
L 528.345555 486.142716 
L 527.773631 485.621578 
L 527.198295 485.130765 
L 526.619724 484.67049 
L 526.038098 484.240958 
L 525.453598 483.842364 
L 524.866408 483.474891 
L 524.276713 483.138714 
L 523.685338 482.833561 
L 523.091259 482.560447 
L 522.494447 482.319521 
L 521.896579 482.110038 
L 521.297119 481.932551 
L 520.696224 481.787166 
L 520.094014 481.673979 
L 519.490486 481.593077 
L 518.888585 481.544001 
L 518.261959 481.528632 
L 440.190823 483.040043 
L 418.732867 484.859112 
L 416.093939 485.130119 
L 415.494531 485.242695 
L 414.894857 485.387039 
L 414.299301 485.564118 
L 413.703312 485.772921 
L 413.108561 486.013719 
L 412.515215 486.286448 
L 411.923452 486.591027 
L 411.333458 486.927367 
L 410.745422 487.295363 
L 410.159535 487.694898 
L 409.575987 488.125844 
L 408.994494 488.587691 
L 408.416676 489.081394 
L 407.841293 489.605681 
L 407.269013 490.160743 
L 406.700022 490.746393 
L 406.134509 491.362431 
L 405.572658 492.008644 
L 405.014655 492.68481 
L 404.460683 493.390694 
L 403.910921 494.126051 
L 403.36555 494.890625 
L 402.824746 495.684148 
L 402.288685 496.506344 
L 401.75754 497.356924 
L 401.231483 498.235591 
L 400.710681 499.142036 
L 400.195302 500.075943 
L 399.68551 501.036982 
L 399.181465 502.02482 
L 398.683327 503.039109 
L 398.191252 504.079496 
L 397.705395 505.145619 
L 397.225905 506.237106 
L 396.752932 507.353579 
L 396.286621 508.49465 
L 395.827114 509.659925 
L 395.37455 510.849004 
L 394.929067 512.061476 
L 394.490799 513.296928 
L 394.059875 514.554936 
L 393.636423 515.835074 
L 393.220569 517.136906 
L 392.812434 518.459993 
L 392.412135 519.803891 
L 392.019788 521.168148 
L 391.635506 522.552308 
L 391.259397 523.955913 
L 390.891566 525.378496 
L 390.532118 526.81959 
L 390.18115 528.278721 
L 389.838761 529.755412 
L 389.505041 531.249183 
L 389.180083 532.759551 
L 388.863972 534.286028 
L 388.556792 535.828125 
L 388.258624 537.38535 
L 387.969546 538.957208 
L 387.689631 540.543201 
L 387.418952 542.14283 
L 387.157576 543.755594 
L 386.905569 545.380989 
L 386.66285 547.017695 
L 386.429765 548.666808 
L 386.206226 550.327035 
L 385.992286 551.997865 
L 385.787997 553.67879 
L 385.593404 555.3693 
L 385.408553 557.068884 
L 385.233485 558.777032 
L 385.068373 560.494467 
L 384.912985 562.218291 
L 384.767488 563.949157 
L 384.631912 565.686556 
L 384.506286 567.429983 
L 384.390635 569.178932 
L 384.28498 570.932902 
L 384.189341 572.691397 
L 384.103735 574.453928 
L 384.028178 576.220013 
L 383.962679 577.989178 
L 383.907249 579.761001 
L 383.861769 581.530621 
L 383.826494 583.305799 
L 383.801424 585.092693 
L 383.786308 586.882338 
z
" clip-path="url(#pb369ba4f2e)" style="fill: #1f77b4; opacity: 0.35; stroke: #00008b; stroke-width: 1.5; stroke-linejoin: miter"/>
   </g>
   <g id="patch_20">
    <path d="M 389.723399 596.436411 
L 391.046422 622.007943 
L 396.851398 656.745516 
L 406.582981 683.136861 
L 412.009631 689.419102 
L 527.912721 679.114843 
L 546.69796 644.225429 
L 554.455963 605.46601 
L 554.951463 593.069739 
L 552.501334 552.77101 
L 547.540595 528.237227 
L 525.164735 487.001639 
L 413.83305 487.418501 
L 401.994369 500.520018 
L 400.860007 502.599221 
L 398.63681 511.297758 
z
" clip-path="url(#pb369ba4f2e)" style="fill: #ff7f0e; opacity: 0.35; stroke: #ff8c00; stroke-width: 1.5; stroke-linejoin: miter"/>
   </g>
   <g id="patch_21">
    <path d="M 409.747828 570.301482 
L 409.295108 588.243865 
L 424.788517 641.902263 
L 518.953042 627.95553 
L 525.075389 616.322598 
L 532.996815 575.655114 
L 525.76973 539.003657 
L 513.63439 516.268466 
L 440.617261 513.398776 
L 417.761858 535.687176 
L 415.239097 541.920952 
z
" clip-path="url(#pb369ba4f2e)" style="fill: #d62728; opacity: 0.35; stroke: #8b0000; stroke-width: 1.5; stroke-linejoin: miter"/>
   </g>
   <g id="matplotlib.axis_9"/>
   <g id="matplotlib.axis_10"/>
   <g id="text_5">
    <!-- (e) $\Delta\theta=-0.30$ -->
    <g transform="translate(497.53 425.755) scale(0.13 -0.13)">
     <defs>
      <path id="TimesNewRomanPSMT-65" d="M 681 1784 
Q 678 1147 991 784 
Q 1303 422 1725 422 
Q 2006 422 2214 576 
Q 2422 731 2563 1106 
L 2659 1044 
Q 2594 616 2278 264 
Q 1963 -88 1488 -88 
Q 972 -88 605 314 
Q 238 716 238 1394 
Q 238 2128 614 2539 
Q 991 2950 1559 2950 
Q 2041 2950 2350 2633 
Q 2659 2316 2659 1784 
L 681 1784 
z
M 681 1966 
L 2006 1966 
Q 1991 2241 1941 2353 
Q 1863 2528 1708 2628 
Q 1553 2728 1384 2728 
Q 1125 2728 920 2526 
Q 716 2325 681 1966 
z
" transform="scale(0.015625)"/>
     </defs>
     <use xlink:href="#TimesNewRomanPSMT-28" transform="translate(0 0.5625)"/>
     <use xlink:href="#TimesNewRomanPSMT-65" transform="translate(33.300781 0.5625)"/>
     <use xlink:href="#TimesNewRomanPSMT-29" transform="translate(77.685547 0.5625)"/>
     <use xlink:href="#TimesNewRomanPSMT-20" transform="translate(110.986328 0.5625)"/>
     <use xlink:href="#STIXGeneral-Regular-394" transform="translate(135.986328 0.5625)"/>
     <use xlink:href="#STIXGeneral-Italic-3b8" transform="translate(208.18631 0.5625)"/>
     <use xlink:href="#STIXGeneral-Regular-3d" transform="translate(270.626291 0.5625)"/>
     <use xlink:href="#STIXGeneral-Regular-2212" transform="translate(353.566272 0.5625)"/>
     <use xlink:href="#STIXGeneral-Regular-30" transform="translate(422.066257 0.5625)"/>
     <use xlink:href="#STIXGeneral-Regular-2e" transform="translate(472.066241 0.5625)"/>
     <use xlink:href="#STIXGeneral-Regular-33" transform="translate(497.066226 0.5625)"/>
     <use xlink:href="#STIXGeneral-Regular-30" transform="translate(547.066211 0.5625)"/>
    </g>
   </g>
  </g>
  <g id="axes_6">
   <g id="patch_22">
    <path d="M 722.8 753.1 
L 1065.6 753.1 
L 1065.6 428.615 
L 722.8 428.615 
z
" style="fill: #ffffff"/>
   </g>
   <g id="patch_23">
    <path d="M 793.46268 581.9615 
L 793.455405 587.373678 
L 793.462038 590.686436 
L 793.482191 593.068236 
L 793.515635 595.445247 
L 793.562732 597.803949 
L 793.623076 600.164133 
L 793.69677 602.519585 
L 793.783786 604.869794 
L 793.884092 607.214206 
L 793.997655 609.552239 
L 794.124438 611.883291 
L 794.264402 614.206751 
L 794.417505 616.522001 
L 794.583702 618.828422 
L 794.762946 621.125392 
L 794.955054 623.413613 
L 795.160237 625.68974 
L 795.378308 627.954568 
L 795.609209 630.207478 
L 795.853014 632.446811 
L 796.109389 634.67409 
L 796.378402 636.887605 
L 796.659985 639.086748 
L 796.954065 641.270911 
L 797.260567 643.43949 
L 797.579415 645.591881 
L 797.910527 647.727485 
L 798.253821 649.845704 
L 798.609212 651.945944 
L 798.976609 654.027613 
L 799.355923 656.09012 
L 799.747059 658.132879 
L 800.149919 660.155305 
L 800.564403 662.156818 
L 800.990409 664.136838 
L 801.42783 666.094791 
L 801.876558 668.030105 
L 802.33648 669.94221 
L 802.807482 671.830542 
L 803.289446 673.694537 
L 803.782251 675.533638 
L 804.285772 677.347289 
L 804.799883 679.134941 
L 805.324453 680.896045 
L 805.859348 682.630059 
L 806.404432 684.336446 
L 806.959564 686.01467 
L 807.524602 687.664203 
L 808.099399 689.28452 
L 808.683806 690.875103 
L 809.277668 692.435436 
L 809.880831 693.965012 
L 810.493133 695.463327 
L 811.114413 696.929885 
L 811.744503 698.364194 
L 812.383233 699.76577 
L 813.030431 701.134135 
L 813.68592 702.468819 
L 814.349519 703.769357 
L 815.021045 705.035293 
L 815.700312 706.266179 
L 816.387128 707.461574 
L 817.081301 708.621044 
L 817.782632 709.744168 
L 818.490922 710.83053 
L 819.205967 711.879723 
L 819.92756 712.891352 
L 820.655489 713.865032 
L 821.389542 714.800384 
L 822.129502 715.697045 
L 822.875147 716.554658 
L 823.626256 717.372881 
L 824.382602 718.151381 
L 825.143955 718.889837 
L 825.910083 719.587942 
L 826.680751 720.245399 
L 827.455721 720.861925 
L 828.234754 721.437251 
L 829.017606 721.97112 
L 829.803466 722.4637 
L 830.593171 722.913944 
L 831.386621 723.32163 
L 832.182286 723.687386 
L 832.980535 724.010615 
L 833.781121 724.291147 
L 834.583806 724.528828 
L 835.388372 724.723519 
L 836.19464 724.875093 
L 837.002573 724.98344 
L 837.81275 725.048446 
L 838.645339 725.069835 
L 925.261992 723.649256 
L 956.676836 721.35178 
L 972.683539 719.199595 
L 977.298317 718.395781 
L 978.120096 718.19705 
L 978.93969 717.954422 
L 979.757828 717.667774 
L 980.574426 717.337137 
L 981.389267 716.962581 
L 982.202096 716.5442 
L 983.012639 716.082114 
L 983.820618 715.576461 
L 984.625749 715.027402 
L 985.427748 714.435116 
L 986.226329 713.799807 
L 987.021209 713.121695 
L 987.812103 712.401023 
L 988.59873 711.638052 
L 989.380809 710.833064 
L 990.158062 709.986359 
L 990.930213 709.098258 
L 991.696989 708.1691 
L 992.45812 707.199241 
L 993.213339 706.189058 
L 993.962381 705.138944 
L 994.704986 704.049308 
L 995.440898 702.920579 
L 996.169864 701.753199 
L 996.891635 700.547629 
L 997.605966 699.304344 
L 998.312618 698.023832 
L 999.011354 696.7066 
L 999.701944 695.353163 
L 1000.384161 693.964054 
L 1001.057784 692.539817 
L 1001.722597 691.081007 
L 1002.378388 689.588193 
L 1003.02495 688.061952 
L 1003.662084 686.502875 
L 1004.289592 684.911559 
L 1004.907285 683.288613 
L 1005.514978 681.634653 
L 1006.112489 679.950306 
L 1006.699645 678.236203 
L 1007.276277 676.492984 
L 1007.842222 674.721295 
L 1008.397319 672.921788 
L 1008.941418 671.095122 
L 1009.47437 669.241959 
L 1009.996033 667.362965 
L 1010.506269 665.458813 
L 1011.004947 663.530177 
L 1011.491941 661.577735 
L 1011.967129 659.602167 
L 1012.430395 657.604157 
L 1012.881626 655.58439 
L 1013.320718 653.543552 
L 1013.747568 651.48233 
L 1014.16208 649.401414 
L 1014.564162 647.301491 
L 1014.953726 645.183252 
L 1015.330691 643.047385 
L 1015.694977 640.894578 
L 1016.046511 638.725521 
L 1016.385225 636.540899 
L 1016.711052 634.3414 
L 1017.023932 632.127707 
L 1017.323808 629.900505 
L 1017.610627 627.660473 
L 1017.88434 625.408293 
L 1018.144903 623.144642 
L 1018.392274 620.870195 
L 1018.626416 618.585627 
L 1018.847294 616.291605 
L 1019.054877 613.988794 
L 1019.24914 611.677854 
L 1019.430059 609.359435 
L 1019.597612 607.034177 
L 1019.751783 604.702696 
L 1019.892558 602.365895 
L 1020.019925 600.024118 
L 1020.133878 597.67809 
L 1020.23441 595.328419 
L 1020.32152 592.975691 
L 1020.395208 590.620451 
L 1020.455478 588.263198 
L 1020.502336 585.903993 
L 1020.535794 583.540866 
L 1020.555865 581.167594 
L 1020.564051 575.140765 
L 1020.557286 572.455702 
L 1020.537271 570.090678 
L 1020.503931 567.736064 
L 1020.457291 565.38793 
L 1020.397378 563.044619 
L 1020.324222 560.706346 
L 1020.237852 558.373592 
L 1020.138304 556.046876 
L 1020.025611 553.726747 
L 1019.899812 551.413773 
L 1019.760945 549.108589 
L 1019.609055 546.811587 
L 1019.444184 544.523538 
L 1019.266379 542.244996 
L 1019.075688 539.976539 
L 1018.872163 537.718739 
L 1018.655857 535.472178 
L 1018.426824 533.237437 
L 1018.185122 531.015102 
L 1017.930811 528.805749 
L 1017.663952 526.609959 
L 1017.38461 524.42831 
L 1017.092851 522.261378 
L 1016.788743 520.109739 
L 1016.472357 517.973964 
L 1016.143767 515.854625 
L 1015.803048 513.752292 
L 1015.450278 511.667534 
L 1015.085538 509.600917 
L 1014.708909 507.553007 
L 1014.320477 505.524367 
L 1013.920331 503.515559 
L 1013.508559 501.527146 
L 1013.085256 499.559685 
L 1012.650517 497.613734 
L 1012.20444 495.68985 
L 1011.747125 493.788585 
L 1011.278677 491.910493 
L 1010.799203 490.056123 
L 1010.308811 488.226025 
L 1009.807614 486.420744 
L 1009.295727 484.640824 
L 1008.773269 482.886809 
L 1008.240362 481.159236 
L 1007.697129 479.458643 
L 1007.143699 477.785565 
L 1006.580203 476.140532 
L 1006.006775 474.524073 
L 1005.423554 472.936713 
L 1004.830679 471.378975 
L 1004.228296 469.851375 
L 1003.616553 468.354428 
L 1002.995603 466.888646 
L 1002.365599 465.454532 
L 1001.726702 464.05259 
L 1001.079074 462.683314 
L 1000.422882 461.347197 
L 999.758296 460.044724 
L 999.08549 458.776375 
L 998.404643 457.542624 
L 997.715937 456.343939 
L 997.019557 455.18078 
L 996.315694 454.053602 
L 995.604542 452.962849 
L 994.886298 451.90896 
L 994.161164 450.892366 
L 993.429347 449.913486 
L 992.691057 448.972732 
L 991.946507 448.070508 
L 991.195915 447.207205 
L 990.439505 446.383205 
L 989.6775 445.598879 
L 988.910131 444.854586 
L 988.137632 444.150675 
L 987.36024 443.48748 
L 986.578196 442.865323 
L 985.791744 442.284516 
L 985.001132 441.745352 
L 984.20661 441.248113 
L 983.408434 440.793067 
L 982.606858 440.380465 
L 981.802141 440.010543 
L 980.994543 439.683523 
L 980.185194 439.39915 
L 979.371728 439.158984 
L 978.557007 438.961825 
L 977.740369 438.808286 
L 976.921926 438.698506 
L 976.101369 438.632621 
L 975.268058 438.610874 
L 897.305622 439.713575 
L 858.930615 442.410196 
L 837.073752 445.182522 
L 836.262591 445.334909 
L 835.453212 445.53071 
L 834.645157 445.769948 
L 833.838503 446.052585 
L 833.033446 446.378557 
L 832.230223 446.747777 
L 831.429087 447.160141 
L 830.630301 447.615526 
L 829.833524 448.113434 
L 829.040843 448.654772 
L 828.250707 449.238297 
L 827.463989 449.864167 
L 826.680958 450.532171 
L 825.901879 451.242076 
L 825.127017 451.993636 
L 824.356635 452.786584 
L 823.590993 453.620638 
L 822.830352 454.4955 
L 822.074966 455.410854 
L 821.325092 456.366368 
L 820.580979 457.361695 
L 819.842878 458.39647 
L 819.111032 459.470316 
L 818.385686 460.582838 
L 817.667079 461.733629 
L 816.955446 462.922264 
L 816.251021 464.148309 
L 815.554031 465.411311 
L 814.864703 466.710807 
L 814.183258 468.046321 
L 813.509913 469.417365 
L 812.844881 470.823436 
L 812.188373 472.264023 
L 811.540593 473.738601 
L 810.901742 475.246636 
L 810.272018 476.787583 
L 809.651612 478.360887 
L 809.040712 479.965984 
L 808.439502 481.6023 
L 807.848161 483.269253 
L 807.266864 484.966252 
L 806.69578 486.692699 
L 806.135074 488.447988 
L 805.584908 490.231507 
L 805.045437 492.042635 
L 804.516814 493.880747 
L 803.999185 495.745212 
L 803.492692 497.635393 
L 802.997474 499.550646 
L 802.513664 501.490326 
L 802.041389 503.453781 
L 801.580775 505.440356 
L 801.131941 507.449391 
L 800.695002 509.480224 
L 800.270069 511.53219 
L 799.857247 513.60462 
L 799.45664 515.696845 
L 799.068343 517.80819 
L 798.692451 519.937981 
L 798.329053 522.085542 
L 797.978232 524.250196 
L 797.64007 526.431263 
L 797.314643 528.628063 
L 797.002023 530.839917 
L 796.702139 533.065242 
L 796.415336 535.305117 
L 796.141532 537.557999 
L 795.880786 539.823207 
L 795.633148 542.100059 
L 795.398804 544.389038 
L 795.177527 546.687211 
L 794.969495 548.995 
L 794.774746 551.31173 
L 794.593314 553.636725 
L 794.42523 555.969316 
L 794.270521 558.308834 
L 794.129212 560.654616 
L 794.001322 563.006004 
L 793.886868 565.362351 
L 793.785865 567.723023 
L 793.698324 570.087409 
L 793.624251 572.454937 
L 793.563526 574.820293 
L 793.5164 577.191517 
L 793.48287 579.574675 
z
" clip-path="url(#pa9f8125c4e)" style="fill: #1f77b4; opacity: 0.35; stroke: #00008b; stroke-width: 1.5; stroke-linejoin: miter"/>
   </g>
   <g id="patch_24">
    <path d="M 792.020553 614.546054 
L 800.581986 669.11292 
L 804.184336 680.197176 
L 818.02025 702.679335 
L 836.723117 721.942457 
L 927.973275 718.716561 
L 962.600063 700.947026 
L 965.515751 693.492369 
L 981.606017 633.974386 
L 982.458268 577.649717 
L 974.48568 503.951118 
L 962.504253 459.515973 
L 957.221917 453.925983 
L 822.993493 464.126885 
L 816.815721 470.41497 
L 798.886167 510.884519 
L 791.460769 544.27852 
L 791.298332 546.030229 
z
" clip-path="url(#pa9f8125c4e)" style="fill: #ff7f0e; opacity: 0.35; stroke: #ff8c00; stroke-width: 1.5; stroke-linejoin: miter"/>
   </g>
   <g id="patch_25">
    <path d="M 842.083193 616.050425 
L 855.440462 649.021085 
L 962.537821 633.003242 
L 979.766395 601.528724 
L 981.345428 593.189971 
L 981.790839 573.270012 
L 975.049303 534.380567 
L 965.891594 518.048434 
L 862.298661 516.32413 
L 847.433424 543.170163 
z
" clip-path="url(#pa9f8125c4e)" style="fill: #d62728; opacity: 0.35; stroke: #8b0000; stroke-width: 1.5; stroke-linejoin: miter"/>
   </g>
   <g id="matplotlib.axis_11"/>
   <g id="matplotlib.axis_12"/>
   <g id="text_6">
    <!-- (f) $\Delta\theta=+0.45$ -->
    <g transform="translate(856.11 425.755) scale(0.13 -0.13)">
     <defs>
      <path id="TimesNewRomanPSMT-66" d="M 1319 2638 
L 1319 756 
Q 1319 356 1406 250 
Q 1522 113 1716 113 
L 1975 113 
L 1975 0 
L 266 0 
L 266 113 
L 394 113 
Q 519 113 622 175 
Q 725 238 764 344 
Q 803 450 803 756 
L 803 2638 
L 247 2638 
L 247 2863 
L 803 2863 
L 803 3050 
Q 803 3478 940 3775 
Q 1078 4072 1361 4255 
Q 1644 4438 1997 4438 
Q 2325 4438 2600 4225 
Q 2781 4084 2781 3909 
Q 2781 3816 2700 3733 
Q 2619 3650 2525 3650 
Q 2453 3650 2373 3701 
Q 2294 3753 2178 3923 
Q 2063 4094 1966 4153 
Q 1869 4213 1750 4213 
Q 1606 4213 1506 4136 
Q 1406 4059 1362 3898 
Q 1319 3738 1319 3069 
L 1319 2863 
L 2056 2863 
L 2056 2638 
L 1319 2638 
z
" transform="scale(0.015625)"/>
      <path id="STIXGeneral-Regular-34" d="M 3027 1069 
L 2368 1069 
L 2368 0 
L 1869 0 
L 1869 1069 
L 77 1069 
L 77 1478 
L 2086 4326 
L 2368 4326 
L 2368 1478 
L 3027 1478 
L 3027 1069 
z
M 1869 1478 
L 1869 3674 
L 333 1478 
L 1869 1478 
z
" transform="scale(0.015625)"/>
     </defs>
     <use xlink:href="#TimesNewRomanPSMT-28" transform="translate(0 0.5625)"/>
     <use xlink:href="#TimesNewRomanPSMT-66" transform="translate(33.300781 0.5625)"/>
     <use xlink:href="#TimesNewRomanPSMT-29" transform="translate(66.601562 0.5625)"/>
     <use xlink:href="#TimesNewRomanPSMT-20" transform="translate(99.902344 0.5625)"/>
     <use xlink:href="#STIXGeneral-Regular-394" transform="translate(124.902344 0.5625)"/>
     <use xlink:href="#STIXGeneral-Italic-3b8" transform="translate(197.102325 0.5625)"/>
     <use xlink:href="#STIXGeneral-Regular-3d" transform="translate(259.542307 0.5625)"/>
     <use xlink:href="#STIXGeneral-Regular-2b" transform="translate(342.482288 0.5625)"/>
     <use xlink:href="#STIXGeneral-Regular-30" transform="translate(410.982272 0.5625)"/>
     <use xlink:href="#STIXGeneral-Regular-2e" transform="translate(460.982257 0.5625)"/>
     <use xlink:href="#STIXGeneral-Regular-34" transform="translate(485.982242 0.5625)"/>
     <use xlink:href="#STIXGeneral-Regular-35" transform="translate(535.982227 0.5625)"/>
    </g>
   </g>
  </g>
  <g id="legend_1">
   <g id="patch_26">
    <path d="M 285.543672 29.505156 
L 787.256328 29.505156 
Q 789.856328 29.505156 789.856328 26.905156 
L 789.856328 9.8 
Q 789.856328 7.2 787.256328 7.2 
L 285.543672 7.2 
Q 282.943672 7.2 282.943672 9.8 
L 282.943672 26.905156 
Q 282.943672 29.505156 285.543672 29.505156 
z
" style="fill: #ffffff; opacity: 0.8; stroke: #cccccc; stroke-linejoin: miter"/>
   </g>
   <g id="patch_27">
    <path d="M 288.143672 21.5 
L 314.143672 21.5 
L 314.143672 12.4 
L 288.143672 12.4 
z
" style="fill: #1f77b4; opacity: 0.35; stroke: #00008b; stroke-width: 1.5; stroke-linejoin: miter"/>
   </g>
   <g id="text_7">
    <!-- Original region -->
    <g transform="translate(324.543672 21.5) scale(0.13 -0.13)">
     <defs>
      <path id="TimesNewRomanPSMT-4f" d="M 2341 4334 
Q 3166 4334 3770 3707 
Q 4375 3081 4375 2144 
Q 4375 1178 3765 540 
Q 3156 -97 2291 -97 
Q 1416 -97 820 525 
Q 225 1147 225 2134 
Q 225 3144 913 3781 
Q 1509 4334 2341 4334 
z
M 2281 4106 
Q 1713 4106 1369 3684 
Q 941 3159 941 2147 
Q 941 1109 1384 550 
Q 1725 125 2284 125 
Q 2881 125 3270 590 
Q 3659 1056 3659 2059 
Q 3659 3147 3231 3681 
Q 2888 4106 2281 4106 
z
" transform="scale(0.015625)"/>
      <path id="TimesNewRomanPSMT-72" d="M 1038 2947 
L 1038 2303 
Q 1397 2947 1775 2947 
Q 1947 2947 2059 2842 
Q 2172 2738 2172 2600 
Q 2172 2478 2090 2393 
Q 2009 2309 1897 2309 
Q 1788 2309 1652 2417 
Q 1516 2525 1450 2525 
Q 1394 2525 1328 2463 
Q 1188 2334 1038 2041 
L 1038 669 
Q 1038 431 1097 309 
Q 1138 225 1241 169 
Q 1344 113 1538 113 
L 1538 0 
L 72 0 
L 72 113 
Q 291 113 397 181 
Q 475 231 506 341 
Q 522 394 522 644 
L 522 1753 
Q 522 2253 501 2348 
Q 481 2444 426 2487 
Q 372 2531 291 2531 
Q 194 2531 72 2484 
L 41 2597 
L 906 2947 
L 1038 2947 
z
" transform="scale(0.015625)"/>
      <path id="TimesNewRomanPSMT-69" d="M 928 4444 
Q 1059 4444 1151 4351 
Q 1244 4259 1244 4128 
Q 1244 3997 1151 3903 
Q 1059 3809 928 3809 
Q 797 3809 703 3903 
Q 609 3997 609 4128 
Q 609 4259 701 4351 
Q 794 4444 928 4444 
z
M 1188 2947 
L 1188 647 
Q 1188 378 1227 289 
Q 1266 200 1342 156 
Q 1419 113 1622 113 
L 1622 0 
L 231 0 
L 231 113 
Q 441 113 512 153 
Q 584 194 626 287 
Q 669 381 669 647 
L 669 1750 
Q 669 2216 641 2353 
Q 619 2453 572 2492 
Q 525 2531 444 2531 
Q 356 2531 231 2484 
L 188 2597 
L 1050 2947 
L 1188 2947 
z
" transform="scale(0.015625)"/>
      <path id="TimesNewRomanPSMT-67" d="M 966 1044 
Q 703 1172 562 1401 
Q 422 1631 422 1909 
Q 422 2334 742 2640 
Q 1063 2947 1563 2947 
Q 1972 2947 2272 2747 
L 2878 2747 
Q 3013 2747 3034 2739 
Q 3056 2731 3066 2713 
Q 3084 2684 3084 2613 
Q 3084 2531 3069 2500 
Q 3059 2484 3036 2475 
Q 3013 2466 2878 2466 
L 2506 2466 
Q 2681 2241 2681 1891 
Q 2681 1491 2375 1206 
Q 2069 922 1553 922 
Q 1341 922 1119 984 
Q 981 866 932 777 
Q 884 688 884 625 
Q 884 572 936 522 
Q 988 472 1138 450 
Q 1225 438 1575 428 
Q 2219 413 2409 384 
Q 2700 344 2873 169 
Q 3047 -6 3047 -263 
Q 3047 -616 2716 -925 
Q 2228 -1381 1444 -1381 
Q 841 -1381 425 -1109 
Q 191 -953 191 -784 
Q 191 -709 225 -634 
Q 278 -519 444 -313 
Q 466 -284 763 25 
Q 600 122 533 198 
Q 466 275 466 372 
Q 466 481 555 628 
Q 644 775 966 1044 
z
M 1509 2797 
Q 1278 2797 1122 2612 
Q 966 2428 966 2047 
Q 966 1553 1178 1281 
Q 1341 1075 1591 1075 
Q 1828 1075 1981 1253 
Q 2134 1431 2134 1813 
Q 2134 2309 1919 2591 
Q 1759 2797 1509 2797 
z
M 934 0 
Q 788 -159 713 -296 
Q 638 -434 638 -550 
Q 638 -700 819 -813 
Q 1131 -1006 1722 -1006 
Q 2284 -1006 2551 -807 
Q 2819 -609 2819 -384 
Q 2819 -222 2659 -153 
Q 2497 -84 2016 -72 
Q 1313 -53 934 0 
z
" transform="scale(0.015625)"/>
      <path id="TimesNewRomanPSMT-6e" d="M 1034 2341 
Q 1538 2947 1994 2947 
Q 2228 2947 2397 2830 
Q 2566 2713 2666 2444 
Q 2734 2256 2734 1869 
L 2734 647 
Q 2734 375 2778 278 
Q 2813 200 2889 156 
Q 2966 113 3172 113 
L 3172 0 
L 1756 0 
L 1756 113 
L 1816 113 
Q 2016 113 2095 173 
Q 2175 234 2206 353 
Q 2219 400 2219 647 
L 2219 1819 
Q 2219 2209 2117 2386 
Q 2016 2563 1775 2563 
Q 1403 2563 1034 2156 
L 1034 647 
Q 1034 356 1069 288 
Q 1113 197 1189 155 
Q 1266 113 1500 113 
L 1500 0 
L 84 0 
L 84 113 
L 147 113 
Q 366 113 442 223 
Q 519 334 519 647 
L 519 1709 
Q 519 2225 495 2337 
Q 472 2450 423 2490 
Q 375 2531 294 2531 
Q 206 2531 84 2484 
L 38 2597 
L 900 2947 
L 1034 2947 
L 1034 2341 
z
" transform="scale(0.015625)"/>
      <path id="TimesNewRomanPSMT-6c" d="M 1184 4444 
L 1184 647 
Q 1184 378 1223 290 
Q 1263 203 1344 158 
Q 1425 113 1647 113 
L 1647 0 
L 244 0 
L 244 113 
Q 441 113 512 153 
Q 584 194 625 287 
Q 666 381 666 647 
L 666 3247 
Q 666 3731 644 3842 
Q 622 3953 573 3993 
Q 525 4034 450 4034 
Q 369 4034 244 3984 
L 191 4094 
L 1044 4444 
L 1184 4444 
z
" transform="scale(0.015625)"/>
      <path id="TimesNewRomanPSMT-6f" d="M 1600 2947 
Q 2250 2947 2644 2453 
Q 2978 2031 2978 1484 
Q 2978 1100 2793 706 
Q 2609 313 2286 112 
Q 1963 -88 1566 -88 
Q 919 -88 538 428 
Q 216 863 216 1403 
Q 216 1797 411 2186 
Q 606 2575 925 2761 
Q 1244 2947 1600 2947 
z
M 1503 2744 
Q 1338 2744 1170 2645 
Q 1003 2547 900 2300 
Q 797 2053 797 1666 
Q 797 1041 1045 587 
Q 1294 134 1700 134 
Q 2003 134 2200 384 
Q 2397 634 2397 1244 
Q 2397 2006 2069 2444 
Q 1847 2744 1503 2744 
z
" transform="scale(0.015625)"/>
     </defs>
     <use xlink:href="#TimesNewRomanPSMT-4f"/>
     <use xlink:href="#TimesNewRomanPSMT-72" transform="translate(72.216797 0)"/>
     <use xlink:href="#TimesNewRomanPSMT-69" transform="translate(105.517578 0)"/>
     <use xlink:href="#TimesNewRomanPSMT-67" transform="translate(133.300781 0)"/>
     <use xlink:href="#TimesNewRomanPSMT-69" transform="translate(183.300781 0)"/>
     <use xlink:href="#TimesNewRomanPSMT-6e" transform="translate(211.083984 0)"/>
     <use xlink:href="#TimesNewRomanPSMT-61" transform="translate(261.083984 0)"/>
     <use xlink:href="#TimesNewRomanPSMT-6c" transform="translate(305.46875 0)"/>
     <use xlink:href="#TimesNewRomanPSMT-20" transform="translate(333.251953 0)"/>
     <use xlink:href="#TimesNewRomanPSMT-72" transform="translate(358.251953 0)"/>
     <use xlink:href="#TimesNewRomanPSMT-65" transform="translate(391.552734 0)"/>
     <use xlink:href="#TimesNewRomanPSMT-67" transform="translate(435.9375 0)"/>
     <use xlink:href="#TimesNewRomanPSMT-69" transform="translate(485.9375 0)"/>
     <use xlink:href="#TimesNewRomanPSMT-6f" transform="translate(513.720703 0)"/>
     <use xlink:href="#TimesNewRomanPSMT-6e" transform="translate(563.720703 0)"/>
    </g>
   </g>
   <g id="patch_28">
    <path d="M 430.327109 21.5 
L 456.327109 21.5 
L 456.327109 12.4 
L 430.327109 12.4 
z
" style="fill: #ff7f0e; opacity: 0.35; stroke: #ff8c00; stroke-width: 1.5; stroke-linejoin: miter"/>
   </g>
   <g id="text_8">
    <!-- Learned region-moderate -->
    <g transform="translate(466.727109 21.5) scale(0.13 -0.13)">
     <defs>
      <path id="TimesNewRomanPSMT-4c" d="M 3669 1172 
L 3772 1150 
L 3409 0 
L 128 0 
L 128 116 
L 288 116 
Q 556 116 672 291 
Q 738 391 738 753 
L 738 3488 
Q 738 3884 650 3984 
Q 528 4122 288 4122 
L 128 4122 
L 128 4238 
L 2047 4238 
L 2047 4122 
Q 1709 4125 1573 4059 
Q 1438 3994 1388 3894 
Q 1338 3794 1338 3416 
L 1338 753 
Q 1338 494 1388 397 
Q 1425 331 1503 300 
Q 1581 269 1991 269 
L 2300 269 
Q 2788 269 2984 341 
Q 3181 413 3343 595 
Q 3506 778 3669 1172 
z
" transform="scale(0.015625)"/>
      <path id="TimesNewRomanPSMT-2d" d="M 259 1672 
L 1875 1672 
L 1875 1200 
L 259 1200 
L 259 1672 
z
" transform="scale(0.015625)"/>
      <path id="TimesNewRomanPSMT-6d" d="M 1050 2338 
Q 1363 2650 1419 2697 
Q 1559 2816 1721 2881 
Q 1884 2947 2044 2947 
Q 2313 2947 2506 2790 
Q 2700 2634 2766 2338 
Q 3088 2713 3309 2830 
Q 3531 2947 3766 2947 
Q 3994 2947 4170 2830 
Q 4347 2713 4450 2447 
Q 4519 2266 4519 1878 
L 4519 647 
Q 4519 378 4559 278 
Q 4591 209 4675 161 
Q 4759 113 4950 113 
L 4950 0 
L 3538 0 
L 3538 113 
L 3597 113 
Q 3781 113 3884 184 
Q 3956 234 3988 344 
Q 4000 397 4000 647 
L 4000 1878 
Q 4000 2228 3916 2372 
Q 3794 2572 3525 2572 
Q 3359 2572 3192 2489 
Q 3025 2406 2788 2181 
L 2781 2147 
L 2788 2013 
L 2788 647 
Q 2788 353 2820 281 
Q 2853 209 2943 161 
Q 3034 113 3253 113 
L 3253 0 
L 1806 0 
L 1806 113 
Q 2044 113 2133 169 
Q 2222 225 2256 338 
Q 2272 391 2272 647 
L 2272 1878 
Q 2272 2228 2169 2381 
Q 2031 2581 1784 2581 
Q 1616 2581 1450 2491 
Q 1191 2353 1050 2181 
L 1050 647 
Q 1050 366 1089 281 
Q 1128 197 1204 155 
Q 1281 113 1516 113 
L 1516 0 
L 100 0 
L 100 113 
Q 297 113 375 155 
Q 453 197 493 289 
Q 534 381 534 647 
L 534 1741 
Q 534 2213 506 2350 
Q 484 2453 437 2492 
Q 391 2531 309 2531 
Q 222 2531 100 2484 
L 53 2597 
L 916 2947 
L 1050 2947 
L 1050 2338 
z
" transform="scale(0.015625)"/>
      <path id="TimesNewRomanPSMT-74" d="M 1031 3803 
L 1031 2863 
L 1700 2863 
L 1700 2644 
L 1031 2644 
L 1031 788 
Q 1031 509 1111 412 
Q 1191 316 1316 316 
Q 1419 316 1516 380 
Q 1613 444 1666 569 
L 1788 569 
Q 1678 263 1478 108 
Q 1278 -47 1066 -47 
Q 922 -47 784 33 
Q 647 113 581 261 
Q 516 409 516 719 
L 516 2644 
L 63 2644 
L 63 2747 
Q 234 2816 414 2980 
Q 594 3144 734 3369 
Q 806 3488 934 3803 
L 1031 3803 
z
" transform="scale(0.015625)"/>
     </defs>
     <use xlink:href="#TimesNewRomanPSMT-4c"/>
     <use xlink:href="#TimesNewRomanPSMT-65" transform="translate(61.083984 0)"/>
     <use xlink:href="#TimesNewRomanPSMT-61" transform="translate(105.46875 0)"/>
     <use xlink:href="#TimesNewRomanPSMT-72" transform="translate(149.853516 0)"/>
     <use xlink:href="#TimesNewRomanPSMT-6e" transform="translate(183.154297 0)"/>
     <use xlink:href="#TimesNewRomanPSMT-65" transform="translate(233.154297 0)"/>
     <use xlink:href="#TimesNewRomanPSMT-64" transform="translate(277.539062 0)"/>
     <use xlink:href="#TimesNewRomanPSMT-20" transform="translate(327.539062 0)"/>
     <use xlink:href="#TimesNewRomanPSMT-72" transform="translate(352.539062 0)"/>
     <use xlink:href="#TimesNewRomanPSMT-65" transform="translate(385.839844 0)"/>
     <use xlink:href="#TimesNewRomanPSMT-67" transform="translate(430.224609 0)"/>
     <use xlink:href="#TimesNewRomanPSMT-69" transform="translate(480.224609 0)"/>
     <use xlink:href="#TimesNewRomanPSMT-6f" transform="translate(508.007812 0)"/>
     <use xlink:href="#TimesNewRomanPSMT-6e" transform="translate(558.007812 0)"/>
     <use xlink:href="#TimesNewRomanPSMT-2d" transform="translate(608.007812 0)"/>
     <use xlink:href="#TimesNewRomanPSMT-6d" transform="translate(641.308594 0)"/>
     <use xlink:href="#TimesNewRomanPSMT-6f" transform="translate(719.091797 0)"/>
     <use xlink:href="#TimesNewRomanPSMT-64" transform="translate(769.091797 0)"/>
     <use xlink:href="#TimesNewRomanPSMT-65" transform="translate(819.091797 0)"/>
     <use xlink:href="#TimesNewRomanPSMT-72" transform="translate(863.476562 0)"/>
     <use xlink:href="#TimesNewRomanPSMT-61" transform="translate(896.777344 0)"/>
     <use xlink:href="#TimesNewRomanPSMT-74" transform="translate(941.162109 0)"/>
     <use xlink:href="#TimesNewRomanPSMT-65" transform="translate(968.945312 0)"/>
    </g>
   </g>
   <g id="patch_29">
    <path d="M 624.461797 21.5 
L 650.461797 21.5 
L 650.461797 12.4 
L 624.461797 12.4 
z
" style="fill: #d62728; opacity: 0.35; stroke: #8b0000; stroke-width: 1.5; stroke-linejoin: miter"/>
   </g>
   <g id="text_9">
    <!-- Learned region-feasible -->
    <g transform="translate(660.861797 21.5) scale(0.13 -0.13)">
     <defs>
      <path id="TimesNewRomanPSMT-73" d="M 2050 2947 
L 2050 1972 
L 1947 1972 
Q 1828 2431 1642 2597 
Q 1456 2763 1169 2763 
Q 950 2763 815 2647 
Q 681 2531 681 2391 
Q 681 2216 781 2091 
Q 878 1963 1175 1819 
L 1631 1597 
Q 2266 1288 2266 781 
Q 2266 391 1970 151 
Q 1675 -88 1309 -88 
Q 1047 -88 709 6 
Q 606 38 541 38 
Q 469 38 428 -44 
L 325 -44 
L 325 978 
L 428 978 
Q 516 541 762 319 
Q 1009 97 1316 97 
Q 1531 97 1667 223 
Q 1803 350 1803 528 
Q 1803 744 1651 891 
Q 1500 1038 1047 1263 
Q 594 1488 453 1669 
Q 313 1847 313 2119 
Q 313 2472 555 2709 
Q 797 2947 1181 2947 
Q 1350 2947 1591 2875 
Q 1750 2828 1803 2828 
Q 1853 2828 1881 2850 
Q 1909 2872 1947 2947 
L 2050 2947 
z
" transform="scale(0.015625)"/>
     </defs>
     <use xlink:href="#TimesNewRomanPSMT-4c"/>
     <use xlink:href="#TimesNewRomanPSMT-65" transform="translate(61.083984 0)"/>
     <use xlink:href="#TimesNewRomanPSMT-61" transform="translate(105.46875 0)"/>
     <use xlink:href="#TimesNewRomanPSMT-72" transform="translate(149.853516 0)"/>
     <use xlink:href="#TimesNewRomanPSMT-6e" transform="translate(183.154297 0)"/>
     <use xlink:href="#TimesNewRomanPSMT-65" transform="translate(233.154297 0)"/>
     <use xlink:href="#TimesNewRomanPSMT-64" transform="translate(277.539062 0)"/>
     <use xlink:href="#TimesNewRomanPSMT-20" transform="translate(327.539062 0)"/>
     <use xlink:href="#TimesNewRomanPSMT-72" transform="translate(352.539062 0)"/>
     <use xlink:href="#TimesNewRomanPSMT-65" transform="translate(385.839844 0)"/>
     <use xlink:href="#TimesNewRomanPSMT-67" transform="translate(430.224609 0)"/>
     <use xlink:href="#TimesNewRomanPSMT-69" transform="translate(480.224609 0)"/>
     <use xlink:href="#TimesNewRomanPSMT-6f" transform="translate(508.007812 0)"/>
     <use xlink:href="#TimesNewRomanPSMT-6e" transform="translate(558.007812 0)"/>
     <use xlink:href="#TimesNewRomanPSMT-2d" transform="translate(608.007812 0)"/>
     <use xlink:href="#TimesNewRomanPSMT-66" transform="translate(641.308594 0)"/>
     <use xlink:href="#TimesNewRomanPSMT-65" transform="translate(674.609375 0)"/>
     <use xlink:href="#TimesNewRomanPSMT-61" transform="translate(718.994141 0)"/>
     <use xlink:href="#TimesNewRomanPSMT-73" transform="translate(763.378906 0)"/>
     <use xlink:href="#TimesNewRomanPSMT-69" transform="translate(802.294922 0)"/>
     <use xlink:href="#TimesNewRomanPSMT-62" transform="translate(830.078125 0)"/>
     <use xlink:href="#TimesNewRomanPSMT-6c" transform="translate(880.078125 0)"/>
     <use xlink:href="#TimesNewRomanPSMT-65" transform="translate(907.861328 0)"/>
    </g>
   </g>
  </g>
 </g>
 <defs>
  <clipPath id="p1117712aff">
   <rect x="7.2" y="69.415" width="342.8" height="324.485"/>
  </clipPath>
  <clipPath id="p57344126d7">
   <rect x="365" y="69.415" width="342.8" height="324.485"/>
  </clipPath>
  <clipPath id="p2744651515">
   <rect x="722.8" y="69.415" width="342.8" height="324.485"/>
  </clipPath>
  <clipPath id="p9812e57c06">
   <rect x="7.2" y="428.615" width="342.8" height="324.485"/>
  </clipPath>
  <clipPath id="pb369ba4f2e">
   <rect x="365" y="428.615" width="342.8" height="324.485"/>
  </clipPath>
  <clipPath id="pa9f8125c4e">
   <rect x="722.8" y="428.615" width="342.8" height="324.485"/>
  </clipPath>
 </defs>
</svg>
