<?xml version="1.0" encoding="utf-8" standalone="no"?>
<!DOCTYPE svg PUBLIC "-//W3C//DTD SVG 1.1//EN"
  "http://www.w3.org/Graphics/SVG/1.1/DTD/svg11.dtd">
<svg xmlns:xlink="http://www.w3.org/1999/xlink" width="488.961784pt" height="474.598125pt" viewBox="0 0 488.961784 474.598125" xmlns="http://www.w3.org/2000/svg" version="1.1">
 <metadata>
  <rdf:RDF xmlns:dc="http://purl.org/dc/elements/1.1/" xmlns:cc="http://creativecommons.org/ns#" xmlns:rdf="http://www.w3.org/1999/02/22-rdf-syntax-ns#">
   <cc:Work>
    <dc:type rdf:resource="http://purl.org/dc/dcmitype/StillImage"/>
    <dc:date>2026-05-24T16:52:57.599936</dc:date>
    <dc:format>image/svg+xml</dc:format>
    <dc:creator>
     <cc:Agent>
      <dc:title>Matplotlib v3.10.6, https://matplotlib.org/</dc:title>
     </cc:Agent>
    </dc:creator>
   </cc:Work>
  </rdf:RDF>
 </metadata>
 <defs>
  <style type="text/css">*{stroke-linejoin: round; stroke-linecap: butt}</style>
 </defs>
 <g id="figure_1">
  <g id="patch_1">
   <path d="M 0 474.598125 
L 488.961784 474.598125 
L 488.961784 0 
L 0 0 
z
" style="fill: #ffffff"/>
  </g>
  <g id="axes_1">
   <g id="patch_2">
    <path d="M 30.103125 450.72 
L 476.503125 450.72 
L 476.503125 7.2 
L 30.103125 7.2 
z
" style="fill: #ffffff"/>
   </g>
   <g id="patch_3">
    <path d="M 74.810556 369.587039 
L 74.812734 370.340356 
L 74.819315 370.993278 
L 74.830283 371.644108 
L 74.84562 372.293417 
L 74.865313 372.941187 
L 74.889347 373.587283 
L 74.917707 374.231539 
L 74.950375 374.873783 
L 74.98733 375.513812 
L 75.028557 376.151449 
L 75.074035 376.786521 
L 75.123741 377.418839 
L 75.177654 378.048221 
L 75.235748 378.674483 
L 75.298002 379.29746 
L 75.364384 379.916955 
L 75.434867 380.532795 
L 75.50943 381.144821 
L 75.588039 381.752854 
L 75.670666 382.356725 
L 75.75728 382.956266 
L 75.847849 383.551312 
L 75.94234 384.141699 
L 76.040724 384.727272 
L 76.142957 385.307854 
L 76.249013 385.883304 
L 76.358854 386.453461 
L 76.472443 387.018171 
L 76.589743 387.577283 
L 76.710715 388.130648 
L 76.835322 388.678117 
L 76.963528 389.219545 
L 77.095281 389.754789 
L 77.230557 390.283705 
L 77.369301 390.806155 
L 77.511472 391.322004 
L 77.65704 391.831107 
L 77.805945 392.333344 
L 77.958155 392.828569 
L 78.113622 393.316658 
L 78.272302 393.797481 
L 78.434148 394.270911 
L 78.599113 394.736825 
L 78.767153 395.195098 
L 78.938218 395.64561 
L 79.112262 396.08824 
L 79.289236 396.52287 
L 79.469091 396.949386 
L 79.651778 397.367673 
L 79.837245 397.777619 
L 80.025445 398.179102 
L 80.216321 398.572043 
L 80.409825 398.956314 
L 80.605906 399.331807 
L 80.804508 399.698424 
L 81.00558 400.056063 
L 81.209067 400.404623 
L 81.414914 400.744007 
L 81.623067 401.074118 
L 81.833469 401.394862 
L 82.046065 401.706145 
L 82.260798 402.007876 
L 82.47761 402.299967 
L 82.696444 402.58233 
L 82.91724 402.854879 
L 83.139941 403.117532 
L 83.364485 403.370206 
L 83.590814 403.612822 
L 83.818865 403.845301 
L 84.048578 404.06757 
L 84.279891 404.279553 
L 84.51274 404.48118 
L 84.747064 404.67238 
L 84.982797 404.853088 
L 85.219876 405.023237 
L 85.458235 405.182766 
L 85.697809 405.331613 
L 85.938533 405.46972 
L 86.180339 405.597032 
L 86.423159 405.713493 
L 86.666928 405.819057 
L 86.911579 405.913667 
L 87.157039 405.9973 
L 87.403243 406.069884 
L 87.650125 406.131395 
L 87.897618 406.181791 
L 88.145662 406.221037 
L 88.394214 406.249101 
L 88.643302 406.26595 
L 88.89514 406.271537 
L 102.663823 406.158544 
L 238.351879 396.449096 
L 317.190948 388.16061 
L 317.445245 388.120458 
L 317.697114 388.06919 
L 317.948852 388.006477 
L 318.200506 387.932288 
L 318.452032 387.846601 
L 318.70336 387.749404 
L 318.954418 387.640683 
L 319.205125 387.520437 
L 319.455401 387.388664 
L 319.705165 387.245369 
L 319.954332 387.090561 
L 320.20282 386.924252 
L 320.450542 386.746462 
L 320.697415 386.557214 
L 320.943353 386.356534 
L 321.188269 386.144457 
L 321.432077 385.921021 
L 321.67469 385.686269 
L 321.916022 385.440249 
L 322.155985 385.183016 
L 322.394492 384.914628 
L 322.631457 384.63515 
L 322.866792 384.344653 
L 323.10041 384.043212 
L 323.332224 383.730908 
L 323.562149 383.407828 
L 323.790099 383.074063 
L 324.015986 382.729712 
L 324.239728 382.374878 
L 324.461238 382.009668 
L 324.680434 381.634198 
L 324.897231 381.248587 
L 325.111549 380.85296 
L 325.323304 380.447448 
L 325.532418 380.032184 
L 325.73881 379.607312 
L 325.942399 379.172966 
L 326.143117 378.729328 
L 326.340879 378.276522 
L 326.535614 377.81472 
L 326.727248 377.344087 
L 326.915709 376.864793 
L 327.100927 376.37701 
L 327.282833 375.88092 
L 327.461361 375.376704 
L 327.636445 374.864549 
L 327.808021 374.344647 
L 327.976028 373.817191 
L 328.140405 373.28238 
L 328.301096 372.740415 
L 328.458042 372.1915 
L 328.611191 371.635841 
L 328.760489 371.07365 
L 328.905887 370.505139 
L 329.047336 369.930524 
L 329.184791 369.35002 
L 329.318208 368.763849 
L 329.447544 368.172231 
L 329.572761 367.575388 
L 329.693819 366.973545 
L 329.810685 366.366928 
L 329.923325 365.755762 
L 330.031707 365.140275 
L 330.135803 364.520695 
L 330.235586 363.897251 
L 330.331032 363.270171 
L 330.422117 362.639684 
L 330.508822 362.006018 
L 330.591128 361.369401 
L 330.669019 360.730062 
L 330.74248 360.088228 
L 330.8115 359.444125 
L 330.876068 358.797978 
L 330.936177 358.150012 
L 330.991819 357.500451 
L 331.04299 356.849514 
L 331.089688 356.197421 
L 331.131907 355.544388 
L 331.169662 354.890635 
L 331.202941 354.236368 
L 331.231756 353.581793 
L 331.256109 352.927107 
L 331.276011 352.272491 
L 331.291469 351.618081 
L 331.302494 350.963861 
L 331.309096 350.30892 
L 331.492589 154.040005 
L 331.490396 153.32907 
L 331.483761 152.671356 
L 331.472721 152.016276 
L 331.457297 151.363291 
L 331.437511 150.712433 
L 331.413385 150.063837 
L 331.384942 149.417668 
L 331.352208 148.774101 
L 331.315207 148.133312 
L 331.273968 147.49548 
L 331.228517 146.860779 
L 331.178883 146.229382 
L 331.125096 145.601462 
L 331.067187 144.977187 
L 331.005186 144.356723 
L 330.939127 143.740234 
L 330.869041 143.12788 
L 330.794962 142.519819 
L 330.716924 141.916207 
L 330.634962 141.317196 
L 330.549112 140.722935 
L 330.459408 140.133574 
L 330.365888 139.549255 
L 330.268589 138.970122 
L 330.167547 138.396314 
L 330.0628 137.827968 
L 329.954387 137.265219 
L 329.842345 136.7082 
L 329.726714 136.157042 
L 329.607533 135.611872 
L 329.484841 135.072816 
L 329.358678 134.539998 
L 329.229085 134.013541 
L 329.0961 133.493564 
L 328.959765 132.980185 
L 328.820121 132.473521 
L 328.677208 131.973686 
L 328.531069 131.480792 
L 328.381743 130.994952 
L 328.229274 130.516274 
L 328.073702 130.044868 
L 327.91507 129.580838 
L 327.753421 129.124292 
L 327.588797 128.675331 
L 327.42124 128.23406 
L 327.250794 127.80058 
L 327.077502 127.374991 
L 326.901407 126.957392 
L 326.722554 126.54788 
L 326.540986 126.146553 
L 326.356747 125.753506 
L 326.169883 125.368834 
L 325.980439 124.99263 
L 325.788458 124.624989 
L 325.593989 124.266 
L 325.397075 123.915756 
L 325.197763 123.574349 
L 324.996101 123.241865 
L 324.792135 122.918393 
L 324.585913 122.604023 
L 324.377484 122.29885 
L 324.166894 122.00294 
L 323.954193 121.716379 
L 323.739433 121.439281 
L 323.522659 121.171689 
L 323.303929 120.913727 
L 323.083287 120.665445 
L 322.860786 120.426924 
L 322.636482 120.198264 
L 322.410426 119.979535 
L 322.182672 119.770814 
L 321.953274 119.572176 
L 321.722288 119.383699 
L 321.48977 119.205456 
L 321.255775 119.037521 
L 321.020362 118.879964 
L 320.783588 118.732858 
L 320.545513 118.59627 
L 320.306196 118.470268 
L 320.065698 118.354919 
L 319.824079 118.250287 
L 319.581403 118.156433 
L 319.337731 118.073419 
L 319.093126 118.001303 
L 318.847653 117.940144 
L 318.601372 117.889994 
L 318.354344 117.850907 
L 318.106621 117.822934 
L 317.858213 117.806124 
L 317.608256 117.800534 
L 305.116063 117.910635 
L 264.860292 120.994024 
L 88.850854 136.127718 
L 88.60223 136.167043 
L 88.353799 136.217624 
L 88.10554 136.279474 
L 87.857497 136.352601 
L 87.609727 136.437016 
L 87.362312 136.532697 
L 87.115312 136.639661 
L 86.868798 136.757901 
L 86.622855 136.887392 
L 86.377554 137.028127 
L 86.132972 137.180078 
L 85.889181 137.343244 
L 85.646259 137.517588 
L 85.404283 137.703082 
L 85.163331 137.899693 
L 84.923479 138.107384 
L 84.684806 138.326115 
L 84.447388 138.555839 
L 84.211304 138.79651 
L 83.97663 139.048072 
L 83.743445 139.310471 
L 83.511827 139.583643 
L 83.281851 139.867524 
L 83.053598 140.162043 
L 82.827142 140.467127 
L 82.602562 140.782697 
L 82.379933 141.10867 
L 82.159333 141.44496 
L 81.940838 141.791475 
L 81.724523 142.148119 
L 81.510463 142.514791 
L 81.298734 142.891388 
L 81.089408 143.277799 
L 80.882561 143.673913 
L 80.678264 144.079612 
L 80.476589 144.494772 
L 80.27761 144.919269 
L 80.081394 145.352972 
L 79.888014 145.795746 
L 79.697537 146.247452 
L 79.510031 146.707947 
L 79.325564 147.177085 
L 79.144205 147.654727 
L 78.966006 148.140683 
L 78.791044 148.634828 
L 78.619377 149.136989 
L 78.451066 149.646999 
L 78.28617 150.164688 
L 78.124748 150.689883 
L 77.966857 151.222408 
L 77.812554 151.762082 
L 77.661891 152.308722 
L 77.514922 152.862142 
L 77.371698 153.422153 
L 77.232273 153.988563 
L 77.096687 154.561175 
L 76.964989 155.139794 
L 76.837226 155.724219 
L 76.713435 156.314251 
L 76.593667 156.90968 
L 76.477956 157.510302 
L 76.366342 158.115909 
L 76.258859 158.72629 
L 76.155542 159.341233 
L 76.056425 159.960522 
L 75.961535 160.583951 
L 75.870904 161.211295 
L 75.784558 161.84234 
L 75.702523 162.476869 
L 75.62482 163.11466 
L 75.551473 163.755496 
L 75.482501 164.399157 
L 75.417921 165.045422 
L 75.35775 165.694072 
L 75.302001 166.344886 
L 75.250688 166.997643 
L 75.203818 167.652126 
L 75.161404 168.308115 
L 75.12345 168.965393 
L 75.089963 169.623745 
L 75.060945 170.282956 
L 75.036398 170.942841 
L 75.016322 171.603196 
L 75.000717 172.263886 
L 74.989576 172.924933 
L 74.9829 173.587391 
z
" clip-path="url(#p8819cabfb9)" style="fill: #0000ff; opacity: 0.3; stroke: #0000ff; stroke-linejoin: miter"/>
   </g>
   <g id="patch_4">
    <path d="M 74.810494 369.691887 
L 75.028525 376.151887 
L 75.670633 382.356962 
L 76.71068 388.130812 
L 78.113584 393.316781 
L 79.837198 397.777719 
L 81.833406 401.394953 
L 84.048489 404.067657 
L 86.423002 405.713583 
L 88.891586 406.27169 
L 318.954626 387.640749 
L 321.432175 385.921101 
L 323.790164 383.074152 
L 325.942451 379.173075 
L 327.80806 374.344768 
L 329.318243 368.764011 
L 330.42215 362.639919 
L 331.089719 356.197862 
L 331.49265 153.98314 
L 331.274 147.495043 
L 330.634995 141.316957 
L 329.607568 135.611704 
L 328.229311 130.516147 
L 326.541031 126.146448 
L 324.585973 122.603927 
L 322.41051 119.979443 
L 320.065842 118.354825 
L 317.61007 117.800383 
L 87.115121 136.639586 
L 84.684709 138.326035 
L 82.379867 141.108585 
L 80.27756 144.919174 
L 78.451026 149.646881 
L 76.964949 155.139636 
L 75.87087 161.211063 
L 75.203787 167.651686 
z
" clip-path="url(#p8819cabfb9)" style="fill: #008000; opacity: 0.3; stroke: #008000; stroke-linejoin: miter"/>
   </g>
   <g id="patch_5">
    <path d="M 78.084688 383.628855 
L 86.782557 391.736548 
L 318.943309 372.55998 
L 325.093556 363.201641 
L 324.526506 131.020458 
L 321.510822 128.172889 
L 109.210731 137.841798 
L 80.821299 149.843242 
L 77.806882 170.890731 
z
" clip-path="url(#p8819cabfb9)" style="fill: #ff0000; opacity: 0.3; stroke: #0000ff; stroke-linejoin: miter"/>
   </g>
   <g id="matplotlib.axis_1">
    <g id="xtick_1">
     <g id="line2d_1">
      <defs>
       <path id="mb09643f753" d="M 0 0 
L 0 3.5 
" style="stroke: #000000; stroke-width: 0.8"/>
      </defs>
      <g>
       <use xlink:href="#mb09643f753" x="82.192419" y="450.72" style="stroke: #000000; stroke-width: 0.8"/>
      </g>
     </g>
     <g id="text_1">
      <!-- 0.8 -->
      <g transform="translate(74.240856 465.318437) scale(0.1 -0.1)">
       <defs>
        <path id="DejaVuSans-30" d="M 2034 4250 
Q 1547 4250 1301 3770 
Q 1056 3291 1056 2328 
Q 1056 1369 1301 889 
Q 1547 409 2034 409 
Q 2525 409 2770 889 
Q 3016 1369 3016 2328 
Q 3016 3291 2770 3770 
Q 2525 4250 2034 4250 
z
M 2034 4750 
Q 2819 4750 3233 4129 
Q 3647 3509 3647 2328 
Q 3647 1150 3233 529 
Q 2819 -91 2034 -91 
Q 1250 -91 836 529 
Q 422 1150 422 2328 
Q 422 3509 836 4129 
Q 1250 4750 2034 4750 
z
" transform="scale(0.015625)"/>
        <path id="DejaVuSans-2e" d="M 684 794 
L 1344 794 
L 1344 0 
L 684 0 
L 684 794 
z
" transform="scale(0.015625)"/>
        <path id="DejaVuSans-38" d="M 2034 2216 
Q 1584 2216 1326 1975 
Q 1069 1734 1069 1313 
Q 1069 891 1326 650 
Q 1584 409 2034 409 
Q 2484 409 2743 651 
Q 3003 894 3003 1313 
Q 3003 1734 2745 1975 
Q 2488 2216 2034 2216 
z
M 1403 2484 
Q 997 2584 770 2862 
Q 544 3141 544 3541 
Q 544 4100 942 4425 
Q 1341 4750 2034 4750 
Q 2731 4750 3128 4425 
Q 3525 4100 3525 3541 
Q 3525 3141 3298 2862 
Q 3072 2584 2669 2484 
Q 3125 2378 3379 2068 
Q 3634 1759 3634 1313 
Q 3634 634 3220 271 
Q 2806 -91 2034 -91 
Q 1263 -91 848 271 
Q 434 634 434 1313 
Q 434 1759 690 2068 
Q 947 2378 1403 2484 
z
M 1172 3481 
Q 1172 3119 1398 2916 
Q 1625 2713 2034 2713 
Q 2441 2713 2670 2916 
Q 2900 3119 2900 3481 
Q 2900 3844 2670 4047 
Q 2441 4250 2034 4250 
Q 1625 4250 1398 4047 
Q 1172 3844 1172 3481 
z
" transform="scale(0.015625)"/>
       </defs>
       <use xlink:href="#DejaVuSans-30"/>
       <use xlink:href="#DejaVuSans-2e" transform="translate(63.623047 0)"/>
       <use xlink:href="#DejaVuSans-38" transform="translate(95.410156 0)"/>
      </g>
     </g>
    </g>
    <g id="xtick_2">
     <g id="line2d_2">
      <g>
       <use xlink:href="#mb09643f753" x="138.137819" y="450.72" style="stroke: #000000; stroke-width: 0.8"/>
      </g>
     </g>
     <g id="text_2">
      <!-- 1.0 -->
      <g transform="translate(130.186257 465.318437) scale(0.1 -0.1)">
       <defs>
        <path id="DejaVuSans-31" d="M 794 531 
L 1825 531 
L 1825 4091 
L 703 3866 
L 703 4441 
L 1819 4666 
L 2450 4666 
L 2450 531 
L 3481 531 
L 3481 0 
L 794 0 
L 794 531 
z
" transform="scale(0.015625)"/>
       </defs>
       <use xlink:href="#DejaVuSans-31"/>
       <use xlink:href="#DejaVuSans-2e" transform="translate(63.623047 0)"/>
       <use xlink:href="#DejaVuSans-30" transform="translate(95.410156 0)"/>
      </g>
     </g>
    </g>
    <g id="xtick_3">
     <g id="line2d_3">
      <g>
       <use xlink:href="#mb09643f753" x="194.083219" y="450.72" style="stroke: #000000; stroke-width: 0.8"/>
      </g>
     </g>
     <g id="text_3">
      <!-- 1.2 -->
      <g transform="translate(186.131657 465.318437) scale(0.1 -0.1)">
       <defs>
        <path id="DejaVuSans-32" d="M 1228 531 
L 3431 531 
L 3431 0 
L 469 0 
L 469 531 
Q 828 903 1448 1529 
Q 2069 2156 2228 2338 
Q 2531 2678 2651 2914 
Q 2772 3150 2772 3378 
Q 2772 3750 2511 3984 
Q 2250 4219 1831 4219 
Q 1534 4219 1204 4116 
Q 875 4013 500 3803 
L 500 4441 
Q 881 4594 1212 4672 
Q 1544 4750 1819 4750 
Q 2544 4750 2975 4387 
Q 3406 4025 3406 3419 
Q 3406 3131 3298 2873 
Q 3191 2616 2906 2266 
Q 2828 2175 2409 1742 
Q 1991 1309 1228 531 
z
" transform="scale(0.015625)"/>
       </defs>
       <use xlink:href="#DejaVuSans-31"/>
       <use xlink:href="#DejaVuSans-2e" transform="translate(63.623047 0)"/>
       <use xlink:href="#DejaVuSans-32" transform="translate(95.410156 0)"/>
      </g>
     </g>
    </g>
    <g id="xtick_4">
     <g id="line2d_4">
      <g>
       <use xlink:href="#mb09643f753" x="250.02862" y="450.72" style="stroke: #000000; stroke-width: 0.8"/>
      </g>
     </g>
     <g id="text_4">
      <!-- 1.4 -->
      <g transform="translate(242.077057 465.318437) scale(0.1 -0.1)">
       <defs>
        <path id="DejaVuSans-34" d="M 2419 4116 
L 825 1625 
L 2419 1625 
L 2419 4116 
z
M 2253 4666 
L 3047 4666 
L 3047 1625 
L 3713 1625 
L 3713 1100 
L 3047 1100 
L 3047 0 
L 2419 0 
L 2419 1100 
L 313 1100 
L 313 1709 
L 2253 4666 
z
" transform="scale(0.015625)"/>
       </defs>
       <use xlink:href="#DejaVuSans-31"/>
       <use xlink:href="#DejaVuSans-2e" transform="translate(63.623047 0)"/>
       <use xlink:href="#DejaVuSans-34" transform="translate(95.410156 0)"/>
      </g>
     </g>
    </g>
    <g id="xtick_5">
     <g id="line2d_5">
      <g>
       <use xlink:href="#mb09643f753" x="305.97402" y="450.72" style="stroke: #000000; stroke-width: 0.8"/>
      </g>
     </g>
     <g id="text_5">
      <!-- 1.6 -->
      <g transform="translate(298.022458 465.318437) scale(0.1 -0.1)">
       <defs>
        <path id="DejaVuSans-36" d="M 2113 2584 
Q 1688 2584 1439 2293 
Q 1191 2003 1191 1497 
Q 1191 994 1439 701 
Q 1688 409 2113 409 
Q 2538 409 2786 701 
Q 3034 994 3034 1497 
Q 3034 2003 2786 2293 
Q 2538 2584 2113 2584 
z
M 3366 4563 
L 3366 3988 
Q 3128 4100 2886 4159 
Q 2644 4219 2406 4219 
Q 1781 4219 1451 3797 
Q 1122 3375 1075 2522 
Q 1259 2794 1537 2939 
Q 1816 3084 2150 3084 
Q 2853 3084 3261 2657 
Q 3669 2231 3669 1497 
Q 3669 778 3244 343 
Q 2819 -91 2113 -91 
Q 1303 -91 875 529 
Q 447 1150 447 2328 
Q 447 3434 972 4092 
Q 1497 4750 2381 4750 
Q 2619 4750 2861 4703 
Q 3103 4656 3366 4563 
z
" transform="scale(0.015625)"/>
       </defs>
       <use xlink:href="#DejaVuSans-31"/>
       <use xlink:href="#DejaVuSans-2e" transform="translate(63.623047 0)"/>
       <use xlink:href="#DejaVuSans-36" transform="translate(95.410156 0)"/>
      </g>
     </g>
    </g>
    <g id="xtick_6">
     <g id="line2d_6">
      <g>
       <use xlink:href="#mb09643f753" x="361.91942" y="450.72" style="stroke: #000000; stroke-width: 0.8"/>
      </g>
     </g>
     <g id="text_6">
      <!-- 1.8 -->
      <g transform="translate(353.967858 465.318437) scale(0.1 -0.1)">
       <use xlink:href="#DejaVuSans-31"/>
       <use xlink:href="#DejaVuSans-2e" transform="translate(63.623047 0)"/>
       <use xlink:href="#DejaVuSans-38" transform="translate(95.410156 0)"/>
      </g>
     </g>
    </g>
    <g id="xtick_7">
     <g id="line2d_7">
      <g>
       <use xlink:href="#mb09643f753" x="417.864821" y="450.72" style="stroke: #000000; stroke-width: 0.8"/>
      </g>
     </g>
     <g id="text_7">
      <!-- 2.0 -->
      <g transform="translate(409.913258 465.318437) scale(0.1 -0.1)">
       <use xlink:href="#DejaVuSans-32"/>
       <use xlink:href="#DejaVuSans-2e" transform="translate(63.623047 0)"/>
       <use xlink:href="#DejaVuSans-30" transform="translate(95.410156 0)"/>
      </g>
     </g>
    </g>
    <g id="xtick_8">
     <g id="line2d_8">
      <g>
       <use xlink:href="#mb09643f753" x="473.810221" y="450.72" style="stroke: #000000; stroke-width: 0.8"/>
      </g>
     </g>
     <g id="text_8">
      <!-- 2.2 -->
      <g transform="translate(465.858659 465.318437) scale(0.1 -0.1)">
       <use xlink:href="#DejaVuSans-32"/>
       <use xlink:href="#DejaVuSans-2e" transform="translate(63.623047 0)"/>
       <use xlink:href="#DejaVuSans-32" transform="translate(95.410156 0)"/>
      </g>
     </g>
    </g>
   </g>
   <g id="matplotlib.axis_2">
    <g id="ytick_1">
     <g id="line2d_9">
      <defs>
       <path id="m6c2050f004" d="M 0 0 
L -3.5 0 
" style="stroke: #000000; stroke-width: 0.8"/>
      </defs>
      <g>
       <use xlink:href="#m6c2050f004" x="30.103125" y="404.125807" style="stroke: #000000; stroke-width: 0.8"/>
      </g>
     </g>
     <g id="text_9">
      <!-- 0.3 -->
      <g transform="translate(7.2 407.925026) scale(0.1 -0.1)">
       <defs>
        <path id="DejaVuSans-33" d="M 2597 2516 
Q 3050 2419 3304 2112 
Q 3559 1806 3559 1356 
Q 3559 666 3084 287 
Q 2609 -91 1734 -91 
Q 1441 -91 1130 -33 
Q 819 25 488 141 
L 488 750 
Q 750 597 1062 519 
Q 1375 441 1716 441 
Q 2309 441 2620 675 
Q 2931 909 2931 1356 
Q 2931 1769 2642 2001 
Q 2353 2234 1838 2234 
L 1294 2234 
L 1294 2753 
L 1863 2753 
Q 2328 2753 2575 2939 
Q 2822 3125 2822 3475 
Q 2822 3834 2567 4026 
Q 2313 4219 1838 4219 
Q 1578 4219 1281 4162 
Q 984 4106 628 3988 
L 628 4550 
Q 988 4650 1302 4700 
Q 1616 4750 1894 4750 
Q 2613 4750 3031 4423 
Q 3450 4097 3450 3541 
Q 3450 3153 3228 2886 
Q 3006 2619 2597 2516 
z
" transform="scale(0.015625)"/>
       </defs>
       <use xlink:href="#DejaVuSans-30"/>
       <use xlink:href="#DejaVuSans-2e" transform="translate(63.623047 0)"/>
       <use xlink:href="#DejaVuSans-33" transform="translate(95.410156 0)"/>
      </g>
     </g>
    </g>
    <g id="ytick_2">
     <g id="line2d_10">
      <g>
       <use xlink:href="#m6c2050f004" x="30.103125" y="331.732871" style="stroke: #000000; stroke-width: 0.8"/>
      </g>
     </g>
     <g id="text_10">
      <!-- 0.4 -->
      <g transform="translate(7.2 335.532089) scale(0.1 -0.1)">
       <use xlink:href="#DejaVuSans-30"/>
       <use xlink:href="#DejaVuSans-2e" transform="translate(63.623047 0)"/>
       <use xlink:href="#DejaVuSans-34" transform="translate(95.410156 0)"/>
      </g>
     </g>
    </g>
    <g id="ytick_3">
     <g id="line2d_11">
      <g>
       <use xlink:href="#m6c2050f004" x="30.103125" y="259.339935" style="stroke: #000000; stroke-width: 0.8"/>
      </g>
     </g>
     <g id="text_11">
      <!-- 0.5 -->
      <g transform="translate(7.2 263.139153) scale(0.1 -0.1)">
       <defs>
        <path id="DejaVuSans-35" d="M 691 4666 
L 3169 4666 
L 3169 4134 
L 1269 4134 
L 1269 2991 
Q 1406 3038 1543 3061 
Q 1681 3084 1819 3084 
Q 2600 3084 3056 2656 
Q 3513 2228 3513 1497 
Q 3513 744 3044 326 
Q 2575 -91 1722 -91 
Q 1428 -91 1123 -41 
Q 819 9 494 109 
L 494 744 
Q 775 591 1075 516 
Q 1375 441 1709 441 
Q 2250 441 2565 725 
Q 2881 1009 2881 1497 
Q 2881 1984 2565 2268 
Q 2250 2553 1709 2553 
Q 1456 2553 1204 2497 
Q 953 2441 691 2322 
L 691 4666 
z
" transform="scale(0.015625)"/>
       </defs>
       <use xlink:href="#DejaVuSans-30"/>
       <use xlink:href="#DejaVuSans-2e" transform="translate(63.623047 0)"/>
       <use xlink:href="#DejaVuSans-35" transform="translate(95.410156 0)"/>
      </g>
     </g>
    </g>
    <g id="ytick_4">
     <g id="line2d_12">
      <g>
       <use xlink:href="#m6c2050f004" x="30.103125" y="186.946998" style="stroke: #000000; stroke-width: 0.8"/>
      </g>
     </g>
     <g id="text_12">
      <!-- 0.6 -->
      <g transform="translate(7.2 190.746217) scale(0.1 -0.1)">
       <use xlink:href="#DejaVuSans-30"/>
       <use xlink:href="#DejaVuSans-2e" transform="translate(63.623047 0)"/>
       <use xlink:href="#DejaVuSans-36" transform="translate(95.410156 0)"/>
      </g>
     </g>
    </g>
    <g id="ytick_5">
     <g id="line2d_13">
      <g>
       <use xlink:href="#m6c2050f004" x="30.103125" y="114.554062" style="stroke: #000000; stroke-width: 0.8"/>
      </g>
     </g>
     <g id="text_13">
      <!-- 0.7 -->
      <g transform="translate(7.2 118.353281) scale(0.1 -0.1)">
       <defs>
        <path id="DejaVuSans-37" d="M 525 4666 
L 3525 4666 
L 3525 4397 
L 1831 0 
L 1172 0 
L 2766 4134 
L 525 4134 
L 525 4666 
z
" transform="scale(0.015625)"/>
       </defs>
       <use xlink:href="#DejaVuSans-30"/>
       <use xlink:href="#DejaVuSans-2e" transform="translate(63.623047 0)"/>
       <use xlink:href="#DejaVuSans-37" transform="translate(95.410156 0)"/>
      </g>
     </g>
    </g>
    <g id="ytick_6">
     <g id="line2d_14">
      <g>
       <use xlink:href="#m6c2050f004" x="30.103125" y="42.161126" style="stroke: #000000; stroke-width: 0.8"/>
      </g>
     </g>
     <g id="text_14">
      <!-- 0.8 -->
      <g transform="translate(7.2 45.960345) scale(0.1 -0.1)">
       <use xlink:href="#DejaVuSans-30"/>
       <use xlink:href="#DejaVuSans-2e" transform="translate(63.623047 0)"/>
       <use xlink:href="#DejaVuSans-38" transform="translate(95.410156 0)"/>
      </g>
     </g>
    </g>
   </g>
   <g id="patch_6">
    <path d="M 30.103125 450.72 
L 30.103125 7.2 
" style="fill: none; stroke: #000000; stroke-width: 0.8; stroke-linejoin: miter; stroke-linecap: square"/>
   </g>
   <g id="patch_7">
    <path d="M 476.503125 450.72 
L 476.503125 7.2 
" style="fill: none; stroke: #000000; stroke-width: 0.8; stroke-linejoin: miter; stroke-linecap: square"/>
   </g>
   <g id="patch_8">
    <path d="M 30.103125 450.72 
L 476.503125 450.72 
" style="fill: none; stroke: #000000; stroke-width: 0.8; stroke-linejoin: miter; stroke-linecap: square"/>
   </g>
   <g id="patch_9">
    <path d="M 30.103125 7.2 
L 476.503125 7.2 
" style="fill: none; stroke: #000000; stroke-width: 0.8; stroke-linejoin: miter; stroke-linecap: square"/>
   </g>
   <g id="legend_1">
    <g id="patch_10">
     <path d="M 305.423437 23.798437 
L 325.423437 23.798437 
L 325.423437 16.798437 
L 305.423437 16.798437 
z
" style="fill: #0000ff; opacity: 0.3; stroke: #0000ff; stroke-linejoin: miter"/>
    </g>
    <g id="text_15">
     <!-- Original region -->
     <g transform="translate(333.423437 23.798437) scale(0.1 -0.1)">
      <defs>
       <path id="DejaVuSans-4f" d="M 2522 4238 
Q 1834 4238 1429 3725 
Q 1025 3213 1025 2328 
Q 1025 1447 1429 934 
Q 1834 422 2522 422 
Q 3209 422 3611 934 
Q 4013 1447 4013 2328 
Q 4013 3213 3611 3725 
Q 3209 4238 2522 4238 
z
M 2522 4750 
Q 3503 4750 4090 4092 
Q 4678 3434 4678 2328 
Q 4678 1225 4090 567 
Q 3503 -91 2522 -91 
Q 1538 -91 948 565 
Q 359 1222 359 2328 
Q 359 3434 948 4092 
Q 1538 4750 2522 4750 
z
" transform="scale(0.015625)"/>
       <path id="DejaVuSans-72" d="M 2631 2963 
Q 2534 3019 2420 3045 
Q 2306 3072 2169 3072 
Q 1681 3072 1420 2755 
Q 1159 2438 1159 1844 
L 1159 0 
L 581 0 
L 581 3500 
L 1159 3500 
L 1159 2956 
Q 1341 3275 1631 3429 
Q 1922 3584 2338 3584 
Q 2397 3584 2469 3576 
Q 2541 3569 2628 3553 
L 2631 2963 
z
" transform="scale(0.015625)"/>
       <path id="DejaVuSans-69" d="M 603 3500 
L 1178 3500 
L 1178 0 
L 603 0 
L 603 3500 
z
M 603 4863 
L 1178 4863 
L 1178 4134 
L 603 4134 
L 603 4863 
z
" transform="scale(0.015625)"/>
       <path id="DejaVuSans-67" d="M 2906 1791 
Q 2906 2416 2648 2759 
Q 2391 3103 1925 3103 
Q 1463 3103 1205 2759 
Q 947 2416 947 1791 
Q 947 1169 1205 825 
Q 1463 481 1925 481 
Q 2391 481 2648 825 
Q 2906 1169 2906 1791 
z
M 3481 434 
Q 3481 -459 3084 -895 
Q 2688 -1331 1869 -1331 
Q 1566 -1331 1297 -1286 
Q 1028 -1241 775 -1147 
L 775 -588 
Q 1028 -725 1275 -790 
Q 1522 -856 1778 -856 
Q 2344 -856 2625 -561 
Q 2906 -266 2906 331 
L 2906 616 
Q 2728 306 2450 153 
Q 2172 0 1784 0 
Q 1141 0 747 490 
Q 353 981 353 1791 
Q 353 2603 747 3093 
Q 1141 3584 1784 3584 
Q 2172 3584 2450 3431 
Q 2728 3278 2906 2969 
L 2906 3500 
L 3481 3500 
L 3481 434 
z
" transform="scale(0.015625)"/>
       <path id="DejaVuSans-6e" d="M 3513 2113 
L 3513 0 
L 2938 0 
L 2938 2094 
Q 2938 2591 2744 2837 
Q 2550 3084 2163 3084 
Q 1697 3084 1428 2787 
Q 1159 2491 1159 1978 
L 1159 0 
L 581 0 
L 581 3500 
L 1159 3500 
L 1159 2956 
Q 1366 3272 1645 3428 
Q 1925 3584 2291 3584 
Q 2894 3584 3203 3211 
Q 3513 2838 3513 2113 
z
" transform="scale(0.015625)"/>
       <path id="DejaVuSans-61" d="M 2194 1759 
Q 1497 1759 1228 1600 
Q 959 1441 959 1056 
Q 959 750 1161 570 
Q 1363 391 1709 391 
Q 2188 391 2477 730 
Q 2766 1069 2766 1631 
L 2766 1759 
L 2194 1759 
z
M 3341 1997 
L 3341 0 
L 2766 0 
L 2766 531 
Q 2569 213 2275 61 
Q 1981 -91 1556 -91 
Q 1019 -91 701 211 
Q 384 513 384 1019 
Q 384 1609 779 1909 
Q 1175 2209 1959 2209 
L 2766 2209 
L 2766 2266 
Q 2766 2663 2505 2880 
Q 2244 3097 1772 3097 
Q 1472 3097 1187 3025 
Q 903 2953 641 2809 
L 641 3341 
Q 956 3463 1253 3523 
Q 1550 3584 1831 3584 
Q 2591 3584 2966 3190 
Q 3341 2797 3341 1997 
z
" transform="scale(0.015625)"/>
       <path id="DejaVuSans-6c" d="M 603 4863 
L 1178 4863 
L 1178 0 
L 603 0 
L 603 4863 
z
" transform="scale(0.015625)"/>
       <path id="DejaVuSans-20" transform="scale(0.015625)"/>
       <path id="DejaVuSans-65" d="M 3597 1894 
L 3597 1613 
L 953 1613 
Q 991 1019 1311 708 
Q 1631 397 2203 397 
Q 2534 397 2845 478 
Q 3156 559 3463 722 
L 3463 178 
Q 3153 47 2828 -22 
Q 2503 -91 2169 -91 
Q 1331 -91 842 396 
Q 353 884 353 1716 
Q 353 2575 817 3079 
Q 1281 3584 2069 3584 
Q 2775 3584 3186 3129 
Q 3597 2675 3597 1894 
z
M 3022 2063 
Q 3016 2534 2758 2815 
Q 2500 3097 2075 3097 
Q 1594 3097 1305 2825 
Q 1016 2553 972 2059 
L 3022 2063 
z
" transform="scale(0.015625)"/>
       <path id="DejaVuSans-6f" d="M 1959 3097 
Q 1497 3097 1228 2736 
Q 959 2375 959 1747 
Q 959 1119 1226 758 
Q 1494 397 1959 397 
Q 2419 397 2687 759 
Q 2956 1122 2956 1747 
Q 2956 2369 2687 2733 
Q 2419 3097 1959 3097 
z
M 1959 3584 
Q 2709 3584 3137 3096 
Q 3566 2609 3566 1747 
Q 3566 888 3137 398 
Q 2709 -91 1959 -91 
Q 1206 -91 779 398 
Q 353 888 353 1747 
Q 353 2609 779 3096 
Q 1206 3584 1959 3584 
z
" transform="scale(0.015625)"/>
      </defs>
      <use xlink:href="#DejaVuSans-4f"/>
      <use xlink:href="#DejaVuSans-72" transform="translate(78.710938 0)"/>
      <use xlink:href="#DejaVuSans-69" transform="translate(119.824219 0)"/>
      <use xlink:href="#DejaVuSans-67" transform="translate(147.607422 0)"/>
      <use xlink:href="#DejaVuSans-69" transform="translate(211.083984 0)"/>
      <use xlink:href="#DejaVuSans-6e" transform="translate(238.867188 0)"/>
      <use xlink:href="#DejaVuSans-61" transform="translate(302.246094 0)"/>
      <use xlink:href="#DejaVuSans-6c" transform="translate(363.525391 0)"/>
      <use xlink:href="#DejaVuSans-20" transform="translate(391.308594 0)"/>
      <use xlink:href="#DejaVuSans-72" transform="translate(423.095703 0)"/>
      <use xlink:href="#DejaVuSans-65" transform="translate(461.958984 0)"/>
      <use xlink:href="#DejaVuSans-67" transform="translate(523.482422 0)"/>
      <use xlink:href="#DejaVuSans-69" transform="translate(586.958984 0)"/>
      <use xlink:href="#DejaVuSans-6f" transform="translate(614.742188 0)"/>
      <use xlink:href="#DejaVuSans-6e" transform="translate(675.923828 0)"/>
     </g>
    </g>
    <g id="patch_11">
     <path d="M 305.423437 38.476562 
L 325.423437 38.476562 
L 325.423437 31.476562 
L 305.423437 31.476562 
z
" style="fill: #008000; opacity: 0.3; stroke: #008000; stroke-linejoin: miter"/>
    </g>
    <g id="text_16">
     <!-- Analytical polygon (m=36) -->
     <g transform="translate(333.423437 38.476562) scale(0.1 -0.1)">
      <defs>
       <path id="DejaVuSans-41" d="M 2188 4044 
L 1331 1722 
L 3047 1722 
L 2188 4044 
z
M 1831 4666 
L 2547 4666 
L 4325 0 
L 3669 0 
L 3244 1197 
L 1141 1197 
L 716 0 
L 50 0 
L 1831 4666 
z
" transform="scale(0.015625)"/>
       <path id="DejaVuSans-79" d="M 2059 -325 
Q 1816 -950 1584 -1140 
Q 1353 -1331 966 -1331 
L 506 -1331 
L 506 -850 
L 844 -850 
Q 1081 -850 1212 -737 
Q 1344 -625 1503 -206 
L 1606 56 
L 191 3500 
L 800 3500 
L 1894 763 
L 2988 3500 
L 3597 3500 
L 2059 -325 
z
" transform="scale(0.015625)"/>
       <path id="DejaVuSans-74" d="M 1172 4494 
L 1172 3500 
L 2356 3500 
L 2356 3053 
L 1172 3053 
L 1172 1153 
Q 1172 725 1289 603 
Q 1406 481 1766 481 
L 2356 481 
L 2356 0 
L 1766 0 
Q 1100 0 847 248 
Q 594 497 594 1153 
L 594 3053 
L 172 3053 
L 172 3500 
L 594 3500 
L 594 4494 
L 1172 4494 
z
" transform="scale(0.015625)"/>
       <path id="DejaVuSans-63" d="M 3122 3366 
L 3122 2828 
Q 2878 2963 2633 3030 
Q 2388 3097 2138 3097 
Q 1578 3097 1268 2742 
Q 959 2388 959 1747 
Q 959 1106 1268 751 
Q 1578 397 2138 397 
Q 2388 397 2633 464 
Q 2878 531 3122 666 
L 3122 134 
Q 2881 22 2623 -34 
Q 2366 -91 2075 -91 
Q 1284 -91 818 406 
Q 353 903 353 1747 
Q 353 2603 823 3093 
Q 1294 3584 2113 3584 
Q 2378 3584 2631 3529 
Q 2884 3475 3122 3366 
z
" transform="scale(0.015625)"/>
       <path id="DejaVuSans-70" d="M 1159 525 
L 1159 -1331 
L 581 -1331 
L 581 3500 
L 1159 3500 
L 1159 2969 
Q 1341 3281 1617 3432 
Q 1894 3584 2278 3584 
Q 2916 3584 3314 3078 
Q 3713 2572 3713 1747 
Q 3713 922 3314 415 
Q 2916 -91 2278 -91 
Q 1894 -91 1617 61 
Q 1341 213 1159 525 
z
M 3116 1747 
Q 3116 2381 2855 2742 
Q 2594 3103 2138 3103 
Q 1681 3103 1420 2742 
Q 1159 2381 1159 1747 
Q 1159 1113 1420 752 
Q 1681 391 2138 391 
Q 2594 391 2855 752 
Q 3116 1113 3116 1747 
z
" transform="scale(0.015625)"/>
       <path id="DejaVuSans-28" d="M 1984 4856 
Q 1566 4138 1362 3434 
Q 1159 2731 1159 2009 
Q 1159 1288 1364 580 
Q 1569 -128 1984 -844 
L 1484 -844 
Q 1016 -109 783 600 
Q 550 1309 550 2009 
Q 550 2706 781 3412 
Q 1013 4119 1484 4856 
L 1984 4856 
z
" transform="scale(0.015625)"/>
       <path id="DejaVuSans-6d" d="M 3328 2828 
Q 3544 3216 3844 3400 
Q 4144 3584 4550 3584 
Q 5097 3584 5394 3201 
Q 5691 2819 5691 2113 
L 5691 0 
L 5113 0 
L 5113 2094 
Q 5113 2597 4934 2840 
Q 4756 3084 4391 3084 
Q 3944 3084 3684 2787 
Q 3425 2491 3425 1978 
L 3425 0 
L 2847 0 
L 2847 2094 
Q 2847 2600 2669 2842 
Q 2491 3084 2119 3084 
Q 1678 3084 1418 2786 
Q 1159 2488 1159 1978 
L 1159 0 
L 581 0 
L 581 3500 
L 1159 3500 
L 1159 2956 
Q 1356 3278 1631 3431 
Q 1906 3584 2284 3584 
Q 2666 3584 2933 3390 
Q 3200 3197 3328 2828 
z
" transform="scale(0.015625)"/>
       <path id="DejaVuSans-3d" d="M 678 2906 
L 4684 2906 
L 4684 2381 
L 678 2381 
L 678 2906 
z
M 678 1631 
L 4684 1631 
L 4684 1100 
L 678 1100 
L 678 1631 
z
" transform="scale(0.015625)"/>
       <path id="DejaVuSans-29" d="M 513 4856 
L 1013 4856 
Q 1481 4119 1714 3412 
Q 1947 2706 1947 2009 
Q 1947 1309 1714 600 
Q 1481 -109 1013 -844 
L 513 -844 
Q 928 -128 1133 580 
Q 1338 1288 1338 2009 
Q 1338 2731 1133 3434 
Q 928 4138 513 4856 
z
" transform="scale(0.015625)"/>
      </defs>
      <use xlink:href="#DejaVuSans-41"/>
      <use xlink:href="#DejaVuSans-6e" transform="translate(68.408203 0)"/>
      <use xlink:href="#DejaVuSans-61" transform="translate(131.787109 0)"/>
      <use xlink:href="#DejaVuSans-6c" transform="translate(193.066406 0)"/>
      <use xlink:href="#DejaVuSans-79" transform="translate(220.849609 0)"/>
      <use xlink:href="#DejaVuSans-74" transform="translate(280.029297 0)"/>
      <use xlink:href="#DejaVuSans-69" transform="translate(319.238281 0)"/>
      <use xlink:href="#DejaVuSans-63" transform="translate(347.021484 0)"/>
      <use xlink:href="#DejaVuSans-61" transform="translate(402.001953 0)"/>
      <use xlink:href="#DejaVuSans-6c" transform="translate(463.28125 0)"/>
      <use xlink:href="#DejaVuSans-20" transform="translate(491.064453 0)"/>
      <use xlink:href="#DejaVuSans-70" transform="translate(522.851562 0)"/>
      <use xlink:href="#DejaVuSans-6f" transform="translate(586.328125 0)"/>
      <use xlink:href="#DejaVuSans-6c" transform="translate(647.509766 0)"/>
      <use xlink:href="#DejaVuSans-79" transform="translate(675.292969 0)"/>
      <use xlink:href="#DejaVuSans-67" transform="translate(734.472656 0)"/>
      <use xlink:href="#DejaVuSans-6f" transform="translate(797.949219 0)"/>
      <use xlink:href="#DejaVuSans-6e" transform="translate(859.130859 0)"/>
      <use xlink:href="#DejaVuSans-20" transform="translate(922.509766 0)"/>
      <use xlink:href="#DejaVuSans-28" transform="translate(954.296875 0)"/>
      <use xlink:href="#DejaVuSans-6d" transform="translate(993.310547 0)"/>
      <use xlink:href="#DejaVuSans-3d" transform="translate(1090.722656 0)"/>
      <use xlink:href="#DejaVuSans-33" transform="translate(1174.511719 0)"/>
      <use xlink:href="#DejaVuSans-36" transform="translate(1238.134766 0)"/>
      <use xlink:href="#DejaVuSans-29" transform="translate(1301.757812 0)"/>
     </g>
    </g>
    <g id="patch_12">
     <path d="M 305.423437 53.154687 
L 325.423437 53.154687 
L 325.423437 46.154687 
L 305.423437 46.154687 
z
" style="fill: #ff0000; opacity: 0.3; stroke: #0000ff; stroke-linejoin: miter"/>
    </g>
    <g id="text_17">
     <!-- Learned region -->
     <g transform="translate(333.423437 53.154687) scale(0.1 -0.1)">
      <defs>
       <path id="DejaVuSans-4c" d="M 628 4666 
L 1259 4666 
L 1259 531 
L 3531 531 
L 3531 0 
L 628 0 
L 628 4666 
z
" transform="scale(0.015625)"/>
       <path id="DejaVuSans-64" d="M 2906 2969 
L 2906 4863 
L 3481 4863 
L 3481 0 
L 2906 0 
L 2906 525 
Q 2725 213 2448 61 
Q 2172 -91 1784 -91 
Q 1150 -91 751 415 
Q 353 922 353 1747 
Q 353 2572 751 3078 
Q 1150 3584 1784 3584 
Q 2172 3584 2448 3432 
Q 2725 3281 2906 2969 
z
M 947 1747 
Q 947 1113 1208 752 
Q 1469 391 1925 391 
Q 2381 391 2643 752 
Q 2906 1113 2906 1747 
Q 2906 2381 2643 2742 
Q 2381 3103 1925 3103 
Q 1469 3103 1208 2742 
Q 947 2381 947 1747 
z
" transform="scale(0.015625)"/>
      </defs>
      <use xlink:href="#DejaVuSans-4c"/>
      <use xlink:href="#DejaVuSans-65" transform="translate(53.962891 0)"/>
      <use xlink:href="#DejaVuSans-61" transform="translate(115.486328 0)"/>
      <use xlink:href="#DejaVuSans-72" transform="translate(176.765625 0)"/>
      <use xlink:href="#DejaVuSans-6e" transform="translate(216.128906 0)"/>
      <use xlink:href="#DejaVuSans-65" transform="translate(279.507812 0)"/>
      <use xlink:href="#DejaVuSans-64" transform="translate(341.03125 0)"/>
      <use xlink:href="#DejaVuSans-20" transform="translate(404.507812 0)"/>
      <use xlink:href="#DejaVuSans-72" transform="translate(436.294922 0)"/>
      <use xlink:href="#DejaVuSans-65" transform="translate(475.158203 0)"/>
      <use xlink:href="#DejaVuSans-67" transform="translate(536.681641 0)"/>
      <use xlink:href="#DejaVuSans-69" transform="translate(600.158203 0)"/>
      <use xlink:href="#DejaVuSans-6f" transform="translate(627.941406 0)"/>
      <use xlink:href="#DejaVuSans-6e" transform="translate(689.123047 0)"/>
     </g>
    </g>
   </g>
  </g>
 </g>
 <defs>
  <clipPath id="p8819cabfb9">
   <rect x="30.103125" y="7.2" width="446.4" height="443.52"/>
  </clipPath>
 </defs>
</svg>
