<?xml version="1.0" encoding="utf-8" standalone="no"?>
<!DOCTYPE svg PUBLIC "-//W3C//DTD SVG 1.1//EN"
  "http://www.w3.org/Graphics/SVG/1.1/DTD/svg11.dtd">
<svg xmlns:xlink="http://www.w3.org/1999/xlink" width="1072.8pt" height="760.3pt" viewBox="0 0 1072.8 760.3" xmlns="http://www.w3.org/2000/svg" version="1.1">
 <metadata>
  <rdf:RDF xmlns:dc="http://purl.org/dc/elements/1.1/" xmlns:cc="http://creativecommons.org/ns#" xmlns:rdf="http://www.w3.org/1999/02/22-rdf-syntax-ns#">
   <cc:Work>
    <dc:type rdf:resource="http://purl.org/dc/dcmitype/StillImage"/>
    <dc:date>2026-05-02T18:01:22.311121</dc:date>
    <dc:format>image/svg+xml</dc:format>
    <dc:creator>
     <cc:Agent>
      <dc:title>Matplotlib v3.10.6, https://matplotlib.org/</dc:title>
     </cc:Agent>
    </dc:creator>
   </cc:Work>
  </rdf:RDF>
 </metadata>
 <defs>
  <style type="text/css">*{stroke-linejoin: round; stroke-linecap: butt}</style>
 </defs>
 <g id="figure_1">
  <g id="patch_1">
   <path d="M 0 760.3 
L 1072.8 760.3 
L 1072.8 0 
L 0 0 
z
" style="fill: #ffffff"/>
  </g>
  <g id="axes_1">
   <g id="patch_2">
    <path d="M 7.2 393.9 
L 350 393.9 
L 350 69.415 
L 7.2 69.415 
z
" style="fill: #ffffff"/>
   </g>
   <g id="patch_3">
    <path d="M 65.300028 263.209037 
L 64.558078 299.615747 
L 64.415975 317.544385 
L 64.41969 318.079468 
L 64.43075 318.612611 
L 64.449115 319.14339 
L 64.474727 319.671735 
L 64.507528 320.197547 
L 64.547459 320.720724 
L 64.594462 321.241162 
L 64.648478 321.758759 
L 64.709449 322.273416 
L 64.777316 322.785035 
L 64.852023 323.293521 
L 64.933511 323.79878 
L 65.021723 324.300723 
L 65.116602 324.799261 
L 65.218092 325.294305 
L 65.326137 325.785773 
L 65.440682 326.27358 
L 65.561672 326.757645 
L 65.689053 327.237888 
L 65.822772 327.71423 
L 65.962776 328.186595 
L 66.109013 328.654906 
L 66.261432 329.119088 
L 66.419983 329.579068 
L 66.584615 330.034773 
L 66.75528 330.48613 
L 66.931929 330.933068 
L 67.114515 331.375516 
L 67.302991 331.813404 
L 67.497311 332.246661 
L 67.697429 332.675218 
L 67.903301 333.099005 
L 68.114882 333.517954 
L 68.33213 333.931993 
L 68.555001 334.341055 
L 68.783453 334.745069 
L 69.017444 335.143965 
L 69.256934 335.537674 
L 69.501881 335.926125 
L 69.752245 336.309246 
L 70.007987 336.686967 
L 70.269066 337.059215 
L 70.535444 337.425917 
L 70.807081 337.786999 
L 71.083938 338.142388 
L 71.365976 338.492007 
L 71.653157 338.835781 
L 71.945442 339.173632 
L 72.242792 339.505483 
L 72.545167 339.831253 
L 72.852529 340.150863 
L 73.164837 340.464231 
L 73.482051 340.771274 
L 73.804131 341.071908 
L 74.131036 341.366048 
L 74.462723 341.653608 
L 74.799149 341.934499 
L 75.140272 342.208633 
L 75.486046 342.475919 
L 75.836426 342.736265 
L 76.191365 342.98958 
L 76.550815 343.235767 
L 76.914726 343.474732 
L 77.283047 343.706378 
L 77.655724 343.930607 
L 78.032705 344.14732 
L 78.413931 344.356417 
L 78.799345 344.557795 
L 79.188887 344.751353 
L 79.582492 344.936987 
L 79.980096 345.114594 
L 80.381631 345.284067 
L 80.787027 345.445302 
L 81.19621 345.598192 
L 81.609104 345.74263 
L 82.02563 345.87851 
L 82.445706 346.005724 
L 82.869246 346.124165 
L 83.296161 346.233725 
L 83.726358 346.334298 
L 84.159742 346.425778 
L 84.596212 346.508057 
L 85.035666 346.581033 
L 85.477995 346.6446 
L 85.923089 346.698656 
L 86.370834 346.743101 
L 86.821114 346.777834 
L 87.273813 346.802759 
L 87.728839 346.817779 
L 88.186487 346.822799 
L 106.069439 346.622646 
L 134.838451 345.643555 
L 159.312245 344.30849 
L 174.382876 343.171386 
L 184.033577 342.231849 
L 196.467497 340.726289 
L 205.902334 339.382098 
L 212.083855 338.358212 
L 216.471493 337.540576 
L 216.973333 337.434641 
L 217.476054 337.317106 
L 217.979504 337.187897 
L 218.483454 337.046962 
L 218.987662 336.894262 
L 219.491877 336.729768 
L 219.995843 336.553463 
L 220.499298 336.365341 
L 221.001975 336.165408 
L 221.503602 335.953682 
L 222.003905 335.730194 
L 222.502604 335.494987 
L 222.99942 335.248119 
L 223.494069 334.989659 
L 223.986265 334.719691 
L 224.475725 334.438312 
L 224.962162 334.145632 
L 225.44529 333.841775 
L 225.924828 333.526878 
L 226.400492 333.20109 
L 226.872003 332.864576 
L 227.339086 332.517511 
L 227.801468 332.160082 
L 228.258883 331.792491 
L 228.711068 331.414947 
L 229.157768 331.027673 
L 229.598733 330.630903 
L 230.033721 330.224877 
L 230.462498 329.809849 
L 230.884836 329.386077 
L 231.300519 328.953829 
L 231.709337 328.513381 
L 232.111092 328.065013 
L 232.505593 327.609012 
L 232.89266 327.145669 
L 233.272126 326.675281 
L 233.64383 326.198145 
L 234.007624 325.714563 
L 234.363371 325.224837 
L 234.710943 324.729272 
L 235.050225 324.228172 
L 235.381109 323.721841 
L 235.703501 323.210581 
L 236.017315 322.694693 
L 236.322477 322.174476 
L 236.618922 321.650226 
L 236.906595 321.122235 
L 237.18545 320.590792 
L 237.45545 320.056181 
L 237.716568 319.51868 
L 237.968785 318.978565 
L 238.212089 318.436103 
L 238.446478 317.891558 
L 238.671957 317.345186 
L 238.888535 316.797238 
L 239.096232 316.247958 
L 239.295072 315.697582 
L 239.485085 315.146342 
L 239.666307 314.594462 
L 239.838779 314.042157 
L 240.002546 313.489637 
L 240.157659 312.937106 
L 240.304171 312.38476 
L 240.44214 311.832789 
L 240.571625 311.281381 
L 240.684166 310.770576 
L 240.755673 310.421803 
L 240.821996 310.073442 
L 240.883156 309.725327 
L 240.939236 309.377621 
L 241.005167 308.926467 
L 241.07755 308.380837 
L 241.142106 307.835952 
L 242.628412 293.56266 
L 242.67786 293.015209 
L 243.819162 276.122098 
L 243.97488 273.428636 
L 244.099486 270.797867 
L 244.483729 259.293938 
L 245.096134 231.542395 
L 245.222619 219.17658 
L 245.218897 218.637957 
L 244.946588 205.021335 
L 244.911324 204.020638 
L 244.753243 200.852357 
L 244.720147 200.321788 
L 244.679898 199.794446 
L 244.632564 199.270334 
L 244.578215 198.749536 
L 244.51692 198.232144 
L 244.44875 197.718244 
L 244.373774 197.207924 
L 244.292061 196.701266 
L 244.203679 196.198353 
L 244.108695 195.699264 
L 244.007176 195.204075 
L 243.899187 194.712862 
L 243.784793 194.225698 
L 243.664058 193.742653 
L 243.537044 193.263793 
L 243.403806 192.789164 
L 242.894373 191.059129 
L 242.759506 190.627238 
L 242.61851 190.19785 
L 242.471373 189.770988 
L 241.484294 187.060527 
L 240.521933 184.48184 
L 240.049961 183.284845 
L 239.867405 182.842466 
L 239.67911 182.404999 
L 237.04294 176.476984 
L 236.843267 176.049379 
L 236.637982 175.6268 
L 235.882139 174.110175 
L 235.66593 173.698112 
L 235.444319 173.291361 
L 235.217354 172.889977 
L 234.985085 172.494014 
L 234.747558 172.10353 
L 234.50482 171.718582 
L 234.256917 171.339226 
L 234.003893 170.965518 
L 233.745791 170.597514 
L 233.482654 170.235273 
L 233.214523 169.87885 
L 232.941439 169.528303 
L 232.66344 169.18369 
L 232.380564 168.84507 
L 232.092849 168.5125 
L 231.800331 168.186041 
L 231.503046 167.865754 
L 231.201029 167.5517 
L 230.894312 167.243942 
L 230.58293 166.942544 
L 230.266915 166.64757 
L 229.946298 166.359088 
L 229.621113 166.077164 
L 229.291388 165.801869 
L 228.957157 165.533273 
L 228.618448 165.271448 
L 228.275293 165.01647 
L 227.927722 164.768414 
L 227.575766 164.527358 
L 227.219455 164.293384 
L 226.858821 164.066572 
L 226.493895 163.847007 
L 226.12471 163.634776 
L 225.7513 163.429967 
L 225.373699 163.23267 
L 224.991941 163.04298 
L 224.606065 162.860991 
L 224.216108 162.686801 
L 223.822111 162.520509 
L 223.424116 162.362218 
L 223.022168 162.212032 
L 222.616313 162.070056 
L 222.206601 161.9364 
L 221.793085 161.811173 
L 221.37582 161.694488 
L 220.954865 161.586458 
L 220.530284 161.487198 
L 220.102144 161.396826 
L 219.670514 161.31546 
L 219.235471 161.243217 
L 218.797095 161.180219 
L 218.35547 161.126584 
L 217.910687 161.082434 
L 217.462838 161.047889 
L 217.012019 161.023068 
L 216.558493 161.008069 
L 216.101662 161.003079 
L 202.50606 161.16841 
L 173.781321 162.262922 
L 144.680273 163.97945 
L 139.62229 164.360162 
L 121.78822 166.005093 
L 106.635234 167.807685 
L 94.925603 169.476536 
L 94.454364 169.554797 
L 93.981761 169.643896 
L 93.507964 169.743913 
L 93.033153 169.854924 
L 92.557517 169.976995 
L 92.081253 170.110188 
L 91.604561 170.254556 
L 91.12765 170.410142 
L 90.650733 170.576985 
L 90.174029 170.755112 
L 89.697761 170.944542 
L 89.222157 171.145285 
L 88.74745 171.35734 
L 88.273876 171.580698 
L 87.801675 171.815336 
L 87.331089 172.061224 
L 86.862365 172.318318 
L 86.395749 172.586566 
L 85.931492 172.865902 
L 85.469845 173.15625 
L 85.011058 173.457522 
L 84.555384 173.76962 
L 84.103073 174.092433 
L 83.654376 174.425838 
L 83.209542 174.769703 
L 82.768819 175.123882 
L 82.33245 175.488222 
L 81.900677 175.862557 
L 81.473738 176.246709 
L 81.051867 176.640492 
L 80.635293 177.043712 
L 80.224241 177.456161 
L 79.818929 177.877627 
L 79.419571 178.307886 
L 79.026372 178.746709 
L 78.639533 179.193856 
L 78.259246 179.649084 
L 77.885697 180.11214 
L 77.519065 180.582769 
L 77.159518 181.060708 
L 76.807219 181.54569 
L 76.462322 182.037444 
L 76.124971 182.535696 
L 75.795304 183.040168 
L 75.473448 183.550582 
L 75.159522 184.066655 
L 74.853638 184.588106 
L 74.555897 185.114652 
L 74.266392 185.646008 
L 73.985209 186.181892 
L 73.712423 186.722023 
L 73.448102 187.26612 
L 73.192307 187.813903 
L 72.945087 188.365097 
L 72.706487 188.919428 
L 72.476544 189.476624 
L 72.255284 190.036418 
L 72.042731 190.598547 
L 71.838896 191.162749 
L 71.643789 191.728771 
L 71.457411 192.296361 
L 71.279754 192.865272 
L 71.11081 193.435264 
L 70.950559 194.0061 
L 70.798981 194.577548 
L 70.656048 195.149385 
L 70.521727 195.72139 
L 70.395982 196.293348 
L 70.278771 196.865052 
L 70.170049 197.436299 
L 70.069767 198.006894 
L 69.977872 198.576652 
L 69.894305 199.145419 
L 69.69228 200.70316 
L 69.254608 204.430799 
L 68.359484 212.98427 
L 67.545483 222.13418 
L 66.638321 234.060843 
L 65.940485 245.104236 
L 65.848895 247.061392 
z
" clip-path="url(#pe64c9455f4)" style="fill: #1f77b4; opacity: 0.35; stroke: #00008b; stroke-width: 1.5; stroke-linejoin: miter"/>
   </g>
   <g id="patch_4">
    <path d="M 65.670536 324.132546 
L 68.270336 333.147653 
L 79.264405 344.753334 
L 185.914062 342.190104 
L 224.692815 333.497603 
L 237.029854 320.334469 
L 241.974735 283.062364 
L 242.350432 192.358483 
L 241.000071 182.84143 
L 227.422162 162.406861 
L 131.265871 164.173407 
L 85.906082 173.406023 
L 80.87217 177.054915 
L 72.765327 189.18938 
L 66.898714 231.161866 
z
" clip-path="url(#pe64c9455f4)" style="fill: #ff7f0e; opacity: 0.35; stroke: #ff8c00; stroke-width: 1.5; stroke-linejoin: miter"/>
   </g>
   <g id="patch_5">
    <path d="M 67.34189 324.34665 
L 69.855566 333.117795 
L 79.545382 343.340457 
L 187.169771 340.408402 
L 221.983318 332.498041 
L 234.425804 319.073466 
L 239.430289 280.141431 
L 239.533716 184.950452 
L 226.27154 165.004297 
L 135.182797 166.376543 
L 84.531609 176.414487 
L 81.134917 178.858687 
L 74.10323 189.325853 
L 68.93847 225.694012 
z
" clip-path="url(#pe64c9455f4)" style="fill: #d62728; opacity: 0.35; stroke: #8b0000; stroke-width: 1.5; stroke-linejoin: miter"/>
   </g>
   <g id="matplotlib.axis_1"/>
   <g id="matplotlib.axis_2"/>
   <g id="text_1">
    <!-- (a) $\Delta\theta=0$ -->
    <g transform="translate(152.34 66.555) scale(0.13 -0.13)">
     <defs>
      <path id="TimesNewRomanPSMT-28" d="M 1988 -1253 
L 1988 -1369 
Q 1516 -1131 1200 -813 
Q 750 -359 506 256 
Q 263 872 263 1534 
Q 263 2503 741 3301 
Q 1219 4100 1988 4444 
L 1988 4313 
Q 1603 4100 1356 3731 
Q 1109 3363 987 2797 
Q 866 2231 866 1616 
Q 866 947 969 400 
Q 1050 -31 1165 -292 
Q 1281 -553 1476 -793 
Q 1672 -1034 1988 -1253 
z
" transform="scale(0.015625)"/>
      <path id="TimesNewRomanPSMT-61" d="M 1822 413 
Q 1381 72 1269 19 
Q 1100 -59 909 -59 
Q 613 -59 420 144 
Q 228 347 228 678 
Q 228 888 322 1041 
Q 450 1253 767 1440 
Q 1084 1628 1822 1897 
L 1822 2009 
Q 1822 2438 1686 2597 
Q 1550 2756 1291 2756 
Q 1094 2756 978 2650 
Q 859 2544 859 2406 
L 866 2225 
Q 866 2081 792 2003 
Q 719 1925 600 1925 
Q 484 1925 411 2006 
Q 338 2088 338 2228 
Q 338 2497 613 2722 
Q 888 2947 1384 2947 
Q 1766 2947 2009 2819 
Q 2194 2722 2281 2516 
Q 2338 2381 2338 1966 
L 2338 994 
Q 2338 584 2353 492 
Q 2369 400 2405 369 
Q 2441 338 2488 338 
Q 2538 338 2575 359 
Q 2641 400 2828 588 
L 2828 413 
Q 2478 -56 2159 -56 
Q 2006 -56 1915 50 
Q 1825 156 1822 413 
z
M 1822 616 
L 1822 1706 
Q 1350 1519 1213 1441 
Q 966 1303 859 1153 
Q 753 1003 753 825 
Q 753 600 887 451 
Q 1022 303 1197 303 
Q 1434 303 1822 616 
z
" transform="scale(0.015625)"/>
      <path id="TimesNewRomanPSMT-29" d="M 144 4313 
L 144 4444 
Q 619 4209 934 3891 
Q 1381 3434 1625 2820 
Q 1869 2206 1869 1541 
Q 1869 572 1392 -226 
Q 916 -1025 144 -1369 
L 144 -1253 
Q 528 -1038 776 -670 
Q 1025 -303 1145 264 
Q 1266 831 1266 1447 
Q 1266 2113 1163 2663 
Q 1084 3094 967 3353 
Q 850 3613 656 3853 
Q 463 4094 144 4313 
z
" transform="scale(0.015625)"/>
      <path id="TimesNewRomanPSMT-20" transform="scale(0.015625)"/>
      <path id="STIXGeneral-Regular-394" d="M 4320 0 
L 307 0 
L 2221 4314 
L 2349 4314 
L 4320 0 
z
M 3354 589 
L 2118 3405 
L 870 589 
L 3354 589 
z
" transform="scale(0.015625)"/>
      <path id="STIXGeneral-Italic-3b8" d="M 3162 3270 
Q 3162 2534 2925 1862 
Q 2688 1190 2304 678 
Q 1741 -70 992 -70 
Q 608 -70 390 224 
Q 173 518 173 1030 
Q 173 1997 592 2813 
Q 1011 3629 1594 4070 
Q 1952 4339 2374 4339 
Q 2733 4339 2947 4076 
Q 3162 3814 3162 3270 
z
M 941 2221 
L 2432 2221 
Q 2624 2874 2624 3533 
Q 2624 4205 2285 4205 
Q 2029 4205 1728 3814 
Q 1427 3424 1232 2992 
Q 1037 2560 941 2221 
z
M 2387 2016 
L 896 2016 
Q 710 1530 710 960 
Q 710 64 1069 64 
Q 1286 64 1510 275 
Q 1734 486 1904 806 
Q 2074 1126 2198 1440 
Q 2323 1754 2387 2016 
z
" transform="scale(0.015625)"/>
      <path id="STIXGeneral-Regular-3d" d="M 4077 2048 
L 307 2048 
L 307 2470 
L 4077 2470 
L 4077 2048 
z
M 4077 768 
L 307 768 
L 307 1190 
L 4077 1190 
L 4077 768 
z
" transform="scale(0.015625)"/>
      <path id="STIXGeneral-Regular-30" d="M 3046 2112 
Q 3046 1683 2963 1302 
Q 2880 922 2717 602 
Q 2554 282 2266 96 
Q 1978 -90 1600 -90 
Q 1210 -90 915 108 
Q 621 307 461 640 
Q 301 973 227 1350 
Q 154 1728 154 2150 
Q 154 2746 301 3222 
Q 448 3699 790 4012 
Q 1133 4326 1626 4326 
Q 2253 4326 2649 3712 
Q 3046 3098 3046 2112 
z
M 2432 2080 
Q 2432 3091 2217 3625 
Q 2003 4160 1587 4160 
Q 1190 4160 979 3622 
Q 768 3085 768 2106 
Q 768 1120 979 598 
Q 1190 77 1600 77 
Q 2003 77 2217 598 
Q 2432 1120 2432 2080 
z
" transform="scale(0.015625)"/>
     </defs>
     <use xlink:href="#TimesNewRomanPSMT-28" transform="translate(0 0.5625)"/>
     <use xlink:href="#TimesNewRomanPSMT-61" transform="translate(33.300781 0.5625)"/>
     <use xlink:href="#TimesNewRomanPSMT-29" transform="translate(77.685547 0.5625)"/>
     <use xlink:href="#TimesNewRomanPSMT-20" transform="translate(110.986328 0.5625)"/>
     <use xlink:href="#STIXGeneral-Regular-394" transform="translate(135.986328 0.5625)"/>
     <use xlink:href="#STIXGeneral-Italic-3b8" transform="translate(208.18631 0.5625)"/>
     <use xlink:href="#STIXGeneral-Regular-3d" transform="translate(270.626291 0.5625)"/>
     <use xlink:href="#STIXGeneral-Regular-30" transform="translate(353.566272 0.5625)"/>
    </g>
   </g>
  </g>
  <g id="axes_2">
   <g id="patch_6">
    <path d="M 365 393.9 
L 707.8 393.9 
L 707.8 69.415 
L 365 69.415 
z
" style="fill: #ffffff"/>
   </g>
   <g id="patch_7">
    <path d="M 434.916249 253.363797 
L 434.234978 286.94499 
L 434.0878 305.06007 
L 434.091713 305.62748 
L 434.103425 306.192063 
L 434.12287 306.754024 
L 434.149981 307.313288 
L 434.184694 307.869753 
L 434.226944 308.423313 
L 434.276666 308.973864 
L 434.333796 309.5213 
L 434.39827 310.065522 
L 434.470023 310.606431 
L 434.548992 311.143929 
L 434.635114 311.677924 
L 434.728327 312.208324 
L 434.828569 312.735039 
L 434.935778 313.257982 
L 435.049895 313.777069 
L 435.170859 314.292215 
L 435.298613 314.803339 
L 435.433097 315.310362 
L 435.574255 315.813204 
L 435.72203 316.311788 
L 435.876367 316.806039 
L 436.037212 317.295882 
L 436.204511 317.781242 
L 436.378212 318.262049 
L 436.558263 318.738228 
L 436.744612 319.20971 
L 436.937212 319.676422 
L 437.136011 320.138295 
L 437.340964 320.595259 
L 437.552022 321.047244 
L 437.769139 321.49418 
L 437.99227 321.935998 
L 438.221371 322.372628 
L 438.456397 322.803999 
L 438.697306 323.230043 
L 438.944055 323.650689 
L 439.196603 324.065865 
L 439.454909 324.4755 
L 439.718932 324.879522 
L 439.988631 325.277858 
L 440.263969 325.670436 
L 440.544906 326.05718 
L 440.831402 326.438015 
L 441.123421 326.812865 
L 441.420922 327.181653 
L 441.723869 327.5443 
L 442.032224 327.900726 
L 442.345948 328.250851 
L 442.665004 328.594592 
L 442.989353 328.931866 
L 443.318956 329.262588 
L 443.653776 329.586672 
L 443.993772 329.904029 
L 444.338905 330.214571 
L 444.689135 330.518206 
L 445.04442 330.814842 
L 445.404718 331.104386 
L 445.769986 331.386741 
L 446.140181 331.66181 
L 446.515256 331.929495 
L 446.895165 332.189695 
L 447.27986 332.442308 
L 447.669292 332.687231 
L 448.063408 332.924359 
L 448.462157 333.153586 
L 448.865481 333.374802 
L 449.273325 333.5879 
L 449.685629 333.792768 
L 450.10233 333.989295 
L 450.523364 334.177367 
L 450.948664 334.356871 
L 451.378159 334.527691 
L 451.811777 334.68971 
L 452.249441 334.842814 
L 452.691071 334.986883 
L 453.136585 335.1218 
L 453.585895 335.247447 
L 454.038912 335.363706 
L 454.495541 335.470458 
L 454.955684 335.567586 
L 455.419239 335.654971 
L 455.886099 335.732498 
L 456.356154 335.800049 
L 456.829288 335.857511 
L 457.305383 335.90477 
L 457.784318 335.941713 
L 458.265973 335.968232 
L 458.750244 335.984218 
L 459.236815 335.989589 
L 474.65247 335.844954 
L 505.444918 334.811194 
L 531.684523 333.361529 
L 547.717265 332.143035 
L 559.605874 330.968794 
L 570.274011 329.650778 
L 580.838398 328.137998 
L 588.163921 326.93074 
L 593.983164 325.835154 
L 594.489375 325.728304 
L 594.995455 325.609984 
L 595.501864 325.480016 
L 596.008394 325.33836 
L 596.51488 325.184997 
L 597.020981 325.019888 
L 597.52648 324.843019 
L 598.031235 324.654412 
L 598.534955 324.454064 
L 599.037394 324.241996 
L 599.538302 324.018237 
L 600.037428 323.78283 
L 600.534516 323.535827 
L 601.02931 323.277292 
L 601.52155 323.0073 
L 602.010976 322.72594 
L 602.497329 322.433311 
L 602.980347 322.129523 
L 603.459773 321.814699 
L 603.935348 321.488973 
L 604.406816 321.152489 
L 604.873924 320.805405 
L 605.336421 320.447887 
L 605.794063 320.080113 
L 606.246606 319.70227 
L 606.693816 319.314554 
L 607.135459 318.917173 
L 607.571312 318.51034 
L 608.001156 318.094277 
L 608.424779 317.669216 
L 608.841977 317.235391 
L 609.252554 316.793047 
L 609.656321 316.342432 
L 610.053099 315.883798 
L 610.442715 315.417404 
L 610.825008 314.94351 
L 611.199822 314.462379 
L 611.567015 313.974279 
L 611.926449 313.479476 
L 612.277998 312.97824 
L 612.621544 312.47084 
L 612.956978 311.957544 
L 613.2842 311.438621 
L 613.603119 310.91434 
L 613.913653 310.384964 
L 614.215725 309.85076 
L 614.509271 309.311986 
L 614.794232 308.768904 
L 615.070557 308.221767 
L 615.338202 307.670828 
L 615.59713 307.116337 
L 615.847313 306.558537 
L 616.088726 305.99767 
L 616.321354 305.433971 
L 616.545183 304.867674 
L 616.76021 304.299007 
L 616.966433 303.728192 
L 617.163857 303.155448 
L 617.352491 302.58099 
L 617.532349 302.005028 
L 617.703448 301.427765 
L 617.865811 300.849404 
L 618.019462 300.27014 
L 618.164429 299.690164 
L 618.300745 299.109664 
L 618.428443 298.528822 
L 618.547561 297.947816 
L 618.658139 297.366821 
L 618.760216 296.786006 
L 618.853839 296.205538 
L 618.939052 295.625576 
L 619.015902 295.046276 
L 620.584901 281.20225 
L 620.800123 279.219819 
L 620.85262 278.638605 
L 622.160503 260.599561 
L 622.336767 257.729863 
L 622.477517 254.927307 
L 622.990613 240.028504 
L 623.620459 212.659159 
L 623.755749 200.10039 
L 623.7518 199.528552 
L 623.522067 190.20292 
L 623.331934 184.509761 
L 623.230041 182.498373 
L 623.0707 180.095913 
L 623.027933 179.535565 
L 622.977647 178.978771 
L 622.919912 178.425532 
L 622.854803 177.875943 
L 622.782395 177.330096 
L 622.702763 176.788083 
L 622.615981 176.249995 
L 622.522123 175.715919 
L 622.42126 175.185941 
L 622.313466 174.660144 
L 622.198811 174.138609 
L 622.077367 173.621416 
L 621.949201 173.108642 
L 621.814384 172.600363 
L 621.672982 172.096651 
L 621.525062 171.597578 
L 621.37069 171.103215 
L 621.209929 170.613628 
L 621.04284 170.128877 
L 618.694531 163.674027 
L 618.514827 163.198762 
L 618.018499 161.928707 
L 617.826613 161.463721 
L 617.628711 161.003931 
L 615.932952 157.175831 
L 615.731774 156.745009 
L 615.524227 156.317778 
L 615.310285 155.894161 
L 614.143945 153.6457 
L 613.917068 153.229289 
L 613.683727 152.816637 
L 613.049133 151.723875 
L 612.796542 151.308627 
L 612.53848 150.899378 
L 611.51913 149.343341 
L 611.250307 148.946297 
L 610.976189 148.555457 
L 610.696815 148.170862 
L 610.412233 147.79257 
L 610.122489 147.420638 
L 609.827627 147.055122 
L 609.527693 146.69608 
L 609.222729 146.343572 
L 608.912776 145.997654 
L 608.597874 145.658387 
L 608.278062 145.32583 
L 607.953379 145.000043 
L 607.623859 144.681089 
L 607.28954 144.36903 
L 606.950456 144.06393 
L 606.606639 143.765854 
L 606.258124 143.474869 
L 605.904941 143.191042 
L 605.547122 142.914445 
L 605.184698 142.645149 
L 604.817698 142.383227 
L 604.446154 142.128755 
L 604.070093 141.881812 
L 603.689547 141.642476 
L 603.304544 141.410832 
L 602.915115 141.186962 
L 602.52129 140.970956 
L 602.1231 140.762902 
L 601.720577 140.562893 
L 601.313754 140.371025 
L 600.902664 140.187395 
L 600.487343 140.012103 
L 600.067829 139.845254 
L 599.644161 139.686952 
L 599.216381 139.537306 
L 598.784532 139.396428 
L 598.348662 139.264432 
L 597.90882 139.141433 
L 597.465061 139.02755 
L 597.017441 138.922905 
L 596.566021 138.827619 
L 596.110869 138.741818 
L 595.652053 138.665628 
L 595.189649 138.599176 
L 594.723738 138.542593 
L 594.254406 138.496006 
L 593.781743 138.459546 
L 593.305841 138.433345 
L 592.826789 138.417531 
L 592.344874 138.41221 
L 577.918319 138.599728 
L 557.193385 139.376572 
L 526.498309 141.093045 
L 511.40169 142.162972 
L 493.124083 143.939637 
L 489.777575 144.338532 
L 467.159147 147.402604 
L 466.655538 147.48624 
L 466.15027 147.581497 
L 465.64352 147.688472 
L 465.135482 147.807251 
L 464.62636 147.937918 
L 464.116368 148.080543 
L 463.605725 148.235193 
L 463.094658 148.401923 
L 462.583403 148.580779 
L 462.072197 148.771799 
L 461.561288 148.975007 
L 461.050928 149.190421 
L 460.541372 149.418044 
L 460.032882 149.657869 
L 459.525724 149.909878 
L 459.020168 150.174038 
L 458.516486 150.450307 
L 458.014954 150.738628 
L 457.51585 151.038932 
L 457.019453 151.351135 
L 456.526043 151.675144 
L 456.035902 152.010849 
L 455.549309 152.358128 
L 455.066544 152.716848 
L 454.587885 153.08686 
L 454.113608 153.468005 
L 453.643986 153.86011 
L 453.179287 154.262989 
L 452.719779 154.676447 
L 452.26572 155.100276 
L 451.817367 155.534256 
L 451.374969 155.978157 
L 450.93877 156.431742 
L 450.509005 156.89476 
L 450.085904 157.366954 
L 449.669687 157.848058 
L 449.260569 158.337799 
L 448.858754 158.835895 
L 448.464437 159.34206 
L 448.077806 159.856002 
L 447.699037 160.377423 
L 447.328298 160.906022 
L 446.965747 161.441493 
L 446.611532 161.983528 
L 446.265792 162.531817 
L 445.928656 163.086048 
L 445.60024 163.645909 
L 445.280654 164.211085 
L 444.969997 164.781265 
L 444.668357 165.356136 
L 444.375813 165.935388 
L 444.092435 166.518713 
L 443.818283 167.105804 
L 443.55341 167.696359 
L 443.297856 168.290077 
L 443.051657 168.886663 
L 442.814836 169.485826 
L 442.587413 170.087278 
L 442.369396 170.690737 
L 442.160788 171.295927 
L 441.961583 171.902574 
L 441.77177 172.510415 
L 441.59133 173.119188 
L 441.420239 173.72864 
L 441.258466 174.338522 
L 441.105975 174.948595 
L 440.962725 175.558622 
L 440.82867 176.168376 
L 440.703759 176.777635 
L 440.587937 177.386186 
L 440.481145 177.993824 
L 440.383319 178.60036 
L 440.278325 179.320165 
L 439.839305 182.638786 
L 439.027985 189.556211 
L 438.238983 197.104297 
L 437.292938 207.596941 
L 436.24898 221.301205 
L 435.777741 228.719499 
L 435.654847 231.463292 
z
" clip-path="url(#pa4ff3c4275)" style="fill: #1f77b4; opacity: 0.35; stroke: #00008b; stroke-width: 1.5; stroke-linejoin: miter"/>
   </g>
   <g id="patch_8">
    <path d="M 432.04403 312.260744 
L 434.65727 321.670518 
L 448.187398 335.8439 
L 565.757734 331.280533 
L 599.396297 323.506017 
L 606.377599 316.221312 
L 615.331566 286.788241 
L 617.219795 207.621158 
L 605.613914 166.314173 
L 599.49272 159.857163 
L 587.197401 150.993807 
L 566.210254 146.575417 
L 480.839961 149.826168 
L 451.767509 156.398035 
L 439.977184 174.052073 
L 435.234824 205.689328 
z
" clip-path="url(#pa4ff3c4275)" style="fill: #ff7f0e; opacity: 0.35; stroke: #ff8c00; stroke-width: 1.5; stroke-linejoin: miter"/>
   </g>
   <g id="patch_9">
    <path d="M 435.935847 311.294201 
L 438.636734 321.168991 
L 449.22662 332.245313 
L 572.118919 326.58036 
L 596.119089 320.904303 
L 606.57911 309.806888 
L 611.849276 273.889149 
L 613.426948 193.990406 
L 605.639881 166.272895 
L 599.594458 159.895856 
L 587.215894 150.97268 
L 585.850224 150.685205 
L 488.757557 153.80877 
L 451.019908 161.968874 
L 442.918713 173.982789 
L 440.290869 191.032788 
z
" clip-path="url(#pa4ff3c4275)" style="fill: #d62728; opacity: 0.35; stroke: #8b0000; stroke-width: 1.5; stroke-linejoin: miter"/>
   </g>
   <g id="matplotlib.axis_3"/>
   <g id="matplotlib.axis_4"/>
   <g id="text_2">
    <!-- (b) $\Delta\theta=+0.15$ -->
    <g transform="translate(497.205 66.555) scale(0.13 -0.13)">
     <defs>
      <path id="TimesNewRomanPSMT-62" d="M 984 2369 
Q 1400 2947 1881 2947 
Q 2322 2947 2650 2570 
Q 2978 2194 2978 1541 
Q 2978 778 2472 313 
Q 2038 -88 1503 -88 
Q 1253 -88 995 3 
Q 738 94 469 275 
L 469 3241 
Q 469 3728 445 3840 
Q 422 3953 372 3993 
Q 322 4034 247 4034 
Q 159 4034 28 3984 
L -16 4094 
L 844 4444 
L 984 4444 
L 984 2369 
z
M 984 2169 
L 984 456 
Q 1144 300 1314 220 
Q 1484 141 1663 141 
Q 1947 141 2192 453 
Q 2438 766 2438 1363 
Q 2438 1913 2192 2208 
Q 1947 2503 1634 2503 
Q 1469 2503 1303 2419 
Q 1178 2356 984 2169 
z
" transform="scale(0.015625)"/>
      <path id="STIXGeneral-Regular-2b" d="M 4070 1408 
L 2400 1408 
L 2400 -262 
L 1978 -262 
L 1978 1408 
L 307 1408 
L 307 1830 
L 1978 1830 
L 1978 3501 
L 2400 3501 
L 2400 1830 
L 4070 1830 
L 4070 1408 
z
" transform="scale(0.015625)"/>
      <path id="STIXGeneral-Regular-2e" d="M 1158 275 
Q 1158 134 1052 32 
Q 947 -70 800 -70 
Q 653 -70 550 32 
Q 448 134 448 281 
Q 448 429 553 534 
Q 659 640 806 640 
Q 947 640 1052 531 
Q 1158 422 1158 275 
z
" transform="scale(0.015625)"/>
      <path id="STIXGeneral-Regular-31" d="M 2522 0 
L 755 0 
L 755 96 
Q 1107 115 1235 227 
Q 1363 339 1363 608 
L 1363 3482 
Q 1363 3795 1171 3795 
Q 1082 3795 883 3718 
L 710 3654 
L 710 3744 
L 1856 4326 
L 1914 4307 
L 1914 486 
Q 1914 275 2042 185 
Q 2170 96 2522 96 
L 2522 0 
z
" transform="scale(0.015625)"/>
      <path id="STIXGeneral-Regular-35" d="M 2803 4358 
L 2573 3814 
Q 2534 3731 2400 3731 
L 1158 3731 
L 902 3187 
Q 1606 3053 1920 2896 
Q 2234 2739 2502 2368 
Q 2726 2061 2726 1555 
Q 2726 1094 2576 780 
Q 2426 467 2099 224 
Q 1664 -90 1011 -90 
Q 646 -90 422 19 
Q 198 128 198 307 
Q 198 550 486 550 
Q 717 550 960 352 
Q 1210 147 1414 147 
Q 1747 147 2012 480 
Q 2278 813 2278 1229 
Q 2278 1843 1850 2189 
Q 1293 2637 486 2637 
Q 410 2637 410 2688 
L 416 2720 
L 1114 4237 
L 2438 4237 
Q 2547 4237 2608 4269 
Q 2669 4301 2746 4403 
L 2803 4358 
z
" transform="scale(0.015625)"/>
     </defs>
     <use xlink:href="#TimesNewRomanPSMT-28" transform="translate(0 0.5625)"/>
     <use xlink:href="#TimesNewRomanPSMT-62" transform="translate(33.300781 0.5625)"/>
     <use xlink:href="#TimesNewRomanPSMT-29" transform="translate(83.300781 0.5625)"/>
     <use xlink:href="#TimesNewRomanPSMT-20" transform="translate(116.601562 0.5625)"/>
     <use xlink:href="#STIXGeneral-Regular-394" transform="translate(141.601562 0.5625)"/>
     <use xlink:href="#STIXGeneral-Italic-3b8" transform="translate(213.801544 0.5625)"/>
     <use xlink:href="#STIXGeneral-Regular-3d" transform="translate(276.241525 0.5625)"/>
     <use xlink:href="#STIXGeneral-Regular-2b" transform="translate(359.181506 0.5625)"/>
     <use xlink:href="#STIXGeneral-Regular-30" transform="translate(427.681491 0.5625)"/>
     <use xlink:href="#STIXGeneral-Regular-2e" transform="translate(477.681476 0.5625)"/>
     <use xlink:href="#STIXGeneral-Regular-31" transform="translate(502.681461 0.5625)"/>
     <use xlink:href="#STIXGeneral-Regular-35" transform="translate(552.681445 0.5625)"/>
    </g>
   </g>
  </g>
  <g id="axes_3">
   <g id="patch_10">
    <path d="M 722.8 393.9 
L 1065.6 393.9 
L 1065.6 69.415 
L 722.8 69.415 
z
" style="fill: #ffffff"/>
   </g>
   <g id="patch_11">
    <path d="M 769.051093 276.58461 
L 768.375362 310.225845 
L 768.210937 329.975652 
L 768.214432 330.478965 
L 768.224837 330.980579 
L 768.24212 331.480073 
L 768.266227 331.977382 
L 768.297108 332.472413 
L 768.334709 332.965065 
L 768.378978 333.455238 
L 768.429863 333.942832 
L 768.487311 334.427749 
L 768.551269 334.909894 
L 768.621685 335.389174 
L 768.698506 335.865496 
L 768.781679 336.338771 
L 768.871154 336.808912 
L 768.966879 337.275833 
L 769.068801 337.739449 
L 769.17687 338.199679 
L 769.291036 338.656441 
L 769.411248 339.109657 
L 769.537457 339.559247 
L 769.669614 340.005135 
L 769.80767 340.447247 
L 769.951577 340.885506 
L 770.101288 341.31984 
L 770.256755 341.750176 
L 770.417933 342.176442 
L 770.584775 342.598567 
L 770.757236 343.01648 
L 770.935271 343.430112 
L 771.118837 343.839392 
L 771.30789 344.244251 
L 771.502386 344.644622 
L 771.702283 345.040433 
L 771.907538 345.431618 
L 772.118111 345.818107 
L 772.333959 346.199831 
L 772.555042 346.576722 
L 772.781319 346.948711 
L 773.012751 347.315727 
L 773.249296 347.677702 
L 773.490916 348.034566 
L 773.737571 348.386247 
L 773.989221 348.732675 
L 774.245828 349.073779 
L 774.507352 349.409485 
L 774.773754 349.739721 
L 775.044995 350.064413 
L 775.321034 350.383487 
L 775.601834 350.696867 
L 775.887353 351.004477 
L 776.177552 351.306241 
L 776.47239 351.602079 
L 776.771825 351.891914 
L 777.075817 352.175664 
L 777.384323 352.45325 
L 777.6973 352.724588 
L 778.014704 352.989597 
L 778.33649 353.248191 
L 778.662613 353.500287 
L 778.993025 353.745797 
L 779.32768 353.984635 
L 779.666527 354.216712 
L 780.009517 354.441939 
L 780.356597 354.660226 
L 780.707713 354.871482 
L 781.06281 355.075615 
L 781.421831 355.272532 
L 781.784717 355.46214 
L 782.151407 355.644344 
L 782.521837 355.819048 
L 782.895943 355.986158 
L 783.273657 356.145578 
L 783.654909 356.29721 
L 784.039625 356.440959 
L 784.427732 356.576726 
L 784.819149 356.704415 
L 785.213797 356.823928 
L 785.611592 356.93517 
L 786.012446 357.038042 
L 786.41627 357.132449 
L 786.822969 357.218296 
L 787.232448 357.295488 
L 787.644606 357.363931 
L 788.05934 357.423532 
L 788.476543 357.474201 
L 788.896107 357.515849 
L 789.317921 357.548386 
L 789.741877 357.571728 
L 790.167889 357.58579 
L 790.596306 357.590488 
L 808.109463 357.399192 
L 838.89908 356.361239 
L 861.985107 355.080521 
L 874.799271 354.095145 
L 884.561338 353.118915 
L 896.220766 351.710542 
L 903.602521 350.657204 
L 909.140963 349.740215 
L 910.531406 349.486537 
L 910.997375 349.388174 
L 911.464029 349.279071 
L 911.931176 349.159179 
L 912.398604 349.028459 
L 912.866092 348.88688 
L 913.333413 348.734423 
L 913.800336 348.571077 
L 914.266625 348.396843 
L 914.73204 348.21173 
L 915.196337 348.015761 
L 915.659272 347.808966 
L 916.120594 347.591388 
L 916.580053 347.363083 
L 917.037397 347.124115 
L 917.492373 346.874563 
L 917.944728 346.614515 
L 918.394207 346.344072 
L 918.840558 346.063345 
L 919.28353 345.772459 
L 919.722873 345.471549 
L 920.15834 345.160759 
L 920.589687 344.840247 
L 921.016674 344.510181 
L 921.439063 344.170737 
L 921.856623 343.822103 
L 922.269127 343.464476 
L 922.676354 343.098061 
L 923.07809 342.723074 
L 923.474127 342.339736 
L 923.864262 341.948276 
L 924.248301 341.548932 
L 924.62606 341.141946 
L 924.997359 340.727567 
L 925.362028 340.306048 
L 925.719907 339.877646 
L 926.070842 339.442624 
L 926.41469 339.001245 
L 926.751315 338.553778 
L 927.080592 338.10049 
L 927.402405 337.641652 
L 927.716646 337.177535 
L 928.023216 336.70841 
L 928.322026 336.234546 
L 928.612995 335.756214 
L 928.896052 335.27368 
L 929.171133 334.78721 
L 929.438184 334.297067 
L 929.697158 333.803512 
L 929.948017 333.3068 
L 930.190729 332.807185 
L 930.425273 332.304916 
L 930.651631 331.800236 
L 930.869795 331.293386 
L 931.079761 330.7846 
L 931.281535 330.274108 
L 931.475125 329.762135 
L 931.660547 329.248898 
L 931.837822 328.734611 
L 932.006975 328.219482 
L 932.168037 327.703711 
L 932.321044 327.187495 
L 932.466033 326.671024 
L 932.603048 326.15448 
L 932.732134 325.638043 
L 932.853342 325.121884 
L 932.966723 324.606168 
L 933.072332 324.091057 
L 933.170226 323.576705 
L 933.260464 323.063259 
L 933.343107 322.550864 
L 933.418219 322.039655 
L 933.485862 321.529762 
L 933.546102 321.021304 
L 934.711316 308.929553 
L 935.529631 300.672249 
L 935.565356 300.20433 
L 936.545079 284.481625 
L 936.721485 280.986283 
L 937.09317 269.685427 
L 937.904048 231.188467 
L 938.03744 217.208128 
L 938.034331 216.758151 
L 938.024987 216.307732 
L 938.00946 215.859001 
L 937.98779 215.411978 
L 937.960012 214.966697 
L 937.926161 214.523191 
L 937.886269 214.081495 
L 937.840366 213.641646 
L 937.78848 213.203679 
L 937.730636 212.767627 
L 937.666856 212.333525 
L 937.597164 211.901406 
L 937.521576 211.471302 
L 937.440109 211.043246 
L 937.352779 210.617273 
L 937.259596 210.193416 
L 937.160571 209.771709 
L 937.055711 209.352185 
L 936.945022 208.934879 
L 936.828501 208.519809 
L 936.586045 207.700642 
L 936.224786 206.548716 
L 936.081153 206.111289 
L 935.931842 205.678113 
L 934.922692 202.869216 
L 934.770287 202.466154 
L 934.612119 202.065978 
L 934.448185 201.668734 
L 934.278483 201.274469 
L 932.840501 198.057165 
L 932.651214 197.651802 
L 932.456632 197.251254 
L 931.740588 195.831301 
L 931.535577 195.440581 
L 931.325438 195.054886 
L 931.110215 194.674266 
L 930.889956 194.298778 
L 930.664708 193.928481 
L 930.43452 193.563434 
L 930.199435 193.203694 
L 929.959501 192.849319 
L 929.714761 192.500367 
L 929.465259 192.156896 
L 929.211038 191.818962 
L 928.952139 191.486625 
L 928.688604 191.159942 
L 928.420473 190.838972 
L 928.147787 190.523774 
L 927.870583 190.214406 
L 927.588901 189.910929 
L 927.302779 189.613404 
L 927.012252 189.321891 
L 926.717359 189.036453 
L 926.418136 188.757153 
L 926.114618 188.484055 
L 925.806841 188.217224 
L 925.494841 187.956726 
L 925.178653 187.70263 
L 924.858312 187.455003 
L 924.533853 187.213917 
L 924.205311 186.979442 
L 923.872723 186.751652 
L 923.536125 186.530621 
L 923.195551 186.316426 
L 922.851041 186.109144 
L 922.502631 185.908855 
L 922.150361 185.71564 
L 921.794269 185.529583 
L 921.434397 185.350767 
L 921.070786 185.179279 
L 920.703482 185.015207 
L 920.332528 184.858641 
L 919.957972 184.709672 
L 919.579865 184.568393 
L 919.198256 184.434899 
L 918.8132 184.309285 
L 918.424754 184.19165 
L 918.032977 184.082092 
L 917.637932 183.980711 
L 917.239685 183.887608 
L 916.838305 183.802884 
L 916.433865 183.726643 
L 916.026441 183.658986 
L 915.616115 183.600019 
L 915.202971 183.549843 
L 914.787098 183.508562 
L 914.368588 183.47628 
L 913.947663 183.453078 
L 913.524199 183.439096 
L 913.097938 183.434441 
L 900.33595 183.579218 
L 873.403661 184.539136 
L 845.130911 186.116111 
L 827.841021 187.510383 
L 824.93106 187.807399 
L 811.598016 189.295232 
L 796.261716 191.401453 
L 795.822245 191.474437 
L 795.381677 191.557496 
L 794.940169 191.650696 
L 794.497889 191.754101 
L 794.055009 191.867766 
L 793.611709 191.991739 
L 793.168175 192.126064 
L 792.724594 192.270777 
L 792.281163 192.425905 
L 791.838077 192.591469 
L 791.395542 192.767483 
L 790.953761 192.953949 
L 790.512946 193.150864 
L 790.073309 193.358215 
L 789.635065 193.575979 
L 789.198434 193.804125 
L 788.763636 194.042611 
L 788.330892 194.291386 
L 787.900427 194.55039 
L 787.472464 194.819552 
L 787.047229 195.098792 
L 786.624946 195.388019 
L 786.205841 195.687132 
L 785.790137 195.996023 
L 785.378055 196.314569 
L 784.969818 196.642642 
L 784.565643 196.980102 
L 784.165746 197.326801 
L 783.77034 197.68258 
L 783.379633 198.047274 
L 782.993832 198.420707 
L 782.613137 198.802697 
L 782.237744 199.193051 
L 781.867845 199.591571 
L 781.503625 199.998053 
L 781.145263 200.412283 
L 780.792935 200.834043 
L 780.446807 201.263109 
L 780.10704 201.699251 
L 779.773789 202.142236 
L 779.4472 202.591824 
L 779.127415 203.047774 
L 778.814565 203.509839 
L 778.508777 203.977772 
L 778.210167 204.45132 
L 777.918847 204.930232 
L 777.634919 205.414254 
L 777.358479 205.90313 
L 777.089613 206.396606 
L 776.828403 206.894426 
L 776.574921 207.396334 
L 776.329233 207.902077 
L 776.091396 208.411403 
L 775.861461 208.924059 
L 775.639473 209.439797 
L 775.425469 209.95837 
L 775.219479 210.479533 
L 775.021527 211.003045 
L 774.831631 211.528669 
L 774.649803 212.056169 
L 774.476048 212.585315 
L 774.310367 213.115879 
L 774.152754 213.64764 
L 774.003199 214.180378 
L 773.861687 214.713879 
L 773.728198 215.247933 
L 773.602707 215.782337 
L 773.485185 216.31689 
L 773.375601 216.851397 
L 773.273916 217.385669 
L 773.180092 217.919521 
L 773.094085 218.452777 
L 773.015848 218.985269 
L 772.945329 219.516684 
L 772.689535 221.706934 
L 772.020365 228.20084 
L 771.332048 235.794488 
L 770.462919 247.17063 
L 769.674006 259.705994 
L 769.501572 263.018167 
z
" clip-path="url(#p1eba09637a)" style="fill: #1f77b4; opacity: 0.35; stroke: #00008b; stroke-width: 1.5; stroke-linejoin: miter"/>
   </g>
   <g id="patch_12">
    <path d="M 769.496641 320.912073 
L 770.645118 328.295082 
L 779.164919 346.577099 
L 781.124379 349.504615 
L 789.719744 353.597011 
L 879.406412 352.31661 
L 916.499388 344.383479 
L 930.183161 329.157367 
L 936.326751 267.598087 
L 935.293812 207.897912 
L 934.532757 203.267513 
L 922.147826 184.740259 
L 839.623899 184.187868 
L 791.444015 192.23521 
L 782.947883 198.133928 
L 774.901129 210.138728 
L 769.54733 254.074667 
z
" clip-path="url(#p1eba09637a)" style="fill: #ff7f0e; opacity: 0.35; stroke: #ff8c00; stroke-width: 1.5; stroke-linejoin: miter"/>
   </g>
   <g id="patch_13">
    <path d="M 774.33548 336.496009 
L 778.225511 344.841511 
L 782.469867 349.327614 
L 885.613619 346.746487 
L 908.720045 341.584179 
L 922.227749 326.013879 
L 929.146679 246.40743 
L 928.134448 206.112613 
L 919.115951 192.648577 
L 850.824462 191.447587 
L 787.337497 200.979936 
L 784.522192 202.887565 
L 779.459946 210.297971 
L 775.281574 242.474974 
z
" clip-path="url(#p1eba09637a)" style="fill: #d62728; opacity: 0.35; stroke: #8b0000; stroke-width: 1.5; stroke-linejoin: miter"/>
   </g>
   <g id="matplotlib.axis_5"/>
   <g id="matplotlib.axis_6"/>
   <g id="text_3">
    <!-- (c) $\Delta\theta=-0.15$ -->
    <g transform="translate(855.33 66.555) scale(0.13 -0.13)">
     <defs>
      <path id="TimesNewRomanPSMT-63" d="M 2631 1088 
Q 2516 522 2178 217 
Q 1841 -88 1431 -88 
Q 944 -88 581 321 
Q 219 731 219 1428 
Q 219 2103 620 2525 
Q 1022 2947 1584 2947 
Q 2006 2947 2278 2723 
Q 2550 2500 2550 2259 
Q 2550 2141 2473 2067 
Q 2397 1994 2259 1994 
Q 2075 1994 1981 2113 
Q 1928 2178 1911 2362 
Q 1894 2547 1784 2644 
Q 1675 2738 1481 2738 
Q 1169 2738 978 2506 
Q 725 2200 725 1697 
Q 725 1184 976 792 
Q 1228 400 1656 400 
Q 1963 400 2206 609 
Q 2378 753 2541 1131 
L 2631 1088 
z
" transform="scale(0.015625)"/>
      <path id="STIXGeneral-Regular-2212" d="M 3974 1408 
L 410 1408 
L 410 1830 
L 3974 1830 
L 3974 1408 
z
" transform="scale(0.015625)"/>
     </defs>
     <use xlink:href="#TimesNewRomanPSMT-28" transform="translate(0 0.5625)"/>
     <use xlink:href="#TimesNewRomanPSMT-63" transform="translate(33.300781 0.5625)"/>
     <use xlink:href="#TimesNewRomanPSMT-29" transform="translate(77.685547 0.5625)"/>
     <use xlink:href="#TimesNewRomanPSMT-20" transform="translate(110.986328 0.5625)"/>
     <use xlink:href="#STIXGeneral-Regular-394" transform="translate(135.986328 0.5625)"/>
     <use xlink:href="#STIXGeneral-Italic-3b8" transform="translate(208.18631 0.5625)"/>
     <use xlink:href="#STIXGeneral-Regular-3d" transform="translate(270.626291 0.5625)"/>
     <use xlink:href="#STIXGeneral-Regular-2212" transform="translate(353.566272 0.5625)"/>
     <use xlink:href="#STIXGeneral-Regular-30" transform="translate(422.066257 0.5625)"/>
     <use xlink:href="#STIXGeneral-Regular-2e" transform="translate(472.066241 0.5625)"/>
     <use xlink:href="#STIXGeneral-Regular-31" transform="translate(497.066226 0.5625)"/>
     <use xlink:href="#STIXGeneral-Regular-35" transform="translate(547.066211 0.5625)"/>
    </g>
   </g>
  </g>
  <g id="axes_4">
   <g id="patch_14">
    <path d="M 7.2 753.1 
L 350 753.1 
L 350 428.615 
L 7.2 428.615 
z
" style="fill: #ffffff"/>
   </g>
   <g id="patch_15">
    <path d="M 89.050017 600.814135 
L 88.385085 633.123453 
L 88.228007 651.722713 
L 88.232138 652.321703 
L 88.244501 652.917631 
L 88.265021 653.510666 
L 88.293625 654.100727 
L 88.330242 654.68771 
L 88.374799 655.271506 
L 88.427227 655.85201 
L 88.487453 656.429117 
L 88.555408 657.002724 
L 88.631021 657.572732 
L 88.714224 658.139044 
L 88.804947 658.701567 
L 88.903123 659.260208 
L 89.008685 659.814878 
L 89.121567 660.36549 
L 89.241703 660.91196 
L 89.36903 661.454203 
L 89.503485 661.992139 
L 89.645005 662.525688 
L 89.79353 663.054773 
L 89.948999 663.579317 
L 90.111355 664.099244 
L 90.280538 664.614481 
L 90.456493 665.124954 
L 90.639164 665.630591 
L 90.828498 666.131321 
L 91.02444 666.627073 
L 91.22694 667.117777 
L 91.435946 667.603363 
L 91.651409 668.083761 
L 91.873279 668.558901 
L 92.101511 669.028715 
L 92.336056 669.493134 
L 92.576869 669.952086 
L 92.823907 670.405503 
L 93.077124 670.853315 
L 93.336479 671.29545 
L 93.60193 671.731837 
L 93.873435 672.162404 
L 94.150954 672.587079 
L 94.434447 673.005788 
L 94.723876 673.418457 
L 95.019201 673.825009 
L 95.320386 674.225368 
L 95.627391 674.619457 
L 95.940181 675.007195 
L 96.258717 675.388504 
L 96.582964 675.7633 
L 96.912885 676.1315 
L 97.248443 676.493021 
L 97.589602 676.847774 
L 97.936324 677.195672 
L 98.288572 677.536626 
L 98.64631 677.870543 
L 99.009499 678.197331 
L 99.378101 678.516894 
L 99.752076 678.829135 
L 100.131385 679.133956 
L 100.515986 679.431255 
L 100.905838 679.720931 
L 101.300897 680.002878 
L 101.701119 680.27699 
L 102.106458 680.543159 
L 102.516866 680.801275 
L 102.932294 681.051225 
L 103.352691 681.292896 
L 103.778002 681.526172 
L 104.208173 681.750935 
L 104.643146 681.967068 
L 105.08286 682.174448 
L 105.527251 682.372953 
L 105.976255 682.562461 
L 106.4298 682.742846 
L 106.887817 682.913982 
L 107.350227 683.075742 
L 107.816953 683.227997 
L 108.287911 683.37062 
L 108.763013 683.503479 
L 109.24217 683.626446 
L 109.725286 683.73939 
L 110.21226 683.842182 
L 110.70299 683.93469 
L 111.197365 684.016785 
L 111.695274 684.08834 
L 112.196597 684.149225 
L 112.701211 684.199314 
L 113.208993 684.238483 
L 113.719814 684.266608 
L 114.233566 684.283567 
L 114.749924 684.289266 
L 130.81214 684.132953 
L 158.513843 683.200313 
L 186.328384 681.685286 
L 205.44249 680.244681 
L 217.850556 679.016 
L 227.338298 677.857787 
L 239.73963 676.080392 
L 248.71319 674.59767 
L 254.382844 673.532679 
L 254.923422 673.418569 
L 255.464535 673.292059 
L 256.006295 673.153043 
L 256.548318 673.00146 
L 257.090392 672.837264 
L 257.632388 672.660445 
L 258.173986 672.470976 
L 258.714926 672.268847 
L 259.254938 672.054064 
L 259.793753 671.826642 
L 260.331092 671.586609 
L 260.866674 671.334008 
L 261.400215 671.06889 
L 261.931429 670.791325 
L 262.460024 670.501393 
L 262.98571 670.199188 
L 263.508195 669.884818 
L 264.027187 669.558405 
L 264.542395 669.220084 
L 265.053527 668.870003 
L 265.560297 668.508325 
L 266.062419 668.135223 
L 266.559612 667.750885 
L 267.051599 667.35551 
L 267.538108 666.949309 
L 268.018872 666.532502 
L 268.493632 666.105323 
L 268.962135 665.668014 
L 269.424136 665.220825 
L 269.879399 664.764016 
L 270.327695 664.297855 
L 270.768805 663.822616 
L 271.20252 663.338578 
L 271.62864 662.846028 
L 272.046976 662.345256 
L 272.457347 661.836555 
L 272.859586 661.320222 
L 273.253534 660.796556 
L 273.639044 660.265858 
L 274.015978 659.728428 
L 274.38421 659.184567 
L 274.743625 658.634577 
L 275.094115 658.078755 
L 275.435586 657.517401 
L 275.767952 656.950807 
L 276.091137 656.379267 
L 276.405074 655.803069 
L 276.709705 655.222499 
L 277.004982 654.637837 
L 277.290863 654.049361 
L 277.567317 653.457341 
L 277.834317 652.862045 
L 278.091847 652.263736 
L 278.339896 651.66267 
L 278.578459 651.059098 
L 278.807538 650.453267 
L 279.027141 649.845416 
L 279.237282 649.235782 
L 279.437978 648.624592 
L 279.629253 648.012072 
L 279.811133 647.398439 
L 279.98365 646.783907 
L 280.14684 646.168682 
L 280.300741 645.552967 
L 280.445395 644.936959 
L 280.580848 644.32085 
L 280.707145 643.704825 
L 280.824339 643.089068 
L 280.93248 642.473755 
L 281.031624 641.859057 
L 281.121826 641.24514 
L 281.203144 640.632164 
L 283.181931 624.39331 
L 283.246238 623.777162 
L 283.301721 623.162889 
L 284.79211 603.95732 
L 285.044264 600.008577 
L 285.358661 593.127477 
L 285.899846 576.19366 
L 286.426425 553.722755 
L 286.56233 540.913371 
L 286.559403 540.419717 
L 286.276458 528.441563 
L 286.154239 524.866402 
L 286.056666 522.915276 
L 285.90201 520.547948 
L 285.870029 520.128676 
L 285.83226 519.710734 
L 285.785748 519.265482 
L 285.731889 518.810906 
L 285.671202 518.353477 
L 285.603475 517.892414 
L 285.528365 517.426893 
L 285.445521 516.95556 
L 285.354403 516.47686 
L 285.254305 515.988697 
L 285.144266 515.48826 
L 285.022945 514.971717 
L 284.888436 514.433711 
L 284.737944 513.866527 
L 284.56723 513.258648 
L 284.369572 512.592105 
L 283.621077 510.190053 
L 283.295172 509.197368 
L 282.970285 508.254655 
L 281.050769 502.907247 
L 280.743982 502.095746 
L 280.441006 501.329061 
L 280.141927 500.604208 
L 279.014256 497.982461 
L 278.521789 496.891931 
L 278.232583 496.272508 
L 277.946091 495.682693 
L 277.426621 494.65945 
L 277.204144 494.23476 
L 277.004947 493.869078 
L 276.804766 493.515041 
L 273.046977 487.029136 
L 272.843526 486.694658 
L 272.637956 486.368642 
L 271.709567 484.935568 
L 271.503523 484.63125 
L 271.210786 484.212003 
L 270.994334 483.914024 
L 270.775155 483.622665 
L 270.553206 483.337754 
L 270.328466 483.059158 
L 270.100929 482.786777 
L 269.870599 482.520534 
L 269.637489 482.260373 
L 269.40162 482.00625 
L 269.16302 481.758138 
L 268.92172 481.516015 
L 268.677755 481.27987 
L 268.431182 481.049679 
L 268.171297 480.81603 
L 267.810375 480.503126 
L 267.444387 480.197522 
L 267.073415 479.899431 
L 266.697552 479.608886 
L 266.316803 479.325974 
L 265.931193 479.05077 
L 265.540747 478.783353 
L 265.145489 478.523803 
L 264.745443 478.272204 
L 264.340633 478.028642 
L 263.931079 477.793204 
L 263.516809 477.565983 
L 263.097846 477.347076 
L 262.674229 477.136586 
L 262.256721 476.939653 
L 261.823441 476.746111 
L 261.385478 476.561264 
L 260.942889 476.385237 
L 260.495706 476.21815 
L 260.043965 476.060123 
L 259.587702 475.911281 
L 259.126995 475.771736 
L 258.661811 475.64165 
L 258.192194 475.521159 
L 257.718273 475.410365 
L 257.240066 475.309425 
L 256.757633 475.218482 
L 256.271039 475.13768 
L 255.780419 475.067147 
L 255.285731 475.007067 
L 254.787033 474.957591 
L 254.284566 474.918833 
L 253.778353 474.890963 
L 253.26848 474.874132 
L 252.754912 474.868493 
L 238.452859 475.058555 
L 218.918505 475.803618 
L 189.674696 477.426568 
L 171.043817 478.71663 
L 148.155537 481.017792 
L 144.764055 481.445325 
L 123.969367 484.374011 
L 123.432744 484.46313 
L 122.894142 484.564673 
L 122.353733 484.678753 
L 121.811725 484.805475 
L 121.268339 484.944936 
L 120.723805 485.097222 
L 120.178363 485.262412 
L 119.632261 485.440572 
L 119.085753 485.631761 
L 118.539103 485.836025 
L 117.992582 486.053399 
L 117.446465 486.283905 
L 116.901035 486.527553 
L 116.356582 486.784341 
L 115.813398 487.054251 
L 115.271783 487.337253 
L 114.732039 487.633303 
L 114.194472 487.94234 
L 113.659389 488.264291 
L 113.127103 488.599068 
L 112.597923 488.946565 
L 112.072164 489.306666 
L 111.550137 489.679235 
L 111.032153 490.064124 
L 110.518522 490.461171 
L 110.009551 490.870197 
L 109.505544 491.291011 
L 109.006801 491.723407 
L 108.513616 492.167166 
L 108.026279 492.622056 
L 107.545075 493.087834 
L 107.07028 493.564244 
L 106.602164 494.051017 
L 106.140987 494.547877 
L 105.687005 495.054536 
L 105.240459 495.570697 
L 104.801586 496.096056 
L 104.37061 496.6303 
L 103.947746 497.17311 
L 103.533198 497.724161 
L 103.127159 498.283122 
L 102.729812 498.849658 
L 102.341327 499.423431 
L 101.961866 500.0041 
L 101.591576 500.591321 
L 101.230595 501.18475 
L 100.879049 501.784041 
L 100.537052 502.388851 
L 100.204708 502.998833 
L 99.882109 503.613647 
L 99.569337 504.232952 
L 99.266462 504.856409 
L 98.973546 505.483684 
L 98.690638 506.114447 
L 98.417778 506.74837 
L 98.154998 507.385134 
L 97.902319 508.02442 
L 97.659753 508.665918 
L 97.427304 509.309323 
L 97.204968 509.954337 
L 96.992733 510.600665 
L 96.790579 511.248024 
L 96.598479 511.896134 
L 96.416401 512.544723 
L 96.244304 513.193527 
L 96.082142 513.842289 
L 95.929864 514.490759 
L 95.787414 515.138696 
L 95.65473 515.785866 
L 95.531747 516.432045 
L 95.418392 517.07702 
L 95.314591 517.720463 
L 94.962481 520.132131 
L 94.329254 524.93746 
L 93.345026 533.215253 
L 92.491697 541.47425 
L 91.41979 553.295685 
L 90.456003 565.836598 
L 90.120845 571.001269 
L 89.829423 577.547933 
z
" clip-path="url(#pf19c767257)" style="fill: #1f77b4; opacity: 0.35; stroke: #00008b; stroke-width: 1.5; stroke-linejoin: miter"/>
   </g>
   <g id="patch_16">
    <path d="M 82.39727 660.083154 
L 84.676755 668.580198 
L 101.217413 685.750572 
L 232.191555 678.433093 
L 256.985835 672.511082 
L 258.200268 671.26225 
L 272.961771 624.840939 
L 274.537838 588.252565 
L 254.471841 515.261076 
L 237.86405 503.396451 
L 178.154596 491.286361 
L 110.378053 495.297879 
L 104.793067 496.690694 
L 90.572229 518.095386 
L 88.401099 531.900536 
z
" clip-path="url(#pf19c767257)" style="fill: #ff7f0e; opacity: 0.35; stroke: #ff8c00; stroke-width: 1.5; stroke-linejoin: miter"/>
   </g>
   <g id="patch_17">
    <path d="M 89.854152 657.686639 
L 92.337888 667.233149 
L 103.468549 678.751107 
L 247.185325 668.741432 
L 251.983732 667.549556 
L 260.0648 659.009191 
L 266.743131 616.974649 
L 268.582636 566.144377 
L 254.584514 515.2103 
L 237.925813 503.310369 
L 211.681206 497.990128 
L 124.368285 502.209569 
L 103.537108 507.030082 
L 98.233888 514.872049 
z
" clip-path="url(#pf19c767257)" style="fill: #d62728; opacity: 0.35; stroke: #8b0000; stroke-width: 1.5; stroke-linejoin: miter"/>
   </g>
   <g id="matplotlib.axis_7"/>
   <g id="matplotlib.axis_8"/>
   <g id="text_4">
    <!-- (d) $\Delta\theta=+0.30$ -->
    <g transform="translate(139.405 425.755) scale(0.13 -0.13)">
     <defs>
      <path id="TimesNewRomanPSMT-64" d="M 2222 322 
Q 2013 103 1813 7 
Q 1613 -88 1381 -88 
Q 913 -88 563 304 
Q 213 697 213 1313 
Q 213 1928 600 2439 
Q 988 2950 1597 2950 
Q 1975 2950 2222 2709 
L 2222 3238 
Q 2222 3728 2198 3840 
Q 2175 3953 2125 3993 
Q 2075 4034 2000 4034 
Q 1919 4034 1784 3984 
L 1744 4094 
L 2597 4444 
L 2738 4444 
L 2738 1134 
Q 2738 631 2761 520 
Q 2784 409 2836 365 
Q 2888 322 2956 322 
Q 3041 322 3181 375 
L 3216 266 
L 2366 -88 
L 2222 -88 
L 2222 322 
z
M 2222 541 
L 2222 2016 
Q 2203 2228 2109 2403 
Q 2016 2578 1861 2667 
Q 1706 2756 1559 2756 
Q 1284 2756 1069 2509 
Q 784 2184 784 1559 
Q 784 928 1059 592 
Q 1334 256 1672 256 
Q 1956 256 2222 541 
z
" transform="scale(0.015625)"/>
      <path id="STIXGeneral-Regular-33" d="M 390 3264 
L 288 3290 
Q 435 3770 748 4048 
Q 1062 4326 1542 4326 
Q 1990 4326 2265 4083 
Q 2541 3840 2541 3450 
Q 2541 2925 1946 2566 
Q 2298 2413 2477 2227 
Q 2758 1914 2758 1402 
Q 2758 890 2464 506 
Q 2246 211 1840 60 
Q 1434 -90 979 -90 
Q 262 -90 262 275 
Q 262 378 339 442 
Q 416 506 525 506 
Q 685 506 915 339 
Q 1197 141 1466 141 
Q 1818 141 2058 425 
Q 2298 710 2298 1120 
Q 2298 1856 1632 2048 
Q 1434 2112 979 2112 
L 979 2202 
Q 1338 2323 1517 2432 
Q 2035 2726 2035 3290 
Q 2035 3610 1852 3776 
Q 1670 3942 1344 3942 
Q 768 3942 390 3264 
z
" transform="scale(0.015625)"/>
     </defs>
     <use xlink:href="#TimesNewRomanPSMT-28" transform="translate(0 0.5625)"/>
     <use xlink:href="#TimesNewRomanPSMT-64" transform="translate(33.300781 0.5625)"/>
     <use xlink:href="#TimesNewRomanPSMT-29" transform="translate(83.300781 0.5625)"/>
     <use xlink:href="#TimesNewRomanPSMT-20" transform="translate(116.601562 0.5625)"/>
     <use xlink:href="#STIXGeneral-Regular-394" transform="translate(141.601562 0.5625)"/>
     <use xlink:href="#STIXGeneral-Italic-3b8" transform="translate(213.801544 0.5625)"/>
     <use xlink:href="#STIXGeneral-Regular-3d" transform="translate(276.241525 0.5625)"/>
     <use xlink:href="#STIXGeneral-Regular-2b" transform="translate(359.181506 0.5625)"/>
     <use xlink:href="#STIXGeneral-Regular-30" transform="translate(427.681491 0.5625)"/>
     <use xlink:href="#STIXGeneral-Regular-2e" transform="translate(477.681476 0.5625)"/>
     <use xlink:href="#STIXGeneral-Regular-33" transform="translate(502.681461 0.5625)"/>
     <use xlink:href="#STIXGeneral-Regular-30" transform="translate(552.681445 0.5625)"/>
    </g>
   </g>
  </g>
  <g id="axes_5">
   <g id="patch_18">
    <path d="M 365 753.1 
L 707.8 753.1 
L 707.8 428.615 
L 365 428.615 
z
" style="fill: #ffffff"/>
   </g>
   <g id="patch_19">
    <path d="M 399.449586 649.918229 
L 398.880974 678.10174 
L 398.671105 701.55573 
L 398.674379 702.027206 
L 398.684128 702.49721 
L 398.700325 702.965321 
L 398.722922 703.431485 
L 398.751875 703.895611 
L 398.787136 704.357603 
L 398.828659 704.817363 
L 398.876396 705.274795 
L 398.9303 705.729804 
L 398.990325 706.182296 
L 399.056422 706.63218 
L 399.128544 707.079367 
L 399.206643 707.523769 
L 399.290673 707.965301 
L 399.380587 708.403876 
L 399.476336 708.839414 
L 399.577875 709.271833 
L 399.685157 709.701053 
L 399.798135 710.126996 
L 399.916764 710.549585 
L 400.040999 710.968744 
L 400.170794 711.384399 
L 400.306103 711.796476 
L 400.446884 712.204901 
L 400.59309 712.609604 
L 400.74468 713.010513 
L 400.901609 713.407558 
L 401.063835 713.800669 
L 401.231315 714.189776 
L 401.404007 714.574812 
L 401.58187 714.955707 
L 401.764861 715.332394 
L 401.952939 715.704805 
L 402.146065 716.072872 
L 402.344197 716.436528 
L 402.547296 716.795705 
L 402.755321 717.150336 
L 402.968233 717.500353 
L 403.185993 717.845688 
L 403.40856 718.186273 
L 403.635897 718.52204 
L 403.867963 718.852921 
L 404.104719 719.178846 
L 404.346128 719.499746 
L 404.592148 719.815552 
L 404.842742 720.126192 
L 405.09787 720.431596 
L 405.357491 720.731692 
L 405.621567 721.026408 
L 405.890057 721.315671 
L 406.16292 721.599408 
L 406.440115 721.877544 
L 406.721601 722.150005 
L 407.007336 722.416714 
L 407.297276 722.677594 
L 407.591378 722.932569 
L 407.889597 723.18156 
L 408.191888 723.424489 
L 408.498206 723.661274 
L 408.808502 723.891837 
L 409.122728 724.116095 
L 409.440834 724.333966 
L 409.762769 724.545368 
L 410.088481 724.750217 
L 410.417916 724.948428 
L 410.751019 725.139918 
L 411.087731 725.324599 
L 411.427995 725.502387 
L 411.771749 725.673194 
L 412.118931 725.836934 
L 412.469476 725.99352 
L 412.823316 726.142863 
L 413.180383 726.284877 
L 413.540606 726.419473 
L 413.903909 726.546564 
L 414.270218 726.666062 
L 414.639452 726.777879 
L 415.01153 726.881929 
L 415.386368 726.978125 
L 415.763879 727.066381 
L 416.143971 727.146612 
L 416.526553 727.218733 
L 416.911529 727.282662 
L 417.298799 727.338317 
L 417.688262 727.385617 
L 418.079814 727.424483 
L 418.473352 727.454839 
L 418.868774 727.47661 
L 419.266004 727.489722 
L 419.665449 727.4941 
L 436.223572 727.323033 
L 466.367509 726.355826 
L 489.353234 725.11724 
L 500.909907 724.226661 
L 511.569523 723.155417 
L 521.48536 721.962547 
L 527.734658 721.067924 
L 530.923969 720.551385 
L 531.354416 720.470237 
L 531.785463 720.379246 
L 532.216986 720.278357 
L 532.6488 720.167533 
L 533.080713 720.046745 
L 533.512523 719.915972 
L 533.944027 719.7752 
L 534.375018 719.624425 
L 534.805283 719.463652 
L 535.234607 719.292894 
L 535.662775 719.112175 
L 536.089565 718.921525 
L 536.514758 718.720988 
L 536.93813 718.510615 
L 537.359457 718.290467 
L 537.778515 718.060616 
L 538.19508 717.821143 
L 538.608926 717.572139 
L 539.019832 717.313706 
L 539.427574 717.045954 
L 539.831933 716.769005 
L 540.232691 716.482988 
L 540.629631 716.188042 
L 541.022541 715.884316 
L 541.411214 715.571968 
L 541.795443 715.251162 
L 542.17503 714.922074 
L 542.549779 714.584883 
L 542.919499 714.23978 
L 543.284006 713.88696 
L 543.643122 713.526625 
L 543.996674 713.158983 
L 544.344497 712.784249 
L 544.686431 712.402641 
L 545.022325 712.014383 
L 545.352035 711.619701 
L 545.675422 711.218826 
L 545.992358 710.811993 
L 546.30272 710.399436 
L 546.606394 709.981394 
L 546.903273 709.558107 
L 547.193258 709.129813 
L 547.476258 708.696755 
L 547.75219 708.259171 
L 548.020978 707.817302 
L 548.282554 707.371387 
L 548.536856 706.921663 
L 548.783832 706.468365 
L 549.023435 706.011728 
L 549.255625 705.551981 
L 549.480369 705.089352 
L 549.697642 704.624067 
L 549.907423 704.156346 
L 550.109698 703.686407 
L 550.304461 703.214464 
L 550.491707 702.740726 
L 550.67144 702.265397 
L 550.843668 701.788679 
L 551.008404 701.310768 
L 551.165665 700.831854 
L 551.315472 700.352124 
L 551.457852 699.87176 
L 551.592833 699.390937 
L 551.720448 698.909828 
L 551.840734 698.428598 
L 551.953729 697.94741 
L 552.059476 697.46642 
L 552.158017 696.985779 
L 552.2494 696.505633 
L 552.333674 696.026125 
L 552.410888 695.54739 
L 552.481095 695.06956 
L 552.544347 694.59276 
L 552.600701 694.117107 
L 552.650212 693.642707 
L 554.90029 669.003229 
L 554.936666 668.526688 
L 555.781799 653.868709 
L 555.925036 650.834148 
L 556.51141 632.818083 
L 557.119412 604.137634 
L 557.258898 590.090593 
L 557.255661 589.621163 
L 557.245984 589.154659 
L 557.229942 588.690984 
L 557.207605 588.230186 
L 557.179044 587.772329 
L 557.144329 587.317477 
L 557.103528 586.865696 
L 557.056708 586.417047 
L 557.003936 585.971591 
L 556.945277 585.529385 
L 556.880794 585.090483 
L 556.810563 584.654884 
L 556.734608 584.222805 
L 556.653026 583.79413 
L 556.565865 583.368976 
L 556.487392 583.010695 
L 556.427697 582.756483 
L 556.34913 582.44325 
L 556.243117 582.043576 
L 556.131606 581.646346 
L 556.014616 581.251635 
L 555.892162 580.859492 
L 555.764256 580.469967 
L 555.63091 580.083111 
L 555.492131 579.698975 
L 555.347927 579.317602 
L 555.159579 578.842149 
L 554.997638 578.449723 
L 554.830594 578.061628 
L 554.658479 577.677877 
L 554.481339 577.298528 
L 554.299222 576.923639 
L 554.112175 576.553268 
L 553.920242 576.187474 
L 553.72347 575.826313 
L 553.521902 575.469843 
L 553.315583 575.11812 
L 553.104555 574.7712 
L 552.888862 574.42914 
L 552.668543 574.091996 
L 552.443642 573.759825 
L 552.214197 573.432681 
L 551.980249 573.110621 
L 551.741836 572.793702 
L 551.498998 572.481981 
L 551.251771 572.175515 
L 551.000194 571.874361 
L 550.744304 571.578577 
L 550.484136 571.288221 
L 550.219727 571.003354 
L 549.951112 570.724035 
L 549.678328 570.450324 
L 549.401408 570.182284 
L 549.120389 569.919976 
L 548.835305 569.663464 
L 548.546191 569.412813 
L 548.253082 569.168088 
L 547.956012 568.929356 
L 547.655017 568.696685 
L 547.350133 568.470143 
L 547.041395 568.249802 
L 546.72884 568.035732 
L 546.412504 567.828007 
L 546.092425 567.626701 
L 545.768641 567.43189 
L 545.441193 567.243651 
L 545.110119 567.062063 
L 544.775462 566.887205 
L 544.437265 566.719159 
L 544.095572 566.558007 
L 543.750429 566.403835 
L 543.40191 566.256709 
L 543.049985 566.116768 
L 542.694786 565.984049 
L 542.336341 565.858658 
L 541.974706 565.740685 
L 541.609945 565.630222 
L 541.249308 565.529269 
L 540.974239 565.458699 
L 540.611903 565.374181 
L 540.225498 565.292619 
L 539.83556 565.219113 
L 539.442175 565.153789 
L 539.045494 565.096757 
L 538.645397 565.048192 
L 538.242185 565.00817 
L 537.835885 564.976831 
L 537.426595 564.954298 
L 537.014402 564.940692 
L 536.599186 564.936137 
L 524.648142 565.062182 
L 502.354297 565.793565 
L 475.083608 567.306771 
L 455.507617 568.737661 
L 441.688534 570.130618 
L 424.768248 572.324076 
L 424.360978 572.382609 
L 423.952714 572.45041 
L 423.543586 572.527541 
L 423.133742 572.614057 
L 422.723335 572.710009 
L 422.312524 572.815443 
L 421.901473 572.930398 
L 421.490349 573.054907 
L 421.079326 573.188997 
L 420.668577 573.332691 
L 420.258284 573.486002 
L 419.848629 573.648938 
L 419.439797 573.821497 
L 419.031977 574.003672 
L 418.62536 574.195449 
L 418.220141 574.396803 
L 417.816514 574.607704 
L 417.414676 574.82811 
L 417.014827 575.057975 
L 416.617165 575.297241 
L 416.221891 575.545844 
L 415.829205 575.803709 
L 415.439309 576.070755 
L 415.052401 576.346889 
L 414.66868 576.632013 
L 414.288346 576.926018 
L 413.911594 577.228788 
L 413.538619 577.540199 
L 413.169613 577.860116 
L 412.804764 578.1884 
L 412.444261 578.524902 
L 412.088285 578.869465 
L 411.737017 579.221928 
L 411.39063 579.58212 
L 411.049297 579.949865 
L 410.713183 580.324979 
L 410.382449 580.707274 
L 410.057252 581.096556 
L 409.737742 581.492625 
L 409.424065 581.895278 
L 409.11636 582.304305 
L 408.81476 582.719495 
L 408.519391 583.140631 
L 408.230376 583.567494 
L 407.947828 583.999863 
L 407.671855 584.437513 
L 407.40256 584.880218 
L 407.140037 585.327751 
L 406.884374 585.779883 
L 406.635653 586.236386 
L 406.39395 586.697029 
L 406.159333 587.161584 
L 405.931866 587.62982 
L 405.711603 588.101511 
L 405.498595 588.576429 
L 405.292885 589.054349 
L 405.094512 589.535046 
L 404.903506 590.018299 
L 404.719894 590.503888 
L 404.543696 590.991596 
L 404.374927 591.48121 
L 404.213598 591.972517 
L 404.059712 592.46531 
L 403.913269 592.959384 
L 403.774266 593.454539 
L 403.642691 593.950576 
L 403.518533 594.447302 
L 403.401772 594.944528 
L 403.292388 595.442068 
L 403.190356 595.939741 
L 403.095646 596.43737 
L 403.008226 596.934782 
L 402.928062 597.431812 
L 402.855115 597.928298 
L 402.789343 598.424098 
L 402.728584 598.937879 
L 402.372597 602.364506 
L 401.609022 610.808002 
L 400.87043 620.625557 
L 400.077809 633.436322 
L 399.796672 638.955034 
z
" clip-path="url(#p604379d364)" style="fill: #1f77b4; opacity: 0.35; stroke: #00008b; stroke-width: 1.5; stroke-linejoin: miter"/>
   </g>
   <g id="patch_20">
    <path d="M 400.785803 665.186758 
L 404.651833 688.208287 
L 416.051484 712.330301 
L 417.705688 714.790635 
L 429.678158 720.656474 
L 501.66394 720.240558 
L 537.809383 712.891719 
L 552.517179 695.859181 
L 558.421581 611.430874 
L 557.328071 581.400137 
L 557.13708 580.369146 
L 545.89358 563.633057 
L 473.172516 561.458347 
L 425.38865 567.75807 
L 413.7341 575.486892 
L 405.520121 587.666999 
L 400.509311 635.179209 
z
" clip-path="url(#p604379d364)" style="fill: #ff7f0e; opacity: 0.35; stroke: #ff8c00; stroke-width: 1.5; stroke-linejoin: miter"/>
   </g>
   <g id="patch_21">
    <path d="M 409.334244 698.554223 
L 415.927778 712.501662 
L 416.392866 713.193337 
L 512.315672 710.823433 
L 525.203756 707.985508 
L 539.304945 690.603125 
L 544.602906 581.714886 
L 541.101236 576.519804 
L 493.344763 574.210261 
L 418.802894 581.927663 
L 416.308016 583.511255 
L 413.252153 587.896207 
L 409.894287 616.049976 
z
" clip-path="url(#p604379d364)" style="fill: #d62728; opacity: 0.35; stroke: #8b0000; stroke-width: 1.5; stroke-linejoin: miter"/>
   </g>
   <g id="matplotlib.axis_9"/>
   <g id="matplotlib.axis_10"/>
   <g id="text_5">
    <!-- (e) $\Delta\theta=-0.30$ -->
    <g transform="translate(497.53 425.755) scale(0.13 -0.13)">
     <defs>
      <path id="TimesNewRomanPSMT-65" d="M 681 1784 
Q 678 1147 991 784 
Q 1303 422 1725 422 
Q 2006 422 2214 576 
Q 2422 731 2563 1106 
L 2659 1044 
Q 2594 616 2278 264 
Q 1963 -88 1488 -88 
Q 972 -88 605 314 
Q 238 716 238 1394 
Q 238 2128 614 2539 
Q 991 2950 1559 2950 
Q 2041 2950 2350 2633 
Q 2659 2316 2659 1784 
L 681 1784 
z
M 681 1966 
L 2006 1966 
Q 1991 2241 1941 2353 
Q 1863 2528 1708 2628 
Q 1553 2728 1384 2728 
Q 1125 2728 920 2526 
Q 716 2325 681 1966 
z
" transform="scale(0.015625)"/>
     </defs>
     <use xlink:href="#TimesNewRomanPSMT-28" transform="translate(0 0.5625)"/>
     <use xlink:href="#TimesNewRomanPSMT-65" transform="translate(33.300781 0.5625)"/>
     <use xlink:href="#TimesNewRomanPSMT-29" transform="translate(77.685547 0.5625)"/>
     <use xlink:href="#TimesNewRomanPSMT-20" transform="translate(110.986328 0.5625)"/>
     <use xlink:href="#STIXGeneral-Regular-394" transform="translate(135.986328 0.5625)"/>
     <use xlink:href="#STIXGeneral-Italic-3b8" transform="translate(208.18631 0.5625)"/>
     <use xlink:href="#STIXGeneral-Regular-3d" transform="translate(270.626291 0.5625)"/>
     <use xlink:href="#STIXGeneral-Regular-2212" transform="translate(353.566272 0.5625)"/>
     <use xlink:href="#STIXGeneral-Regular-30" transform="translate(422.066257 0.5625)"/>
     <use xlink:href="#STIXGeneral-Regular-2e" transform="translate(472.066241 0.5625)"/>
     <use xlink:href="#STIXGeneral-Regular-33" transform="translate(497.066226 0.5625)"/>
     <use xlink:href="#STIXGeneral-Regular-30" transform="translate(547.066211 0.5625)"/>
    </g>
   </g>
  </g>
  <g id="axes_6">
   <g id="patch_22">
    <path d="M 722.8 753.1 
L 1065.6 753.1 
L 1065.6 428.615 
L 722.8 428.615 
z
" style="fill: #ffffff"/>
   </g>
   <g id="patch_23">
    <path d="M 816.614373 590.40836 
L 816.011092 619.68145 
L 815.838335 639.130288 
L 815.842684 639.760777 
L 815.855696 640.38795 
L 815.877286 641.011944 
L 815.907377 641.632673 
L 815.945889 642.250032 
L 815.992743 642.863912 
L 816.047861 643.474205 
L 816.111165 644.080806 
L 816.182579 644.683613 
L 816.262027 645.282526 
L 816.349432 645.877448 
L 816.444722 646.468285 
L 816.547822 647.054947 
L 816.658661 647.637344 
L 816.777167 648.215391 
L 816.90327 648.789002 
L 817.036903 649.358096 
L 817.177996 649.922592 
L 817.326484 650.482412 
L 817.482303 651.03748 
L 817.645388 651.587719 
L 817.815677 652.133055 
L 817.99311 652.673416 
L 818.177627 653.208729 
L 818.36917 653.738924 
L 818.567683 654.26393 
L 818.773109 654.783676 
L 818.985396 655.298095 
L 819.204489 655.807117 
L 819.430338 656.310673 
L 819.662894 656.808695 
L 819.902106 657.301114 
L 820.147928 657.78786 
L 820.400312 658.268866 
L 820.659215 658.744061 
L 820.924591 659.213375 
L 821.196399 659.676738 
L 821.474595 660.134078 
L 821.759139 660.585324 
L 822.04999 661.030401 
L 822.347111 661.469236 
L 822.650461 661.901754 
L 822.960004 662.327878 
L 823.275702 662.74753 
L 823.597519 663.160632 
L 823.925419 663.567101 
L 824.259367 663.966857 
L 824.599326 664.359816 
L 824.945264 664.745891 
L 825.297143 665.124996 
L 825.654931 665.497041 
L 826.018591 665.861935 
L 826.38809 666.219586 
L 826.763391 666.569897 
L 827.14446 666.912772 
L 827.53126 667.248112 
L 827.923754 667.575815 
L 828.321906 667.895778 
L 828.725675 668.207895 
L 829.135025 668.512057 
L 829.549912 668.808155 
L 829.970297 669.096077 
L 830.396134 669.375706 
L 830.82738 669.646927 
L 831.263988 669.90962 
L 831.705908 670.163664 
L 832.15309 670.408936 
L 832.605481 670.645309 
L 833.063025 670.872656 
L 833.525663 671.090848 
L 833.993335 671.299752 
L 834.465976 671.499237 
L 834.943519 671.689166 
L 835.425893 671.869402 
L 835.913023 672.039809 
L 836.404831 672.200247 
L 836.901235 672.350575 
L 837.402148 672.490652 
L 837.907478 672.620336 
L 838.417131 672.739484 
L 838.931006 672.847953 
L 839.448998 672.945601 
L 839.970996 673.032283 
L 840.496885 673.107858 
L 841.026544 673.172185 
L 841.559847 673.225122 
L 842.096665 673.26653 
L 842.636867 673.296273 
L 843.180335 673.314213 
L 843.726741 673.320242 
L 860.663642 673.14627 
L 886.046011 672.282643 
L 913.893827 670.783608 
L 937.786012 668.958897 
L 949.521248 667.781602 
L 958.535939 666.701681 
L 971.147832 664.887914 
L 981.561755 663.167049 
L 988.282028 661.916412 
L 988.858161 661.794795 
L 989.435216 661.65988 
L 990.013207 661.511566 
L 990.591723 661.349776 
L 991.170535 661.174454 
L 991.749493 660.985577 
L 992.328251 660.783106 
L 992.906521 660.567028 
L 993.484009 660.337339 
L 994.060415 660.094051 
L 994.63543 659.837187 
L 995.208743 659.56679 
L 995.780038 659.282912 
L 996.348994 658.985626 
L 996.915288 658.675015 
L 997.478595 658.351183 
L 998.038586 658.014246 
L 998.594936 657.664337 
L 999.147316 657.301606 
L 999.695401 656.926216 
L 1000.238867 656.538347 
L 1000.777394 656.138195 
L 1001.310666 655.725968 
L 1001.83837 655.301889 
L 1002.360201 654.866195 
L 1002.875861 654.419136 
L 1003.385057 653.960972 
L 1003.887506 653.491977 
L 1004.382934 653.012433 
L 1004.871076 652.522634 
L 1005.351677 652.022881 
L 1005.824493 651.513482 
L 1006.289292 650.994754 
L 1006.745853 650.467018 
L 1007.193966 649.9306 
L 1007.633434 649.385832 
L 1008.064073 648.833044 
L 1008.485709 648.272574 
L 1008.898183 647.704757 
L 1009.301347 647.129929 
L 1009.695066 646.548427 
L 1010.079217 645.960584 
L 1010.453689 645.366733 
L 1010.818382 644.767204 
L 1011.173208 644.162322 
L 1011.518091 643.552411 
L 1011.852964 642.937788 
L 1012.177772 642.318766 
L 1012.492468 641.695653 
L 1012.797017 641.068751 
L 1013.09139 640.438357 
L 1013.37557 639.80476 
L 1013.649545 639.168245 
L 1013.913313 638.529089 
L 1014.166878 637.887563 
L 1014.410252 637.24393 
L 1014.643451 636.59845 
L 1014.866498 635.951371 
L 1015.079424 635.30294 
L 1015.282262 634.653393 
L 1015.475049 634.002961 
L 1015.65783 633.351869 
L 1015.830652 632.700336 
L 1015.993563 632.048573 
L 1016.14662 631.396787 
L 1016.289877 630.745178 
L 1016.423395 630.09394 
L 1016.547235 629.44326 
L 1016.661462 628.793323 
L 1016.766142 628.144304 
L 1016.861341 627.496374 
L 1016.947132 626.849689 
L 1018.196099 616.846787 
L 1018.243285 616.394656 
L 1019.924776 596.194833 
L 1020.035654 594.657195 
L 1020.143523 592.937315 
L 1020.488558 585.838477 
L 1021.241301 562.072212 
L 1021.505265 547.36878 
L 1021.56436 540.333773 
L 1021.467613 531.305824 
L 1021.278621 522.270874 
L 1021.151852 518.330919 
L 1020.958387 513.98217 
L 1020.861344 512.446255 
L 1020.665424 509.920862 
L 1020.622591 509.446636 
L 1020.572956 508.971059 
L 1020.517529 508.502662 
L 1020.459311 508.063965 
L 1020.39486 507.625348 
L 1020.31926 507.156543 
L 1020.236212 506.684033 
L 1020.145455 506.207324 
L 1020.046528 505.724843 
L 1019.938723 505.23454 
L 1019.821049 504.733498 
L 1019.692047 504.217489 
L 1019.54948 503.680141 
L 1019.389747 503.111332 
L 1018.811588 501.174449 
L 1015.179222 489.589242 
L 1014.839051 488.553093 
L 1014.500582 487.570964 
L 1014.16524 486.642563 
L 1013.833871 485.766036 
L 1013.506868 484.938548 
L 1013.184311 484.156736 
L 1012.79409 483.247431 
L 1012.492534 482.57504 
L 1010.339915 477.977033 
L 1008.830149 474.822826 
L 1008.075067 473.327934 
L 1007.771249 472.748843 
L 1007.469434 472.194833 
L 1007.169241 471.663898 
L 1005.519622 468.82136 
L 1002.691093 464.165384 
L 1002.393063 463.692717 
L 1002.095534 463.23739 
L 1000.908756 461.494303 
L 1000.611596 461.070586 
L 1000.314352 460.661368 
L 1000.016843 460.265874 
L 999.718924 459.883429 
L 999.420463 459.513435 
L 999.121344 459.155354 
L 998.821464 458.808708 
L 998.520732 458.473068 
L 998.219066 458.148049 
L 997.916397 457.833307 
L 997.612663 457.528531 
L 997.30781 457.233443 
L 997.001793 456.947792 
L 996.694573 456.671354 
L 996.386118 456.403926 
L 996.0764 456.145327 
L 995.765398 455.895391 
L 995.453096 455.653972 
L 995.139482 455.420937 
L 994.824548 455.196167 
L 994.508291 454.979556 
L 994.19071 454.771008 
L 993.871809 454.570437 
L 993.551593 454.377767 
L 993.230072 454.192931 
L 992.907258 454.015868 
L 992.583165 453.846525 
L 992.25781 453.684855 
L 991.931213 453.530819 
L 991.603394 453.384381 
L 991.274378 453.245511 
L 990.94419 453.114184 
L 990.612857 452.990379 
L 990.280408 452.874078 
L 989.946875 452.765269 
L 989.61229 452.663941 
L 989.276688 452.570089 
L 988.940105 452.483708 
L 988.60258 452.404797 
L 988.264151 452.333358 
L 987.92486 452.269395 
L 987.584749 452.212913 
L 987.243863 452.163922 
L 986.902247 452.122431 
L 986.559949 452.088451 
L 986.217014 452.061996 
L 985.873488 452.04308 
L 985.529403 452.03172 
L 985.184988 452.027907 
L 970.380056 452.227454 
L 954.049422 452.836538 
L 931.292017 454.017354 
L 900.39642 456.206181 
L 878.178185 458.572552 
L 874.427841 459.036298 
L 856.698595 461.62182 
L 853.793524 462.079407 
L 853.220871 462.187369 
L 852.64605 462.308714 
L 852.069281 462.443564 
L 851.490799 462.592033 
L 850.910855 462.754223 
L 850.329707 462.930226 
L 849.747626 463.120125 
L 849.164889 463.323989 
L 848.581785 463.541875 
L 847.998608 463.773829 
L 847.415663 464.01988 
L 846.83326 464.280045 
L 846.251719 464.554325 
L 845.671362 464.842708 
L 845.09252 465.145162 
L 844.515527 465.461643 
L 843.940722 465.792087 
L 843.368447 466.136417 
L 842.799047 466.494536 
L 842.232868 466.866331 
L 841.670256 467.251672 
L 841.111559 467.650412 
L 840.557123 468.062388 
L 840.007291 468.487419 
L 839.462405 468.925308 
L 838.922802 469.375842 
L 838.388816 469.838792 
L 837.860773 470.313916 
L 837.338996 470.800955 
L 836.823798 471.299637 
L 836.315485 471.809677 
L 835.814357 472.330778 
L 835.320701 472.862631 
L 834.834796 473.404915 
L 834.356912 473.957301 
L 833.887306 474.519449 
L 833.426223 475.091013 
L 832.9739 475.671638 
L 832.530558 476.260964 
L 832.096407 476.858623 
L 831.671646 477.464247 
L 831.256458 478.077459 
L 830.851016 478.697884 
L 830.455478 479.325143 
L 830.069992 479.958857 
L 829.694689 480.598646 
L 829.329691 481.244131 
L 828.975106 481.894936 
L 828.631028 482.550684 
L 828.29754 483.211005 
L 827.974715 483.875529 
L 827.662612 484.543893 
L 827.361278 485.215736 
L 827.070751 485.890705 
L 826.791057 486.568452 
L 826.522213 487.248635 
L 826.264225 487.930917 
L 826.01709 488.614971 
L 825.780797 489.300475 
L 825.555324 489.987116 
L 825.340643 490.674589 
L 825.136718 491.362595 
L 824.943504 492.050846 
L 824.760953 492.73906 
L 824.589007 493.426965 
L 824.427603 494.114298 
L 824.276674 494.800802 
L 824.136145 495.486233 
L 824.005939 496.170359 
L 823.885966 496.852991 
L 823.555313 498.934432 
L 823.042959 502.444664 
L 822.054144 509.949901 
L 821.18767 517.263467 
L 820.075859 527.985299 
L 818.972338 540.258396 
L 818.138421 551.09935 
L 817.950302 553.96641 
L 817.497513 563.86837 
z
" clip-path="url(#pe2b97c567c)" style="fill: #1f77b4; opacity: 0.35; stroke: #00008b; stroke-width: 1.5; stroke-linejoin: miter"/>
   </g>
   <g id="patch_24">
    <path d="M 806.778393 648.439251 
L 808.613096 655.539535 
L 828.416083 675.896944 
L 975.105283 665.152675 
L 985.384861 662.616963 
L 1004.296 605.724801 
L 977.837896 507.219916 
L 962.411151 496.303273 
L 865.747998 477.470001 
L 829.408852 480.412603 
L 816.312696 500.223646 
z
" clip-path="url(#pe2b97c567c)" style="fill: #ff7f0e; opacity: 0.35; stroke: #ff8c00; stroke-width: 1.5; stroke-linejoin: miter"/>
   </g>
   <g id="patch_25">
    <path d="M 818.32128 644.282022 
L 820.487012 653.087355 
L 832.165965 665.032265 
L 985.535682 650.618815 
L 987.57836 648.468829 
L 996.019401 599.216474 
L 997.130739 578.317115 
L 978.015571 507.115919 
L 962.515741 496.149339 
L 912.136227 486.342506 
L 832.753969 491.487335 
L 830.852756 491.956647 
z
" clip-path="url(#pe2b97c567c)" style="fill: #d62728; opacity: 0.35; stroke: #8b0000; stroke-width: 1.5; stroke-linejoin: miter"/>
   </g>
   <g id="matplotlib.axis_11"/>
   <g id="matplotlib.axis_12"/>
   <g id="text_6">
    <!-- (f) $\Delta\theta=+0.45$ -->
    <g transform="translate(856.11 425.755) scale(0.13 -0.13)">
     <defs>
      <path id="TimesNewRomanPSMT-66" d="M 1319 2638 
L 1319 756 
Q 1319 356 1406 250 
Q 1522 113 1716 113 
L 1975 113 
L 1975 0 
L 266 0 
L 266 113 
L 394 113 
Q 519 113 622 175 
Q 725 238 764 344 
Q 803 450 803 756 
L 803 2638 
L 247 2638 
L 247 2863 
L 803 2863 
L 803 3050 
Q 803 3478 940 3775 
Q 1078 4072 1361 4255 
Q 1644 4438 1997 4438 
Q 2325 4438 2600 4225 
Q 2781 4084 2781 3909 
Q 2781 3816 2700 3733 
Q 2619 3650 2525 3650 
Q 2453 3650 2373 3701 
Q 2294 3753 2178 3923 
Q 2063 4094 1966 4153 
Q 1869 4213 1750 4213 
Q 1606 4213 1506 4136 
Q 1406 4059 1362 3898 
Q 1319 3738 1319 3069 
L 1319 2863 
L 2056 2863 
L 2056 2638 
L 1319 2638 
z
" transform="scale(0.015625)"/>
      <path id="STIXGeneral-Regular-34" d="M 3027 1069 
L 2368 1069 
L 2368 0 
L 1869 0 
L 1869 1069 
L 77 1069 
L 77 1478 
L 2086 4326 
L 2368 4326 
L 2368 1478 
L 3027 1478 
L 3027 1069 
z
M 1869 1478 
L 1869 3674 
L 333 1478 
L 1869 1478 
z
" transform="scale(0.015625)"/>
     </defs>
     <use xlink:href="#TimesNewRomanPSMT-28" transform="translate(0 0.5625)"/>
     <use xlink:href="#TimesNewRomanPSMT-66" transform="translate(33.300781 0.5625)"/>
     <use xlink:href="#TimesNewRomanPSMT-29" transform="translate(66.601562 0.5625)"/>
     <use xlink:href="#TimesNewRomanPSMT-20" transform="translate(99.902344 0.5625)"/>
     <use xlink:href="#STIXGeneral-Regular-394" transform="translate(124.902344 0.5625)"/>
     <use xlink:href="#STIXGeneral-Italic-3b8" transform="translate(197.102325 0.5625)"/>
     <use xlink:href="#STIXGeneral-Regular-3d" transform="translate(259.542307 0.5625)"/>
     <use xlink:href="#STIXGeneral-Regular-2b" transform="translate(342.482288 0.5625)"/>
     <use xlink:href="#STIXGeneral-Regular-30" transform="translate(410.982272 0.5625)"/>
     <use xlink:href="#STIXGeneral-Regular-2e" transform="translate(460.982257 0.5625)"/>
     <use xlink:href="#STIXGeneral-Regular-34" transform="translate(485.982242 0.5625)"/>
     <use xlink:href="#STIXGeneral-Regular-35" transform="translate(535.982227 0.5625)"/>
    </g>
   </g>
  </g>
  <g id="legend_1">
   <g id="patch_26">
    <path d="M 285.543672 29.505156 
L 787.256328 29.505156 
Q 789.856328 29.505156 789.856328 26.905156 
L 789.856328 9.8 
Q 789.856328 7.2 787.256328 7.2 
L 285.543672 7.2 
Q 282.943672 7.2 282.943672 9.8 
L 282.943672 26.905156 
Q 282.943672 29.505156 285.543672 29.505156 
z
" style="fill: #ffffff; opacity: 0.8; stroke: #cccccc; stroke-linejoin: miter"/>
   </g>
   <g id="patch_27">
    <path d="M 288.143672 21.5 
L 314.143672 21.5 
L 314.143672 12.4 
L 288.143672 12.4 
z
" style="fill: #1f77b4; opacity: 0.35; stroke: #00008b; stroke-width: 1.5; stroke-linejoin: miter"/>
   </g>
   <g id="text_7">
    <!-- Original region -->
    <g transform="translate(324.543672 21.5) scale(0.13 -0.13)">
     <defs>
      <path id="TimesNewRomanPSMT-4f" d="M 2341 4334 
Q 3166 4334 3770 3707 
Q 4375 3081 4375 2144 
Q 4375 1178 3765 540 
Q 3156 -97 2291 -97 
Q 1416 -97 820 525 
Q 225 1147 225 2134 
Q 225 3144 913 3781 
Q 1509 4334 2341 4334 
z
M 2281 4106 
Q 1713 4106 1369 3684 
Q 941 3159 941 2147 
Q 941 1109 1384 550 
Q 1725 125 2284 125 
Q 2881 125 3270 590 
Q 3659 1056 3659 2059 
Q 3659 3147 3231 3681 
Q 2888 4106 2281 4106 
z
" transform="scale(0.015625)"/>
      <path id="TimesNewRomanPSMT-72" d="M 1038 2947 
L 1038 2303 
Q 1397 2947 1775 2947 
Q 1947 2947 2059 2842 
Q 2172 2738 2172 2600 
Q 2172 2478 2090 2393 
Q 2009 2309 1897 2309 
Q 1788 2309 1652 2417 
Q 1516 2525 1450 2525 
Q 1394 2525 1328 2463 
Q 1188 2334 1038 2041 
L 1038 669 
Q 1038 431 1097 309 
Q 1138 225 1241 169 
Q 1344 113 1538 113 
L 1538 0 
L 72 0 
L 72 113 
Q 291 113 397 181 
Q 475 231 506 341 
Q 522 394 522 644 
L 522 1753 
Q 522 2253 501 2348 
Q 481 2444 426 2487 
Q 372 2531 291 2531 
Q 194 2531 72 2484 
L 41 2597 
L 906 2947 
L 1038 2947 
z
" transform="scale(0.015625)"/>
      <path id="TimesNewRomanPSMT-69" d="M 928 4444 
Q 1059 4444 1151 4351 
Q 1244 4259 1244 4128 
Q 1244 3997 1151 3903 
Q 1059 3809 928 3809 
Q 797 3809 703 3903 
Q 609 3997 609 4128 
Q 609 4259 701 4351 
Q 794 4444 928 4444 
z
M 1188 2947 
L 1188 647 
Q 1188 378 1227 289 
Q 1266 200 1342 156 
Q 1419 113 1622 113 
L 1622 0 
L 231 0 
L 231 113 
Q 441 113 512 153 
Q 584 194 626 287 
Q 669 381 669 647 
L 669 1750 
Q 669 2216 641 2353 
Q 619 2453 572 2492 
Q 525 2531 444 2531 
Q 356 2531 231 2484 
L 188 2597 
L 1050 2947 
L 1188 2947 
z
" transform="scale(0.015625)"/>
      <path id="TimesNewRomanPSMT-67" d="M 966 1044 
Q 703 1172 562 1401 
Q 422 1631 422 1909 
Q 422 2334 742 2640 
Q 1063 2947 1563 2947 
Q 1972 2947 2272 2747 
L 2878 2747 
Q 3013 2747 3034 2739 
Q 3056 2731 3066 2713 
Q 3084 2684 3084 2613 
Q 3084 2531 3069 2500 
Q 3059 2484 3036 2475 
Q 3013 2466 2878 2466 
L 2506 2466 
Q 2681 2241 2681 1891 
Q 2681 1491 2375 1206 
Q 2069 922 1553 922 
Q 1341 922 1119 984 
Q 981 866 932 777 
Q 884 688 884 625 
Q 884 572 936 522 
Q 988 472 1138 450 
Q 1225 438 1575 428 
Q 2219 413 2409 384 
Q 2700 344 2873 169 
Q 3047 -6 3047 -263 
Q 3047 -616 2716 -925 
Q 2228 -1381 1444 -1381 
Q 841 -1381 425 -1109 
Q 191 -953 191 -784 
Q 191 -709 225 -634 
Q 278 -519 444 -313 
Q 466 -284 763 25 
Q 600 122 533 198 
Q 466 275 466 372 
Q 466 481 555 628 
Q 644 775 966 1044 
z
M 1509 2797 
Q 1278 2797 1122 2612 
Q 966 2428 966 2047 
Q 966 1553 1178 1281 
Q 1341 1075 1591 1075 
Q 1828 1075 1981 1253 
Q 2134 1431 2134 1813 
Q 2134 2309 1919 2591 
Q 1759 2797 1509 2797 
z
M 934 0 
Q 788 -159 713 -296 
Q 638 -434 638 -550 
Q 638 -700 819 -813 
Q 1131 -1006 1722 -1006 
Q 2284 -1006 2551 -807 
Q 2819 -609 2819 -384 
Q 2819 -222 2659 -153 
Q 2497 -84 2016 -72 
Q 1313 -53 934 0 
z
" transform="scale(0.015625)"/>
      <path id="TimesNewRomanPSMT-6e" d="M 1034 2341 
Q 1538 2947 1994 2947 
Q 2228 2947 2397 2830 
Q 2566 2713 2666 2444 
Q 2734 2256 2734 1869 
L 2734 647 
Q 2734 375 2778 278 
Q 2813 200 2889 156 
Q 2966 113 3172 113 
L 3172 0 
L 1756 0 
L 1756 113 
L 1816 113 
Q 2016 113 2095 173 
Q 2175 234 2206 353 
Q 2219 400 2219 647 
L 2219 1819 
Q 2219 2209 2117 2386 
Q 2016 2563 1775 2563 
Q 1403 2563 1034 2156 
L 1034 647 
Q 1034 356 1069 288 
Q 1113 197 1189 155 
Q 1266 113 1500 113 
L 1500 0 
L 84 0 
L 84 113 
L 147 113 
Q 366 113 442 223 
Q 519 334 519 647 
L 519 1709 
Q 519 2225 495 2337 
Q 472 2450 423 2490 
Q 375 2531 294 2531 
Q 206 2531 84 2484 
L 38 2597 
L 900 2947 
L 1034 2947 
L 1034 2341 
z
" transform="scale(0.015625)"/>
      <path id="TimesNewRomanPSMT-6c" d="M 1184 4444 
L 1184 647 
Q 1184 378 1223 290 
Q 1263 203 1344 158 
Q 1425 113 1647 113 
L 1647 0 
L 244 0 
L 244 113 
Q 441 113 512 153 
Q 584 194 625 287 
Q 666 381 666 647 
L 666 3247 
Q 666 3731 644 3842 
Q 622 3953 573 3993 
Q 525 4034 450 4034 
Q 369 4034 244 3984 
L 191 4094 
L 1044 4444 
L 1184 4444 
z
" transform="scale(0.015625)"/>
      <path id="TimesNewRomanPSMT-6f" d="M 1600 2947 
Q 2250 2947 2644 2453 
Q 2978 2031 2978 1484 
Q 2978 1100 2793 706 
Q 2609 313 2286 112 
Q 1963 -88 1566 -88 
Q 919 -88 538 428 
Q 216 863 216 1403 
Q 216 1797 411 2186 
Q 606 2575 925 2761 
Q 1244 2947 1600 2947 
z
M 1503 2744 
Q 1338 2744 1170 2645 
Q 1003 2547 900 2300 
Q 797 2053 797 1666 
Q 797 1041 1045 587 
Q 1294 134 1700 134 
Q 2003 134 2200 384 
Q 2397 634 2397 1244 
Q 2397 2006 2069 2444 
Q 1847 2744 1503 2744 
z
" transform="scale(0.015625)"/>
     </defs>
     <use xlink:href="#TimesNewRomanPSMT-4f"/>
     <use xlink:href="#TimesNewRomanPSMT-72" transform="translate(72.216797 0)"/>
     <use xlink:href="#TimesNewRomanPSMT-69" transform="translate(105.517578 0)"/>
     <use xlink:href="#TimesNewRomanPSMT-67" transform="translate(133.300781 0)"/>
     <use xlink:href="#TimesNewRomanPSMT-69" transform="translate(183.300781 0)"/>
     <use xlink:href="#TimesNewRomanPSMT-6e" transform="translate(211.083984 0)"/>
     <use xlink:href="#TimesNewRomanPSMT-61" transform="translate(261.083984 0)"/>
     <use xlink:href="#TimesNewRomanPSMT-6c" transform="translate(305.46875 0)"/>
     <use xlink:href="#TimesNewRomanPSMT-20" transform="translate(333.251953 0)"/>
     <use xlink:href="#TimesNewRomanPSMT-72" transform="translate(358.251953 0)"/>
     <use xlink:href="#TimesNewRomanPSMT-65" transform="translate(391.552734 0)"/>
     <use xlink:href="#TimesNewRomanPSMT-67" transform="translate(435.9375 0)"/>
     <use xlink:href="#TimesNewRomanPSMT-69" transform="translate(485.9375 0)"/>
     <use xlink:href="#TimesNewRomanPSMT-6f" transform="translate(513.720703 0)"/>
     <use xlink:href="#TimesNewRomanPSMT-6e" transform="translate(563.720703 0)"/>
    </g>
   </g>
   <g id="patch_28">
    <path d="M 430.327109 21.5 
L 456.327109 21.5 
L 456.327109 12.4 
L 430.327109 12.4 
z
" style="fill: #ff7f0e; opacity: 0.35; stroke: #ff8c00; stroke-width: 1.5; stroke-linejoin: miter"/>
   </g>
   <g id="text_8">
    <!-- Learned region-moderate -->
    <g transform="translate(466.727109 21.5) scale(0.13 -0.13)">
     <defs>
      <path id="TimesNewRomanPSMT-4c" d="M 3669 1172 
L 3772 1150 
L 3409 0 
L 128 0 
L 128 116 
L 288 116 
Q 556 116 672 291 
Q 738 391 738 753 
L 738 3488 
Q 738 3884 650 3984 
Q 528 4122 288 4122 
L 128 4122 
L 128 4238 
L 2047 4238 
L 2047 4122 
Q 1709 4125 1573 4059 
Q 1438 3994 1388 3894 
Q 1338 3794 1338 3416 
L 1338 753 
Q 1338 494 1388 397 
Q 1425 331 1503 300 
Q 1581 269 1991 269 
L 2300 269 
Q 2788 269 2984 341 
Q 3181 413 3343 595 
Q 3506 778 3669 1172 
z
" transform="scale(0.015625)"/>
      <path id="TimesNewRomanPSMT-2d" d="M 259 1672 
L 1875 1672 
L 1875 1200 
L 259 1200 
L 259 1672 
z
" transform="scale(0.015625)"/>
      <path id="TimesNewRomanPSMT-6d" d="M 1050 2338 
Q 1363 2650 1419 2697 
Q 1559 2816 1721 2881 
Q 1884 2947 2044 2947 
Q 2313 2947 2506 2790 
Q 2700 2634 2766 2338 
Q 3088 2713 3309 2830 
Q 3531 2947 3766 2947 
Q 3994 2947 4170 2830 
Q 4347 2713 4450 2447 
Q 4519 2266 4519 1878 
L 4519 647 
Q 4519 378 4559 278 
Q 4591 209 4675 161 
Q 4759 113 4950 113 
L 4950 0 
L 3538 0 
L 3538 113 
L 3597 113 
Q 3781 113 3884 184 
Q 3956 234 3988 344 
Q 4000 397 4000 647 
L 4000 1878 
Q 4000 2228 3916 2372 
Q 3794 2572 3525 2572 
Q 3359 2572 3192 2489 
Q 3025 2406 2788 2181 
L 2781 2147 
L 2788 2013 
L 2788 647 
Q 2788 353 2820 281 
Q 2853 209 2943 161 
Q 3034 113 3253 113 
L 3253 0 
L 1806 0 
L 1806 113 
Q 2044 113 2133 169 
Q 2222 225 2256 338 
Q 2272 391 2272 647 
L 2272 1878 
Q 2272 2228 2169 2381 
Q 2031 2581 1784 2581 
Q 1616 2581 1450 2491 
Q 1191 2353 1050 2181 
L 1050 647 
Q 1050 366 1089 281 
Q 1128 197 1204 155 
Q 1281 113 1516 113 
L 1516 0 
L 100 0 
L 100 113 
Q 297 113 375 155 
Q 453 197 493 289 
Q 534 381 534 647 
L 534 1741 
Q 534 2213 506 2350 
Q 484 2453 437 2492 
Q 391 2531 309 2531 
Q 222 2531 100 2484 
L 53 2597 
L 916 2947 
L 1050 2947 
L 1050 2338 
z
" transform="scale(0.015625)"/>
      <path id="TimesNewRomanPSMT-74" d="M 1031 3803 
L 1031 2863 
L 1700 2863 
L 1700 2644 
L 1031 2644 
L 1031 788 
Q 1031 509 1111 412 
Q 1191 316 1316 316 
Q 1419 316 1516 380 
Q 1613 444 1666 569 
L 1788 569 
Q 1678 263 1478 108 
Q 1278 -47 1066 -47 
Q 922 -47 784 33 
Q 647 113 581 261 
Q 516 409 516 719 
L 516 2644 
L 63 2644 
L 63 2747 
Q 234 2816 414 2980 
Q 594 3144 734 3369 
Q 806 3488 934 3803 
L 1031 3803 
z
" transform="scale(0.015625)"/>
     </defs>
     <use xlink:href="#TimesNewRomanPSMT-4c"/>
     <use xlink:href="#TimesNewRomanPSMT-65" transform="translate(61.083984 0)"/>
     <use xlink:href="#TimesNewRomanPSMT-61" transform="translate(105.46875 0)"/>
     <use xlink:href="#TimesNewRomanPSMT-72" transform="translate(149.853516 0)"/>
     <use xlink:href="#TimesNewRomanPSMT-6e" transform="translate(183.154297 0)"/>
     <use xlink:href="#TimesNewRomanPSMT-65" transform="translate(233.154297 0)"/>
     <use xlink:href="#TimesNewRomanPSMT-64" transform="translate(277.539062 0)"/>
     <use xlink:href="#TimesNewRomanPSMT-20" transform="translate(327.539062 0)"/>
     <use xlink:href="#TimesNewRomanPSMT-72" transform="translate(352.539062 0)"/>
     <use xlink:href="#TimesNewRomanPSMT-65" transform="translate(385.839844 0)"/>
     <use xlink:href="#TimesNewRomanPSMT-67" transform="translate(430.224609 0)"/>
     <use xlink:href="#TimesNewRomanPSMT-69" transform="translate(480.224609 0)"/>
     <use xlink:href="#TimesNewRomanPSMT-6f" transform="translate(508.007812 0)"/>
     <use xlink:href="#TimesNewRomanPSMT-6e" transform="translate(558.007812 0)"/>
     <use xlink:href="#TimesNewRomanPSMT-2d" transform="translate(608.007812 0)"/>
     <use xlink:href="#TimesNewRomanPSMT-6d" transform="translate(641.308594 0)"/>
     <use xlink:href="#TimesNewRomanPSMT-6f" transform="translate(719.091797 0)"/>
     <use xlink:href="#TimesNewRomanPSMT-64" transform="translate(769.091797 0)"/>
     <use xlink:href="#TimesNewRomanPSMT-65" transform="translate(819.091797 0)"/>
     <use xlink:href="#TimesNewRomanPSMT-72" transform="translate(863.476562 0)"/>
     <use xlink:href="#TimesNewRomanPSMT-61" transform="translate(896.777344 0)"/>
     <use xlink:href="#TimesNewRomanPSMT-74" transform="translate(941.162109 0)"/>
     <use xlink:href="#TimesNewRomanPSMT-65" transform="translate(968.945312 0)"/>
    </g>
   </g>
   <g id="patch_29">
    <path d="M 624.461797 21.5 
L 650.461797 21.5 
L 650.461797 12.4 
L 624.461797 12.4 
z
" style="fill: #d62728; opacity: 0.35; stroke: #8b0000; stroke-width: 1.5; stroke-linejoin: miter"/>
   </g>
   <g id="text_9">
    <!-- Learned region-feasible -->
    <g transform="translate(660.861797 21.5) scale(0.13 -0.13)">
     <defs>
      <path id="TimesNewRomanPSMT-73" d="M 2050 2947 
L 2050 1972 
L 1947 1972 
Q 1828 2431 1642 2597 
Q 1456 2763 1169 2763 
Q 950 2763 815 2647 
Q 681 2531 681 2391 
Q 681 2216 781 2091 
Q 878 1963 1175 1819 
L 1631 1597 
Q 2266 1288 2266 781 
Q 2266 391 1970 151 
Q 1675 -88 1309 -88 
Q 1047 -88 709 6 
Q 606 38 541 38 
Q 469 38 428 -44 
L 325 -44 
L 325 978 
L 428 978 
Q 516 541 762 319 
Q 1009 97 1316 97 
Q 1531 97 1667 223 
Q 1803 350 1803 528 
Q 1803 744 1651 891 
Q 1500 1038 1047 1263 
Q 594 1488 453 1669 
Q 313 1847 313 2119 
Q 313 2472 555 2709 
Q 797 2947 1181 2947 
Q 1350 2947 1591 2875 
Q 1750 2828 1803 2828 
Q 1853 2828 1881 2850 
Q 1909 2872 1947 2947 
L 2050 2947 
z
" transform="scale(0.015625)"/>
     </defs>
     <use xlink:href="#TimesNewRomanPSMT-4c"/>
     <use xlink:href="#TimesNewRomanPSMT-65" transform="translate(61.083984 0)"/>
     <use xlink:href="#TimesNewRomanPSMT-61" transform="translate(105.46875 0)"/>
     <use xlink:href="#TimesNewRomanPSMT-72" transform="translate(149.853516 0)"/>
     <use xlink:href="#TimesNewRomanPSMT-6e" transform="translate(183.154297 0)"/>
     <use xlink:href="#TimesNewRomanPSMT-65" transform="translate(233.154297 0)"/>
     <use xlink:href="#TimesNewRomanPSMT-64" transform="translate(277.539062 0)"/>
     <use xlink:href="#TimesNewRomanPSMT-20" transform="translate(327.539062 0)"/>
     <use xlink:href="#TimesNewRomanPSMT-72" transform="translate(352.539062 0)"/>
     <use xlink:href="#TimesNewRomanPSMT-65" transform="translate(385.839844 0)"/>
     <use xlink:href="#TimesNewRomanPSMT-67" transform="translate(430.224609 0)"/>
     <use xlink:href="#TimesNewRomanPSMT-69" transform="translate(480.224609 0)"/>
     <use xlink:href="#TimesNewRomanPSMT-6f" transform="translate(508.007812 0)"/>
     <use xlink:href="#TimesNewRomanPSMT-6e" transform="translate(558.007812 0)"/>
     <use xlink:href="#TimesNewRomanPSMT-2d" transform="translate(608.007812 0)"/>
     <use xlink:href="#TimesNewRomanPSMT-66" transform="translate(641.308594 0)"/>
     <use xlink:href="#TimesNewRomanPSMT-65" transform="translate(674.609375 0)"/>
     <use xlink:href="#TimesNewRomanPSMT-61" transform="translate(718.994141 0)"/>
     <use xlink:href="#TimesNewRomanPSMT-73" transform="translate(763.378906 0)"/>
     <use xlink:href="#TimesNewRomanPSMT-69" transform="translate(802.294922 0)"/>
     <use xlink:href="#TimesNewRomanPSMT-62" transform="translate(830.078125 0)"/>
     <use xlink:href="#TimesNewRomanPSMT-6c" transform="translate(880.078125 0)"/>
     <use xlink:href="#TimesNewRomanPSMT-65" transform="translate(907.861328 0)"/>
    </g>
   </g>
  </g>
 </g>
 <defs>
  <clipPath id="pe64c9455f4">
   <rect x="7.2" y="69.415" width="342.8" height="324.485"/>
  </clipPath>
  <clipPath id="pa4ff3c4275">
   <rect x="365" y="69.415" width="342.8" height="324.485"/>
  </clipPath>
  <clipPath id="p1eba09637a">
   <rect x="722.8" y="69.415" width="342.8" height="324.485"/>
  </clipPath>
  <clipPath id="pf19c767257">
   <rect x="7.2" y="428.615" width="342.8" height="324.485"/>
  </clipPath>
  <clipPath id="p604379d364">
   <rect x="365" y="428.615" width="342.8" height="324.485"/>
  </clipPath>
  <clipPath id="pe2b97c567c">
   <rect x="722.8" y="428.615" width="342.8" height="324.485"/>
  </clipPath>
 </defs>
</svg>
