<?xml version="1.0" encoding="utf-8" standalone="no"?>
<!DOCTYPE svg PUBLIC "-//W3C//DTD SVG 1.1//EN"
  "http://www.w3.org/Graphics/SVG/1.1/DTD/svg11.dtd">
<svg xmlns:xlink="http://www.w3.org/1999/xlink" width="503.956365pt" height="474.598125pt" viewBox="0 0 503.956365 474.598125" xmlns="http://www.w3.org/2000/svg" version="1.1">
 <metadata>
  <rdf:RDF xmlns:dc="http://purl.org/dc/elements/1.1/" xmlns:cc="http://creativecommons.org/ns#" xmlns:rdf="http://www.w3.org/1999/02/22-rdf-syntax-ns#">
   <cc:Work>
    <dc:type rdf:resource="http://purl.org/dc/dcmitype/StillImage"/>
    <dc:date>2026-05-24T12:32:23.238163</dc:date>
    <dc:format>image/svg+xml</dc:format>
    <dc:creator>
     <cc:Agent>
      <dc:title>Matplotlib v3.10.6, https://matplotlib.org/</dc:title>
     </cc:Agent>
    </dc:creator>
   </cc:Work>
  </rdf:RDF>
 </metadata>
 <defs>
  <style type="text/css">*{stroke-linejoin: round; stroke-linecap: butt}</style>
 </defs>
 <g id="figure_1">
  <g id="patch_1">
   <path d="M 0 474.598125 
L 503.956365 474.598125 
L 503.956365 0 
L 0 0 
z
" style="fill: #ffffff"/>
  </g>
  <g id="axes_1">
   <g id="patch_2">
    <path d="M 44.845313 450.72 
L 491.245312 450.72 
L 491.245312 7.2 
L 44.845313 7.2 
z
" style="fill: #ffffff"/>
   </g>
   <g id="patch_3">
    <path d="M 96.28033 227.478996 
L 96.287883 231.015547 
L 96.310181 233.784295 
L 96.347162 236.547351 
L 96.399303 239.286311 
L 96.466082 242.028017 
L 96.547638 244.764242 
L 96.64394 247.494489 
L 96.754956 250.218085 
L 96.880648 252.934342 
L 97.020977 255.642553 
L 97.175898 258.341998 
L 97.345366 261.03195 
L 97.529331 263.711677 
L 97.727739 266.380449 
L 97.940535 269.037532 
L 98.167486 271.683889 
L 98.408874 274.315304 
L 98.664461 276.932851 
L 98.934179 279.535804 
L 99.217955 282.123438 
L 99.515714 284.69503 
L 99.827558 287.248628 
L 100.153044 289.78603 
L 100.492268 292.305239 
L 100.845141 294.805544 
L 101.211572 297.286239 
L 101.591465 299.746621 
L 101.984724 302.185989 
L 102.391245 304.603648 
L 102.810926 306.998904 
L 103.243658 309.371069 
L 103.68933 311.719457 
L 104.147828 314.043388 
L 104.619033 316.342183 
L 105.102825 318.615171 
L 105.59908 320.861681 
L 106.107668 323.08105 
L 106.62846 325.272619 
L 107.16132 327.43573 
L 107.70611 329.569736 
L 108.262689 331.673989 
L 108.830911 333.747851 
L 109.410628 335.790686 
L 110.001688 337.801865 
L 110.603935 339.780766 
L 111.21721 341.72677 
L 111.84135 343.639266 
L 112.476189 345.51765 
L 113.121558 347.361323 
L 113.777281 349.169694 
L 114.443184 350.942177 
L 115.119084 352.678198 
L 115.804798 354.377185 
L 116.500138 356.038577 
L 117.204912 357.66182 
L 117.918925 359.24637 
L 118.641978 360.79169 
L 119.37387 362.297252 
L 120.114393 363.762537 
L 120.86334 365.187038 
L 121.620495 366.570255 
L 122.385644 367.9117 
L 123.158566 369.210894 
L 123.939037 370.467369 
L 124.72683 371.68067 
L 125.521714 372.850351 
L 126.323457 373.97598 
L 127.13182 375.057135 
L 127.946563 376.093409 
L 128.767443 377.084405 
L 129.594213 378.02974 
L 130.426622 378.929047 
L 131.264418 379.781969 
L 132.107346 380.588167 
L 132.955146 381.347312 
L 133.807558 382.059094 
L 134.664318 382.723215 
L 135.52516 383.339395 
L 136.389816 383.907369 
L 137.258018 384.426887 
L 138.129496 384.897716 
L 139.003978 385.31964 
L 139.881198 385.692459 
L 140.760891 386.015992 
L 141.642805 386.290072 
L 142.526713 386.514552 
L 143.410154 386.689916 
L 144.300062 386.814192 
L 145.190481 386.889109 
L 146.116242 386.913667 
L 254.07645 384.868445 
L 282.14041 382.63241 
L 297.494802 380.566987 
L 298.394424 380.388668 
L 299.293534 380.160438 
L 300.190777 379.881654 
L 301.087912 379.552714 
L 301.98155 379.172864 
L 302.872154 378.742126 
L 303.761762 378.261513 
L 304.648811 377.730725 
L 305.533004 377.149924 
L 306.414039 376.519293 
L 307.291615 375.839038 
L 308.165428 375.109387 
L 309.035175 374.33059 
L 309.900555 373.502917 
L 310.761268 372.626663 
L 311.617016 371.702141 
L 312.467502 370.729685 
L 313.312433 369.709652 
L 314.151517 368.642417 
L 314.984466 367.528376 
L 315.810995 366.367945 
L 316.630822 365.161559 
L 317.443667 363.909672 
L 318.249257 362.612754 
L 319.04732 361.271298 
L 319.83759 359.88581 
L 320.619803 358.456815 
L 321.3937 356.984853 
L 322.159029 355.470483 
L 322.915538 353.914277 
L 323.662985 352.316823 
L 324.401127 350.678722 
L 325.129732 349.00059 
L 325.848567 347.283057 
L 326.557409 345.526764 
L 327.256038 343.732366 
L 327.944239 341.900528 
L 328.621802 340.031925 
L 329.288525 338.127247 
L 329.944207 336.187189 
L 330.588657 334.212458 
L 331.221687 332.20377 
L 331.843114 330.161846 
L 332.452761 328.087419 
L 333.050458 325.981227 
L 333.636038 323.844015 
L 334.209341 321.676533 
L 334.770212 319.479538 
L 335.318501 317.253793 
L 335.854065 315.000063 
L 336.376764 312.719121 
L 336.886466 310.41174 
L 337.38304 308.078698 
L 337.866366 305.720778 
L 338.336324 303.338762 
L 338.792802 300.933436 
L 339.235692 298.505588 
L 339.664892 296.056007 
L 340.080304 293.585484 
L 340.481834 291.09481 
L 340.869395 288.584775 
L 341.242902 286.056174 
L 341.602279 283.509796 
L 341.947449 280.946435 
L 342.278343 278.366881 
L 342.594897 275.771925 
L 342.897049 273.162357 
L 343.184742 270.538962 
L 343.457924 267.902525 
L 343.716548 265.253829 
L 343.960567 262.59365 
L 344.189944 259.922756 
L 344.40464 257.241913 
L 344.604624 254.551865 
L 344.789867 251.853641 
L 344.960343 249.147694 
L 345.116033 246.434888 
L 345.256917 243.71597 
L 345.382982 240.991677 
L 345.494217 238.262723 
L 345.590615 235.529801 
L 345.672171 232.793578 
L 345.738886 230.054556 
L 345.790761 227.312221 
L 345.827804 224.565253 
L 345.850027 221.804798 
L 345.858441 215.387146 
L 345.851175 211.706409 
L 345.829004 208.953908 
L 345.79207 206.21505 
L 345.740398 203.48374 
L 345.674017 200.758377 
L 345.592956 198.038738 
L 345.497249 195.325345 
L 345.38693 192.618835 
L 345.262038 189.91986 
L 345.122614 187.229095 
L 344.968701 184.547225 
L 344.800347 181.874944 
L 344.6176 179.213024 
L 344.420513 176.561929 
L 344.209139 173.922565 
L 343.983538 171.295604 
L 343.743767 168.681735 
L 343.489891 166.081643 
L 343.221975 163.496016 
L 342.940087 160.925544 
L 342.644298 158.370916 
L 342.334682 155.83282 
L 342.011316 153.31194 
L 341.674278 150.808961 
L 341.323651 148.324565 
L 340.959519 145.85943 
L 340.581971 143.414233 
L 340.191097 140.989649 
L 339.786991 138.58635 
L 339.369748 136.205005 
L 338.939469 133.846279 
L 338.496255 131.510839 
L 338.040211 129.199346 
L 337.571448 126.912458 
L 337.090075 124.650833 
L 336.596207 122.415124 
L 336.089962 120.205982 
L 335.571462 118.024053 
L 335.04083 115.869983 
L 334.498194 113.744413 
L 333.943685 111.647981 
L 333.377436 109.58132 
L 332.799587 107.545063 
L 332.210277 105.539836 
L 331.609652 103.566261 
L 330.997859 101.624957 
L 330.37505 99.716539 
L 329.741382 97.841617 
L 329.097012 96.000794 
L 328.442104 94.194671 
L 327.776825 92.423843 
L 327.101344 90.688899 
L 326.415837 88.990421 
L 325.72048 87.328987 
L 325.015457 85.705167 
L 324.300953 84.119525 
L 323.577158 82.572619 
L 322.844266 81.064997 
L 322.102476 79.597202 
L 321.351988 78.169767 
L 320.593009 76.783217 
L 319.825749 75.43807 
L 319.050423 74.134832 
L 318.267248 72.874001 
L 317.476447 71.656065 
L 316.678246 70.481502 
L 315.872875 69.350777 
L 315.060569 68.264346 
L 314.241566 67.222652 
L 313.416109 66.226128 
L 312.584443 65.275191 
L 311.746818 64.370247 
L 310.903489 63.511689 
L 310.054712 62.699895 
L 309.200749 61.935228 
L 308.341864 61.218038 
L 307.478324 60.548657 
L 306.610401 59.927404 
L 305.738368 59.354581 
L 304.862501 58.830472 
L 303.983078 58.355344 
L 303.101291 57.928848 
L 302.215705 57.552412 
L 301.326259 57.226268 
L 300.435384 56.949391 
L 299.542305 56.722568 
L 298.647223 56.545959 
L 297.750197 56.419708 
L 296.85496 56.343199 
L 295.949156 56.318036 
L 193.014504 58.254867 
L 164.227032 60.397725 
L 144.222664 62.707562 
L 143.3325 62.883067 
L 142.444212 63.108599 
L 141.557431 63.384154 
L 140.672245 63.709682 
L 139.788861 64.085104 
L 138.907534 64.510318 
L 138.028533 64.985202 
L 137.15214 65.509615 
L 136.27864 66.083393 
L 135.408319 66.706354 
L 134.541467 67.378296 
L 133.67837 68.098997 
L 132.819318 68.868217 
L 131.964595 69.685695 
L 131.114487 70.551151 
L 130.269276 71.464287 
L 129.429246 72.424786 
L 128.594673 73.432312 
L 127.765837 74.486512 
L 126.94301 75.587012 
L 126.126464 76.733425 
L 125.316469 77.925342 
L 124.51329 79.162341 
L 123.717189 80.443979 
L 122.928427 81.769799 
L 122.14726 83.139329 
L 121.373938 84.552078 
L 120.608713 86.007544 
L 119.851828 87.505205 
L 119.103524 89.044528 
L 118.36404 90.624965 
L 117.633607 92.245954 
L 116.912455 93.906919 
L 116.200809 95.607273 
L 115.498889 97.346415 
L 114.80691 99.123731 
L 114.125085 100.938597 
L 113.45362 102.790378 
L 112.792718 104.678428 
L 112.142576 106.602089 
L 111.503388 108.560695 
L 110.875342 110.55357 
L 110.258621 112.580029 
L 109.653404 114.639377 
L 109.059866 116.730914 
L 108.478176 118.853929 
L 107.908498 121.007705 
L 107.350992 123.191517 
L 106.805812 125.404637 
L 106.27311 127.646325 
L 105.753029 129.915841 
L 105.24571 132.212437 
L 104.751289 134.535357 
L 104.269897 136.883846 
L 103.801659 139.257141 
L 103.346697 141.654476 
L 102.905128 144.075082 
L 102.477063 146.518185 
L 102.062609 148.98301 
L 101.66187 151.468777 
L 101.274943 153.974705 
L 100.901922 156.500011 
L 100.54271 159.042781 
L 100.197765 161.60444 
L 99.866978 164.183112 
L 99.550427 166.778009 
L 99.248181 169.388341 
L 98.960309 172.013316 
L 98.686873 174.652143 
L 98.428107 177.305618 
L 98.183713 179.969874 
L 97.953919 182.645622 
L 97.73877 185.332073 
L 97.538309 188.028443 
L 97.352574 190.733947 
L 97.181598 193.447806 
L 97.025414 196.169245 
L 96.884046 198.897496 
L 96.757517 201.631803 
L 96.645847 204.371428 
L 96.54905 207.115652 
L 96.467139 209.863782 
L 96.399956 212.608939 
L 96.347835 215.361906 
L 96.310772 218.131051 
L 96.288438 220.904887 
z
" clip-path="url(#p03407e1c2b)" style="fill: #0000ff; opacity: 0.3; stroke: #0000ff; stroke-linejoin: miter"/>
   </g>
   <g id="patch_4">
    <path d="M 96.292228 228.299791 
L 110.61242 339.753797 
L 146.071198 386.876754 
L 331.213081 332.177259 
L 345.846634 214.409021 
L 331.60095 103.593281 
L 295.958319 56.356146 
L 110.883765 110.580455 
z
" clip-path="url(#p03407e1c2b)" style="fill: #008000; opacity: 0.3; stroke: #008000; stroke-linejoin: miter"/>
   </g>
   <g id="patch_5">
    <path d="M 103.262057 285.59161 
L 130.263813 371.056669 
L 314.731113 363.170958 
L 340.175778 280.482761 
L 340.261967 162.360362 
L 313.629187 75.536007 
L 130.989494 79.756882 
L 103.417211 166.614558 
z
" clip-path="url(#p03407e1c2b)" style="fill: #ff0000; opacity: 0.3; stroke: #0000ff; stroke-linejoin: miter"/>
   </g>
   <g id="matplotlib.axis_1">
    <g id="xtick_1">
     <g id="line2d_1">
      <defs>
       <path id="m78a21330ba" d="M 0 0 
L 0 3.5 
" style="stroke: #000000; stroke-width: 0.8"/>
      </defs>
      <g>
       <use xlink:href="#m78a21330ba" x="104.022429" y="450.72" style="stroke: #000000; stroke-width: 0.8"/>
      </g>
     </g>
     <g id="text_1">
      <!-- 0.6 -->
      <g transform="translate(96.070867 465.318437) scale(0.1 -0.1)">
       <defs>
        <path id="DejaVuSans-30" d="M 2034 4250 
Q 1547 4250 1301 3770 
Q 1056 3291 1056 2328 
Q 1056 1369 1301 889 
Q 1547 409 2034 409 
Q 2525 409 2770 889 
Q 3016 1369 3016 2328 
Q 3016 3291 2770 3770 
Q 2525 4250 2034 4250 
z
M 2034 4750 
Q 2819 4750 3233 4129 
Q 3647 3509 3647 2328 
Q 3647 1150 3233 529 
Q 2819 -91 2034 -91 
Q 1250 -91 836 529 
Q 422 1150 422 2328 
Q 422 3509 836 4129 
Q 1250 4750 2034 4750 
z
" transform="scale(0.015625)"/>
        <path id="DejaVuSans-2e" d="M 684 794 
L 1344 794 
L 1344 0 
L 684 0 
L 684 794 
z
" transform="scale(0.015625)"/>
        <path id="DejaVuSans-36" d="M 2113 2584 
Q 1688 2584 1439 2293 
Q 1191 2003 1191 1497 
Q 1191 994 1439 701 
Q 1688 409 2113 409 
Q 2538 409 2786 701 
Q 3034 994 3034 1497 
Q 3034 2003 2786 2293 
Q 2538 2584 2113 2584 
z
M 3366 4563 
L 3366 3988 
Q 3128 4100 2886 4159 
Q 2644 4219 2406 4219 
Q 1781 4219 1451 3797 
Q 1122 3375 1075 2522 
Q 1259 2794 1537 2939 
Q 1816 3084 2150 3084 
Q 2853 3084 3261 2657 
Q 3669 2231 3669 1497 
Q 3669 778 3244 343 
Q 2819 -91 2113 -91 
Q 1303 -91 875 529 
Q 447 1150 447 2328 
Q 447 3434 972 4092 
Q 1497 4750 2381 4750 
Q 2619 4750 2861 4703 
Q 3103 4656 3366 4563 
z
" transform="scale(0.015625)"/>
       </defs>
       <use xlink:href="#DejaVuSans-30"/>
       <use xlink:href="#DejaVuSans-2e" transform="translate(63.623047 0)"/>
       <use xlink:href="#DejaVuSans-36" transform="translate(95.410156 0)"/>
      </g>
     </g>
    </g>
    <g id="xtick_2">
     <g id="line2d_2">
      <g>
       <use xlink:href="#m78a21330ba" x="180.978904" y="450.72" style="stroke: #000000; stroke-width: 0.8"/>
      </g>
     </g>
     <g id="text_2">
      <!-- 0.8 -->
      <g transform="translate(173.027341 465.318437) scale(0.1 -0.1)">
       <defs>
        <path id="DejaVuSans-38" d="M 2034 2216 
Q 1584 2216 1326 1975 
Q 1069 1734 1069 1313 
Q 1069 891 1326 650 
Q 1584 409 2034 409 
Q 2484 409 2743 651 
Q 3003 894 3003 1313 
Q 3003 1734 2745 1975 
Q 2488 2216 2034 2216 
z
M 1403 2484 
Q 997 2584 770 2862 
Q 544 3141 544 3541 
Q 544 4100 942 4425 
Q 1341 4750 2034 4750 
Q 2731 4750 3128 4425 
Q 3525 4100 3525 3541 
Q 3525 3141 3298 2862 
Q 3072 2584 2669 2484 
Q 3125 2378 3379 2068 
Q 3634 1759 3634 1313 
Q 3634 634 3220 271 
Q 2806 -91 2034 -91 
Q 1263 -91 848 271 
Q 434 634 434 1313 
Q 434 1759 690 2068 
Q 947 2378 1403 2484 
z
M 1172 3481 
Q 1172 3119 1398 2916 
Q 1625 2713 2034 2713 
Q 2441 2713 2670 2916 
Q 2900 3119 2900 3481 
Q 2900 3844 2670 4047 
Q 2441 4250 2034 4250 
Q 1625 4250 1398 4047 
Q 1172 3844 1172 3481 
z
" transform="scale(0.015625)"/>
       </defs>
       <use xlink:href="#DejaVuSans-30"/>
       <use xlink:href="#DejaVuSans-2e" transform="translate(63.623047 0)"/>
       <use xlink:href="#DejaVuSans-38" transform="translate(95.410156 0)"/>
      </g>
     </g>
    </g>
    <g id="xtick_3">
     <g id="line2d_3">
      <g>
       <use xlink:href="#m78a21330ba" x="257.935379" y="450.72" style="stroke: #000000; stroke-width: 0.8"/>
      </g>
     </g>
     <g id="text_3">
      <!-- 1.0 -->
      <g transform="translate(249.983816 465.318437) scale(0.1 -0.1)">
       <defs>
        <path id="DejaVuSans-31" d="M 794 531 
L 1825 531 
L 1825 4091 
L 703 3866 
L 703 4441 
L 1819 4666 
L 2450 4666 
L 2450 531 
L 3481 531 
L 3481 0 
L 794 0 
L 794 531 
z
" transform="scale(0.015625)"/>
       </defs>
       <use xlink:href="#DejaVuSans-31"/>
       <use xlink:href="#DejaVuSans-2e" transform="translate(63.623047 0)"/>
       <use xlink:href="#DejaVuSans-30" transform="translate(95.410156 0)"/>
      </g>
     </g>
    </g>
    <g id="xtick_4">
     <g id="line2d_4">
      <g>
       <use xlink:href="#m78a21330ba" x="334.891853" y="450.72" style="stroke: #000000; stroke-width: 0.8"/>
      </g>
     </g>
     <g id="text_4">
      <!-- 1.2 -->
      <g transform="translate(326.940291 465.318437) scale(0.1 -0.1)">
       <defs>
        <path id="DejaVuSans-32" d="M 1228 531 
L 3431 531 
L 3431 0 
L 469 0 
L 469 531 
Q 828 903 1448 1529 
Q 2069 2156 2228 2338 
Q 2531 2678 2651 2914 
Q 2772 3150 2772 3378 
Q 2772 3750 2511 3984 
Q 2250 4219 1831 4219 
Q 1534 4219 1204 4116 
Q 875 4013 500 3803 
L 500 4441 
Q 881 4594 1212 4672 
Q 1544 4750 1819 4750 
Q 2544 4750 2975 4387 
Q 3406 4025 3406 3419 
Q 3406 3131 3298 2873 
Q 3191 2616 2906 2266 
Q 2828 2175 2409 1742 
Q 1991 1309 1228 531 
z
" transform="scale(0.015625)"/>
       </defs>
       <use xlink:href="#DejaVuSans-31"/>
       <use xlink:href="#DejaVuSans-2e" transform="translate(63.623047 0)"/>
       <use xlink:href="#DejaVuSans-32" transform="translate(95.410156 0)"/>
      </g>
     </g>
    </g>
    <g id="xtick_5">
     <g id="line2d_5">
      <g>
       <use xlink:href="#m78a21330ba" x="411.848328" y="450.72" style="stroke: #000000; stroke-width: 0.8"/>
      </g>
     </g>
     <g id="text_5">
      <!-- 1.4 -->
      <g transform="translate(403.896766 465.318437) scale(0.1 -0.1)">
       <defs>
        <path id="DejaVuSans-34" d="M 2419 4116 
L 825 1625 
L 2419 1625 
L 2419 4116 
z
M 2253 4666 
L 3047 4666 
L 3047 1625 
L 3713 1625 
L 3713 1100 
L 3047 1100 
L 3047 0 
L 2419 0 
L 2419 1100 
L 313 1100 
L 313 1709 
L 2253 4666 
z
" transform="scale(0.015625)"/>
       </defs>
       <use xlink:href="#DejaVuSans-31"/>
       <use xlink:href="#DejaVuSans-2e" transform="translate(63.623047 0)"/>
       <use xlink:href="#DejaVuSans-34" transform="translate(95.410156 0)"/>
      </g>
     </g>
    </g>
    <g id="xtick_6">
     <g id="line2d_6">
      <g>
       <use xlink:href="#m78a21330ba" x="488.804803" y="450.72" style="stroke: #000000; stroke-width: 0.8"/>
      </g>
     </g>
     <g id="text_6">
      <!-- 1.6 -->
      <g transform="translate(480.85324 465.318437) scale(0.1 -0.1)">
       <use xlink:href="#DejaVuSans-31"/>
       <use xlink:href="#DejaVuSans-2e" transform="translate(63.623047 0)"/>
       <use xlink:href="#DejaVuSans-36" transform="translate(95.410156 0)"/>
      </g>
     </g>
    </g>
   </g>
   <g id="matplotlib.axis_2">
    <g id="ytick_1">
     <g id="line2d_7">
      <defs>
       <path id="mfb3a5ded0e" d="M 0 0 
L -3.5 0 
" style="stroke: #000000; stroke-width: 0.8"/>
      </defs>
      <g>
       <use xlink:href="#mfb3a5ded0e" x="44.845313" y="426.418349" style="stroke: #000000; stroke-width: 0.8"/>
      </g>
     </g>
     <g id="text_7">
      <!-- −0.15 -->
      <g transform="translate(7.2 430.217568) scale(0.1 -0.1)">
       <defs>
        <path id="DejaVuSans-2212" d="M 678 2272 
L 4684 2272 
L 4684 1741 
L 678 1741 
L 678 2272 
z
" transform="scale(0.015625)"/>
        <path id="DejaVuSans-35" d="M 691 4666 
L 3169 4666 
L 3169 4134 
L 1269 4134 
L 1269 2991 
Q 1406 3038 1543 3061 
Q 1681 3084 1819 3084 
Q 2600 3084 3056 2656 
Q 3513 2228 3513 1497 
Q 3513 744 3044 326 
Q 2575 -91 1722 -91 
Q 1428 -91 1123 -41 
Q 819 9 494 109 
L 494 744 
Q 775 591 1075 516 
Q 1375 441 1709 441 
Q 2250 441 2565 725 
Q 2881 1009 2881 1497 
Q 2881 1984 2565 2268 
Q 2250 2553 1709 2553 
Q 1456 2553 1204 2497 
Q 953 2441 691 2322 
L 691 4666 
z
" transform="scale(0.015625)"/>
       </defs>
       <use xlink:href="#DejaVuSans-2212"/>
       <use xlink:href="#DejaVuSans-30" transform="translate(83.789062 0)"/>
       <use xlink:href="#DejaVuSans-2e" transform="translate(147.412109 0)"/>
       <use xlink:href="#DejaVuSans-31" transform="translate(179.199219 0)"/>
       <use xlink:href="#DejaVuSans-35" transform="translate(242.822266 0)"/>
      </g>
     </g>
    </g>
    <g id="ytick_2">
     <g id="line2d_8">
      <g>
       <use xlink:href="#mfb3a5ded0e" x="44.845313" y="364.294899" style="stroke: #000000; stroke-width: 0.8"/>
      </g>
     </g>
     <g id="text_8">
      <!-- −0.10 -->
      <g transform="translate(7.2 368.094118) scale(0.1 -0.1)">
       <use xlink:href="#DejaVuSans-2212"/>
       <use xlink:href="#DejaVuSans-30" transform="translate(83.789062 0)"/>
       <use xlink:href="#DejaVuSans-2e" transform="translate(147.412109 0)"/>
       <use xlink:href="#DejaVuSans-31" transform="translate(179.199219 0)"/>
       <use xlink:href="#DejaVuSans-30" transform="translate(242.822266 0)"/>
      </g>
     </g>
    </g>
    <g id="ytick_3">
     <g id="line2d_9">
      <g>
       <use xlink:href="#mfb3a5ded0e" x="44.845313" y="302.17145" style="stroke: #000000; stroke-width: 0.8"/>
      </g>
     </g>
     <g id="text_9">
      <!-- −0.05 -->
      <g transform="translate(7.2 305.970668) scale(0.1 -0.1)">
       <use xlink:href="#DejaVuSans-2212"/>
       <use xlink:href="#DejaVuSans-30" transform="translate(83.789062 0)"/>
       <use xlink:href="#DejaVuSans-2e" transform="translate(147.412109 0)"/>
       <use xlink:href="#DejaVuSans-30" transform="translate(179.199219 0)"/>
       <use xlink:href="#DejaVuSans-35" transform="translate(242.822266 0)"/>
      </g>
     </g>
    </g>
    <g id="ytick_4">
     <g id="line2d_10">
      <g>
       <use xlink:href="#mfb3a5ded0e" x="44.845313" y="240.048" style="stroke: #000000; stroke-width: 0.8"/>
      </g>
     </g>
     <g id="text_10">
      <!-- 0.00 -->
      <g transform="translate(15.579688 243.847219) scale(0.1 -0.1)">
       <use xlink:href="#DejaVuSans-30"/>
       <use xlink:href="#DejaVuSans-2e" transform="translate(63.623047 0)"/>
       <use xlink:href="#DejaVuSans-30" transform="translate(95.410156 0)"/>
       <use xlink:href="#DejaVuSans-30" transform="translate(159.033203 0)"/>
      </g>
     </g>
    </g>
    <g id="ytick_5">
     <g id="line2d_11">
      <g>
       <use xlink:href="#mfb3a5ded0e" x="44.845313" y="177.92455" style="stroke: #000000; stroke-width: 0.8"/>
      </g>
     </g>
     <g id="text_11">
      <!-- 0.05 -->
      <g transform="translate(15.579688 181.723769) scale(0.1 -0.1)">
       <use xlink:href="#DejaVuSans-30"/>
       <use xlink:href="#DejaVuSans-2e" transform="translate(63.623047 0)"/>
       <use xlink:href="#DejaVuSans-30" transform="translate(95.410156 0)"/>
       <use xlink:href="#DejaVuSans-35" transform="translate(159.033203 0)"/>
      </g>
     </g>
    </g>
    <g id="ytick_6">
     <g id="line2d_12">
      <g>
       <use xlink:href="#mfb3a5ded0e" x="44.845313" y="115.801101" style="stroke: #000000; stroke-width: 0.8"/>
      </g>
     </g>
     <g id="text_12">
      <!-- 0.10 -->
      <g transform="translate(15.579688 119.600319) scale(0.1 -0.1)">
       <use xlink:href="#DejaVuSans-30"/>
       <use xlink:href="#DejaVuSans-2e" transform="translate(63.623047 0)"/>
       <use xlink:href="#DejaVuSans-31" transform="translate(95.410156 0)"/>
       <use xlink:href="#DejaVuSans-30" transform="translate(159.033203 0)"/>
      </g>
     </g>
    </g>
    <g id="ytick_7">
     <g id="line2d_13">
      <g>
       <use xlink:href="#mfb3a5ded0e" x="44.845313" y="53.677651" style="stroke: #000000; stroke-width: 0.8"/>
      </g>
     </g>
     <g id="text_13">
      <!-- 0.15 -->
      <g transform="translate(15.579688 57.47687) scale(0.1 -0.1)">
       <use xlink:href="#DejaVuSans-30"/>
       <use xlink:href="#DejaVuSans-2e" transform="translate(63.623047 0)"/>
       <use xlink:href="#DejaVuSans-31" transform="translate(95.410156 0)"/>
       <use xlink:href="#DejaVuSans-35" transform="translate(159.033203 0)"/>
      </g>
     </g>
    </g>
   </g>
   <g id="patch_6">
    <path d="M 44.845313 450.72 
L 44.845313 7.2 
" style="fill: none; stroke: #000000; stroke-width: 0.8; stroke-linejoin: miter; stroke-linecap: square"/>
   </g>
   <g id="patch_7">
    <path d="M 491.245312 450.72 
L 491.245312 7.2 
" style="fill: none; stroke: #000000; stroke-width: 0.8; stroke-linejoin: miter; stroke-linecap: square"/>
   </g>
   <g id="patch_8">
    <path d="M 44.845313 450.72 
L 491.245313 450.72 
" style="fill: none; stroke: #000000; stroke-width: 0.8; stroke-linejoin: miter; stroke-linecap: square"/>
   </g>
   <g id="patch_9">
    <path d="M 44.845313 7.2 
L 491.245313 7.2 
" style="fill: none; stroke: #000000; stroke-width: 0.8; stroke-linejoin: miter; stroke-linecap: square"/>
   </g>
   <g id="legend_1">
    <g id="patch_10">
     <path d="M 326.528125 23.798437 
L 346.528125 23.798437 
L 346.528125 16.798437 
L 326.528125 16.798437 
z
" style="fill: #0000ff; opacity: 0.3; stroke: #0000ff; stroke-linejoin: miter"/>
    </g>
    <g id="text_14">
     <!-- Original region -->
     <g transform="translate(354.528125 23.798437) scale(0.1 -0.1)">
      <defs>
       <path id="DejaVuSans-4f" d="M 2522 4238 
Q 1834 4238 1429 3725 
Q 1025 3213 1025 2328 
Q 1025 1447 1429 934 
Q 1834 422 2522 422 
Q 3209 422 3611 934 
Q 4013 1447 4013 2328 
Q 4013 3213 3611 3725 
Q 3209 4238 2522 4238 
z
M 2522 4750 
Q 3503 4750 4090 4092 
Q 4678 3434 4678 2328 
Q 4678 1225 4090 567 
Q 3503 -91 2522 -91 
Q 1538 -91 948 565 
Q 359 1222 359 2328 
Q 359 3434 948 4092 
Q 1538 4750 2522 4750 
z
" transform="scale(0.015625)"/>
       <path id="DejaVuSans-72" d="M 2631 2963 
Q 2534 3019 2420 3045 
Q 2306 3072 2169 3072 
Q 1681 3072 1420 2755 
Q 1159 2438 1159 1844 
L 1159 0 
L 581 0 
L 581 3500 
L 1159 3500 
L 1159 2956 
Q 1341 3275 1631 3429 
Q 1922 3584 2338 3584 
Q 2397 3584 2469 3576 
Q 2541 3569 2628 3553 
L 2631 2963 
z
" transform="scale(0.015625)"/>
       <path id="DejaVuSans-69" d="M 603 3500 
L 1178 3500 
L 1178 0 
L 603 0 
L 603 3500 
z
M 603 4863 
L 1178 4863 
L 1178 4134 
L 603 4134 
L 603 4863 
z
" transform="scale(0.015625)"/>
       <path id="DejaVuSans-67" d="M 2906 1791 
Q 2906 2416 2648 2759 
Q 2391 3103 1925 3103 
Q 1463 3103 1205 2759 
Q 947 2416 947 1791 
Q 947 1169 1205 825 
Q 1463 481 1925 481 
Q 2391 481 2648 825 
Q 2906 1169 2906 1791 
z
M 3481 434 
Q 3481 -459 3084 -895 
Q 2688 -1331 1869 -1331 
Q 1566 -1331 1297 -1286 
Q 1028 -1241 775 -1147 
L 775 -588 
Q 1028 -725 1275 -790 
Q 1522 -856 1778 -856 
Q 2344 -856 2625 -561 
Q 2906 -266 2906 331 
L 2906 616 
Q 2728 306 2450 153 
Q 2172 0 1784 0 
Q 1141 0 747 490 
Q 353 981 353 1791 
Q 353 2603 747 3093 
Q 1141 3584 1784 3584 
Q 2172 3584 2450 3431 
Q 2728 3278 2906 2969 
L 2906 3500 
L 3481 3500 
L 3481 434 
z
" transform="scale(0.015625)"/>
       <path id="DejaVuSans-6e" d="M 3513 2113 
L 3513 0 
L 2938 0 
L 2938 2094 
Q 2938 2591 2744 2837 
Q 2550 3084 2163 3084 
Q 1697 3084 1428 2787 
Q 1159 2491 1159 1978 
L 1159 0 
L 581 0 
L 581 3500 
L 1159 3500 
L 1159 2956 
Q 1366 3272 1645 3428 
Q 1925 3584 2291 3584 
Q 2894 3584 3203 3211 
Q 3513 2838 3513 2113 
z
" transform="scale(0.015625)"/>
       <path id="DejaVuSans-61" d="M 2194 1759 
Q 1497 1759 1228 1600 
Q 959 1441 959 1056 
Q 959 750 1161 570 
Q 1363 391 1709 391 
Q 2188 391 2477 730 
Q 2766 1069 2766 1631 
L 2766 1759 
L 2194 1759 
z
M 3341 1997 
L 3341 0 
L 2766 0 
L 2766 531 
Q 2569 213 2275 61 
Q 1981 -91 1556 -91 
Q 1019 -91 701 211 
Q 384 513 384 1019 
Q 384 1609 779 1909 
Q 1175 2209 1959 2209 
L 2766 2209 
L 2766 2266 
Q 2766 2663 2505 2880 
Q 2244 3097 1772 3097 
Q 1472 3097 1187 3025 
Q 903 2953 641 2809 
L 641 3341 
Q 956 3463 1253 3523 
Q 1550 3584 1831 3584 
Q 2591 3584 2966 3190 
Q 3341 2797 3341 1997 
z
" transform="scale(0.015625)"/>
       <path id="DejaVuSans-6c" d="M 603 4863 
L 1178 4863 
L 1178 0 
L 603 0 
L 603 4863 
z
" transform="scale(0.015625)"/>
       <path id="DejaVuSans-20" transform="scale(0.015625)"/>
       <path id="DejaVuSans-65" d="M 3597 1894 
L 3597 1613 
L 953 1613 
Q 991 1019 1311 708 
Q 1631 397 2203 397 
Q 2534 397 2845 478 
Q 3156 559 3463 722 
L 3463 178 
Q 3153 47 2828 -22 
Q 2503 -91 2169 -91 
Q 1331 -91 842 396 
Q 353 884 353 1716 
Q 353 2575 817 3079 
Q 1281 3584 2069 3584 
Q 2775 3584 3186 3129 
Q 3597 2675 3597 1894 
z
M 3022 2063 
Q 3016 2534 2758 2815 
Q 2500 3097 2075 3097 
Q 1594 3097 1305 2825 
Q 1016 2553 972 2059 
L 3022 2063 
z
" transform="scale(0.015625)"/>
       <path id="DejaVuSans-6f" d="M 1959 3097 
Q 1497 3097 1228 2736 
Q 959 2375 959 1747 
Q 959 1119 1226 758 
Q 1494 397 1959 397 
Q 2419 397 2687 759 
Q 2956 1122 2956 1747 
Q 2956 2369 2687 2733 
Q 2419 3097 1959 3097 
z
M 1959 3584 
Q 2709 3584 3137 3096 
Q 3566 2609 3566 1747 
Q 3566 888 3137 398 
Q 2709 -91 1959 -91 
Q 1206 -91 779 398 
Q 353 888 353 1747 
Q 353 2609 779 3096 
Q 1206 3584 1959 3584 
z
" transform="scale(0.015625)"/>
      </defs>
      <use xlink:href="#DejaVuSans-4f"/>
      <use xlink:href="#DejaVuSans-72" transform="translate(78.710938 0)"/>
      <use xlink:href="#DejaVuSans-69" transform="translate(119.824219 0)"/>
      <use xlink:href="#DejaVuSans-67" transform="translate(147.607422 0)"/>
      <use xlink:href="#DejaVuSans-69" transform="translate(211.083984 0)"/>
      <use xlink:href="#DejaVuSans-6e" transform="translate(238.867188 0)"/>
      <use xlink:href="#DejaVuSans-61" transform="translate(302.246094 0)"/>
      <use xlink:href="#DejaVuSans-6c" transform="translate(363.525391 0)"/>
      <use xlink:href="#DejaVuSans-20" transform="translate(391.308594 0)"/>
      <use xlink:href="#DejaVuSans-72" transform="translate(423.095703 0)"/>
      <use xlink:href="#DejaVuSans-65" transform="translate(461.958984 0)"/>
      <use xlink:href="#DejaVuSans-67" transform="translate(523.482422 0)"/>
      <use xlink:href="#DejaVuSans-69" transform="translate(586.958984 0)"/>
      <use xlink:href="#DejaVuSans-6f" transform="translate(614.742188 0)"/>
      <use xlink:href="#DejaVuSans-6e" transform="translate(675.923828 0)"/>
     </g>
    </g>
    <g id="patch_11">
     <path d="M 326.528125 38.476562 
L 346.528125 38.476562 
L 346.528125 31.476562 
L 326.528125 31.476562 
z
" style="fill: #008000; opacity: 0.3; stroke: #008000; stroke-linejoin: miter"/>
    </g>
    <g id="text_15">
     <!-- Analytical polygon (m=8) -->
     <g transform="translate(354.528125 38.476562) scale(0.1 -0.1)">
      <defs>
       <path id="DejaVuSans-41" d="M 2188 4044 
L 1331 1722 
L 3047 1722 
L 2188 4044 
z
M 1831 4666 
L 2547 4666 
L 4325 0 
L 3669 0 
L 3244 1197 
L 1141 1197 
L 716 0 
L 50 0 
L 1831 4666 
z
" transform="scale(0.015625)"/>
       <path id="DejaVuSans-79" d="M 2059 -325 
Q 1816 -950 1584 -1140 
Q 1353 -1331 966 -1331 
L 506 -1331 
L 506 -850 
L 844 -850 
Q 1081 -850 1212 -737 
Q 1344 -625 1503 -206 
L 1606 56 
L 191 3500 
L 800 3500 
L 1894 763 
L 2988 3500 
L 3597 3500 
L 2059 -325 
z
" transform="scale(0.015625)"/>
       <path id="DejaVuSans-74" d="M 1172 4494 
L 1172 3500 
L 2356 3500 
L 2356 3053 
L 1172 3053 
L 1172 1153 
Q 1172 725 1289 603 
Q 1406 481 1766 481 
L 2356 481 
L 2356 0 
L 1766 0 
Q 1100 0 847 248 
Q 594 497 594 1153 
L 594 3053 
L 172 3053 
L 172 3500 
L 594 3500 
L 594 4494 
L 1172 4494 
z
" transform="scale(0.015625)"/>
       <path id="DejaVuSans-63" d="M 3122 3366 
L 3122 2828 
Q 2878 2963 2633 3030 
Q 2388 3097 2138 3097 
Q 1578 3097 1268 2742 
Q 959 2388 959 1747 
Q 959 1106 1268 751 
Q 1578 397 2138 397 
Q 2388 397 2633 464 
Q 2878 531 3122 666 
L 3122 134 
Q 2881 22 2623 -34 
Q 2366 -91 2075 -91 
Q 1284 -91 818 406 
Q 353 903 353 1747 
Q 353 2603 823 3093 
Q 1294 3584 2113 3584 
Q 2378 3584 2631 3529 
Q 2884 3475 3122 3366 
z
" transform="scale(0.015625)"/>
       <path id="DejaVuSans-70" d="M 1159 525 
L 1159 -1331 
L 581 -1331 
L 581 3500 
L 1159 3500 
L 1159 2969 
Q 1341 3281 1617 3432 
Q 1894 3584 2278 3584 
Q 2916 3584 3314 3078 
Q 3713 2572 3713 1747 
Q 3713 922 3314 415 
Q 2916 -91 2278 -91 
Q 1894 -91 1617 61 
Q 1341 213 1159 525 
z
M 3116 1747 
Q 3116 2381 2855 2742 
Q 2594 3103 2138 3103 
Q 1681 3103 1420 2742 
Q 1159 2381 1159 1747 
Q 1159 1113 1420 752 
Q 1681 391 2138 391 
Q 2594 391 2855 752 
Q 3116 1113 3116 1747 
z
" transform="scale(0.015625)"/>
       <path id="DejaVuSans-28" d="M 1984 4856 
Q 1566 4138 1362 3434 
Q 1159 2731 1159 2009 
Q 1159 1288 1364 580 
Q 1569 -128 1984 -844 
L 1484 -844 
Q 1016 -109 783 600 
Q 550 1309 550 2009 
Q 550 2706 781 3412 
Q 1013 4119 1484 4856 
L 1984 4856 
z
" transform="scale(0.015625)"/>
       <path id="DejaVuSans-6d" d="M 3328 2828 
Q 3544 3216 3844 3400 
Q 4144 3584 4550 3584 
Q 5097 3584 5394 3201 
Q 5691 2819 5691 2113 
L 5691 0 
L 5113 0 
L 5113 2094 
Q 5113 2597 4934 2840 
Q 4756 3084 4391 3084 
Q 3944 3084 3684 2787 
Q 3425 2491 3425 1978 
L 3425 0 
L 2847 0 
L 2847 2094 
Q 2847 2600 2669 2842 
Q 2491 3084 2119 3084 
Q 1678 3084 1418 2786 
Q 1159 2488 1159 1978 
L 1159 0 
L 581 0 
L 581 3500 
L 1159 3500 
L 1159 2956 
Q 1356 3278 1631 3431 
Q 1906 3584 2284 3584 
Q 2666 3584 2933 3390 
Q 3200 3197 3328 2828 
z
" transform="scale(0.015625)"/>
       <path id="DejaVuSans-3d" d="M 678 2906 
L 4684 2906 
L 4684 2381 
L 678 2381 
L 678 2906 
z
M 678 1631 
L 4684 1631 
L 4684 1100 
L 678 1100 
L 678 1631 
z
" transform="scale(0.015625)"/>
       <path id="DejaVuSans-29" d="M 513 4856 
L 1013 4856 
Q 1481 4119 1714 3412 
Q 1947 2706 1947 2009 
Q 1947 1309 1714 600 
Q 1481 -109 1013 -844 
L 513 -844 
Q 928 -128 1133 580 
Q 1338 1288 1338 2009 
Q 1338 2731 1133 3434 
Q 928 4138 513 4856 
z
" transform="scale(0.015625)"/>
      </defs>
      <use xlink:href="#DejaVuSans-41"/>
      <use xlink:href="#DejaVuSans-6e" transform="translate(68.408203 0)"/>
      <use xlink:href="#DejaVuSans-61" transform="translate(131.787109 0)"/>
      <use xlink:href="#DejaVuSans-6c" transform="translate(193.066406 0)"/>
      <use xlink:href="#DejaVuSans-79" transform="translate(220.849609 0)"/>
      <use xlink:href="#DejaVuSans-74" transform="translate(280.029297 0)"/>
      <use xlink:href="#DejaVuSans-69" transform="translate(319.238281 0)"/>
      <use xlink:href="#DejaVuSans-63" transform="translate(347.021484 0)"/>
      <use xlink:href="#DejaVuSans-61" transform="translate(402.001953 0)"/>
      <use xlink:href="#DejaVuSans-6c" transform="translate(463.28125 0)"/>
      <use xlink:href="#DejaVuSans-20" transform="translate(491.064453 0)"/>
      <use xlink:href="#DejaVuSans-70" transform="translate(522.851562 0)"/>
      <use xlink:href="#DejaVuSans-6f" transform="translate(586.328125 0)"/>
      <use xlink:href="#DejaVuSans-6c" transform="translate(647.509766 0)"/>
      <use xlink:href="#DejaVuSans-79" transform="translate(675.292969 0)"/>
      <use xlink:href="#DejaVuSans-67" transform="translate(734.472656 0)"/>
      <use xlink:href="#DejaVuSans-6f" transform="translate(797.949219 0)"/>
      <use xlink:href="#DejaVuSans-6e" transform="translate(859.130859 0)"/>
      <use xlink:href="#DejaVuSans-20" transform="translate(922.509766 0)"/>
      <use xlink:href="#DejaVuSans-28" transform="translate(954.296875 0)"/>
      <use xlink:href="#DejaVuSans-6d" transform="translate(993.310547 0)"/>
      <use xlink:href="#DejaVuSans-3d" transform="translate(1090.722656 0)"/>
      <use xlink:href="#DejaVuSans-38" transform="translate(1174.511719 0)"/>
      <use xlink:href="#DejaVuSans-29" transform="translate(1238.134766 0)"/>
     </g>
    </g>
    <g id="patch_12">
     <path d="M 326.528125 53.154687 
L 346.528125 53.154687 
L 346.528125 46.154687 
L 326.528125 46.154687 
z
" style="fill: #ff0000; opacity: 0.3; stroke: #0000ff; stroke-linejoin: miter"/>
    </g>
    <g id="text_16">
     <!-- Learned region -->
     <g transform="translate(354.528125 53.154687) scale(0.1 -0.1)">
      <defs>
       <path id="DejaVuSans-4c" d="M 628 4666 
L 1259 4666 
L 1259 531 
L 3531 531 
L 3531 0 
L 628 0 
L 628 4666 
z
" transform="scale(0.015625)"/>
       <path id="DejaVuSans-64" d="M 2906 2969 
L 2906 4863 
L 3481 4863 
L 3481 0 
L 2906 0 
L 2906 525 
Q 2725 213 2448 61 
Q 2172 -91 1784 -91 
Q 1150 -91 751 415 
Q 353 922 353 1747 
Q 353 2572 751 3078 
Q 1150 3584 1784 3584 
Q 2172 3584 2448 3432 
Q 2725 3281 2906 2969 
z
M 947 1747 
Q 947 1113 1208 752 
Q 1469 391 1925 391 
Q 2381 391 2643 752 
Q 2906 1113 2906 1747 
Q 2906 2381 2643 2742 
Q 2381 3103 1925 3103 
Q 1469 3103 1208 2742 
Q 947 2381 947 1747 
z
" transform="scale(0.015625)"/>
      </defs>
      <use xlink:href="#DejaVuSans-4c"/>
      <use xlink:href="#DejaVuSans-65" transform="translate(53.962891 0)"/>
      <use xlink:href="#DejaVuSans-61" transform="translate(115.486328 0)"/>
      <use xlink:href="#DejaVuSans-72" transform="translate(176.765625 0)"/>
      <use xlink:href="#DejaVuSans-6e" transform="translate(216.128906 0)"/>
      <use xlink:href="#DejaVuSans-65" transform="translate(279.507812 0)"/>
      <use xlink:href="#DejaVuSans-64" transform="translate(341.03125 0)"/>
      <use xlink:href="#DejaVuSans-20" transform="translate(404.507812 0)"/>
      <use xlink:href="#DejaVuSans-72" transform="translate(436.294922 0)"/>
      <use xlink:href="#DejaVuSans-65" transform="translate(475.158203 0)"/>
      <use xlink:href="#DejaVuSans-67" transform="translate(536.681641 0)"/>
      <use xlink:href="#DejaVuSans-69" transform="translate(600.158203 0)"/>
      <use xlink:href="#DejaVuSans-6f" transform="translate(627.941406 0)"/>
      <use xlink:href="#DejaVuSans-6e" transform="translate(689.123047 0)"/>
     </g>
    </g>
   </g>
  </g>
 </g>
 <defs>
  <clipPath id="p03407e1c2b">
   <rect x="44.845313" y="7.2" width="446.4" height="443.52"/>
  </clipPath>
 </defs>
</svg>
