<?xml version="1.0" encoding="utf-8" standalone="no"?>
<!DOCTYPE svg PUBLIC "-//W3C//DTD SVG 1.1//EN"
  "http://www.w3.org/Graphics/SVG/1.1/DTD/svg11.dtd">
<svg xmlns:xlink="http://www.w3.org/1999/xlink" width="483.703125pt" height="474.598125pt" viewBox="0 0 483.703125 474.598125" xmlns="http://www.w3.org/2000/svg" version="1.1">
 <metadata>
  <rdf:RDF xmlns:dc="http://purl.org/dc/elements/1.1/" xmlns:cc="http://creativecommons.org/ns#" xmlns:rdf="http://www.w3.org/1999/02/22-rdf-syntax-ns#">
   <cc:Work>
    <dc:type rdf:resource="http://purl.org/dc/dcmitype/StillImage"/>
    <dc:date>2026-04-30T20:42:12.254861</dc:date>
    <dc:format>image/svg+xml</dc:format>
    <dc:creator>
     <cc:Agent>
      <dc:title>Matplotlib v3.10.6, https://matplotlib.org/</dc:title>
     </cc:Agent>
    </dc:creator>
   </cc:Work>
  </rdf:RDF>
 </metadata>
 <defs>
  <style type="text/css">*{stroke-linejoin: round; stroke-linecap: butt}</style>
 </defs>
 <g id="figure_1">
  <g id="patch_1">
   <path d="M 0 474.598125 
L 483.703125 474.598125 
L 483.703125 0 
L 0 0 
z
" style="fill: #ffffff"/>
  </g>
  <g id="axes_1">
   <g id="patch_2">
    <path d="M 30.103125 450.72 
L 476.503125 450.72 
L 476.503125 7.2 
L 30.103125 7.2 
z
" style="fill: #ffffff"/>
   </g>
   <g id="patch_3">
    <path d="M 105.761972 218.495791 
L 104.795791 283.186716 
L 104.610743 315.044036 
L 104.61558 315.994824 
L 104.629982 316.942163 
L 104.653898 317.885302 
L 104.68725 318.824115 
L 104.729964 319.758429 
L 104.781963 320.688059 
L 104.843171 321.612823 
L 104.913511 322.532539 
L 104.992909 323.447031 
L 105.081287 324.356124 
L 105.178572 325.259651 
L 105.284686 326.157445 
L 105.399557 327.049345 
L 105.523111 327.935194 
L 105.655273 328.814837 
L 105.795971 329.688123 
L 105.945133 330.554905 
L 106.102688 331.415038 
L 106.268566 332.268379 
L 106.442697 333.11479 
L 106.625013 333.954133 
L 106.815445 334.786273 
L 107.013928 335.611077 
L 107.220395 336.428414 
L 107.434782 337.238153 
L 107.657025 338.040168 
L 107.887061 338.83433 
L 108.124827 339.620514 
L 108.370264 340.398595 
L 108.62331 341.168447 
L 108.883908 341.929949 
L 109.151997 342.682974 
L 109.427522 343.427401 
L 109.710426 344.163107 
L 110.000652 344.889967 
L 110.298146 345.607857 
L 110.602854 346.316655 
L 110.914722 347.016234 
L 111.233696 347.706471 
L 111.559725 348.387238 
L 111.892756 349.058408 
L 112.232738 349.719853 
L 112.579619 350.371444 
L 112.933349 351.01305 
L 113.293877 351.644538 
L 113.661152 352.265776 
L 114.035125 352.876626 
L 114.415743 353.476953 
L 114.802957 354.066616 
L 115.196715 354.645476 
L 115.596966 355.21339 
L 116.003659 355.770212 
L 116.416741 356.315795 
L 116.836159 356.849991 
L 117.26186 357.372647 
L 117.693788 357.88361 
L 118.131889 358.382725 
L 118.576105 358.869832 
L 119.026378 359.344771 
L 119.482649 359.80738 
L 119.944856 360.257493 
L 120.412938 360.694942 
L 120.886829 361.119559 
L 121.366462 361.53117 
L 121.85177 361.929601 
L 122.34268 362.314677 
L 122.83912 362.68622 
L 123.341012 363.044048 
L 123.848279 363.387981 
L 124.360839 363.717833 
L 124.878606 364.033421 
L 125.401492 364.334558 
L 125.929405 364.621056 
L 126.46225 364.892725 
L 126.999928 365.149377 
L 127.542335 365.390821 
L 128.089365 365.616867 
L 128.640906 365.827324 
L 129.196842 366.022001 
L 129.757052 366.200709 
L 130.321412 366.363258 
L 130.889791 366.509461 
L 131.462055 366.639131 
L 132.038064 366.752083 
L 132.617673 366.848136 
L 133.200734 366.927109 
L 133.787096 366.988826 
L 134.376609 367.033114 
L 134.969151 367.059804 
L 135.565108 367.068724 
L 158.852593 366.713073 
L 196.31609 364.97333 
L 228.186282 362.60106 
L 247.811515 360.580545 
L 260.378821 358.911086 
L 276.570484 356.235861 
L 288.856689 353.847375 
L 296.906371 352.028036 
L 302.620028 350.575182 
L 303.273533 350.386947 
L 303.928185 350.178099 
L 304.583786 349.948508 
L 305.240038 349.698081 
L 305.896627 349.426749 
L 306.553224 349.134461 
L 307.209497 348.821186 
L 307.865105 348.486912 
L 308.519699 348.131652 
L 309.172926 347.755437 
L 309.824429 347.358321 
L 310.473844 346.940384 
L 311.120806 346.501725 
L 311.764946 346.042469 
L 312.405893 345.562764 
L 313.043276 345.062783 
L 313.676722 344.542721 
L 314.30586 344.002798 
L 314.930322 343.443259 
L 315.54974 342.864369 
L 316.16375 342.266418 
L 316.771993 341.649719 
L 317.374115 341.014606 
L 317.969768 340.361434 
L 318.558612 339.690578 
L 319.140312 339.002433 
L 319.714544 338.297413 
L 320.280993 337.575949 
L 320.839353 336.838486 
L 321.38933 336.085487 
L 321.930639 335.317428 
L 322.463009 334.534798 
L 322.98618 333.738094 
L 323.499906 332.927828 
L 324.003952 332.104517 
L 324.498099 331.268686 
L 324.982138 330.420865 
L 325.455877 329.56159 
L 325.919137 328.691399 
L 326.371751 327.810832 
L 326.813569 326.920429 
L 327.244452 326.020731 
L 327.664276 325.112276 
L 328.072931 324.195597 
L 328.470318 323.271226 
L 328.856354 322.339688 
L 329.230966 321.401503 
L 329.594096 320.457184 
L 329.945694 319.507235 
L 330.285727 318.552153 
L 330.614168 317.592424 
L 330.931003 316.628526 
L 331.236229 315.660926 
L 331.52985 314.690081 
L 331.811883 313.716434 
L 332.082349 312.74042 
L 332.341282 311.762461 
L 332.58872 310.782965 
L 332.82471 309.80233 
L 333.049306 308.820942 
L 333.262566 307.839173 
L 333.464557 306.857383 
L 333.655347 305.875921 
L 333.835013 304.895126 
L 334.003631 303.915331 
L 334.150183 303.007684 
L 334.243301 302.387951 
L 334.329668 301.768949 
L 334.409312 301.150385 
L 334.48234 300.532548 
L 334.568197 299.730894 
L 334.662455 298.761368 
L 334.746521 297.793164 
L 336.682014 272.431012 
L 336.746406 271.458248 
L 338.232629 241.440954 
L 338.435407 236.654952 
L 338.597672 231.98035 
L 339.098039 211.539068 
L 339.895523 162.22747 
L 340.060234 140.254708 
L 340.055388 139.297629 
L 339.700783 115.102314 
L 339.654861 113.324179 
L 339.449005 107.694474 
L 339.405907 106.751707 
L 339.353495 105.814677 
L 339.291855 104.883384 
L 339.22108 103.957981 
L 339.141261 103.038629 
L 339.052489 102.125483 
L 338.954854 101.218697 
L 338.848446 100.318419 
L 338.733353 99.424795 
L 338.609664 98.537965 
L 338.477464 97.658066 
L 338.336839 96.785232 
L 338.187873 95.919592 
L 338.03065 95.061271 
L 337.86525 94.210388 
L 337.691745 93.367021 
L 337.028352 90.29293 
L 336.852727 89.525504 
L 336.66912 88.762526 
L 336.477515 88.004036 
L 335.192124 83.187831 
L 333.938921 78.605773 
L 333.324312 76.478837 
L 333.086584 75.692777 
L 332.841383 74.915442 
L 329.408517 64.381978 
L 329.1485 63.622168 
L 328.881174 62.87129 
L 327.896902 60.176405 
L 327.615351 59.444213 
L 327.326766 58.72146 
L 327.031209 58.008241 
L 326.728743 57.304656 
L 326.419431 56.610808 
L 326.103334 55.926795 
L 325.78051 55.252718 
L 325.451018 54.588678 
L 325.114914 53.934774 
L 324.772252 53.291109 
L 324.423088 52.657783 
L 324.067473 52.034898 
L 323.705457 51.422557 
L 323.337092 50.820863 
L 322.962425 50.229921 
L 322.581503 49.649838 
L 322.194373 49.080722 
L 321.801081 48.522681 
L 321.401669 47.975827 
L 320.996182 47.440273 
L 320.584661 46.916136 
L 320.167149 46.403533 
L 319.743687 45.902584 
L 319.314315 45.413412 
L 318.879072 44.936145 
L 318.438 44.47091 
L 317.991138 44.01784 
L 317.538525 43.57707 
L 317.080201 43.14874 
L 316.616207 42.732991 
L 316.146583 42.32997 
L 315.671371 41.939827 
L 315.190613 41.562714 
L 314.704352 41.19879 
L 314.212632 40.848215 
L 313.715501 40.511155 
L 313.213007 40.18778 
L 312.705198 39.878262 
L 312.192129 39.582779 
L 311.673853 39.301512 
L 311.150429 39.034647 
L 310.621918 38.782371 
L 310.088384 38.544878 
L 309.549896 38.322363 
L 309.006526 38.115025 
L 308.458352 37.923067 
L 307.905456 37.746693 
L 307.347923 37.586111 
L 306.785848 37.441531 
L 306.219328 37.313164 
L 305.648467 37.201222 
L 305.073376 37.105919 
L 304.494171 37.027469 
L 303.910974 36.966086 
L 303.323911 36.921982 
L 302.733321 36.895331 
L 302.138428 36.886463 
L 284.434004 37.180239 
L 247.028159 39.125073 
L 209.132279 42.175165 
L 202.545687 42.851649 
L 179.321858 45.774521 
L 159.589381 48.977539 
L 144.3409 51.942914 
L 143.727244 52.081974 
L 143.111813 52.240293 
L 142.494826 52.418014 
L 141.876519 52.615268 
L 141.257138 52.832177 
L 140.636938 53.068847 
L 140.016182 53.325372 
L 139.395141 53.601833 
L 138.774092 53.898296 
L 138.153319 54.214809 
L 137.533115 54.551406 
L 136.913776 54.908106 
L 136.295604 55.284906 
L 135.678908 55.681789 
L 135.063999 56.098716 
L 134.451194 56.535633 
L 133.840813 56.992463 
L 133.233179 57.469111 
L 132.628616 57.965462 
L 132.02745 58.48138 
L 131.43001 59.01671 
L 130.836623 59.571275 
L 130.247616 60.14488 
L 129.663316 60.737306 
L 129.084046 61.348317 
L 128.510128 61.977658 
L 127.941881 62.625053 
L 127.379619 63.290205 
L 126.823652 63.972803 
L 126.274285 64.672516 
L 125.731815 65.388995 
L 125.196536 66.121875 
L 124.668732 66.870775 
L 124.14868 67.635301 
L 123.63665 68.415043 
L 123.132902 69.209577 
L 122.637686 70.018469 
L 122.151244 70.841272 
L 121.673809 71.677531 
L 121.205601 72.526778 
L 120.746832 73.38854 
L 120.2977 74.262336 
L 119.858397 75.147677 
L 119.429098 76.044072 
L 119.009971 76.951024 
L 118.601172 77.868033 
L 118.202845 78.794597 
L 117.815121 79.730213 
L 117.438124 80.674378 
L 117.071962 81.626589 
L 116.716736 82.586345 
L 116.372533 83.553148 
L 116.039431 84.526502 
L 115.717497 85.505916 
L 115.406789 86.490903 
L 115.107352 87.480983 
L 114.819225 88.475679 
L 114.542433 89.474522 
L 114.276997 90.477052 
L 114.022926 91.482814 
L 113.78022 92.491362 
L 113.548873 93.502258 
L 113.32887 94.515073 
L 113.12019 95.529389 
L 112.922802 96.544794 
L 112.736672 97.560888 
L 112.561757 98.57728 
L 112.398009 99.59359 
L 112.245375 100.609448 
L 112.103795 101.624495 
L 111.973207 102.638384 
L 111.85354 103.650784 
L 111.744718 104.661423 
L 111.481637 107.429366 
L 110.911693 114.052992 
L 109.746047 129.251618 
L 108.686041 145.510053 
L 107.504719 166.702489 
L 106.595986 186.325448 
L 106.476715 189.803109 
z
" clip-path="url(#p2d2c999abf)" style="fill: #0000ff; opacity: 0.3; stroke: #0000ff; stroke-linejoin: miter"/>
   </g>
   <g id="patch_4">
    <path d="M 105.675468 222.827605 
L 104.99046 265.585372 
L 104.612075 314.34732 
L 116.602208 356.554426 
L 147.073471 366.967191 
L 175.341083 366.073023 
L 198.2875 364.853866 
L 218.251842 363.436358 
L 236.730524 361.793173 
L 254.82566 359.692268 
L 273.467486 356.785672 
L 293.664981 352.791309 
L 314.923103 343.449865 
L 330.373051 318.300697 
L 335.936864 281.64019 
L 337.951347 246.465413 
L 339.042502 214.103931 
L 339.613291 183.051716 
L 339.989108 151.7122 
L 339.76442 118.502148 
L 335.616351 84.781758 
L 325.54507 54.775843 
L 307.608142 37.658907 
L 285.670094 37.147405 
L 267.411611 37.956793 
L 251.501576 38.8601 
L 236.730524 39.875113 
L 222.184813 41.059829 
L 206.985089 42.381614 
L 190.227849 44.412559 
L 170.546785 47.287563 
L 145.774892 51.683449 
L 122.769475 69.800426 
L 111.73627 104.744233 
L 108.765521 144.213674 
L 106.732414 183.051716 
z
" clip-path="url(#p2d2c999abf)" style="fill: #008000; opacity: 0.3; stroke: #008000; stroke-linejoin: miter"/>
   </g>
   <g id="patch_5">
    <path d="M 108.420919 327.130952 
L 111.69427 342.716362 
L 124.312513 360.880966 
L 264.462827 355.67101 
L 309.797621 341.615123 
L 326.000439 317.761054 
L 332.517364 248.582889 
L 332.652048 79.438447 
L 315.381816 43.996211 
L 196.764504 46.434548 
L 130.805663 64.270928 
L 126.382433 68.614017 
L 117.225651 87.213079 
L 110.500013 151.835503 
z
" clip-path="url(#p2d2c999abf)" style="fill: #ff0000; opacity: 0.3; stroke: #0000ff; stroke-linejoin: miter"/>
   </g>
   <g id="matplotlib.axis_1">
    <g id="xtick_1">
     <g id="line2d_1">
      <defs>
       <path id="mb616bc6cf2" d="M 0 0 
L 0 3.5 
" style="stroke: #000000; stroke-width: 0.8"/>
      </defs>
      <g>
       <use xlink:href="#mb616bc6cf2" x="85.219833" y="450.72" style="stroke: #000000; stroke-width: 0.8"/>
      </g>
     </g>
     <g id="text_1">
      <!-- 1.5 -->
      <g transform="translate(77.26827 465.318437) scale(0.1 -0.1)">
       <defs>
        <path id="DejaVuSans-31" d="M 794 531 
L 1825 531 
L 1825 4091 
L 703 3866 
L 703 4441 
L 1819 4666 
L 2450 4666 
L 2450 531 
L 3481 531 
L 3481 0 
L 794 0 
L 794 531 
z
" transform="scale(0.015625)"/>
        <path id="DejaVuSans-2e" d="M 684 794 
L 1344 794 
L 1344 0 
L 684 0 
L 684 794 
z
" transform="scale(0.015625)"/>
        <path id="DejaVuSans-35" d="M 691 4666 
L 3169 4666 
L 3169 4134 
L 1269 4134 
L 1269 2991 
Q 1406 3038 1543 3061 
Q 1681 3084 1819 3084 
Q 2600 3084 3056 2656 
Q 3513 2228 3513 1497 
Q 3513 744 3044 326 
Q 2575 -91 1722 -91 
Q 1428 -91 1123 -41 
Q 819 9 494 109 
L 494 744 
Q 775 591 1075 516 
Q 1375 441 1709 441 
Q 2250 441 2565 725 
Q 2881 1009 2881 1497 
Q 2881 1984 2565 2268 
Q 2250 2553 1709 2553 
Q 1456 2553 1204 2497 
Q 953 2441 691 2322 
L 691 4666 
z
" transform="scale(0.015625)"/>
       </defs>
       <use xlink:href="#DejaVuSans-31"/>
       <use xlink:href="#DejaVuSans-2e" transform="translate(63.623047 0)"/>
       <use xlink:href="#DejaVuSans-35" transform="translate(95.410156 0)"/>
      </g>
     </g>
    </g>
    <g id="xtick_2">
     <g id="line2d_2">
      <g>
       <use xlink:href="#mb616bc6cf2" x="160.822838" y="450.72" style="stroke: #000000; stroke-width: 0.8"/>
      </g>
     </g>
     <g id="text_2">
      <!-- 2.0 -->
      <g transform="translate(152.871275 465.318437) scale(0.1 -0.1)">
       <defs>
        <path id="DejaVuSans-32" d="M 1228 531 
L 3431 531 
L 3431 0 
L 469 0 
L 469 531 
Q 828 903 1448 1529 
Q 2069 2156 2228 2338 
Q 2531 2678 2651 2914 
Q 2772 3150 2772 3378 
Q 2772 3750 2511 3984 
Q 2250 4219 1831 4219 
Q 1534 4219 1204 4116 
Q 875 4013 500 3803 
L 500 4441 
Q 881 4594 1212 4672 
Q 1544 4750 1819 4750 
Q 2544 4750 2975 4387 
Q 3406 4025 3406 3419 
Q 3406 3131 3298 2873 
Q 3191 2616 2906 2266 
Q 2828 2175 2409 1742 
Q 1991 1309 1228 531 
z
" transform="scale(0.015625)"/>
        <path id="DejaVuSans-30" d="M 2034 4250 
Q 1547 4250 1301 3770 
Q 1056 3291 1056 2328 
Q 1056 1369 1301 889 
Q 1547 409 2034 409 
Q 2525 409 2770 889 
Q 3016 1369 3016 2328 
Q 3016 3291 2770 3770 
Q 2525 4250 2034 4250 
z
M 2034 4750 
Q 2819 4750 3233 4129 
Q 3647 3509 3647 2328 
Q 3647 1150 3233 529 
Q 2819 -91 2034 -91 
Q 1250 -91 836 529 
Q 422 1150 422 2328 
Q 422 3509 836 4129 
Q 1250 4750 2034 4750 
z
" transform="scale(0.015625)"/>
       </defs>
       <use xlink:href="#DejaVuSans-32"/>
       <use xlink:href="#DejaVuSans-2e" transform="translate(63.623047 0)"/>
       <use xlink:href="#DejaVuSans-30" transform="translate(95.410156 0)"/>
      </g>
     </g>
    </g>
    <g id="xtick_3">
     <g id="line2d_3">
      <g>
       <use xlink:href="#mb616bc6cf2" x="236.425843" y="450.72" style="stroke: #000000; stroke-width: 0.8"/>
      </g>
     </g>
     <g id="text_3">
      <!-- 2.5 -->
      <g transform="translate(228.47428 465.318437) scale(0.1 -0.1)">
       <use xlink:href="#DejaVuSans-32"/>
       <use xlink:href="#DejaVuSans-2e" transform="translate(63.623047 0)"/>
       <use xlink:href="#DejaVuSans-35" transform="translate(95.410156 0)"/>
      </g>
     </g>
    </g>
    <g id="xtick_4">
     <g id="line2d_4">
      <g>
       <use xlink:href="#mb616bc6cf2" x="312.028848" y="450.72" style="stroke: #000000; stroke-width: 0.8"/>
      </g>
     </g>
     <g id="text_4">
      <!-- 3.0 -->
      <g transform="translate(304.077285 465.318437) scale(0.1 -0.1)">
       <defs>
        <path id="DejaVuSans-33" d="M 2597 2516 
Q 3050 2419 3304 2112 
Q 3559 1806 3559 1356 
Q 3559 666 3084 287 
Q 2609 -91 1734 -91 
Q 1441 -91 1130 -33 
Q 819 25 488 141 
L 488 750 
Q 750 597 1062 519 
Q 1375 441 1716 441 
Q 2309 441 2620 675 
Q 2931 909 2931 1356 
Q 2931 1769 2642 2001 
Q 2353 2234 1838 2234 
L 1294 2234 
L 1294 2753 
L 1863 2753 
Q 2328 2753 2575 2939 
Q 2822 3125 2822 3475 
Q 2822 3834 2567 4026 
Q 2313 4219 1838 4219 
Q 1578 4219 1281 4162 
Q 984 4106 628 3988 
L 628 4550 
Q 988 4650 1302 4700 
Q 1616 4750 1894 4750 
Q 2613 4750 3031 4423 
Q 3450 4097 3450 3541 
Q 3450 3153 3228 2886 
Q 3006 2619 2597 2516 
z
" transform="scale(0.015625)"/>
       </defs>
       <use xlink:href="#DejaVuSans-33"/>
       <use xlink:href="#DejaVuSans-2e" transform="translate(63.623047 0)"/>
       <use xlink:href="#DejaVuSans-30" transform="translate(95.410156 0)"/>
      </g>
     </g>
    </g>
    <g id="xtick_5">
     <g id="line2d_5">
      <g>
       <use xlink:href="#mb616bc6cf2" x="387.631853" y="450.72" style="stroke: #000000; stroke-width: 0.8"/>
      </g>
     </g>
     <g id="text_5">
      <!-- 3.5 -->
      <g transform="translate(379.68029 465.318437) scale(0.1 -0.1)">
       <use xlink:href="#DejaVuSans-33"/>
       <use xlink:href="#DejaVuSans-2e" transform="translate(63.623047 0)"/>
       <use xlink:href="#DejaVuSans-35" transform="translate(95.410156 0)"/>
      </g>
     </g>
    </g>
    <g id="xtick_6">
     <g id="line2d_6">
      <g>
       <use xlink:href="#mb616bc6cf2" x="463.234858" y="450.72" style="stroke: #000000; stroke-width: 0.8"/>
      </g>
     </g>
     <g id="text_6">
      <!-- 4.0 -->
      <g transform="translate(455.283296 465.318437) scale(0.1 -0.1)">
       <defs>
        <path id="DejaVuSans-34" d="M 2419 4116 
L 825 1625 
L 2419 1625 
L 2419 4116 
z
M 2253 4666 
L 3047 4666 
L 3047 1625 
L 3713 1625 
L 3713 1100 
L 3047 1100 
L 3047 0 
L 2419 0 
L 2419 1100 
L 313 1100 
L 313 1709 
L 2253 4666 
z
" transform="scale(0.015625)"/>
       </defs>
       <use xlink:href="#DejaVuSans-34"/>
       <use xlink:href="#DejaVuSans-2e" transform="translate(63.623047 0)"/>
       <use xlink:href="#DejaVuSans-30" transform="translate(95.410156 0)"/>
      </g>
     </g>
    </g>
   </g>
   <g id="matplotlib.axis_2">
    <g id="ytick_1">
     <g id="line2d_7">
      <defs>
       <path id="maed12b8bba" d="M 0 0 
L -3.5 0 
" style="stroke: #000000; stroke-width: 0.8"/>
      </defs>
      <g>
       <use xlink:href="#maed12b8bba" x="30.103125" y="412.214622" style="stroke: #000000; stroke-width: 0.8"/>
      </g>
     </g>
     <g id="text_7">
      <!-- 1.0 -->
      <g transform="translate(7.2 416.013841) scale(0.1 -0.1)">
       <use xlink:href="#DejaVuSans-31"/>
       <use xlink:href="#DejaVuSans-2e" transform="translate(63.623047 0)"/>
       <use xlink:href="#DejaVuSans-30" transform="translate(95.410156 0)"/>
      </g>
     </g>
    </g>
    <g id="ytick_2">
     <g id="line2d_8">
      <g>
       <use xlink:href="#maed12b8bba" x="30.103125" y="360.161547" style="stroke: #000000; stroke-width: 0.8"/>
      </g>
     </g>
     <g id="text_8">
      <!-- 1.2 -->
      <g transform="translate(7.2 363.960765) scale(0.1 -0.1)">
       <use xlink:href="#DejaVuSans-31"/>
       <use xlink:href="#DejaVuSans-2e" transform="translate(63.623047 0)"/>
       <use xlink:href="#DejaVuSans-32" transform="translate(95.410156 0)"/>
      </g>
     </g>
    </g>
    <g id="ytick_3">
     <g id="line2d_9">
      <g>
       <use xlink:href="#maed12b8bba" x="30.103125" y="308.108471" style="stroke: #000000; stroke-width: 0.8"/>
      </g>
     </g>
     <g id="text_9">
      <!-- 1.4 -->
      <g transform="translate(7.2 311.90769) scale(0.1 -0.1)">
       <use xlink:href="#DejaVuSans-31"/>
       <use xlink:href="#DejaVuSans-2e" transform="translate(63.623047 0)"/>
       <use xlink:href="#DejaVuSans-34" transform="translate(95.410156 0)"/>
      </g>
     </g>
    </g>
    <g id="ytick_4">
     <g id="line2d_10">
      <g>
       <use xlink:href="#maed12b8bba" x="30.103125" y="256.055396" style="stroke: #000000; stroke-width: 0.8"/>
      </g>
     </g>
     <g id="text_10">
      <!-- 1.6 -->
      <g transform="translate(7.2 259.854614) scale(0.1 -0.1)">
       <defs>
        <path id="DejaVuSans-36" d="M 2113 2584 
Q 1688 2584 1439 2293 
Q 1191 2003 1191 1497 
Q 1191 994 1439 701 
Q 1688 409 2113 409 
Q 2538 409 2786 701 
Q 3034 994 3034 1497 
Q 3034 2003 2786 2293 
Q 2538 2584 2113 2584 
z
M 3366 4563 
L 3366 3988 
Q 3128 4100 2886 4159 
Q 2644 4219 2406 4219 
Q 1781 4219 1451 3797 
Q 1122 3375 1075 2522 
Q 1259 2794 1537 2939 
Q 1816 3084 2150 3084 
Q 2853 3084 3261 2657 
Q 3669 2231 3669 1497 
Q 3669 778 3244 343 
Q 2819 -91 2113 -91 
Q 1303 -91 875 529 
Q 447 1150 447 2328 
Q 447 3434 972 4092 
Q 1497 4750 2381 4750 
Q 2619 4750 2861 4703 
Q 3103 4656 3366 4563 
z
" transform="scale(0.015625)"/>
       </defs>
       <use xlink:href="#DejaVuSans-31"/>
       <use xlink:href="#DejaVuSans-2e" transform="translate(63.623047 0)"/>
       <use xlink:href="#DejaVuSans-36" transform="translate(95.410156 0)"/>
      </g>
     </g>
    </g>
    <g id="ytick_5">
     <g id="line2d_11">
      <g>
       <use xlink:href="#maed12b8bba" x="30.103125" y="204.00232" style="stroke: #000000; stroke-width: 0.8"/>
      </g>
     </g>
     <g id="text_11">
      <!-- 1.8 -->
      <g transform="translate(7.2 207.801539) scale(0.1 -0.1)">
       <defs>
        <path id="DejaVuSans-38" d="M 2034 2216 
Q 1584 2216 1326 1975 
Q 1069 1734 1069 1313 
Q 1069 891 1326 650 
Q 1584 409 2034 409 
Q 2484 409 2743 651 
Q 3003 894 3003 1313 
Q 3003 1734 2745 1975 
Q 2488 2216 2034 2216 
z
M 1403 2484 
Q 997 2584 770 2862 
Q 544 3141 544 3541 
Q 544 4100 942 4425 
Q 1341 4750 2034 4750 
Q 2731 4750 3128 4425 
Q 3525 4100 3525 3541 
Q 3525 3141 3298 2862 
Q 3072 2584 2669 2484 
Q 3125 2378 3379 2068 
Q 3634 1759 3634 1313 
Q 3634 634 3220 271 
Q 2806 -91 2034 -91 
Q 1263 -91 848 271 
Q 434 634 434 1313 
Q 434 1759 690 2068 
Q 947 2378 1403 2484 
z
M 1172 3481 
Q 1172 3119 1398 2916 
Q 1625 2713 2034 2713 
Q 2441 2713 2670 2916 
Q 2900 3119 2900 3481 
Q 2900 3844 2670 4047 
Q 2441 4250 2034 4250 
Q 1625 4250 1398 4047 
Q 1172 3844 1172 3481 
z
" transform="scale(0.015625)"/>
       </defs>
       <use xlink:href="#DejaVuSans-31"/>
       <use xlink:href="#DejaVuSans-2e" transform="translate(63.623047 0)"/>
       <use xlink:href="#DejaVuSans-38" transform="translate(95.410156 0)"/>
      </g>
     </g>
    </g>
    <g id="ytick_6">
     <g id="line2d_12">
      <g>
       <use xlink:href="#maed12b8bba" x="30.103125" y="151.949245" style="stroke: #000000; stroke-width: 0.8"/>
      </g>
     </g>
     <g id="text_12">
      <!-- 2.0 -->
      <g transform="translate(7.2 155.748463) scale(0.1 -0.1)">
       <use xlink:href="#DejaVuSans-32"/>
       <use xlink:href="#DejaVuSans-2e" transform="translate(63.623047 0)"/>
       <use xlink:href="#DejaVuSans-30" transform="translate(95.410156 0)"/>
      </g>
     </g>
    </g>
    <g id="ytick_7">
     <g id="line2d_13">
      <g>
       <use xlink:href="#maed12b8bba" x="30.103125" y="99.896169" style="stroke: #000000; stroke-width: 0.8"/>
      </g>
     </g>
     <g id="text_13">
      <!-- 2.2 -->
      <g transform="translate(7.2 103.695388) scale(0.1 -0.1)">
       <use xlink:href="#DejaVuSans-32"/>
       <use xlink:href="#DejaVuSans-2e" transform="translate(63.623047 0)"/>
       <use xlink:href="#DejaVuSans-32" transform="translate(95.410156 0)"/>
      </g>
     </g>
    </g>
    <g id="ytick_8">
     <g id="line2d_14">
      <g>
       <use xlink:href="#maed12b8bba" x="30.103125" y="47.843093" style="stroke: #000000; stroke-width: 0.8"/>
      </g>
     </g>
     <g id="text_14">
      <!-- 2.4 -->
      <g transform="translate(7.2 51.642312) scale(0.1 -0.1)">
       <use xlink:href="#DejaVuSans-32"/>
       <use xlink:href="#DejaVuSans-2e" transform="translate(63.623047 0)"/>
       <use xlink:href="#DejaVuSans-34" transform="translate(95.410156 0)"/>
      </g>
     </g>
    </g>
   </g>
   <g id="patch_6">
    <path d="M 30.103125 450.72 
L 30.103125 7.2 
" style="fill: none; stroke: #000000; stroke-width: 0.8; stroke-linejoin: miter; stroke-linecap: square"/>
   </g>
   <g id="patch_7">
    <path d="M 476.503125 450.72 
L 476.503125 7.2 
" style="fill: none; stroke: #000000; stroke-width: 0.8; stroke-linejoin: miter; stroke-linecap: square"/>
   </g>
   <g id="patch_8">
    <path d="M 30.103125 450.72 
L 476.503125 450.72 
" style="fill: none; stroke: #000000; stroke-width: 0.8; stroke-linejoin: miter; stroke-linecap: square"/>
   </g>
   <g id="patch_9">
    <path d="M 30.103125 7.2 
L 476.503125 7.2 
" style="fill: none; stroke: #000000; stroke-width: 0.8; stroke-linejoin: miter; stroke-linecap: square"/>
   </g>
   <g id="legend_1">
    <g id="patch_10">
     <path d="M 305.423437 23.798437 
L 325.423437 23.798437 
L 325.423437 16.798437 
L 305.423437 16.798437 
z
" style="fill: #0000ff; opacity: 0.3; stroke: #0000ff; stroke-linejoin: miter"/>
    </g>
    <g id="text_15">
     <!-- Original region -->
     <g transform="translate(333.423437 23.798437) scale(0.1 -0.1)">
      <defs>
       <path id="DejaVuSans-4f" d="M 2522 4238 
Q 1834 4238 1429 3725 
Q 1025 3213 1025 2328 
Q 1025 1447 1429 934 
Q 1834 422 2522 422 
Q 3209 422 3611 934 
Q 4013 1447 4013 2328 
Q 4013 3213 3611 3725 
Q 3209 4238 2522 4238 
z
M 2522 4750 
Q 3503 4750 4090 4092 
Q 4678 3434 4678 2328 
Q 4678 1225 4090 567 
Q 3503 -91 2522 -91 
Q 1538 -91 948 565 
Q 359 1222 359 2328 
Q 359 3434 948 4092 
Q 1538 4750 2522 4750 
z
" transform="scale(0.015625)"/>
       <path id="DejaVuSans-72" d="M 2631 2963 
Q 2534 3019 2420 3045 
Q 2306 3072 2169 3072 
Q 1681 3072 1420 2755 
Q 1159 2438 1159 1844 
L 1159 0 
L 581 0 
L 581 3500 
L 1159 3500 
L 1159 2956 
Q 1341 3275 1631 3429 
Q 1922 3584 2338 3584 
Q 2397 3584 2469 3576 
Q 2541 3569 2628 3553 
L 2631 2963 
z
" transform="scale(0.015625)"/>
       <path id="DejaVuSans-69" d="M 603 3500 
L 1178 3500 
L 1178 0 
L 603 0 
L 603 3500 
z
M 603 4863 
L 1178 4863 
L 1178 4134 
L 603 4134 
L 603 4863 
z
" transform="scale(0.015625)"/>
       <path id="DejaVuSans-67" d="M 2906 1791 
Q 2906 2416 2648 2759 
Q 2391 3103 1925 3103 
Q 1463 3103 1205 2759 
Q 947 2416 947 1791 
Q 947 1169 1205 825 
Q 1463 481 1925 481 
Q 2391 481 2648 825 
Q 2906 1169 2906 1791 
z
M 3481 434 
Q 3481 -459 3084 -895 
Q 2688 -1331 1869 -1331 
Q 1566 -1331 1297 -1286 
Q 1028 -1241 775 -1147 
L 775 -588 
Q 1028 -725 1275 -790 
Q 1522 -856 1778 -856 
Q 2344 -856 2625 -561 
Q 2906 -266 2906 331 
L 2906 616 
Q 2728 306 2450 153 
Q 2172 0 1784 0 
Q 1141 0 747 490 
Q 353 981 353 1791 
Q 353 2603 747 3093 
Q 1141 3584 1784 3584 
Q 2172 3584 2450 3431 
Q 2728 3278 2906 2969 
L 2906 3500 
L 3481 3500 
L 3481 434 
z
" transform="scale(0.015625)"/>
       <path id="DejaVuSans-6e" d="M 3513 2113 
L 3513 0 
L 2938 0 
L 2938 2094 
Q 2938 2591 2744 2837 
Q 2550 3084 2163 3084 
Q 1697 3084 1428 2787 
Q 1159 2491 1159 1978 
L 1159 0 
L 581 0 
L 581 3500 
L 1159 3500 
L 1159 2956 
Q 1366 3272 1645 3428 
Q 1925 3584 2291 3584 
Q 2894 3584 3203 3211 
Q 3513 2838 3513 2113 
z
" transform="scale(0.015625)"/>
       <path id="DejaVuSans-61" d="M 2194 1759 
Q 1497 1759 1228 1600 
Q 959 1441 959 1056 
Q 959 750 1161 570 
Q 1363 391 1709 391 
Q 2188 391 2477 730 
Q 2766 1069 2766 1631 
L 2766 1759 
L 2194 1759 
z
M 3341 1997 
L 3341 0 
L 2766 0 
L 2766 531 
Q 2569 213 2275 61 
Q 1981 -91 1556 -91 
Q 1019 -91 701 211 
Q 384 513 384 1019 
Q 384 1609 779 1909 
Q 1175 2209 1959 2209 
L 2766 2209 
L 2766 2266 
Q 2766 2663 2505 2880 
Q 2244 3097 1772 3097 
Q 1472 3097 1187 3025 
Q 903 2953 641 2809 
L 641 3341 
Q 956 3463 1253 3523 
Q 1550 3584 1831 3584 
Q 2591 3584 2966 3190 
Q 3341 2797 3341 1997 
z
" transform="scale(0.015625)"/>
       <path id="DejaVuSans-6c" d="M 603 4863 
L 1178 4863 
L 1178 0 
L 603 0 
L 603 4863 
z
" transform="scale(0.015625)"/>
       <path id="DejaVuSans-20" transform="scale(0.015625)"/>
       <path id="DejaVuSans-65" d="M 3597 1894 
L 3597 1613 
L 953 1613 
Q 991 1019 1311 708 
Q 1631 397 2203 397 
Q 2534 397 2845 478 
Q 3156 559 3463 722 
L 3463 178 
Q 3153 47 2828 -22 
Q 2503 -91 2169 -91 
Q 1331 -91 842 396 
Q 353 884 353 1716 
Q 353 2575 817 3079 
Q 1281 3584 2069 3584 
Q 2775 3584 3186 3129 
Q 3597 2675 3597 1894 
z
M 3022 2063 
Q 3016 2534 2758 2815 
Q 2500 3097 2075 3097 
Q 1594 3097 1305 2825 
Q 1016 2553 972 2059 
L 3022 2063 
z
" transform="scale(0.015625)"/>
       <path id="DejaVuSans-6f" d="M 1959 3097 
Q 1497 3097 1228 2736 
Q 959 2375 959 1747 
Q 959 1119 1226 758 
Q 1494 397 1959 397 
Q 2419 397 2687 759 
Q 2956 1122 2956 1747 
Q 2956 2369 2687 2733 
Q 2419 3097 1959 3097 
z
M 1959 3584 
Q 2709 3584 3137 3096 
Q 3566 2609 3566 1747 
Q 3566 888 3137 398 
Q 2709 -91 1959 -91 
Q 1206 -91 779 398 
Q 353 888 353 1747 
Q 353 2609 779 3096 
Q 1206 3584 1959 3584 
z
" transform="scale(0.015625)"/>
      </defs>
      <use xlink:href="#DejaVuSans-4f"/>
      <use xlink:href="#DejaVuSans-72" transform="translate(78.710938 0)"/>
      <use xlink:href="#DejaVuSans-69" transform="translate(119.824219 0)"/>
      <use xlink:href="#DejaVuSans-67" transform="translate(147.607422 0)"/>
      <use xlink:href="#DejaVuSans-69" transform="translate(211.083984 0)"/>
      <use xlink:href="#DejaVuSans-6e" transform="translate(238.867188 0)"/>
      <use xlink:href="#DejaVuSans-61" transform="translate(302.246094 0)"/>
      <use xlink:href="#DejaVuSans-6c" transform="translate(363.525391 0)"/>
      <use xlink:href="#DejaVuSans-20" transform="translate(391.308594 0)"/>
      <use xlink:href="#DejaVuSans-72" transform="translate(423.095703 0)"/>
      <use xlink:href="#DejaVuSans-65" transform="translate(461.958984 0)"/>
      <use xlink:href="#DejaVuSans-67" transform="translate(523.482422 0)"/>
      <use xlink:href="#DejaVuSans-69" transform="translate(586.958984 0)"/>
      <use xlink:href="#DejaVuSans-6f" transform="translate(614.742188 0)"/>
      <use xlink:href="#DejaVuSans-6e" transform="translate(675.923828 0)"/>
     </g>
    </g>
    <g id="patch_11">
     <path d="M 305.423437 38.476562 
L 325.423437 38.476562 
L 325.423437 31.476562 
L 305.423437 31.476562 
z
" style="fill: #008000; opacity: 0.3; stroke: #008000; stroke-linejoin: miter"/>
    </g>
    <g id="text_16">
     <!-- Analytical polygon (m=36) -->
     <g transform="translate(333.423437 38.476562) scale(0.1 -0.1)">
      <defs>
       <path id="DejaVuSans-41" d="M 2188 4044 
L 1331 1722 
L 3047 1722 
L 2188 4044 
z
M 1831 4666 
L 2547 4666 
L 4325 0 
L 3669 0 
L 3244 1197 
L 1141 1197 
L 716 0 
L 50 0 
L 1831 4666 
z
" transform="scale(0.015625)"/>
       <path id="DejaVuSans-79" d="M 2059 -325 
Q 1816 -950 1584 -1140 
Q 1353 -1331 966 -1331 
L 506 -1331 
L 506 -850 
L 844 -850 
Q 1081 -850 1212 -737 
Q 1344 -625 1503 -206 
L 1606 56 
L 191 3500 
L 800 3500 
L 1894 763 
L 2988 3500 
L 3597 3500 
L 2059 -325 
z
" transform="scale(0.015625)"/>
       <path id="DejaVuSans-74" d="M 1172 4494 
L 1172 3500 
L 2356 3500 
L 2356 3053 
L 1172 3053 
L 1172 1153 
Q 1172 725 1289 603 
Q 1406 481 1766 481 
L 2356 481 
L 2356 0 
L 1766 0 
Q 1100 0 847 248 
Q 594 497 594 1153 
L 594 3053 
L 172 3053 
L 172 3500 
L 594 3500 
L 594 4494 
L 1172 4494 
z
" transform="scale(0.015625)"/>
       <path id="DejaVuSans-63" d="M 3122 3366 
L 3122 2828 
Q 2878 2963 2633 3030 
Q 2388 3097 2138 3097 
Q 1578 3097 1268 2742 
Q 959 2388 959 1747 
Q 959 1106 1268 751 
Q 1578 397 2138 397 
Q 2388 397 2633 464 
Q 2878 531 3122 666 
L 3122 134 
Q 2881 22 2623 -34 
Q 2366 -91 2075 -91 
Q 1284 -91 818 406 
Q 353 903 353 1747 
Q 353 2603 823 3093 
Q 1294 3584 2113 3584 
Q 2378 3584 2631 3529 
Q 2884 3475 3122 3366 
z
" transform="scale(0.015625)"/>
       <path id="DejaVuSans-70" d="M 1159 525 
L 1159 -1331 
L 581 -1331 
L 581 3500 
L 1159 3500 
L 1159 2969 
Q 1341 3281 1617 3432 
Q 1894 3584 2278 3584 
Q 2916 3584 3314 3078 
Q 3713 2572 3713 1747 
Q 3713 922 3314 415 
Q 2916 -91 2278 -91 
Q 1894 -91 1617 61 
Q 1341 213 1159 525 
z
M 3116 1747 
Q 3116 2381 2855 2742 
Q 2594 3103 2138 3103 
Q 1681 3103 1420 2742 
Q 1159 2381 1159 1747 
Q 1159 1113 1420 752 
Q 1681 391 2138 391 
Q 2594 391 2855 752 
Q 3116 1113 3116 1747 
z
" transform="scale(0.015625)"/>
       <path id="DejaVuSans-28" d="M 1984 4856 
Q 1566 4138 1362 3434 
Q 1159 2731 1159 2009 
Q 1159 1288 1364 580 
Q 1569 -128 1984 -844 
L 1484 -844 
Q 1016 -109 783 600 
Q 550 1309 550 2009 
Q 550 2706 781 3412 
Q 1013 4119 1484 4856 
L 1984 4856 
z
" transform="scale(0.015625)"/>
       <path id="DejaVuSans-6d" d="M 3328 2828 
Q 3544 3216 3844 3400 
Q 4144 3584 4550 3584 
Q 5097 3584 5394 3201 
Q 5691 2819 5691 2113 
L 5691 0 
L 5113 0 
L 5113 2094 
Q 5113 2597 4934 2840 
Q 4756 3084 4391 3084 
Q 3944 3084 3684 2787 
Q 3425 2491 3425 1978 
L 3425 0 
L 2847 0 
L 2847 2094 
Q 2847 2600 2669 2842 
Q 2491 3084 2119 3084 
Q 1678 3084 1418 2786 
Q 1159 2488 1159 1978 
L 1159 0 
L 581 0 
L 581 3500 
L 1159 3500 
L 1159 2956 
Q 1356 3278 1631 3431 
Q 1906 3584 2284 3584 
Q 2666 3584 2933 3390 
Q 3200 3197 3328 2828 
z
" transform="scale(0.015625)"/>
       <path id="DejaVuSans-3d" d="M 678 2906 
L 4684 2906 
L 4684 2381 
L 678 2381 
L 678 2906 
z
M 678 1631 
L 4684 1631 
L 4684 1100 
L 678 1100 
L 678 1631 
z
" transform="scale(0.015625)"/>
       <path id="DejaVuSans-29" d="M 513 4856 
L 1013 4856 
Q 1481 4119 1714 3412 
Q 1947 2706 1947 2009 
Q 1947 1309 1714 600 
Q 1481 -109 1013 -844 
L 513 -844 
Q 928 -128 1133 580 
Q 1338 1288 1338 2009 
Q 1338 2731 1133 3434 
Q 928 4138 513 4856 
z
" transform="scale(0.015625)"/>
      </defs>
      <use xlink:href="#DejaVuSans-41"/>
      <use xlink:href="#DejaVuSans-6e" transform="translate(68.408203 0)"/>
      <use xlink:href="#DejaVuSans-61" transform="translate(131.787109 0)"/>
      <use xlink:href="#DejaVuSans-6c" transform="translate(193.066406 0)"/>
      <use xlink:href="#DejaVuSans-79" transform="translate(220.849609 0)"/>
      <use xlink:href="#DejaVuSans-74" transform="translate(280.029297 0)"/>
      <use xlink:href="#DejaVuSans-69" transform="translate(319.238281 0)"/>
      <use xlink:href="#DejaVuSans-63" transform="translate(347.021484 0)"/>
      <use xlink:href="#DejaVuSans-61" transform="translate(402.001953 0)"/>
      <use xlink:href="#DejaVuSans-6c" transform="translate(463.28125 0)"/>
      <use xlink:href="#DejaVuSans-20" transform="translate(491.064453 0)"/>
      <use xlink:href="#DejaVuSans-70" transform="translate(522.851562 0)"/>
      <use xlink:href="#DejaVuSans-6f" transform="translate(586.328125 0)"/>
      <use xlink:href="#DejaVuSans-6c" transform="translate(647.509766 0)"/>
      <use xlink:href="#DejaVuSans-79" transform="translate(675.292969 0)"/>
      <use xlink:href="#DejaVuSans-67" transform="translate(734.472656 0)"/>
      <use xlink:href="#DejaVuSans-6f" transform="translate(797.949219 0)"/>
      <use xlink:href="#DejaVuSans-6e" transform="translate(859.130859 0)"/>
      <use xlink:href="#DejaVuSans-20" transform="translate(922.509766 0)"/>
      <use xlink:href="#DejaVuSans-28" transform="translate(954.296875 0)"/>
      <use xlink:href="#DejaVuSans-6d" transform="translate(993.310547 0)"/>
      <use xlink:href="#DejaVuSans-3d" transform="translate(1090.722656 0)"/>
      <use xlink:href="#DejaVuSans-33" transform="translate(1174.511719 0)"/>
      <use xlink:href="#DejaVuSans-36" transform="translate(1238.134766 0)"/>
      <use xlink:href="#DejaVuSans-29" transform="translate(1301.757812 0)"/>
     </g>
    </g>
    <g id="patch_12">
     <path d="M 305.423437 53.154687 
L 325.423437 53.154687 
L 325.423437 46.154687 
L 305.423437 46.154687 
z
" style="fill: #ff0000; opacity: 0.3; stroke: #0000ff; stroke-linejoin: miter"/>
    </g>
    <g id="text_17">
     <!-- Learned region -->
     <g transform="translate(333.423437 53.154687) scale(0.1 -0.1)">
      <defs>
       <path id="DejaVuSans-4c" d="M 628 4666 
L 1259 4666 
L 1259 531 
L 3531 531 
L 3531 0 
L 628 0 
L 628 4666 
z
" transform="scale(0.015625)"/>
       <path id="DejaVuSans-64" d="M 2906 2969 
L 2906 4863 
L 3481 4863 
L 3481 0 
L 2906 0 
L 2906 525 
Q 2725 213 2448 61 
Q 2172 -91 1784 -91 
Q 1150 -91 751 415 
Q 353 922 353 1747 
Q 353 2572 751 3078 
Q 1150 3584 1784 3584 
Q 2172 3584 2448 3432 
Q 2725 3281 2906 2969 
z
M 947 1747 
Q 947 1113 1208 752 
Q 1469 391 1925 391 
Q 2381 391 2643 752 
Q 2906 1113 2906 1747 
Q 2906 2381 2643 2742 
Q 2381 3103 1925 3103 
Q 1469 3103 1208 2742 
Q 947 2381 947 1747 
z
" transform="scale(0.015625)"/>
      </defs>
      <use xlink:href="#DejaVuSans-4c"/>
      <use xlink:href="#DejaVuSans-65" transform="translate(53.962891 0)"/>
      <use xlink:href="#DejaVuSans-61" transform="translate(115.486328 0)"/>
      <use xlink:href="#DejaVuSans-72" transform="translate(176.765625 0)"/>
      <use xlink:href="#DejaVuSans-6e" transform="translate(216.128906 0)"/>
      <use xlink:href="#DejaVuSans-65" transform="translate(279.507812 0)"/>
      <use xlink:href="#DejaVuSans-64" transform="translate(341.03125 0)"/>
      <use xlink:href="#DejaVuSans-20" transform="translate(404.507812 0)"/>
      <use xlink:href="#DejaVuSans-72" transform="translate(436.294922 0)"/>
      <use xlink:href="#DejaVuSans-65" transform="translate(475.158203 0)"/>
      <use xlink:href="#DejaVuSans-67" transform="translate(536.681641 0)"/>
      <use xlink:href="#DejaVuSans-69" transform="translate(600.158203 0)"/>
      <use xlink:href="#DejaVuSans-6f" transform="translate(627.941406 0)"/>
      <use xlink:href="#DejaVuSans-6e" transform="translate(689.123047 0)"/>
     </g>
    </g>
   </g>
  </g>
 </g>
 <defs>
  <clipPath id="p2d2c999abf">
   <rect x="30.103125" y="7.2" width="446.4" height="443.52"/>
  </clipPath>
 </defs>
</svg>
