<?xml version="1.0" encoding="utf-8" standalone="no"?>
<!DOCTYPE svg PUBLIC "-//W3C//DTD SVG 1.1//EN"
  "http://www.w3.org/Graphics/SVG/1.1/DTD/svg11.dtd">
<svg xmlns:xlink="http://www.w3.org/1999/xlink" width="490.065625pt" height="474.598125pt" viewBox="0 0 490.065625 474.598125" xmlns="http://www.w3.org/2000/svg" version="1.1">
 <metadata>
  <rdf:RDF xmlns:dc="http://purl.org/dc/elements/1.1/" xmlns:cc="http://creativecommons.org/ns#" xmlns:rdf="http://www.w3.org/1999/02/22-rdf-syntax-ns#">
   <cc:Work>
    <dc:type rdf:resource="http://purl.org/dc/dcmitype/StillImage"/>
    <dc:date>2026-05-24T15:43:31.330893</dc:date>
    <dc:format>image/svg+xml</dc:format>
    <dc:creator>
     <cc:Agent>
      <dc:title>Matplotlib v3.10.6, https://matplotlib.org/</dc:title>
     </cc:Agent>
    </dc:creator>
   </cc:Work>
  </rdf:RDF>
 </metadata>
 <defs>
  <style type="text/css">*{stroke-linejoin: round; stroke-linecap: butt}</style>
 </defs>
 <g id="figure_1">
  <g id="patch_1">
   <path d="M 0 474.598125 
L 490.065625 474.598125 
L 490.065625 0 
L 0 0 
z
" style="fill: #ffffff"/>
  </g>
  <g id="axes_1">
   <g id="patch_2">
    <path d="M 36.465625 450.72 
L 482.865625 450.72 
L 482.865625 7.2 
L 36.465625 7.2 
z
" style="fill: #ffffff"/>
   </g>
   <g id="patch_3">
    <path d="M 112.124472 272.085993 
L 111.158291 321.848243 
L 110.973243 346.353874 
L 110.97808 347.085249 
L 110.992482 347.813971 
L 111.016398 348.539463 
L 111.04975 349.261627 
L 111.092464 349.98033 
L 111.144463 350.69543 
L 111.205671 351.406787 
L 111.276011 352.114261 
L 111.355409 352.817716 
L 111.443787 353.517019 
L 111.541072 354.212039 
L 111.647186 354.90265 
L 111.762057 355.588727 
L 111.885611 356.270149 
L 112.017773 356.946797 
L 112.158471 357.618556 
L 112.307633 358.285311 
L 112.465188 358.946952 
L 112.631066 359.603369 
L 112.805197 360.254454 
L 112.987513 360.900102 
L 113.177945 361.54021 
L 113.376428 362.174675 
L 113.582895 362.803395 
L 113.797282 363.426272 
L 114.019525 364.043206 
L 114.249561 364.6541 
L 114.487327 365.258857 
L 114.732764 365.857381 
L 114.98581 366.449575 
L 115.246408 367.035345 
L 115.514497 367.614596 
L 115.790022 368.187232 
L 116.072926 368.753159 
L 116.363152 369.312282 
L 116.660646 369.864506 
L 116.965354 370.409734 
L 117.277222 370.947873 
L 117.596196 371.478824 
L 117.922225 372.002491 
L 118.255256 372.518775 
L 118.595238 373.02758 
L 118.942119 373.528803 
L 119.295849 374.022346 
L 119.656377 374.508107 
L 120.023652 374.985981 
L 120.397625 375.455866 
L 120.778243 375.917656 
L 121.165457 376.371243 
L 121.559215 376.81652 
L 121.959466 377.253377 
L 122.366159 377.681701 
L 122.779241 378.101381 
L 123.198659 378.512301 
L 123.62436 378.914344 
L 124.056288 379.307393 
L 124.494389 379.691327 
L 124.938605 380.066025 
L 125.388878 380.431363 
L 125.845149 380.787215 
L 126.307356 381.133456 
L 126.775438 381.469956 
L 127.249329 381.796583 
L 127.728962 382.113207 
L 128.21427 382.419693 
L 128.70518 382.715906 
L 129.20162 383.001707 
L 129.703512 383.27696 
L 130.210779 383.541523 
L 130.723339 383.795256 
L 131.241106 384.038017 
L 131.763992 384.26966 
L 132.291905 384.490043 
L 132.82475 384.699019 
L 133.362428 384.896444 
L 133.904835 385.08217 
L 134.451865 385.256052 
L 135.003406 385.417942 
L 135.559342 385.567693 
L 136.119552 385.705161 
L 136.683912 385.830199 
L 137.252291 385.942662 
L 137.824555 386.042408 
L 138.400564 386.129295 
L 138.980173 386.203181 
L 139.563234 386.26393 
L 140.149596 386.311405 
L 140.739109 386.345473 
L 141.331651 386.366003 
L 141.927608 386.372864 
L 165.215093 386.099287 
L 202.67859 384.761023 
L 234.548782 382.9362 
L 254.174015 381.381958 
L 266.741321 380.097758 
L 282.932984 378.039893 
L 295.219189 376.202596 
L 303.268871 374.803105 
L 308.982528 373.685525 
L 309.636033 373.540728 
L 310.290685 373.380076 
L 310.946286 373.203467 
L 311.602538 373.010832 
L 312.259127 372.802115 
L 312.915724 372.577278 
L 313.571997 372.336297 
L 314.227605 372.079163 
L 314.882199 371.805886 
L 315.535426 371.51649 
L 316.186929 371.211016 
L 316.836344 370.889526 
L 317.483306 370.552096 
L 318.127446 370.198822 
L 318.768393 369.829818 
L 319.405776 369.445217 
L 320.039222 369.04517 
L 320.66836 368.629845 
L 321.292822 368.19943 
L 321.91224 367.75413 
L 322.52625 367.294168 
L 323.134493 366.819784 
L 323.736615 366.331235 
L 324.332268 365.828795 
L 324.921112 365.312752 
L 325.502812 364.78341 
L 326.077044 364.241087 
L 326.643493 363.686114 
L 327.201853 363.118835 
L 327.75183 362.539606 
L 328.293139 361.948791 
L 328.825509 361.346767 
L 329.34868 360.733919 
L 329.862406 360.110637 
L 330.366452 359.477321 
L 330.860599 358.834374 
L 331.344638 358.182204 
L 331.818377 357.521223 
L 332.281637 356.851845 
L 332.734251 356.174486 
L 333.176069 355.489561 
L 333.606952 354.797486 
L 334.026776 354.098673 
L 334.435431 353.393536 
L 334.832818 352.682481 
L 335.218854 351.965914 
L 335.593466 351.244233 
L 335.956596 350.517834 
L 336.308194 349.787104 
L 336.648227 349.052425 
L 336.976668 348.314172 
L 337.293503 347.572712 
L 337.598729 346.828405 
L 337.89235 346.081601 
L 338.174383 345.332642 
L 338.444849 344.581862 
L 338.703782 343.829585 
L 338.95122 343.076127 
L 339.18721 342.321792 
L 339.411806 341.566878 
L 339.625066 340.811671 
L 339.827057 340.056448 
L 340.017847 339.301478 
L 340.197513 338.54702 
L 340.366131 337.793331 
L 340.512683 337.095142 
L 340.605801 336.618424 
L 340.692168 336.142269 
L 340.771812 335.66645 
L 340.84484 335.191191 
L 340.930697 334.574534 
L 341.024955 333.828745 
L 341.109021 333.083972 
L 343.044514 313.574625 
L 343.108906 312.826345 
L 344.595129 289.736118 
L 344.797907 286.054578 
L 344.960172 282.458731 
L 345.460539 266.734668 
L 346.258023 228.802669 
L 346.422734 211.900544 
L 346.417888 211.16433 
L 346.063283 192.552549 
L 346.017361 191.184753 
L 345.811505 186.854211 
L 345.768407 186.129006 
L 345.715995 185.408213 
L 345.654355 184.691834 
L 345.58358 183.979985 
L 345.503761 183.272791 
L 345.414989 182.570371 
L 345.317354 181.872844 
L 345.210946 181.180322 
L 345.095853 180.492919 
L 344.972164 179.810742 
L 344.839964 179.133897 
L 344.699339 178.462486 
L 344.550373 177.796609 
L 344.39315 177.136362 
L 344.22775 176.481837 
L 344.054245 175.833093 
L 343.390852 173.468407 
L 343.215227 172.87808 
L 343.03162 172.291174 
L 342.840015 171.70772 
L 341.554624 168.002947 
L 340.301421 164.478287 
L 339.686812 162.842182 
L 339.449084 162.237521 
L 339.203883 161.639571 
L 335.771017 153.536906 
L 335.511 152.952437 
L 335.243674 152.374838 
L 334.259402 150.30185 
L 333.977851 149.738625 
L 333.689266 149.182661 
L 333.393709 148.634031 
L 333.091243 148.092813 
L 332.781931 147.559083 
L 332.465834 147.032919 
L 332.14301 146.514398 
L 331.813518 146.003598 
L 331.477414 145.500596 
L 331.134752 145.005469 
L 330.785588 144.518295 
L 330.429973 144.039152 
L 330.067957 143.56812 
L 329.699592 143.105279 
L 329.324925 142.650709 
L 328.944003 142.204491 
L 328.556873 141.766709 
L 328.163581 141.337447 
L 327.764169 140.91679 
L 327.358682 140.504826 
L 326.947161 140.101643 
L 326.529649 139.707333 
L 326.106187 139.321987 
L 325.676815 138.945702 
L 325.241572 138.578573 
L 324.8005 138.2207 
L 324.353638 137.872185 
L 323.901025 137.533131 
L 323.442701 137.203646 
L 322.978707 136.88384 
L 322.509083 136.573823 
L 322.033871 136.273713 
L 321.553113 135.983626 
L 321.066852 135.703684 
L 320.575132 135.434011 
L 320.078001 135.174735 
L 319.575507 134.925984 
L 319.067698 134.687894 
L 318.554629 134.460599 
L 318.036353 134.24424 
L 317.512929 134.038959 
L 316.984418 133.844901 
L 316.450884 133.662214 
L 315.912396 133.491048 
L 315.369026 133.331558 
L 314.820852 133.183897 
L 314.267956 133.048225 
L 313.710423 132.924701 
L 313.148348 132.813485 
L 312.581828 132.714741 
L 312.010967 132.628632 
L 311.435876 132.555323 
L 310.856671 132.494977 
L 310.273474 132.447759 
L 309.686411 132.413833 
L 309.095821 132.393331 
L 308.500928 132.38651 
L 290.796504 132.612491 
L 253.390659 134.108518 
L 215.494779 136.454742 
L 208.908187 136.975115 
L 185.684358 139.223478 
L 165.951881 141.687338 
L 150.7034 143.968395 
L 150.089744 144.075365 
L 149.474313 144.197149 
L 148.857326 144.333857 
L 148.239019 144.485591 
L 147.619638 144.652444 
L 146.999438 144.834498 
L 146.378682 145.031825 
L 145.757641 145.244487 
L 145.136592 145.472535 
L 144.515819 145.716007 
L 143.895615 145.974928 
L 143.276276 146.249312 
L 142.658104 146.539158 
L 142.041408 146.844453 
L 141.426499 147.165166 
L 140.813694 147.501256 
L 140.203313 147.852664 
L 139.595679 148.219316 
L 138.991116 148.601125 
L 138.38995 148.997985 
L 137.79251 149.409777 
L 137.199123 149.836366 
L 136.610116 150.2776 
L 136.025816 150.733312 
L 135.446546 151.203321 
L 134.872628 151.687429 
L 134.304381 152.185425 
L 133.742119 152.697081 
L 133.186152 153.222156 
L 132.636785 153.760397 
L 132.094315 154.311534 
L 131.559036 154.875288 
L 131.031232 155.451366 
L 130.51118 156.039462 
L 129.99915 156.639264 
L 129.495402 157.250444 
L 129.000186 157.872669 
L 128.513744 158.505594 
L 128.036309 159.14887 
L 127.568101 159.802137 
L 127.109332 160.465031 
L 126.6602 161.137181 
L 126.220897 161.818213 
L 125.791598 162.507748 
L 125.372471 163.205403 
L 124.963672 163.910795 
L 124.565345 164.623536 
L 124.177621 165.343241 
L 123.800624 166.069521 
L 123.434462 166.801991 
L 123.079236 167.540265 
L 122.735033 168.28396 
L 122.401931 169.032694 
L 122.079997 169.786089 
L 121.769289 170.543772 
L 121.469852 171.305371 
L 121.181725 172.070522 
L 120.904933 172.838863 
L 120.639497 173.61004 
L 120.385426 174.383703 
L 120.14272 175.159509 
L 119.911373 175.937121 
L 119.69137 176.71621 
L 119.48269 177.496453 
L 119.285302 178.277534 
L 119.099172 179.059144 
L 118.924257 179.840985 
L 118.760509 180.622762 
L 118.607875 181.404191 
L 118.466295 182.184996 
L 118.335707 182.964911 
L 118.21604 183.74368 
L 118.107218 184.521094 
L 117.844137 186.650282 
L 117.274193 191.745378 
L 116.108547 203.436629 
L 115.048541 215.943118 
L 113.867219 232.244992 
L 112.958486 247.339575 
L 112.839215 250.014699 
z
" clip-path="url(#p25cb61a0c9)" style="fill: #0000ff; opacity: 0.3; stroke: #0000ff; stroke-linejoin: miter"/>
   </g>
   <g id="patch_4">
    <path d="M 110.973228 346.354384 
L 111.443762 353.517152 
L 112.805172 360.254529 
L 114.985785 366.449628 
L 117.922196 372.002533 
L 121.559182 376.816557 
L 125.845107 380.787249 
L 130.723282 383.795289 
L 136.119452 385.705194 
L 141.926367 386.372921 
L 309.636262 373.540732 
L 316.187 371.211042 
L 322.526295 367.294198 
L 328.293174 361.948825 
L 333.176099 355.489602 
L 336.976694 348.314225 
L 339.62509 340.811748 
L 340.93071 334.574759 
L 346.422776 211.900035 
L 345.415017 182.570256 
L 344.054298 175.833123 
L 335.771036 153.536836 
L 332.143034 146.514348 
L 328.556903 141.766668 
L 324.353675 137.872148 
L 319.575558 134.92595 
L 314.268045 133.048189 
L 308.501674 132.386454 
L 148.85717 144.333836 
L 142.658038 146.539131 
L 136.610072 150.277568 
L 131.031198 155.45133 
L 126.220868 161.81817 
L 122.401907 169.032637 
L 119.69135 176.716118 
L 118.107221 184.520746 
z
" clip-path="url(#p25cb61a0c9)" style="fill: #008000; opacity: 0.3; stroke: #008000; stroke-linejoin: miter"/>
   </g>
   <g id="patch_5">
    <path d="M 114.783419 355.651502 
L 118.05677 367.640278 
L 130.675013 381.613051 
L 270.825327 377.605392 
L 316.160121 366.793172 
L 332.362939 348.443888 
L 338.879864 295.229915 
L 339.014548 165.118806 
L 321.744316 137.855547 
L 203.127004 139.731191 
L 137.168163 153.451483 
L 132.744933 156.792321 
L 123.588151 171.099292 
L 116.862513 220.808848 
z
" clip-path="url(#p25cb61a0c9)" style="fill: #ff0000; opacity: 0.3; stroke: #0000ff; stroke-linejoin: miter"/>
   </g>
   <g id="matplotlib.axis_1">
    <g id="xtick_1">
     <g id="line2d_1">
      <defs>
       <path id="mc23da81e2a" d="M 0 0 
L 0 3.5 
" style="stroke: #000000; stroke-width: 0.8"/>
      </defs>
      <g>
       <use xlink:href="#mc23da81e2a" x="91.582333" y="450.72" style="stroke: #000000; stroke-width: 0.8"/>
      </g>
     </g>
     <g id="text_1">
      <!-- 1.5 -->
      <g transform="translate(83.63077 465.318437) scale(0.1 -0.1)">
       <defs>
        <path id="DejaVuSans-31" d="M 794 531 
L 1825 531 
L 1825 4091 
L 703 3866 
L 703 4441 
L 1819 4666 
L 2450 4666 
L 2450 531 
L 3481 531 
L 3481 0 
L 794 0 
L 794 531 
z
" transform="scale(0.015625)"/>
        <path id="DejaVuSans-2e" d="M 684 794 
L 1344 794 
L 1344 0 
L 684 0 
L 684 794 
z
" transform="scale(0.015625)"/>
        <path id="DejaVuSans-35" d="M 691 4666 
L 3169 4666 
L 3169 4134 
L 1269 4134 
L 1269 2991 
Q 1406 3038 1543 3061 
Q 1681 3084 1819 3084 
Q 2600 3084 3056 2656 
Q 3513 2228 3513 1497 
Q 3513 744 3044 326 
Q 2575 -91 1722 -91 
Q 1428 -91 1123 -41 
Q 819 9 494 109 
L 494 744 
Q 775 591 1075 516 
Q 1375 441 1709 441 
Q 2250 441 2565 725 
Q 2881 1009 2881 1497 
Q 2881 1984 2565 2268 
Q 2250 2553 1709 2553 
Q 1456 2553 1204 2497 
Q 953 2441 691 2322 
L 691 4666 
z
" transform="scale(0.015625)"/>
       </defs>
       <use xlink:href="#DejaVuSans-31"/>
       <use xlink:href="#DejaVuSans-2e" transform="translate(63.623047 0)"/>
       <use xlink:href="#DejaVuSans-35" transform="translate(95.410156 0)"/>
      </g>
     </g>
    </g>
    <g id="xtick_2">
     <g id="line2d_2">
      <g>
       <use xlink:href="#mc23da81e2a" x="167.185338" y="450.72" style="stroke: #000000; stroke-width: 0.8"/>
      </g>
     </g>
     <g id="text_2">
      <!-- 2.0 -->
      <g transform="translate(159.233775 465.318437) scale(0.1 -0.1)">
       <defs>
        <path id="DejaVuSans-32" d="M 1228 531 
L 3431 531 
L 3431 0 
L 469 0 
L 469 531 
Q 828 903 1448 1529 
Q 2069 2156 2228 2338 
Q 2531 2678 2651 2914 
Q 2772 3150 2772 3378 
Q 2772 3750 2511 3984 
Q 2250 4219 1831 4219 
Q 1534 4219 1204 4116 
Q 875 4013 500 3803 
L 500 4441 
Q 881 4594 1212 4672 
Q 1544 4750 1819 4750 
Q 2544 4750 2975 4387 
Q 3406 4025 3406 3419 
Q 3406 3131 3298 2873 
Q 3191 2616 2906 2266 
Q 2828 2175 2409 1742 
Q 1991 1309 1228 531 
z
" transform="scale(0.015625)"/>
        <path id="DejaVuSans-30" d="M 2034 4250 
Q 1547 4250 1301 3770 
Q 1056 3291 1056 2328 
Q 1056 1369 1301 889 
Q 1547 409 2034 409 
Q 2525 409 2770 889 
Q 3016 1369 3016 2328 
Q 3016 3291 2770 3770 
Q 2525 4250 2034 4250 
z
M 2034 4750 
Q 2819 4750 3233 4129 
Q 3647 3509 3647 2328 
Q 3647 1150 3233 529 
Q 2819 -91 2034 -91 
Q 1250 -91 836 529 
Q 422 1150 422 2328 
Q 422 3509 836 4129 
Q 1250 4750 2034 4750 
z
" transform="scale(0.015625)"/>
       </defs>
       <use xlink:href="#DejaVuSans-32"/>
       <use xlink:href="#DejaVuSans-2e" transform="translate(63.623047 0)"/>
       <use xlink:href="#DejaVuSans-30" transform="translate(95.410156 0)"/>
      </g>
     </g>
    </g>
    <g id="xtick_3">
     <g id="line2d_3">
      <g>
       <use xlink:href="#mc23da81e2a" x="242.788343" y="450.72" style="stroke: #000000; stroke-width: 0.8"/>
      </g>
     </g>
     <g id="text_3">
      <!-- 2.5 -->
      <g transform="translate(234.83678 465.318437) scale(0.1 -0.1)">
       <use xlink:href="#DejaVuSans-32"/>
       <use xlink:href="#DejaVuSans-2e" transform="translate(63.623047 0)"/>
       <use xlink:href="#DejaVuSans-35" transform="translate(95.410156 0)"/>
      </g>
     </g>
    </g>
    <g id="xtick_4">
     <g id="line2d_4">
      <g>
       <use xlink:href="#mc23da81e2a" x="318.391348" y="450.72" style="stroke: #000000; stroke-width: 0.8"/>
      </g>
     </g>
     <g id="text_4">
      <!-- 3.0 -->
      <g transform="translate(310.439785 465.318437) scale(0.1 -0.1)">
       <defs>
        <path id="DejaVuSans-33" d="M 2597 2516 
Q 3050 2419 3304 2112 
Q 3559 1806 3559 1356 
Q 3559 666 3084 287 
Q 2609 -91 1734 -91 
Q 1441 -91 1130 -33 
Q 819 25 488 141 
L 488 750 
Q 750 597 1062 519 
Q 1375 441 1716 441 
Q 2309 441 2620 675 
Q 2931 909 2931 1356 
Q 2931 1769 2642 2001 
Q 2353 2234 1838 2234 
L 1294 2234 
L 1294 2753 
L 1863 2753 
Q 2328 2753 2575 2939 
Q 2822 3125 2822 3475 
Q 2822 3834 2567 4026 
Q 2313 4219 1838 4219 
Q 1578 4219 1281 4162 
Q 984 4106 628 3988 
L 628 4550 
Q 988 4650 1302 4700 
Q 1616 4750 1894 4750 
Q 2613 4750 3031 4423 
Q 3450 4097 3450 3541 
Q 3450 3153 3228 2886 
Q 3006 2619 2597 2516 
z
" transform="scale(0.015625)"/>
       </defs>
       <use xlink:href="#DejaVuSans-33"/>
       <use xlink:href="#DejaVuSans-2e" transform="translate(63.623047 0)"/>
       <use xlink:href="#DejaVuSans-30" transform="translate(95.410156 0)"/>
      </g>
     </g>
    </g>
    <g id="xtick_5">
     <g id="line2d_5">
      <g>
       <use xlink:href="#mc23da81e2a" x="393.994353" y="450.72" style="stroke: #000000; stroke-width: 0.8"/>
      </g>
     </g>
     <g id="text_5">
      <!-- 3.5 -->
      <g transform="translate(386.04279 465.318437) scale(0.1 -0.1)">
       <use xlink:href="#DejaVuSans-33"/>
       <use xlink:href="#DejaVuSans-2e" transform="translate(63.623047 0)"/>
       <use xlink:href="#DejaVuSans-35" transform="translate(95.410156 0)"/>
      </g>
     </g>
    </g>
    <g id="xtick_6">
     <g id="line2d_6">
      <g>
       <use xlink:href="#mc23da81e2a" x="469.597358" y="450.72" style="stroke: #000000; stroke-width: 0.8"/>
      </g>
     </g>
     <g id="text_6">
      <!-- 4.0 -->
      <g transform="translate(461.645796 465.318437) scale(0.1 -0.1)">
       <defs>
        <path id="DejaVuSans-34" d="M 2419 4116 
L 825 1625 
L 2419 1625 
L 2419 4116 
z
M 2253 4666 
L 3047 4666 
L 3047 1625 
L 3713 1625 
L 3713 1100 
L 3047 1100 
L 3047 0 
L 2419 0 
L 2419 1100 
L 313 1100 
L 313 1709 
L 2253 4666 
z
" transform="scale(0.015625)"/>
       </defs>
       <use xlink:href="#DejaVuSans-34"/>
       <use xlink:href="#DejaVuSans-2e" transform="translate(63.623047 0)"/>
       <use xlink:href="#DejaVuSans-30" transform="translate(95.410156 0)"/>
      </g>
     </g>
    </g>
   </g>
   <g id="matplotlib.axis_2">
    <g id="ytick_1">
     <g id="line2d_7">
      <defs>
       <path id="m59f2346f80" d="M 0 0 
L -3.5 0 
" style="stroke: #000000; stroke-width: 0.8"/>
      </defs>
      <g>
       <use xlink:href="#m59f2346f80" x="36.465625" y="421.100479" style="stroke: #000000; stroke-width: 0.8"/>
      </g>
     </g>
     <g id="text_7">
      <!-- 1.00 -->
      <g transform="translate(7.2 424.899697) scale(0.1 -0.1)">
       <use xlink:href="#DejaVuSans-31"/>
       <use xlink:href="#DejaVuSans-2e" transform="translate(63.623047 0)"/>
       <use xlink:href="#DejaVuSans-30" transform="translate(95.410156 0)"/>
       <use xlink:href="#DejaVuSans-30" transform="translate(159.033203 0)"/>
      </g>
     </g>
    </g>
    <g id="ytick_2">
     <g id="line2d_8">
      <g>
       <use xlink:href="#m59f2346f80" x="36.465625" y="371.049444" style="stroke: #000000; stroke-width: 0.8"/>
      </g>
     </g>
     <g id="text_8">
      <!-- 1.25 -->
      <g transform="translate(7.2 374.848663) scale(0.1 -0.1)">
       <use xlink:href="#DejaVuSans-31"/>
       <use xlink:href="#DejaVuSans-2e" transform="translate(63.623047 0)"/>
       <use xlink:href="#DejaVuSans-32" transform="translate(95.410156 0)"/>
       <use xlink:href="#DejaVuSans-35" transform="translate(159.033203 0)"/>
      </g>
     </g>
    </g>
    <g id="ytick_3">
     <g id="line2d_9">
      <g>
       <use xlink:href="#m59f2346f80" x="36.465625" y="320.99841" style="stroke: #000000; stroke-width: 0.8"/>
      </g>
     </g>
     <g id="text_9">
      <!-- 1.50 -->
      <g transform="translate(7.2 324.797629) scale(0.1 -0.1)">
       <use xlink:href="#DejaVuSans-31"/>
       <use xlink:href="#DejaVuSans-2e" transform="translate(63.623047 0)"/>
       <use xlink:href="#DejaVuSans-35" transform="translate(95.410156 0)"/>
       <use xlink:href="#DejaVuSans-30" transform="translate(159.033203 0)"/>
      </g>
     </g>
    </g>
    <g id="ytick_4">
     <g id="line2d_10">
      <g>
       <use xlink:href="#m59f2346f80" x="36.465625" y="270.947376" style="stroke: #000000; stroke-width: 0.8"/>
      </g>
     </g>
     <g id="text_10">
      <!-- 1.75 -->
      <g transform="translate(7.2 274.746595) scale(0.1 -0.1)">
       <defs>
        <path id="DejaVuSans-37" d="M 525 4666 
L 3525 4666 
L 3525 4397 
L 1831 0 
L 1172 0 
L 2766 4134 
L 525 4134 
L 525 4666 
z
" transform="scale(0.015625)"/>
       </defs>
       <use xlink:href="#DejaVuSans-31"/>
       <use xlink:href="#DejaVuSans-2e" transform="translate(63.623047 0)"/>
       <use xlink:href="#DejaVuSans-37" transform="translate(95.410156 0)"/>
       <use xlink:href="#DejaVuSans-35" transform="translate(159.033203 0)"/>
      </g>
     </g>
    </g>
    <g id="ytick_5">
     <g id="line2d_11">
      <g>
       <use xlink:href="#m59f2346f80" x="36.465625" y="220.896342" style="stroke: #000000; stroke-width: 0.8"/>
      </g>
     </g>
     <g id="text_11">
      <!-- 2.00 -->
      <g transform="translate(7.2 224.695561) scale(0.1 -0.1)">
       <use xlink:href="#DejaVuSans-32"/>
       <use xlink:href="#DejaVuSans-2e" transform="translate(63.623047 0)"/>
       <use xlink:href="#DejaVuSans-30" transform="translate(95.410156 0)"/>
       <use xlink:href="#DejaVuSans-30" transform="translate(159.033203 0)"/>
      </g>
     </g>
    </g>
    <g id="ytick_6">
     <g id="line2d_12">
      <g>
       <use xlink:href="#m59f2346f80" x="36.465625" y="170.845308" style="stroke: #000000; stroke-width: 0.8"/>
      </g>
     </g>
     <g id="text_12">
      <!-- 2.25 -->
      <g transform="translate(7.2 174.644527) scale(0.1 -0.1)">
       <use xlink:href="#DejaVuSans-32"/>
       <use xlink:href="#DejaVuSans-2e" transform="translate(63.623047 0)"/>
       <use xlink:href="#DejaVuSans-32" transform="translate(95.410156 0)"/>
       <use xlink:href="#DejaVuSans-35" transform="translate(159.033203 0)"/>
      </g>
     </g>
    </g>
    <g id="ytick_7">
     <g id="line2d_13">
      <g>
       <use xlink:href="#m59f2346f80" x="36.465625" y="120.794274" style="stroke: #000000; stroke-width: 0.8"/>
      </g>
     </g>
     <g id="text_13">
      <!-- 2.50 -->
      <g transform="translate(7.2 124.593492) scale(0.1 -0.1)">
       <use xlink:href="#DejaVuSans-32"/>
       <use xlink:href="#DejaVuSans-2e" transform="translate(63.623047 0)"/>
       <use xlink:href="#DejaVuSans-35" transform="translate(95.410156 0)"/>
       <use xlink:href="#DejaVuSans-30" transform="translate(159.033203 0)"/>
      </g>
     </g>
    </g>
    <g id="ytick_8">
     <g id="line2d_14">
      <g>
       <use xlink:href="#m59f2346f80" x="36.465625" y="70.743239" style="stroke: #000000; stroke-width: 0.8"/>
      </g>
     </g>
     <g id="text_14">
      <!-- 2.75 -->
      <g transform="translate(7.2 74.542458) scale(0.1 -0.1)">
       <use xlink:href="#DejaVuSans-32"/>
       <use xlink:href="#DejaVuSans-2e" transform="translate(63.623047 0)"/>
       <use xlink:href="#DejaVuSans-37" transform="translate(95.410156 0)"/>
       <use xlink:href="#DejaVuSans-35" transform="translate(159.033203 0)"/>
      </g>
     </g>
    </g>
    <g id="ytick_9">
     <g id="line2d_15">
      <g>
       <use xlink:href="#m59f2346f80" x="36.465625" y="20.692205" style="stroke: #000000; stroke-width: 0.8"/>
      </g>
     </g>
     <g id="text_15">
      <!-- 3.00 -->
      <g transform="translate(7.2 24.491424) scale(0.1 -0.1)">
       <use xlink:href="#DejaVuSans-33"/>
       <use xlink:href="#DejaVuSans-2e" transform="translate(63.623047 0)"/>
       <use xlink:href="#DejaVuSans-30" transform="translate(95.410156 0)"/>
       <use xlink:href="#DejaVuSans-30" transform="translate(159.033203 0)"/>
      </g>
     </g>
    </g>
   </g>
   <g id="patch_6">
    <path d="M 36.465625 450.72 
L 36.465625 7.2 
" style="fill: none; stroke: #000000; stroke-width: 0.8; stroke-linejoin: miter; stroke-linecap: square"/>
   </g>
   <g id="patch_7">
    <path d="M 482.865625 450.72 
L 482.865625 7.2 
" style="fill: none; stroke: #000000; stroke-width: 0.8; stroke-linejoin: miter; stroke-linecap: square"/>
   </g>
   <g id="patch_8">
    <path d="M 36.465625 450.72 
L 482.865625 450.72 
" style="fill: none; stroke: #000000; stroke-width: 0.8; stroke-linejoin: miter; stroke-linecap: square"/>
   </g>
   <g id="patch_9">
    <path d="M 36.465625 7.2 
L 482.865625 7.2 
" style="fill: none; stroke: #000000; stroke-width: 0.8; stroke-linejoin: miter; stroke-linecap: square"/>
   </g>
   <g id="legend_1">
    <g id="patch_10">
     <path d="M 311.785937 23.798437 
L 331.785937 23.798437 
L 331.785937 16.798437 
L 311.785937 16.798437 
z
" style="fill: #0000ff; opacity: 0.3; stroke: #0000ff; stroke-linejoin: miter"/>
    </g>
    <g id="text_16">
     <!-- Original region -->
     <g transform="translate(339.785937 23.798437) scale(0.1 -0.1)">
      <defs>
       <path id="DejaVuSans-4f" d="M 2522 4238 
Q 1834 4238 1429 3725 
Q 1025 3213 1025 2328 
Q 1025 1447 1429 934 
Q 1834 422 2522 422 
Q 3209 422 3611 934 
Q 4013 1447 4013 2328 
Q 4013 3213 3611 3725 
Q 3209 4238 2522 4238 
z
M 2522 4750 
Q 3503 4750 4090 4092 
Q 4678 3434 4678 2328 
Q 4678 1225 4090 567 
Q 3503 -91 2522 -91 
Q 1538 -91 948 565 
Q 359 1222 359 2328 
Q 359 3434 948 4092 
Q 1538 4750 2522 4750 
z
" transform="scale(0.015625)"/>
       <path id="DejaVuSans-72" d="M 2631 2963 
Q 2534 3019 2420 3045 
Q 2306 3072 2169 3072 
Q 1681 3072 1420 2755 
Q 1159 2438 1159 1844 
L 1159 0 
L 581 0 
L 581 3500 
L 1159 3500 
L 1159 2956 
Q 1341 3275 1631 3429 
Q 1922 3584 2338 3584 
Q 2397 3584 2469 3576 
Q 2541 3569 2628 3553 
L 2631 2963 
z
" transform="scale(0.015625)"/>
       <path id="DejaVuSans-69" d="M 603 3500 
L 1178 3500 
L 1178 0 
L 603 0 
L 603 3500 
z
M 603 4863 
L 1178 4863 
L 1178 4134 
L 603 4134 
L 603 4863 
z
" transform="scale(0.015625)"/>
       <path id="DejaVuSans-67" d="M 2906 1791 
Q 2906 2416 2648 2759 
Q 2391 3103 1925 3103 
Q 1463 3103 1205 2759 
Q 947 2416 947 1791 
Q 947 1169 1205 825 
Q 1463 481 1925 481 
Q 2391 481 2648 825 
Q 2906 1169 2906 1791 
z
M 3481 434 
Q 3481 -459 3084 -895 
Q 2688 -1331 1869 -1331 
Q 1566 -1331 1297 -1286 
Q 1028 -1241 775 -1147 
L 775 -588 
Q 1028 -725 1275 -790 
Q 1522 -856 1778 -856 
Q 2344 -856 2625 -561 
Q 2906 -266 2906 331 
L 2906 616 
Q 2728 306 2450 153 
Q 2172 0 1784 0 
Q 1141 0 747 490 
Q 353 981 353 1791 
Q 353 2603 747 3093 
Q 1141 3584 1784 3584 
Q 2172 3584 2450 3431 
Q 2728 3278 2906 2969 
L 2906 3500 
L 3481 3500 
L 3481 434 
z
" transform="scale(0.015625)"/>
       <path id="DejaVuSans-6e" d="M 3513 2113 
L 3513 0 
L 2938 0 
L 2938 2094 
Q 2938 2591 2744 2837 
Q 2550 3084 2163 3084 
Q 1697 3084 1428 2787 
Q 1159 2491 1159 1978 
L 1159 0 
L 581 0 
L 581 3500 
L 1159 3500 
L 1159 2956 
Q 1366 3272 1645 3428 
Q 1925 3584 2291 3584 
Q 2894 3584 3203 3211 
Q 3513 2838 3513 2113 
z
" transform="scale(0.015625)"/>
       <path id="DejaVuSans-61" d="M 2194 1759 
Q 1497 1759 1228 1600 
Q 959 1441 959 1056 
Q 959 750 1161 570 
Q 1363 391 1709 391 
Q 2188 391 2477 730 
Q 2766 1069 2766 1631 
L 2766 1759 
L 2194 1759 
z
M 3341 1997 
L 3341 0 
L 2766 0 
L 2766 531 
Q 2569 213 2275 61 
Q 1981 -91 1556 -91 
Q 1019 -91 701 211 
Q 384 513 384 1019 
Q 384 1609 779 1909 
Q 1175 2209 1959 2209 
L 2766 2209 
L 2766 2266 
Q 2766 2663 2505 2880 
Q 2244 3097 1772 3097 
Q 1472 3097 1187 3025 
Q 903 2953 641 2809 
L 641 3341 
Q 956 3463 1253 3523 
Q 1550 3584 1831 3584 
Q 2591 3584 2966 3190 
Q 3341 2797 3341 1997 
z
" transform="scale(0.015625)"/>
       <path id="DejaVuSans-6c" d="M 603 4863 
L 1178 4863 
L 1178 0 
L 603 0 
L 603 4863 
z
" transform="scale(0.015625)"/>
       <path id="DejaVuSans-20" transform="scale(0.015625)"/>
       <path id="DejaVuSans-65" d="M 3597 1894 
L 3597 1613 
L 953 1613 
Q 991 1019 1311 708 
Q 1631 397 2203 397 
Q 2534 397 2845 478 
Q 3156 559 3463 722 
L 3463 178 
Q 3153 47 2828 -22 
Q 2503 -91 2169 -91 
Q 1331 -91 842 396 
Q 353 884 353 1716 
Q 353 2575 817 3079 
Q 1281 3584 2069 3584 
Q 2775 3584 3186 3129 
Q 3597 2675 3597 1894 
z
M 3022 2063 
Q 3016 2534 2758 2815 
Q 2500 3097 2075 3097 
Q 1594 3097 1305 2825 
Q 1016 2553 972 2059 
L 3022 2063 
z
" transform="scale(0.015625)"/>
       <path id="DejaVuSans-6f" d="M 1959 3097 
Q 1497 3097 1228 2736 
Q 959 2375 959 1747 
Q 959 1119 1226 758 
Q 1494 397 1959 397 
Q 2419 397 2687 759 
Q 2956 1122 2956 1747 
Q 2956 2369 2687 2733 
Q 2419 3097 1959 3097 
z
M 1959 3584 
Q 2709 3584 3137 3096 
Q 3566 2609 3566 1747 
Q 3566 888 3137 398 
Q 2709 -91 1959 -91 
Q 1206 -91 779 398 
Q 353 888 353 1747 
Q 353 2609 779 3096 
Q 1206 3584 1959 3584 
z
" transform="scale(0.015625)"/>
      </defs>
      <use xlink:href="#DejaVuSans-4f"/>
      <use xlink:href="#DejaVuSans-72" transform="translate(78.710938 0)"/>
      <use xlink:href="#DejaVuSans-69" transform="translate(119.824219 0)"/>
      <use xlink:href="#DejaVuSans-67" transform="translate(147.607422 0)"/>
      <use xlink:href="#DejaVuSans-69" transform="translate(211.083984 0)"/>
      <use xlink:href="#DejaVuSans-6e" transform="translate(238.867188 0)"/>
      <use xlink:href="#DejaVuSans-61" transform="translate(302.246094 0)"/>
      <use xlink:href="#DejaVuSans-6c" transform="translate(363.525391 0)"/>
      <use xlink:href="#DejaVuSans-20" transform="translate(391.308594 0)"/>
      <use xlink:href="#DejaVuSans-72" transform="translate(423.095703 0)"/>
      <use xlink:href="#DejaVuSans-65" transform="translate(461.958984 0)"/>
      <use xlink:href="#DejaVuSans-67" transform="translate(523.482422 0)"/>
      <use xlink:href="#DejaVuSans-69" transform="translate(586.958984 0)"/>
      <use xlink:href="#DejaVuSans-6f" transform="translate(614.742188 0)"/>
      <use xlink:href="#DejaVuSans-6e" transform="translate(675.923828 0)"/>
     </g>
    </g>
    <g id="patch_11">
     <path d="M 311.785937 38.476562 
L 331.785937 38.476562 
L 331.785937 31.476562 
L 311.785937 31.476562 
z
" style="fill: #008000; opacity: 0.3; stroke: #008000; stroke-linejoin: miter"/>
    </g>
    <g id="text_17">
     <!-- Analytical polygon (m=36) -->
     <g transform="translate(339.785937 38.476562) scale(0.1 -0.1)">
      <defs>
       <path id="DejaVuSans-41" d="M 2188 4044 
L 1331 1722 
L 3047 1722 
L 2188 4044 
z
M 1831 4666 
L 2547 4666 
L 4325 0 
L 3669 0 
L 3244 1197 
L 1141 1197 
L 716 0 
L 50 0 
L 1831 4666 
z
" transform="scale(0.015625)"/>
       <path id="DejaVuSans-79" d="M 2059 -325 
Q 1816 -950 1584 -1140 
Q 1353 -1331 966 -1331 
L 506 -1331 
L 506 -850 
L 844 -850 
Q 1081 -850 1212 -737 
Q 1344 -625 1503 -206 
L 1606 56 
L 191 3500 
L 800 3500 
L 1894 763 
L 2988 3500 
L 3597 3500 
L 2059 -325 
z
" transform="scale(0.015625)"/>
       <path id="DejaVuSans-74" d="M 1172 4494 
L 1172 3500 
L 2356 3500 
L 2356 3053 
L 1172 3053 
L 1172 1153 
Q 1172 725 1289 603 
Q 1406 481 1766 481 
L 2356 481 
L 2356 0 
L 1766 0 
Q 1100 0 847 248 
Q 594 497 594 1153 
L 594 3053 
L 172 3053 
L 172 3500 
L 594 3500 
L 594 4494 
L 1172 4494 
z
" transform="scale(0.015625)"/>
       <path id="DejaVuSans-63" d="M 3122 3366 
L 3122 2828 
Q 2878 2963 2633 3030 
Q 2388 3097 2138 3097 
Q 1578 3097 1268 2742 
Q 959 2388 959 1747 
Q 959 1106 1268 751 
Q 1578 397 2138 397 
Q 2388 397 2633 464 
Q 2878 531 3122 666 
L 3122 134 
Q 2881 22 2623 -34 
Q 2366 -91 2075 -91 
Q 1284 -91 818 406 
Q 353 903 353 1747 
Q 353 2603 823 3093 
Q 1294 3584 2113 3584 
Q 2378 3584 2631 3529 
Q 2884 3475 3122 3366 
z
" transform="scale(0.015625)"/>
       <path id="DejaVuSans-70" d="M 1159 525 
L 1159 -1331 
L 581 -1331 
L 581 3500 
L 1159 3500 
L 1159 2969 
Q 1341 3281 1617 3432 
Q 1894 3584 2278 3584 
Q 2916 3584 3314 3078 
Q 3713 2572 3713 1747 
Q 3713 922 3314 415 
Q 2916 -91 2278 -91 
Q 1894 -91 1617 61 
Q 1341 213 1159 525 
z
M 3116 1747 
Q 3116 2381 2855 2742 
Q 2594 3103 2138 3103 
Q 1681 3103 1420 2742 
Q 1159 2381 1159 1747 
Q 1159 1113 1420 752 
Q 1681 391 2138 391 
Q 2594 391 2855 752 
Q 3116 1113 3116 1747 
z
" transform="scale(0.015625)"/>
       <path id="DejaVuSans-28" d="M 1984 4856 
Q 1566 4138 1362 3434 
Q 1159 2731 1159 2009 
Q 1159 1288 1364 580 
Q 1569 -128 1984 -844 
L 1484 -844 
Q 1016 -109 783 600 
Q 550 1309 550 2009 
Q 550 2706 781 3412 
Q 1013 4119 1484 4856 
L 1984 4856 
z
" transform="scale(0.015625)"/>
       <path id="DejaVuSans-6d" d="M 3328 2828 
Q 3544 3216 3844 3400 
Q 4144 3584 4550 3584 
Q 5097 3584 5394 3201 
Q 5691 2819 5691 2113 
L 5691 0 
L 5113 0 
L 5113 2094 
Q 5113 2597 4934 2840 
Q 4756 3084 4391 3084 
Q 3944 3084 3684 2787 
Q 3425 2491 3425 1978 
L 3425 0 
L 2847 0 
L 2847 2094 
Q 2847 2600 2669 2842 
Q 2491 3084 2119 3084 
Q 1678 3084 1418 2786 
Q 1159 2488 1159 1978 
L 1159 0 
L 581 0 
L 581 3500 
L 1159 3500 
L 1159 2956 
Q 1356 3278 1631 3431 
Q 1906 3584 2284 3584 
Q 2666 3584 2933 3390 
Q 3200 3197 3328 2828 
z
" transform="scale(0.015625)"/>
       <path id="DejaVuSans-3d" d="M 678 2906 
L 4684 2906 
L 4684 2381 
L 678 2381 
L 678 2906 
z
M 678 1631 
L 4684 1631 
L 4684 1100 
L 678 1100 
L 678 1631 
z
" transform="scale(0.015625)"/>
       <path id="DejaVuSans-36" d="M 2113 2584 
Q 1688 2584 1439 2293 
Q 1191 2003 1191 1497 
Q 1191 994 1439 701 
Q 1688 409 2113 409 
Q 2538 409 2786 701 
Q 3034 994 3034 1497 
Q 3034 2003 2786 2293 
Q 2538 2584 2113 2584 
z
M 3366 4563 
L 3366 3988 
Q 3128 4100 2886 4159 
Q 2644 4219 2406 4219 
Q 1781 4219 1451 3797 
Q 1122 3375 1075 2522 
Q 1259 2794 1537 2939 
Q 1816 3084 2150 3084 
Q 2853 3084 3261 2657 
Q 3669 2231 3669 1497 
Q 3669 778 3244 343 
Q 2819 -91 2113 -91 
Q 1303 -91 875 529 
Q 447 1150 447 2328 
Q 447 3434 972 4092 
Q 1497 4750 2381 4750 
Q 2619 4750 2861 4703 
Q 3103 4656 3366 4563 
z
" transform="scale(0.015625)"/>
       <path id="DejaVuSans-29" d="M 513 4856 
L 1013 4856 
Q 1481 4119 1714 3412 
Q 1947 2706 1947 2009 
Q 1947 1309 1714 600 
Q 1481 -109 1013 -844 
L 513 -844 
Q 928 -128 1133 580 
Q 1338 1288 1338 2009 
Q 1338 2731 1133 3434 
Q 928 4138 513 4856 
z
" transform="scale(0.015625)"/>
      </defs>
      <use xlink:href="#DejaVuSans-41"/>
      <use xlink:href="#DejaVuSans-6e" transform="translate(68.408203 0)"/>
      <use xlink:href="#DejaVuSans-61" transform="translate(131.787109 0)"/>
      <use xlink:href="#DejaVuSans-6c" transform="translate(193.066406 0)"/>
      <use xlink:href="#DejaVuSans-79" transform="translate(220.849609 0)"/>
      <use xlink:href="#DejaVuSans-74" transform="translate(280.029297 0)"/>
      <use xlink:href="#DejaVuSans-69" transform="translate(319.238281 0)"/>
      <use xlink:href="#DejaVuSans-63" transform="translate(347.021484 0)"/>
      <use xlink:href="#DejaVuSans-61" transform="translate(402.001953 0)"/>
      <use xlink:href="#DejaVuSans-6c" transform="translate(463.28125 0)"/>
      <use xlink:href="#DejaVuSans-20" transform="translate(491.064453 0)"/>
      <use xlink:href="#DejaVuSans-70" transform="translate(522.851562 0)"/>
      <use xlink:href="#DejaVuSans-6f" transform="translate(586.328125 0)"/>
      <use xlink:href="#DejaVuSans-6c" transform="translate(647.509766 0)"/>
      <use xlink:href="#DejaVuSans-79" transform="translate(675.292969 0)"/>
      <use xlink:href="#DejaVuSans-67" transform="translate(734.472656 0)"/>
      <use xlink:href="#DejaVuSans-6f" transform="translate(797.949219 0)"/>
      <use xlink:href="#DejaVuSans-6e" transform="translate(859.130859 0)"/>
      <use xlink:href="#DejaVuSans-20" transform="translate(922.509766 0)"/>
      <use xlink:href="#DejaVuSans-28" transform="translate(954.296875 0)"/>
      <use xlink:href="#DejaVuSans-6d" transform="translate(993.310547 0)"/>
      <use xlink:href="#DejaVuSans-3d" transform="translate(1090.722656 0)"/>
      <use xlink:href="#DejaVuSans-33" transform="translate(1174.511719 0)"/>
      <use xlink:href="#DejaVuSans-36" transform="translate(1238.134766 0)"/>
      <use xlink:href="#DejaVuSans-29" transform="translate(1301.757812 0)"/>
     </g>
    </g>
    <g id="patch_12">
     <path d="M 311.785937 53.154687 
L 331.785937 53.154687 
L 331.785937 46.154687 
L 311.785937 46.154687 
z
" style="fill: #ff0000; opacity: 0.3; stroke: #0000ff; stroke-linejoin: miter"/>
    </g>
    <g id="text_18">
     <!-- Learned region -->
     <g transform="translate(339.785937 53.154687) scale(0.1 -0.1)">
      <defs>
       <path id="DejaVuSans-4c" d="M 628 4666 
L 1259 4666 
L 1259 531 
L 3531 531 
L 3531 0 
L 628 0 
L 628 4666 
z
" transform="scale(0.015625)"/>
       <path id="DejaVuSans-64" d="M 2906 2969 
L 2906 4863 
L 3481 4863 
L 3481 0 
L 2906 0 
L 2906 525 
Q 2725 213 2448 61 
Q 2172 -91 1784 -91 
Q 1150 -91 751 415 
Q 353 922 353 1747 
Q 353 2572 751 3078 
Q 1150 3584 1784 3584 
Q 2172 3584 2448 3432 
Q 2725 3281 2906 2969 
z
M 947 1747 
Q 947 1113 1208 752 
Q 1469 391 1925 391 
Q 2381 391 2643 752 
Q 2906 1113 2906 1747 
Q 2906 2381 2643 2742 
Q 2381 3103 1925 3103 
Q 1469 3103 1208 2742 
Q 947 2381 947 1747 
z
" transform="scale(0.015625)"/>
      </defs>
      <use xlink:href="#DejaVuSans-4c"/>
      <use xlink:href="#DejaVuSans-65" transform="translate(53.962891 0)"/>
      <use xlink:href="#DejaVuSans-61" transform="translate(115.486328 0)"/>
      <use xlink:href="#DejaVuSans-72" transform="translate(176.765625 0)"/>
      <use xlink:href="#DejaVuSans-6e" transform="translate(216.128906 0)"/>
      <use xlink:href="#DejaVuSans-65" transform="translate(279.507812 0)"/>
      <use xlink:href="#DejaVuSans-64" transform="translate(341.03125 0)"/>
      <use xlink:href="#DejaVuSans-20" transform="translate(404.507812 0)"/>
      <use xlink:href="#DejaVuSans-72" transform="translate(436.294922 0)"/>
      <use xlink:href="#DejaVuSans-65" transform="translate(475.158203 0)"/>
      <use xlink:href="#DejaVuSans-67" transform="translate(536.681641 0)"/>
      <use xlink:href="#DejaVuSans-69" transform="translate(600.158203 0)"/>
      <use xlink:href="#DejaVuSans-6f" transform="translate(627.941406 0)"/>
      <use xlink:href="#DejaVuSans-6e" transform="translate(689.123047 0)"/>
     </g>
    </g>
   </g>
  </g>
 </g>
 <defs>
  <clipPath id="p25cb61a0c9">
   <rect x="36.465625" y="7.2" width="446.4" height="443.52"/>
  </clipPath>
 </defs>
</svg>
